<svg width="75" height="74" viewBox="0 0 75 74" fill="none" xmlns="http://www.w3.org/2000/svg">
<path d="M14.1619 73.1905L38.1581 72.7716L25.9519 60.795L14.1619 73.1905Z" fill="#41240F"/>
<path d="M14.1619 73.1905L38.1581 72.7716L25.9519 60.795L14.1619 73.1905Z" fill="#41240F"/>
<path d="M62.1542 72.3526L49.9481 60.376L38.158 72.7715L62.1542 72.3526Z" fill="#41240F"/>
<path d="M62.1542 72.3526L49.9481 60.376L38.158 72.7715L62.1542 72.3526Z" fill="#41240F"/>
<path d="M1.95099 61.2138L25.947 60.795L13.7409 48.8182L1.95099 61.2138Z" fill="#41240F"/>
<path d="M1.95099 61.2138L25.947 60.795L13.7409 48.8182L1.95099 61.2138Z" fill="#41240F"/>
<path d="M37.7371 48.3994L25.9471 60.795L25.9518 60.7949L49.9433 60.3761L37.7371 48.3994Z" fill="#41240F"/>
<path d="M37.7371 48.3994L25.9471 60.795L25.9518 60.7949L49.9433 60.3761L37.7371 48.3994Z" fill="#41240F"/>
<path d="M61.7332 47.9806L49.9432 60.3762L49.9479 60.3761L73.9393 59.9574L61.7332 47.9806Z" fill="#41240F"/>
<path d="M61.7332 47.9806L49.9432 60.3762L49.9479 60.3761L73.9393 59.9574L61.7332 47.9806Z" fill="#41240F"/>
<path d="M60.8965 0.363739L36.9004 0.782593L49.1066 12.7592L60.8965 0.363739Z" fill="#41240F"/>
<path d="M60.8965 0.363739L36.9004 0.782593L49.1066 12.7592L60.8965 0.363739Z" fill="#41240F"/>
<path d="M12.9043 1.20148L25.1104 13.1781L36.9004 0.782623L12.9043 1.20148Z" fill="#41240F"/>
<path d="M12.9043 1.20148L25.1104 13.1781L36.9004 0.782623L12.9043 1.20148Z" fill="#41240F"/>
<path d="M73.1075 12.3402L49.1113 12.7591L61.3175 24.7359L73.1075 12.3402Z" fill="#41240F"/>
<path d="M73.1075 12.3402L49.1113 12.7591L61.3175 24.7359L73.1075 12.3402Z" fill="#41240F"/>
<path d="M37.3216 25.1547L49.1115 12.7591L49.1069 12.7592L25.1152 13.178L37.3216 25.1547Z" fill="#41240F"/>
<path d="M37.3216 25.1547L49.1115 12.7591L49.1069 12.7592L25.1152 13.178L37.3216 25.1547Z" fill="#41240F"/>
<path d="M13.3252 25.5736L25.1152 13.1779L25.1106 13.178L1.11914 13.5968L13.3252 25.5736Z" fill="#41240F"/>
<path d="M13.3252 25.5736L25.1152 13.1779L25.1106 13.178L1.11914 13.5968L13.3252 25.5736Z" fill="#41240F"/>
<path d="M25.4832 34.1906C28.1286 34.1445 30.2352 31.9297 30.1883 29.2439C30.1414 26.5581 27.9588 24.4182 25.3134 24.4644C22.668 24.5105 20.5614 26.7253 20.6083 29.4111C20.6552 32.097 22.8378 34.2368 25.4832 34.1906Z" fill="#41240F"/>
<path d="M25.4832 34.1906C28.1286 34.1445 30.2352 31.9297 30.1883 29.2439C30.1414 26.5581 27.9588 24.4182 25.3134 24.4644C22.668 24.5105 20.5614 26.7253 20.6083 29.4111C20.6552 32.097 22.8378 34.2368 25.4832 34.1906Z" fill="#41240F"/>
<path d="M25.7351 48.6089C28.3806 48.5627 30.4871 46.3479 30.4402 43.6621C30.3933 40.9763 28.2108 38.8364 25.5654 38.8826C22.9199 38.9288 20.8134 41.1435 20.8603 43.8293C20.9072 46.5152 23.0897 48.655 25.7351 48.6089Z" fill="#41240F"/>
<path d="M25.7351 48.6089C28.3806 48.5627 30.4871 46.3479 30.4402 43.6621C30.3933 40.9763 28.2108 38.8364 25.5654 38.8826C22.9199 38.9288 20.8134 41.1435 20.8603 43.8293C20.9072 46.5152 23.0897 48.655 25.7351 48.6089Z" fill="#41240F"/>
<path d="M49.4793 33.7716C52.1247 33.7254 54.2313 31.5107 54.1844 28.8248C54.1375 26.139 51.9549 23.9991 49.3095 24.0453C46.6641 24.0915 44.5575 26.3062 44.6044 28.992C44.6513 31.6779 46.8339 33.8178 49.4793 33.7716Z" fill="#41240F"/>
<path d="M49.4793 33.7716C52.1247 33.7254 54.2313 31.5107 54.1844 28.8248C54.1375 26.139 51.9549 23.9991 49.3095 24.0453C46.6641 24.0915 44.5575 26.3062 44.6044 28.992C44.6513 31.6779 46.8339 33.8178 49.4793 33.7716Z" fill="#41240F"/>
<path d="M49.7312 48.1898C52.3767 48.1437 54.4832 45.9289 54.4363 43.2431C54.3894 40.5573 52.2069 38.4174 49.5615 38.4636C46.916 38.5097 44.8095 40.7245 44.8564 43.4103C44.9033 46.0962 47.0858 48.236 49.7312 48.1898Z" fill="#41240F"/>
<path d="M49.7312 48.1898C52.3767 48.1437 54.4832 45.9289 54.4363 43.2431C54.3894 40.5573 52.2069 38.4174 49.5615 38.4636C46.916 38.5097 44.8095 40.7245 44.8564 43.4103C44.9033 46.0962 47.0858 48.236 49.7312 48.1898Z" fill="#41240F"/>
</svg>
