<svg width="72" height="73" viewBox="0 0 72 73" fill="none" xmlns="http://www.w3.org/2000/svg">
<path d="M-0.000342369 12.8019L-0.000343418 36.8017L12.1875 24.8064L-0.000342369 12.8019Z" fill="#FE6375"/>
<path d="M-0.000342369 12.8019L-0.000343418 36.8017L12.1875 24.8064L-0.000342369 12.8019Z" fill="#FE6375"/>
<path d="M-0.000343418 60.8017L12.1875 48.8065L-0.000342369 36.8019L-0.000343418 60.8017Z" fill="#FE6375"/>
<path d="M-0.000343418 60.8017L12.1875 48.8065L-0.000342369 36.8019L-0.000343418 60.8017Z" fill="#FE6375"/>
<path d="M12.187 0.801879L12.187 24.8016L24.375 12.8064L12.187 0.801879Z" fill="#FE6375"/>
<path d="M12.187 0.801879L12.187 24.8016L24.375 12.8064L12.187 0.801879Z" fill="#FE6375"/>
<path d="M24.375 36.8065L12.187 24.8019L12.187 24.8066L12.187 48.8018L24.375 36.8065Z" fill="#FE6375"/>
<path d="M24.375 36.8065L12.187 24.8019L12.187 24.8066L12.187 48.8018L24.375 36.8065Z" fill="#FE6375"/>
<path d="M24.375 60.8065L12.187 48.8019L12.187 48.8066L12.187 72.8017L24.375 60.8065Z" fill="#FE6375"/>
<path d="M24.375 60.8065L12.187 48.8019L12.187 48.8066L12.187 72.8017L24.375 60.8065Z" fill="#FE6375"/>
<path d="M72 60.8017L72 36.8019L59.8122 48.7972L72 60.8017Z" fill="#FE6375"/>
<path d="M72 60.8017L72 36.8019L59.8122 48.7972L72 60.8017Z" fill="#FE6375"/>
<path d="M72 12.8019L59.8122 24.7971L72 36.8017L72 12.8019Z" fill="#FE6375"/>
<path d="M72 12.8019L59.8122 24.7971L72 36.8017L72 12.8019Z" fill="#FE6375"/>
<path d="M59.8125 72.8017L59.8125 48.8019L47.6245 60.7972L59.8125 72.8017Z" fill="#FE6375"/>
<path d="M59.8125 72.8017L59.8125 48.8019L47.6245 60.7972L59.8125 72.8017Z" fill="#FE6375"/>
<path d="M47.6245 36.7973L59.8125 48.8018L59.8125 48.7972L59.8125 24.8019L47.6245 36.7973Z" fill="#FE6375"/>
<path d="M47.6245 36.7973L59.8125 48.8018L59.8125 48.7972L59.8125 24.8019L47.6245 36.7973Z" fill="#FE6375"/>
<path d="M47.6245 12.7971L59.8125 24.8016L59.8125 24.797L59.8125 0.80188L47.6245 12.7971Z" fill="#FE6375"/>
<path d="M47.6245 12.7971L59.8125 24.8016L59.8125 24.797L59.8125 0.80188L47.6245 12.7971Z" fill="#FE6375"/>
<path d="M38.7957 24.8023C38.7957 27.4481 40.9733 29.593 43.6596 29.593C46.3458 29.593 48.5234 27.4481 48.5234 24.8023C48.5234 22.1565 46.3458 20.0116 43.6596 20.0116C40.9733 20.0116 38.7957 22.1565 38.7957 24.8023Z" fill="#FE6375"/>
<path d="M38.7957 24.8023C38.7957 27.4481 40.9733 29.593 43.6596 29.593C46.3458 29.593 48.5234 27.4481 48.5234 24.8023C48.5234 22.1565 46.3458 20.0116 43.6596 20.0116C40.9733 20.0116 38.7957 22.1565 38.7957 24.8023Z" fill="#FE6375"/>
<path d="M24.3758 24.8023C24.3758 27.4481 26.5534 29.593 29.2396 29.593C31.9259 29.593 34.1035 27.4481 34.1035 24.8023C34.1035 22.1565 31.9259 20.0116 29.2396 20.0116C26.5534 20.0116 24.3758 22.1565 24.3758 24.8023Z" fill="#FE6375"/>
<path d="M24.3758 24.8023C24.3758 27.4481 26.5534 29.593 29.2396 29.593C31.9259 29.593 34.1035 27.4481 34.1035 24.8023C34.1035 22.1565 31.9259 20.0116 29.2396 20.0116C26.5534 20.0116 24.3758 22.1565 24.3758 24.8023Z" fill="#FE6375"/>
<path d="M38.7957 48.8023C38.7957 51.4481 40.9733 53.593 43.6596 53.593C46.3458 53.593 48.5234 51.4481 48.5234 48.8023C48.5234 46.1565 46.3458 44.0116 43.6596 44.0116C40.9733 44.0116 38.7957 46.1565 38.7957 48.8023Z" fill="#FE6375"/>
<path d="M38.7957 48.8023C38.7957 51.4481 40.9733 53.593 43.6596 53.593C46.3458 53.593 48.5234 51.4481 48.5234 48.8023C48.5234 46.1565 46.3458 44.0116 43.6596 44.0116C40.9733 44.0116 38.7957 46.1565 38.7957 48.8023Z" fill="#FE6375"/>
<path d="M24.3758 48.8023C24.3758 51.4481 26.5534 53.593 29.2396 53.593C31.9259 53.593 34.1035 51.4481 34.1035 48.8023C34.1035 46.1565 31.9259 44.0116 29.2396 44.0116C26.5534 44.0116 24.3758 46.1565 24.3758 48.8023Z" fill="#FE6375"/>
<path d="M24.3758 48.8023C24.3758 51.4481 26.5534 53.593 29.2396 53.593C31.9259 53.593 34.1035 51.4481 34.1035 48.8023C34.1035 46.1565 31.9259 44.0116 29.2396 44.0116C26.5534 44.0116 24.3758 46.1565 24.3758 48.8023Z" fill="#FE6375"/>
</svg>
