<svg width="75" height="74" viewBox="0 0 75 74" fill="none" xmlns="http://www.w3.org/2000/svg">
<path d="M12.8986 72.6525L36.8948 73.0714L25.114 60.6761L12.8986 72.6525Z" fill="#FFB93E"/>
<path d="M12.8986 72.6525L36.8948 73.0714L25.114 60.6761L12.8986 72.6525Z" fill="#FFB93E"/>
<path d="M60.8909 73.4901L49.1102 61.0948L36.8947 73.0712L60.8909 73.4901Z" fill="#FFB93E"/>
<path d="M60.8909 73.4901L49.1102 61.0948L36.8947 73.0712L60.8909 73.4901Z" fill="#FFB93E"/>
<path d="M1.11151 60.2571L25.1075 60.676L13.3269 48.2806L1.11151 60.2571Z" fill="#FFB93E"/>
<path d="M1.11151 60.2571L25.1075 60.676L13.3269 48.2806L1.11151 60.2571Z" fill="#FFB93E"/>
<path d="M37.325 48.6993L25.1096 60.6758L25.1143 60.6759L49.1058 61.0947L37.325 48.6993Z" fill="#FFB93E"/>
<path d="M37.325 48.6993L25.1096 60.6758L25.1143 60.6759L49.1058 61.0947L37.325 48.6993Z" fill="#FFB93E"/>
<path d="M61.3211 49.1182L49.1057 61.0948L49.1103 61.0949L73.1018 61.5136L61.3211 49.1182Z" fill="#FFB93E"/>
<path d="M61.3211 49.1182L49.1057 61.0948L49.1103 61.0949L73.1018 61.5136L61.3211 49.1182Z" fill="#FFB93E"/>
<path d="M62.1465 1.50113L38.1504 1.08228L49.9312 13.4776L62.1465 1.50113Z" fill="#FFB93E"/>
<path d="M62.1465 1.50113L38.1504 1.08228L49.9312 13.4776L62.1465 1.50113Z" fill="#FFB93E"/>
<path d="M14.1543 0.663574L25.935 13.0589L38.1504 1.08243L14.1543 0.663574Z" fill="#FFB93E"/>
<path d="M14.1543 0.663574L25.935 13.0589L38.1504 1.08243L14.1543 0.663574Z" fill="#FFB93E"/>
<path d="M73.9317 13.8966L49.9355 13.4778L61.7163 25.8732L73.9317 13.8966Z" fill="#FFB93E"/>
<path d="M73.9317 13.8966L49.9355 13.4778L61.7163 25.8732L73.9317 13.8966Z" fill="#FFB93E"/>
<path d="M37.7204 25.4543L49.9357 13.4777L49.9311 13.4776L25.9395 13.0588L37.7204 25.4543Z" fill="#FFB93E"/>
<path d="M37.7204 25.4543L49.9357 13.4777L49.9311 13.4776L25.9395 13.0588L37.7204 25.4543Z" fill="#FFB93E"/>
<path d="M13.724 25.0356L25.9394 13.059L25.9348 13.0589L1.94336 12.6401L13.724 25.0356Z" fill="#FFB93E"/>
<path d="M13.724 25.0356L25.9394 13.059L25.9348 13.0589L1.94336 12.6401L13.724 25.0356Z" fill="#FFB93E"/>
<path d="M25.5733 34.0716C28.2188 34.1178 30.4013 31.9779 30.4482 29.2921C30.4951 26.6062 28.3885 24.3915 25.7431 24.3453C23.0977 24.2992 20.9151 26.439 20.8682 29.1249C20.8214 31.8107 22.9279 34.0254 25.5733 34.0716Z" fill="#FFB93E"/>
<path d="M25.5733 34.0716C28.2188 34.1178 30.4013 31.9779 30.4482 29.2921C30.4951 26.6062 28.3885 24.3915 25.7431 24.3453C23.0977 24.2992 20.9151 26.439 20.8682 29.1249C20.8214 31.8107 22.9279 34.0254 25.5733 34.0716Z" fill="#FFB93E"/>
<path d="M25.3214 48.4898C27.9668 48.536 30.1494 46.3961 30.1962 43.7103C30.2431 41.0245 28.1366 38.8097 25.4911 38.7635C22.8457 38.7174 20.6632 40.8572 20.6163 43.5431C20.5694 46.2289 22.6759 48.4436 25.3214 48.4898Z" fill="#FFB93E"/>
<path d="M25.3214 48.4898C27.9668 48.536 30.1494 46.3961 30.1962 43.7103C30.2431 41.0245 28.1366 38.8097 25.4911 38.7635C22.8457 38.7174 20.6632 40.8572 20.6163 43.5431C20.5694 46.2289 22.6759 48.4436 25.3214 48.4898Z" fill="#FFB93E"/>
<path d="M49.5694 34.4903C52.2149 34.5365 54.3974 32.3966 54.4443 29.7108C54.4912 27.0249 52.3846 24.8102 49.7392 24.764C47.0938 24.7179 44.9112 26.8577 44.8643 29.5436C44.8175 32.2294 46.924 34.4441 49.5694 34.4903Z" fill="#FFB93E"/>
<path d="M49.5694 34.4903C52.2149 34.5365 54.3974 32.3966 54.4443 29.7108C54.4912 27.0249 52.3846 24.8102 49.7392 24.764C47.0938 24.7179 44.9112 26.8577 44.8643 29.5436C44.8175 32.2294 46.924 34.4441 49.5694 34.4903Z" fill="#FFB93E"/>
<path d="M49.3175 48.9085C51.9629 48.9547 54.1454 46.8148 54.1923 44.129C54.2392 41.4432 52.1327 39.2284 49.4872 39.1822C46.8418 39.1361 44.6593 41.2759 44.6124 43.9618C44.5655 46.6476 46.672 48.8623 49.3175 48.9085Z" fill="#FFB93E"/>
<path d="M49.3175 48.9085C51.9629 48.9547 54.1454 46.8148 54.1923 44.129C54.2392 41.4432 52.1327 39.2284 49.4872 39.1822C46.8418 39.1361 44.6593 41.2759 44.6124 43.9618C44.5655 46.6476 46.672 48.8623 49.3175 48.9085Z" fill="#FFB93E"/>
</svg>
