<svg width="111" height="19" viewBox="0 0 111 19" fill="none" xmlns="http://www.w3.org/2000/svg">
<path d="M54.338 17.8451C54.6016 18.1086 54.9468 18.2404 55.2921 18.2404C55.6373 18.2404 55.9826 18.1086 56.2461 17.8451L64.0169 10.0742C64.5441 9.54713 64.5441 8.69328 64.0169 8.16616L56.2461 0.395339C55.719 -0.13178 54.8652 -0.13178 54.338 0.395339L46.5672 8.16616C46.0401 8.69328 46.0401 9.54713 46.5672 10.0742L54.338 17.8451ZM55.2921 3.25747L61.1548 9.1202L55.2921 14.9829L49.4293 9.1202L55.2921 3.25747Z" fill="#FFB93E"/>
<path d="M100.789 17.8451C101.053 18.1086 101.398 18.2404 101.743 18.2404C102.088 18.2404 102.434 18.1086 102.697 17.8451L110.468 10.0742C110.995 9.54713 110.995 8.69328 110.468 8.16616L102.697 0.395339C102.17 -0.13178 101.316 -0.13178 100.789 0.395339L93.0184 8.16616C92.4913 8.69328 92.4913 9.54713 93.0184 10.0742L100.789 17.8451ZM101.743 3.25747L107.606 9.1202L101.743 14.9829L95.8805 9.1202L101.743 3.25747Z" fill="#FFB93E"/>
<path d="M17.8451 8.16616L10.0742 0.395339C9.54713 -0.13178 8.69328 -0.13178 8.16616 0.395339L0.395339 8.16616C-0.13178 8.69328 -0.13178 9.54713 0.395339 10.0742L8.16616 17.8451C8.42972 18.1086 8.77496 18.2404 9.1202 18.2404C9.46545 18.2404 9.81069 18.1086 10.0742 17.8451L17.8451 10.0742C18.3722 9.54713 18.3722 8.69328 17.8451 8.16616ZM9.1202 14.9829L3.25747 9.1202L9.1202 3.25747L14.9828 9.1202L9.1202 14.9829Z" fill="#FFB93E"/>
<path d="M39.0479 3.1306V14.1281C39.0479 14.8703 38.4406 15.4775 37.6985 15.4775H26.7146C25.959 15.4775 25.3652 14.8703 25.3652 14.1281V3.1306C25.3652 2.38849 25.959 1.78122 26.7146 1.78122H37.6985C38.4406 1.78122 39.0479 2.38849 39.0479 3.1306Z" fill="#FFB93E"/>
<path d="M84.9307 3.1306V14.1281C84.9307 14.8703 84.3234 15.4775 83.5813 15.4775H72.5974C71.8418 15.4775 71.248 14.8703 71.248 14.1281V3.1306C71.248 2.38849 71.8418 1.78122 72.5974 1.78122H83.5813C84.3234 1.78122 84.9307 2.38849 84.9307 3.1306Z" fill="#FFB93E"/>
</svg>
