<svg width="112" height="21" viewBox="0 0 112 21" fill="none" xmlns="http://www.w3.org/2000/svg">
<path d="M54.9236 19.2811C55.1917 19.54 55.5392 19.6657 55.8844 19.6597C56.2296 19.6537 56.5725 19.5159 56.8314 19.2478L64.4654 11.3425C64.9833 10.8063 64.9684 9.95255 64.4321 9.43471L56.5269 1.8007C55.9906 1.28286 55.1369 1.29776 54.6191 1.834L46.9851 9.73925C46.4672 10.2755 46.4821 11.1292 47.0184 11.6471L54.9236 19.2811ZM55.6229 4.67905L61.5871 10.4386L55.8276 16.4027L49.8634 10.6432L55.6229 4.67905Z" fill="#41240F"/>
<path d="M101.367 18.4704C101.635 18.7293 101.983 18.8551 102.328 18.849C102.673 18.843 103.016 18.7052 103.275 18.4371L110.909 10.5318C111.427 9.99561 111.412 9.14188 110.875 8.62404L102.97 0.990027C102.434 0.472189 101.58 0.487091 101.062 1.02333L93.4284 8.92858C92.9106 9.46482 92.9255 10.3185 93.4617 10.8364L101.367 18.4704ZM102.066 3.86838L108.03 9.62789L102.271 15.5921L96.3068 9.83253L102.066 3.86838Z" fill="#41240F"/>
<path d="M18.2661 10.2406L10.3609 2.60654C9.82463 2.08871 8.9709 2.10361 8.45307 2.63984L0.819048 10.5451C0.301209 11.0813 0.316111 11.9351 0.852348 12.4529L8.75761 20.0869C9.02572 20.3458 9.37321 20.4716 9.7184 20.4655C10.0636 20.4595 10.4065 20.3217 10.6654 20.0536L18.2994 12.1484C18.8173 11.6121 18.8024 10.7584 18.2661 10.2406ZM9.66155 17.2086L3.6974 11.449L9.45692 5.48489L15.4209 11.2444L9.66155 17.2086Z" fill="#41240F"/>
<path d="M39.378 4.83572L39.5699 15.8316C39.5829 16.5736 38.9863 17.1914 38.2443 17.2043L27.262 17.396C26.5065 17.4092 25.9023 16.8124 25.8893 16.0704L25.6974 5.07452C25.6844 4.33252 26.2675 3.71498 27.023 3.70179L38.0052 3.5101C38.7472 3.49714 39.365 4.09373 39.378 4.83572Z" fill="#41240F"/>
<path d="M85.2549 4.03494L85.4469 15.0308C85.4598 15.7728 84.8632 16.3906 84.1212 16.4035L73.139 16.5952C72.3835 16.6084 71.7792 16.0116 71.7663 15.2696L71.5743 4.27374C71.5614 3.53174 72.1445 2.9142 72.9 2.90101L83.8822 2.70931C84.6242 2.69636 85.242 3.29294 85.2549 4.03494Z" fill="#41240F"/>
</svg>
