<svg width="111" height="20" viewBox="0 0 111 20" fill="none" xmlns="http://www.w3.org/2000/svg">
<path d="M54.338 18.6468C54.6016 18.9104 54.9468 19.0422 55.2921 19.0422C55.6373 19.0422 55.9826 18.9104 56.2461 18.6468L64.0169 10.876C64.5441 10.3489 64.5441 9.49503 64.0169 8.96792L56.2461 1.1971C55.719 0.669978 54.8652 0.669978 54.338 1.1971L46.5672 8.96792C46.0401 9.49503 46.0401 10.3489 46.5672 10.876L54.338 18.6468ZM55.2921 4.05923L61.1548 9.92196L55.2921 15.7847L49.4293 9.92196L55.2921 4.05923Z" fill="#FE6375"/>
<path d="M100.789 18.6468C101.053 18.9104 101.398 19.0422 101.743 19.0422C102.088 19.0422 102.434 18.9104 102.697 18.6468L110.468 10.876C110.995 10.3489 110.995 9.49503 110.468 8.96792L102.697 1.1971C102.17 0.669978 101.316 0.669978 100.789 1.1971L93.0184 8.96792C92.4913 9.49503 92.4913 10.3489 93.0184 10.876L100.789 18.6468ZM101.743 4.05923L107.606 9.92196L101.743 15.7847L95.8805 9.92196L101.743 4.05923Z" fill="#FE6375"/>
<path d="M17.8451 8.96791L10.0742 1.1971C9.54713 0.669978 8.69328 0.669978 8.16616 1.1971L0.395339 8.96791C-0.13178 9.49503 -0.13178 10.3489 0.395339 10.876L8.16616 18.6468C8.42972 18.9104 8.77496 19.0422 9.1202 19.0422C9.46545 19.0422 9.81069 18.9104 10.0742 18.6468L17.8451 10.876C18.3722 10.3489 18.3722 9.49503 17.8451 8.96791ZM9.1202 15.7847L3.25747 9.92196L9.1202 4.05923L14.9828 9.92196L9.1202 15.7847Z" fill="#FE6375"/>
<path d="M39.0479 3.93239V14.9299C39.0479 15.672 38.4406 16.2793 37.6985 16.2793H26.7146C25.959 16.2793 25.3652 15.672 25.3652 14.9299V3.93239C25.3652 3.19028 25.959 2.58301 26.7146 2.58301H37.6985C38.4406 2.58301 39.0479 3.19028 39.0479 3.93239Z" fill="#FE6375"/>
<path d="M84.9307 3.93239V14.9299C84.9307 15.672 84.3234 16.2793 83.5813 16.2793H72.5974C71.8418 16.2793 71.248 15.672 71.248 14.9299V3.93239C71.248 3.19028 71.8418 2.58301 72.5974 2.58301H83.5813C84.3234 2.58301 84.9307 3.19028 84.9307 3.93239Z" fill="#FE6375"/>
</svg>
