<?xml version="1.0" encoding="utf-8"?>
<!-- Generator: Adobe Illustrator 27.1.1, SVG Export Plug-In . SVG Version: 6.00 Build 0)  -->
<svg version="1.1" id="Layer_4" xmlns="http://www.w3.org/2000/svg" xmlns:xlink="http://www.w3.org/1999/xlink" x="0px" y="0px"
	 viewBox="0 0 1500 1500" style="enable-background:new 0 0 1500 1500;" xml:space="preserve">
<style type="text/css">
	.st0{fill:#FFFFFF;} 
</style>
<g>
	<g>
		<path class="st0" d="M578.2,599.7H471c-11.9,0-21.5,9.6-21.5,21.5V750v128.7c0,11.9,9.6,21.5,21.5,21.5h107.2
			c11.9,0,21.5-9.6,21.5-21.5V750V621.3C599.7,609.4,590.1,599.7,578.2,599.7z"/>
	</g>
	<g>
		<path class="st0" d="M951.2,390.7l136.5,0c11.9,0,21.5,9.6,21.5,21.5v136.5c0,11.9-9.6,21.5-21.5,21.5l-136.5,0
			c-11.9,0-21.5-9.6-21.5-21.5l0-136.5C929.6,400.4,939.3,390.7,951.2,390.7z"/>
	</g>
	<g>
		<path class="st0" d="M412.3,929.6l136.5,0c11.9,0,21.5,9.6,21.5,21.5l0,136.5c0,11.9-9.6,21.5-21.5,21.5l-136.5,0
			c-11.9,0-21.5-9.6-21.5-21.5l0-136.5C390.7,939.3,400.4,929.6,412.3,929.6z"/>
	</g>
	<g>
		<path class="st0" d="M390.7,548.8V412.3c0-11.9,9.6-21.5,21.5-21.5h136.5c11.9,0,21.5,9.6,21.5,21.5v136.5
			c0,11.9-9.6,21.5-21.5,21.5H412.3C400.4,570.4,390.7,560.7,390.7,548.8z"/>
	</g>
	<g>
		<path class="st0" d="M878.7,449.5H750H621.3c-11.9,0-21.5,9.6-21.5,21.5v107.2c0,11.9,9.6,21.5,21.5,21.5H750h128.7
			c11.9,0,21.5-9.6,21.5-21.5V471C900.3,459.1,890.6,449.5,878.7,449.5z"/>
	</g>
	<g>
		<path class="st0" d="M878.7,900.3H750H621.3c-11.9,0-21.5,9.6-21.5,21.5V1029c0,11.9,9.6,21.5,21.5,21.5H750h128.7
			c11.9,0,21.5-9.6,21.5-21.5V921.8C900.3,909.9,890.6,900.3,878.7,900.3z"/>
	</g>
	<g>
		<path class="st0" d="M929.6,1087.7V951.2c0-11.9,9.6-21.5,21.5-21.5h136.5c11.9,0,21.5,9.6,21.5,21.5v136.5
			c0,11.9-9.6,21.5-21.5,21.5H951.2C939.3,1109.3,929.6,1099.6,929.6,1087.7z"/>
	</g>
	<g>
		<path class="st0" d="M1029,599.7H921.8c-11.9,0-21.5,9.6-21.5,21.5V750v128.7c0,11.9,9.6,21.5,21.5,21.5H1029
			c11.9,0,21.5-9.6,21.5-21.5V750V621.3C1050.5,609.4,1040.9,599.7,1029,599.7z"/>
	</g>
</g>
</svg>
