<?xml version="1.0" encoding="UTF-8"?><svg id="Layer_4" xmlns="http://www.w3.org/2000/svg" viewBox="0 0 718.5 718.5"><defs><style>.cls-1{fill:#141414;}</style></defs><path class="cls-1" d="m187.5,209h-107.2c-11.9,0-21.5,9.6-21.5,21.5v257.4c0,11.9,9.6,21.5,21.5,21.5h107.2c11.9,0,21.5-9.6,21.5-21.5V230.6c0-11.9-9.6-21.5-21.5-21.5Z"/><rect class="cls-1" x="538.9" y="0" width="179.6" height="179.6" rx="21.5" ry="21.5"/><rect class="cls-1" x="0" y="538.9" width="179.6" height="179.6" rx="21.5" ry="21.5"/><rect class="cls-1" x="0" width="179.6" height="179.6" rx="21.5" ry="21.5"/><path class="cls-1" d="m488,58.8H230.6c-11.9,0-21.5,9.6-21.5,21.5v107.2c0,11.9,9.6,21.5,21.5,21.5h257.4c11.9,0,21.5-9.6,21.5-21.5v-107.2c0-11.9-9.6-21.5-21.5-21.5Z"/><path class="cls-1" d="m488,509.5H230.6c-11.9,0-21.5,9.6-21.5,21.5v107.2c0,11.9,9.6,21.5,21.5,21.5h257.4c11.9,0,21.5-9.6,21.5-21.5v-107.2c0-11.9-9.6-21.5-21.5-21.5Z"/><rect class="cls-1" x="538.9" y="538.9" width="179.6" height="179.6" rx="21.5" ry="21.5"/><path class="cls-1" d="m638.2,209h-107.2c-11.9,0-21.5,9.6-21.5,21.5v257.4c0,11.9,9.6,21.5,21.5,21.5h107.2c11.9,0,21.5-9.6,21.5-21.5V230.6c0-11.9-9.6-21.5-21.5-21.5Z"/></svg>