<svg width="163" height="230" viewBox="0 0 163 230" fill="none" xmlns="http://www.w3.org/2000/svg">
<path d="M22.418 200.981C16.6549 201.336 11.9479 199.91 7.66228 196.979C6.15166 195.947 5.16668 194.526 4.55107 192.85C4.00176 191.349 4.57475 190.33 6.15166 190.079C8.02691 189.776 9.71747 190.392 10.8303 191.884C13.0323 194.82 16.1151 195.009 19.6714 193.735C20.3628 193.489 21.0684 193.148 21.1678 192.348C21.272 191.519 20.538 191.159 19.984 190.709C19.0748 189.966 17.9619 189.781 16.8822 189.544C13.7142 188.858 10.8256 187.579 8.30158 185.538C6.24639 183.876 4.74998 181.849 4.68368 179.084C4.60791 175.821 5.7018 173.108 8.69935 171.497C13.5579 168.888 20.9169 169.333 25.103 173.117C26.1353 174.05 26.8457 175.201 27.2955 176.484C27.7786 177.857 27.3145 178.624 25.8891 178.942C24.942 179.155 23.9949 179.065 23.0573 178.757C21.6793 178.307 20.4433 177.602 19.1979 176.886C17.37 175.835 15.4332 175.669 13.4537 176.489C12.786 176.768 12.0189 177.071 12.0331 177.914C12.0473 178.88 12.9044 179.15 13.6668 179.401C14.0457 179.529 14.4387 179.614 14.827 179.68C18.2034 180.244 21.5656 181.049 24.9657 181.3C30.2599 181.688 35.3079 189.753 33.267 194.483C33.016 195.066 32.8313 195.682 32.6419 196.288C31.7184 199.238 29.5922 200.692 26.6326 200.952C25.0509 201.094 23.4456 200.976 22.4085 200.976L22.418 200.981Z" fill="#41240F"/>
<path d="M46.3555 172.08C51.3372 171.966 55.4334 173.733 57.8911 178.179C61.1869 184.146 60.2967 190.998 54.3537 195.847C51.8392 197.898 48.9505 199.048 45.7399 198.764C40.1994 198.277 35.4686 194.45 34.2327 189.061C33.6076 186.338 33.5271 183.62 34.2706 180.921C35.8617 175.106 40.0052 172.094 46.3602 172.075L46.3555 172.08ZM51.5929 185.642C51.3182 183.933 51.4603 182.162 51.001 180.438C50.5511 178.757 49.4525 177.72 47.8566 177.351C44.5276 176.579 41.4637 178.454 40.6966 181.077C40.0052 183.421 39.8868 185.756 40.2704 188.157C40.7581 191.202 42.3493 192.746 45.4084 193.053C46.3365 193.148 47.2457 193.006 48.136 192.845C50.57 192.4 51.5834 191.121 51.6876 188.607C51.7302 187.617 51.3182 186.656 51.5929 185.642Z" fill="#41240F"/>
<path d="M62.3977 184.885C62.3977 181.636 62.3835 178.383 62.4024 175.134C62.4119 173.411 62.9896 172.653 64.6802 172.426C65.7883 172.274 66.9579 172.255 68.0566 172.435C69.5246 172.677 70.6043 173.463 71.0162 175.073C71.5371 177.118 72.2285 179.126 72.8536 181.148C73.0193 181.688 73.1898 182.223 73.384 182.754C73.616 183.398 74.0517 183.852 74.7667 183.895C75.567 183.947 75.8985 183.322 76.0832 182.73C76.8977 180.083 78.2852 177.691 79.327 175.148C80.0373 173.411 81.2211 172.568 83.0064 172.482C84.4129 172.411 85.8383 172.312 87.2352 172.449C90.3227 172.757 92.4158 175.096 92.5863 178.264C92.7804 181.996 92.9556 185.718 93.5523 189.426C94.22 193.603 92.2643 196.117 88.0355 196.946C86.9274 197.164 85.8288 197.471 84.6828 197.325C83.1059 197.121 82.4855 196.496 82.3198 194.891C82.2298 194.048 82.2724 193.191 82.1256 192.362C82.0309 191.836 81.8415 191.178 81.2022 191.045C80.5534 190.913 80.1367 191.41 79.881 191.917C79.3506 192.987 78.8013 194.067 78.432 195.203C77.9821 196.581 76.6609 197.552 74.7099 197.296C73.6302 197.154 72.7494 196.69 72.2995 195.525C71.7928 194.213 71.1394 192.954 70.4764 191.708C70.1923 191.173 69.7945 190.506 69.0321 190.738C68.4259 190.918 68.3028 191.562 68.2791 192.139C68.246 193.124 68.1939 194.119 68.2697 195.099C68.3549 196.127 67.8766 196.681 66.9958 197.031C66.186 197.353 65.3574 197.448 64.505 197.287C63.0654 197.017 62.4734 196.325 62.4119 194.843C62.4119 194.772 62.4119 194.701 62.4119 194.63V184.88L62.3977 184.885Z" fill="#41240F"/>
<path d="M108.893 174.306C113.874 174.192 117.97 175.958 120.428 180.405C123.724 186.372 122.834 193.224 116.891 198.073C114.376 200.123 111.488 201.274 108.277 200.99C102.736 200.502 98.0057 196.676 96.7698 191.287C96.1447 188.564 96.0642 185.846 96.8077 183.147C98.3988 177.332 102.542 174.32 108.897 174.301L108.893 174.306ZM114.13 187.868C113.855 186.159 113.997 184.387 113.538 182.664C113.088 180.983 111.99 179.946 110.394 179.576C107.065 178.804 104.001 180.68 103.234 183.303C102.542 185.647 102.424 187.982 102.807 190.383C103.295 193.427 104.886 194.971 107.945 195.279C108.874 195.374 109.783 195.232 110.673 195.071C113.107 194.626 114.121 193.347 114.225 190.832C114.267 189.843 113.855 188.881 114.13 187.868Z" fill="#41240F"/>
<path d="M143.314 199.195C137.883 199.531 133.446 198.187 129.406 195.421C127.981 194.446 127.053 193.11 126.47 191.528C125.949 190.113 126.494 189.156 127.976 188.919C129.747 188.635 131.334 189.213 132.39 190.619C134.464 193.385 137.371 193.565 140.724 192.367C141.377 192.135 142.04 191.813 142.135 191.06C142.235 190.278 141.543 189.937 141.018 189.516C140.16 188.815 139.109 188.64 138.091 188.417C135.103 187.768 132.385 186.566 130.003 184.643C128.066 183.076 126.655 181.167 126.593 178.558C126.522 175.485 127.55 172.928 130.382 171.407C134.961 168.95 141.894 169.366 145.843 172.937C146.819 173.818 147.486 174.902 147.908 176.11C148.362 177.407 147.927 178.127 146.582 178.425C145.687 178.624 144.796 178.539 143.916 178.25C142.618 177.824 141.453 177.161 140.279 176.484C138.555 175.494 136.732 175.338 134.866 176.11C134.236 176.37 133.517 176.659 133.526 177.45C133.54 178.359 134.35 178.615 135.065 178.852C135.42 178.97 135.79 179.055 136.159 179.117C139.341 179.647 142.509 180.41 145.715 180.642C150.702 181.011 155.466 188.611 153.538 193.067C153.301 193.617 153.126 194.195 152.946 194.768C152.08 197.547 150.072 198.916 147.283 199.162C145.791 199.295 144.28 199.186 143.305 199.186L143.314 199.195Z" fill="#41240F"/>
<path d="M0.00430502 224.037C-0.0525206 222.726 0.458895 221.258 1.20236 219.884C2.85031 216.844 4.41303 213.771 5.39327 210.428C5.73422 209.268 6.38296 208.23 7.29691 207.416C8.56127 206.289 9.89196 205.242 11.341 204.357C12.648 203.561 14.0876 203.244 15.6029 203.424C17.2414 203.618 18.5247 204.257 19.0882 206.019C19.6612 207.828 20.5373 209.547 21.0819 211.365C22.1805 215.04 24.1268 218.336 25.5569 221.859C26.1678 223.37 26.5134 224.951 26.8544 226.533C27.0628 227.518 26.6934 228.119 25.8221 228.588C23.2649 229.962 20.3242 228.901 19.2682 226.178C18.4868 224.17 17.5303 223.417 15.2383 223.526C13.5051 223.607 11.7483 223.82 10.1287 224.648C9.30476 225.07 8.62758 225.482 8.72229 226.5C8.82173 227.608 8.10668 227.982 7.24956 228.247C5.57794 228.768 3.89212 228.702 2.24891 228.172C0.539408 227.617 -0.0383096 226.557 0.00904511 224.037H0.00430502ZM13.4104 213.335C11.2605 213.283 10.4602 214.429 11.412 216.191C12.0939 217.46 15.0063 218.398 16.2612 217.758C16.9857 217.389 17.2509 216.849 17.0093 216.03C16.5311 214.382 15.2194 213.378 13.4104 213.335Z" fill="#41240F"/>
<path d="M45.9151 229.18C43.8031 229.346 42.032 228.678 40.6256 227.063C39.8395 226.159 39.0582 225.24 38.2105 224.397C36.5815 222.778 35.8238 222.939 34.8246 224.999C34.3653 225.946 34.0291 227.04 33.172 227.679C31.543 228.896 29.6725 229.123 27.7499 228.47C26.6133 228.082 26.476 227.641 27.139 226.571C28.4839 224.416 29.8808 222.29 31.2494 220.15C31.5903 219.615 31.8982 219.056 32.2438 218.525C33.1909 217.081 33.1814 215.722 32.2864 214.178C30.7285 211.493 29.4452 208.661 27.7925 206.019C27.1248 204.949 27.3758 204.414 28.5691 203.983C30.5343 203.272 32.0876 203.935 33.0915 205.886C33.3803 206.445 33.6787 207.023 34.0859 207.496C35.6676 209.324 38.0022 209.268 39.5696 207.378C40.0621 206.781 40.4457 206.095 40.9145 205.474C42.1504 203.845 44.9444 202.946 46.8291 203.542C48.065 203.935 48.2497 204.442 47.4399 205.493C45.8062 207.62 44.092 209.684 42.4819 211.829C41.2128 213.511 41.2554 214.112 42.5672 215.76C43.931 217.474 45.4416 219.004 47.2458 220.311C49.1731 221.708 50.8305 223.469 52.7626 224.904C54.188 225.965 53.9275 227.4 52.379 228.309C51.8865 228.598 51.3515 228.759 50.7737 228.797C49.1542 228.915 47.5347 229.048 45.9151 229.175V229.18Z" fill="#41240F"/>
<path d="M63.5254 202.287C68.5071 202.174 72.6033 203.94 75.061 208.387C78.3569 214.353 77.4666 221.206 71.5236 226.055C69.009 228.105 66.1204 229.256 62.9098 228.972C57.3693 228.484 52.6385 224.658 51.4026 219.269C50.7775 216.546 50.697 213.828 51.4405 211.129C53.0316 205.313 57.1751 202.302 63.5301 202.283L63.5254 202.287ZM68.7628 215.85C68.4882 214.14 68.6302 212.369 68.1709 210.646C67.721 208.964 66.6224 207.927 65.0265 207.558C61.6975 206.786 58.6337 208.661 57.8665 211.285C57.1751 213.629 57.0567 215.964 57.4403 218.364C57.9281 221.409 59.5192 222.953 62.5783 223.261C63.5065 223.356 64.4156 223.214 65.3059 223.053C67.7399 222.607 68.7533 221.329 68.8575 218.814C68.9001 217.825 68.4882 216.863 68.7628 215.85Z" fill="#41240F"/>
<path d="M86.4553 208.027C86.1143 209.997 86.2895 211.683 86.5973 213.354C86.872 214.827 86.8246 216.309 86.8672 217.791C86.9383 220.069 87.5728 220.836 89.8127 221.196C91.2002 221.419 92.6208 221.457 94.0225 221.613C94.7234 221.693 95.4432 221.764 96.0967 222.001C97.1858 222.394 98.1755 222.981 98.3129 224.303C98.4644 225.756 98.3744 227.134 97.0296 228.105C96.0825 228.787 95.0454 229.209 93.89 229.251C90.0637 229.393 86.2564 229.209 82.5106 228.356C80.0861 227.807 79.4657 226.95 79.191 224.426C78.7128 220.045 78.6938 215.703 79.4752 211.337C79.8304 209.343 79.7262 207.25 79.693 205.205C79.6741 204.096 80.1429 203.5 81.0663 203.088C82.1413 202.61 83.2257 202.491 84.3669 202.818C85.8917 203.254 86.3558 203.755 86.4363 205.323C86.4884 206.308 86.4458 207.302 86.4458 208.022L86.4553 208.027Z" fill="#41240F"/>
<path d="M109.735 205.929C114.224 205.825 117.908 207.421 120.124 211.422C123.093 216.797 122.293 222.967 116.937 227.333C114.669 229.18 112.069 230.217 109.181 229.962C104.189 229.521 99.9274 226.078 98.8146 221.225C98.2558 218.776 98.18 216.328 98.8477 213.894C100.283 208.657 104.014 205.943 109.735 205.929ZM114.451 218.142C114.2 216.603 114.333 215.007 113.916 213.458C113.509 211.948 112.524 211.01 111.084 210.679C108.087 209.983 105.326 211.673 104.634 214.036C104.014 216.148 103.905 218.251 104.251 220.415C104.687 223.157 106.121 224.549 108.877 224.824C109.716 224.909 110.53 224.781 111.335 224.634C113.528 224.232 114.442 223.086 114.536 220.817C114.574 219.927 114.2 219.061 114.451 218.147V218.142Z" fill="#41240F"/>
<path d="M129.676 202.396C132.143 202.396 134.61 202.396 137.082 202.396C138.091 202.396 139.047 202.638 139.942 203.069C140.828 203.49 141.373 204.177 141.358 205.233C141.344 206.251 140.918 206.966 140.023 207.459C139.123 207.956 138.133 207.951 137.163 208.107C134.909 208.467 134.625 208.799 134.336 211.053C134.246 211.754 134.194 212.445 134.284 213.155C134.516 215.045 134.634 216.944 134.445 218.852C134.321 220.121 134.468 221.381 134.691 222.64C135.179 225.392 133.943 227.291 131.262 228.067C129.951 228.446 128.606 228.47 127.275 228.356C125.523 228.209 124.798 227.385 124.732 225.643C124.633 222.962 124.642 220.282 124.983 217.611C125.305 215.083 125.244 212.54 125.021 210.006C124.86 208.23 124.505 207.88 122.791 207.44C121.81 207.189 120.83 207.269 119.864 207.392C118.912 207.515 118.169 207.312 117.752 206.417C117.354 205.56 117.847 203.907 118.642 203.386C119.485 202.837 120.451 202.581 121.441 202.534C124.188 202.401 126.925 202.055 129.685 202.396H129.676Z" fill="#41240F"/>
<path d="M150.133 208.027C149.792 209.997 149.967 211.683 150.275 213.354C150.55 214.827 150.502 216.309 150.545 217.791C150.616 220.069 151.251 220.836 153.49 221.196C154.878 221.419 156.299 221.457 157.7 221.613C158.401 221.693 159.121 221.764 159.774 222.001C160.864 222.394 161.853 222.981 161.991 224.303C162.142 225.756 162.052 227.134 160.707 228.105C159.76 228.787 158.723 229.209 157.568 229.251C153.741 229.393 149.934 229.209 146.188 228.356C143.764 227.807 143.143 226.95 142.869 224.426C142.391 220.045 142.372 215.703 143.153 211.337C143.508 209.343 143.404 207.25 143.371 205.205C143.352 204.096 143.821 203.5 144.744 203.088C145.819 202.61 146.903 202.491 148.045 202.818C149.569 203.254 150.034 203.755 150.114 205.323C150.166 206.308 150.124 207.302 150.124 208.022L150.133 208.027Z" fill="#41240F"/>
<path d="M156.322 55.4193C156.407 55.7271 156.568 56.0396 156.563 56.3522C156.554 57.3656 156.454 58.3742 156.454 59.3876C156.454 60.0127 156.582 60.6378 156.648 61.2628C156.677 61.5517 156.738 61.8453 156.715 62.1294C156.686 62.4562 156.653 62.7498 156.842 63.0576C156.937 63.2139 156.956 63.4838 156.89 63.6543C156.696 64.1657 156.587 64.6298 156.861 65.1791C156.951 65.359 156.696 65.7094 156.573 66.0504C156.947 66.4671 156.909 66.9549 156.483 67.419C157.103 68.0346 156.97 68.7638 156.88 69.4505C156.824 69.8719 156.52 70.2744 157.003 70.6391C157.056 70.677 157.041 70.8758 156.994 70.9611C156.767 71.3589 156.847 71.7424 156.975 72.1497C157.16 72.7511 157.174 73.362 156.985 73.9776C156.918 74.1907 156.909 74.4559 156.97 74.669C157.25 75.6208 157.027 76.53 156.776 77.4392C156.724 77.6286 156.715 77.837 156.715 78.0311C156.738 79.3665 156.734 80.683 156.468 82.0184C156.293 82.8992 156.104 83.8558 156.341 84.8028C156.421 85.1249 156.251 85.499 156.293 85.8399C156.359 86.4034 155.924 86.9717 156.322 87.5352C156.374 87.611 156.298 87.8146 156.232 87.9283C155.919 88.4728 156.033 89.0411 156.09 89.6188C156.203 90.7553 156.464 91.9013 155.995 93.0284C155.924 93.1941 155.966 93.4119 155.971 93.6013C155.981 94.2454 156 94.8847 156.004 95.5287C156.004 95.5808 155.985 95.6613 155.947 95.6897C155.185 96.2911 155.611 97.1198 155.554 97.8443C155.536 98.1142 155.64 98.512 155.829 98.6541C156.298 98.9998 156.251 99.5254 156.464 99.9185C156.421 100.023 156.416 100.094 156.374 100.127C155.029 101.107 155.483 102.547 155.441 103.849C155.412 104.64 155.455 105.431 155.488 106.221C155.512 106.747 155.588 107.273 155.611 107.798C155.649 108.589 155.611 109.385 155.696 110.171C155.796 111.137 155.995 112.093 156.137 113.055C156.184 113.372 156.251 113.703 156.203 114.016C156.127 114.556 156.014 115.067 156.577 115.441C156.658 115.493 156.663 115.707 156.653 115.839C156.625 116.237 156.511 116.597 156.667 117.032C156.762 117.302 156.435 117.719 156.298 118.069C156.951 118.709 157.051 119.566 157.079 120.39C157.117 121.304 156.918 122.208 156.937 123.136C156.956 124.178 156.696 125.23 156.582 126.276C156.478 127.237 156.388 128.199 156.322 129.165C156.265 129.951 156.288 130.746 156.198 131.528C156.156 131.883 156.037 132.21 156.232 132.551C156.246 132.574 156.26 132.612 156.255 132.636C155.971 133.398 156.246 134.184 156.17 134.961C156.104 135.648 156.17 136.348 156.213 137.04C156.26 137.769 156.426 138.498 156.412 139.228C156.397 139.952 156.227 140.672 156.132 141.396C156.09 141.718 156.028 142.04 156.052 142.358C156.066 142.542 156.236 142.713 156.388 142.978C156.18 143.561 155.862 144.238 156.047 145.005C156.085 145.156 155.971 145.341 155.924 145.512C155.886 145.654 155.772 145.834 155.82 145.933C156.26 146.852 155.602 147.77 155.848 148.689C155.886 148.836 155.768 149.02 155.72 149.191C155.682 149.328 155.564 149.508 155.611 149.603C156.042 150.432 155.621 151.336 155.796 152.113C156 153.003 155.966 153.931 156.298 154.812C156.511 155.375 156.35 156.081 156.341 156.72C156.341 157.023 156.288 157.322 156.255 157.696C156.142 157.696 155.985 157.705 155.829 157.696C155.668 157.682 155.398 157.577 155.37 157.625C155.081 158.141 154.702 157.791 154.295 157.738C154.063 158.245 153.665 158.293 153.154 158.113C152.775 157.98 152.358 157.857 151.965 157.885C151.212 157.933 150.511 157.753 149.81 157.559C149.332 157.426 148.948 157.54 148.603 157.994C148.153 157.644 147.708 157.72 147.158 157.918C146.334 158.217 145.449 158.236 144.549 158.051C144.166 157.971 143.649 157.639 143.275 158.165C142.731 157.923 142.262 158.652 141.689 158.283C141.556 158.198 141.32 158.174 141.173 158.231C140.387 158.534 139.601 158.274 138.815 158.269C138.44 158.269 138.137 158.307 137.768 158.539C137.403 158.771 136.774 158.705 136.295 158.605C135.978 158.539 135.703 158.501 135.377 158.534C134.775 158.596 134.164 158.529 133.558 158.534C133.369 158.534 133.179 158.591 132.995 158.629C132.938 158.638 132.89 158.709 132.838 158.705C132.024 158.676 131.205 158.69 130.4 158.586C129.741 158.501 129.107 158.274 128.487 158.728C128.349 158.832 128.06 158.837 127.885 158.771C127.009 158.425 126.048 158.487 125.172 158.236C124.012 157.9 122.889 158.113 121.748 158.165C121.663 158.165 121.544 158.231 121.492 158.193C120.782 157.649 120.256 158.269 119.617 158.491C119.129 157.852 118.462 158.274 117.855 158.231C117.557 158.212 117.254 158.231 116.828 158.231C116.809 158.259 116.714 158.42 116.7 158.444C115.904 158.42 115.227 158.406 114.55 158.378C114.166 158.364 113.778 158.364 113.409 158.278C112.964 158.174 112.599 158.188 112.173 158.425C111.444 158.832 110.653 158.567 109.914 158.387C109.332 158.245 108.773 158.179 108.19 158.316C107.542 158.468 106.845 158.397 106.235 158.733C105.52 158.278 104.743 158.695 103.995 158.586C103.431 158.506 102.816 158.771 102.224 158.884C102.167 158.894 102.115 158.96 102.067 158.956C101.546 158.884 101.002 158.671 100.519 158.771C100.003 158.875 99.5434 159.102 99.0272 158.785C98.8899 158.7 98.6673 158.671 98.5157 158.719C97.9238 158.908 97.3461 158.927 96.7305 158.809C96.2806 158.723 95.8071 158.804 95.3477 158.766C94.6137 158.705 93.946 158.364 93.1363 158.477C92.6485 158.548 92.0897 158.079 91.4931 157.828C91.4599 157.909 91.3889 158.079 91.2894 158.311C90.7543 157.999 90.2571 158.577 89.6746 158.345C89.1727 158.146 88.6281 158.046 88.022 157.876C87.7994 158.203 87.5153 158.349 86.9328 158.155C86.4356 157.989 85.7963 158.293 85.2138 158.307C84.0394 158.335 82.8745 158.577 81.6812 158.383C80.2984 158.16 78.8967 158.24 77.4997 158.212C77.2393 158.207 76.9647 158.179 76.7232 158.084C76.3348 157.937 76.0507 157.805 75.6103 158.136C75.2978 158.373 74.6632 158.401 74.2702 158.255C73.4888 157.966 72.7075 158.15 71.9356 158.037C71.6183 157.989 71.3058 157.928 70.9838 157.9C70.6996 157.876 70.3634 157.582 70.1503 158.051C70.1266 158.098 69.8804 158.027 69.7431 158.051C69.4542 158.098 69.1701 158.169 68.8907 158.288C68.4503 158.198 68.0051 157.814 67.5458 158.326C67.5127 158.364 67.4416 158.383 67.3848 158.383C66.575 158.383 65.7653 158.383 64.9555 158.383C64.9271 158.383 64.8892 158.392 64.8703 158.378C64.2547 157.989 63.658 157.677 63.0329 158.392C62.9571 158.477 62.6446 158.368 62.441 158.335C61.9201 158.25 61.4134 157.852 60.8688 158.274C60.2626 157.814 59.5002 158.491 58.8704 157.985C58.7094 157.852 58.3353 157.89 58.0985 157.966C56.981 158.316 55.9439 158.136 54.8595 157.738C54.4286 157.582 53.8414 157.838 53.3252 157.918C53.2163 157.937 53.06 158.079 53.0174 158.046C52.3355 157.506 51.611 158.042 50.9101 157.961C50.5739 157.923 50.2235 158.051 49.8778 158.089C49.6552 158.113 49.4326 158.122 49.2053 158.122C49.0917 158.122 48.9496 158.046 48.8644 158.094C48.0546 158.52 47.3206 158.165 46.5109 157.871C46.2883 158.359 45.971 158.321 45.4691 158.169C44.3326 157.819 43.1724 157.492 41.9743 158.084C41.2876 158.425 40.5963 158.023 39.9143 157.885C39.6302 157.828 39.4266 157.696 39.1188 157.956C38.9388 158.113 38.4511 158.089 38.2048 157.956C37.5845 157.62 37.0589 157.824 36.5522 158.122C36.0692 158.411 35.6146 158.544 35.0558 158.349C34.7906 158.259 34.4544 158.24 34.1939 158.33C33.9382 158.416 33.7867 158.383 33.5499 158.297C33.3368 158.217 33.0432 158.316 32.7922 158.364C32.4891 158.42 32.1814 158.581 31.8878 158.558C31.1348 158.491 30.3819 158.24 29.6384 158.274C28.9991 158.302 28.3646 158.24 27.7442 158.288C26.8918 158.359 26.1247 158.113 25.3244 157.966C24.9929 157.904 24.6425 157.942 24.3015 157.952C24.0979 157.952 23.8943 157.971 23.7001 158.008C23.3686 158.07 23.0182 158.103 22.7152 158.236C22.3884 158.383 22.1374 158.496 21.7396 158.383C21.3229 158.264 20.8304 158.155 20.3853 158.468C20.2574 158.558 20.0491 158.553 19.8739 158.553C18.3206 158.553 16.7627 158.591 15.2142 158.51C14.3997 158.468 13.6231 158.581 12.8275 158.657C12.1882 158.719 11.5394 158.667 10.8954 158.638C10.1614 158.6 9.42743 158.553 8.7029 158.458C8.42351 158.42 8.16305 158.245 7.83156 158.103C7.31066 158.472 6.72348 158.596 6.0984 158.169C5.9516 158.07 5.71009 158.094 5.5112 158.094C4.51202 158.094 3.84905 157.492 3.8159 156.503C3.80169 155.967 3.62647 155.432 3.98163 154.878C4.12369 154.656 3.99112 154.045 3.76855 153.846C3.47496 153.581 3.49389 153.42 3.58386 153.107C3.63595 152.932 3.53651 152.705 3.49863 152.506C3.39919 151.938 3.21922 151.388 3.51282 150.792C3.617 150.578 3.86326 150.114 3.38024 149.859C3.32815 149.83 3.32813 149.57 3.38969 149.475C3.59806 149.167 3.5081 148.897 3.29501 148.675C2.79778 148.149 2.91616 147.481 3.13873 146.998C3.33762 146.563 3.29499 146.193 3.27605 145.791C3.26184 145.407 3.19556 145.029 3.14821 144.65C3.07244 144.058 2.69833 143.466 3.2287 142.888C2.87828 142.457 2.80724 142.059 3.01086 141.51C3.18608 141.041 3.08191 140.449 3.02508 139.919C2.98246 139.493 2.81198 139.081 2.72675 138.659C2.68886 138.47 2.65097 138.19 2.75042 138.082C3.13873 137.655 2.91144 137.163 2.91144 136.718C2.91144 136.329 2.61308 135.946 2.89248 135.539C2.31948 135.179 2.96353 134.554 2.55628 134.071C2.36212 133.839 2.6273 133.237 2.66992 132.802C2.68887 132.612 2.70306 132.418 2.68885 132.229C2.65571 131.831 2.47103 131.4 2.57995 131.049C2.74095 130.533 2.88775 130.031 2.93037 129.491C2.98246 128.843 3.11504 128.199 2.92089 127.54C2.82618 127.209 2.73621 126.825 2.80724 126.503C2.98245 125.646 2.85932 124.808 2.79776 123.96C2.78355 123.795 2.83092 123.586 2.92563 123.458C3.32814 122.914 3.27606 122.431 2.75516 121.981C2.97773 121.507 3.39918 121.114 3.13873 120.518C3.07717 120.376 3.31867 120.106 3.42285 119.897C3.20501 119.599 2.89723 119.329 2.78831 118.998C2.67466 118.657 2.73149 118.254 2.7599 117.88C2.81199 117.212 2.87827 116.545 2.97771 115.886C3.02033 115.607 3.16241 115.342 3.20503 115.219C3.08665 114.712 2.99666 114.319 2.89248 113.888C3.11504 113.751 3.3329 113.623 3.56493 113.481C3.45602 111.639 3.32341 109.801 3.25238 107.964C3.21923 107.145 3.32816 106.321 3.32816 105.502C3.32816 105.075 3.23817 104.649 3.19081 104.218C3.18134 104.138 3.1624 104.038 3.19081 103.967C3.71171 102.703 3.26658 101.42 3.21922 100.15C3.18134 99.1466 2.85934 98.1474 2.84513 97.1293C2.84513 96.6699 2.96351 96.2106 3.04401 95.756C3.06296 95.6471 3.20503 95.5192 3.17662 95.4434C2.9067 94.7331 3.24291 93.9849 2.98719 93.2604C2.87354 92.9384 2.99666 92.5217 3.04401 92.157C3.0819 91.8824 3.26657 91.6645 3.00612 91.3473C2.87353 91.1863 3.11031 90.7601 3.06769 90.4665C3.02507 90.1634 2.72201 89.8651 2.75042 89.5857C2.83566 88.7522 3.04876 87.9283 3.17188 87.0948C3.23344 86.6734 3.26186 86.2282 3.17662 85.821C3.11506 85.5226 3.19554 85.409 3.38969 85.2385C3.74485 84.926 3.91061 84.5424 3.73066 84.0499C3.66437 83.8747 3.65016 83.6285 3.72592 83.4627C4.10476 82.5772 3.87272 81.649 3.9627 80.7493C3.9769 80.5835 3.93428 80.3799 3.83957 80.2426C3.65962 79.9821 3.71646 79.7927 3.85379 79.5228C3.97691 79.2813 3.99112 78.9593 3.97692 78.6704C3.92009 77.4013 3.86799 76.1322 3.75907 74.8726C3.69278 74.1149 3.58387 73.343 3.38024 72.6138C3.2808 72.2539 2.91615 71.965 2.62255 71.5862C2.88774 71.4867 3.11504 71.3967 3.39443 71.2926C3.41338 70.5444 3.42285 69.8814 2.98719 69.1332C2.53259 68.3471 2.36212 67.3242 2.79305 66.3582C2.86882 66.1972 2.84986 65.9888 2.8688 65.8042C2.90669 65.3969 2.53732 64.9754 2.92089 64.5729C2.95404 64.5398 2.9209 64.3646 2.87354 64.3362C2.57995 64.1799 2.66045 63.9384 2.73149 63.7206C3.12927 62.4799 2.90668 61.2818 2.47575 60.0411C3.07716 59.5581 2.99192 58.9709 2.68885 58.3316C2.5752 58.0901 2.5326 57.7633 2.58469 57.5029C2.69834 56.9536 2.88302 56.4185 2.6131 55.8691C2.91143 54.8321 2.3195 53.7855 2.64151 52.7485C2.33844 52.0003 2.83092 51.2284 2.54206 50.4565C2.42841 50.1582 2.6131 49.7509 2.64151 49.391C2.65098 49.2537 2.63202 49.1069 2.59414 48.9743C2.44734 48.4439 2.28162 47.923 2.52787 47.3642C2.59416 47.2174 2.60837 46.9759 2.52787 46.8481C2.27215 46.4172 2.26267 46.0525 2.60836 45.6642C2.67939 45.5837 2.67939 45.3469 2.60836 45.257C2.24373 44.7597 2.55626 44.2909 2.63203 43.8174C2.71253 43.3296 2.86881 42.8513 2.93037 42.3589C3.0677 41.3455 3.1624 40.3226 3.27605 39.3045C3.33287 38.8073 3.24292 38.4095 2.70782 38.3432C2.70782 37.7797 2.70782 37.2588 2.70782 36.7379C2.70782 36.6195 2.77884 36.449 2.72675 36.3969C2.26267 35.9234 2.47104 35.5066 2.79305 35.0757C2.86882 34.9763 2.90668 34.8058 2.88774 34.6732C2.79776 34.0339 2.65571 33.3994 2.80724 32.7506C2.83092 32.6606 2.74095 32.5422 2.69833 32.4381C2.64624 32.3055 2.52785 32.1729 2.53732 32.045C2.58467 31.3347 2.66992 30.6244 2.72675 29.9141C2.73622 29.7815 2.66992 29.6394 2.64151 29.5021C2.59416 29.2464 2.46157 28.9575 2.52787 28.7349C2.77884 27.8541 2.71727 26.9544 2.77883 26.0641C2.82145 25.4864 2.8025 24.9039 2.79776 24.3262C2.79776 23.8432 2.6936 23.3554 2.99667 22.9056C3.07244 22.7919 2.96826 22.5693 2.973 22.3989C2.98247 22.1147 3.00139 21.8259 3.03453 21.5418C3.04874 21.4328 3.18609 21.2766 3.14821 21.2339C2.73149 20.7225 3.16713 20.2963 3.27131 19.8417C3.29499 19.7281 3.38971 19.5765 3.34709 19.5102C2.94931 18.9088 3.3234 18.3927 3.47967 17.8434C3.52702 17.6681 3.48915 17.4645 3.46074 17.2798C3.43233 17.0904 3.36602 16.9057 3.33287 16.7163C3.19554 15.9823 3.67858 15.2341 3.2666 14.4954C3.20504 14.3865 3.38023 14.1686 3.39443 13.9982C3.42758 13.5483 3.43232 13.0984 3.45126 12.6485C3.46073 12.4875 3.43705 12.3029 3.51282 12.175C3.6975 11.8719 3.80642 11.6115 3.51756 11.2989C3.456 11.2326 3.4939 11.029 3.53652 10.9059C3.80171 10.1861 3.53652 9.59417 3.08665 8.99277C3.47495 8.32033 3.41812 7.62895 3.25238 6.8476C3.12925 6.26514 2.93038 5.46011 3.76855 5.01498C3.10559 4.25256 3.25237 3.37177 3.21922 2.52412C3.20502 2.21631 3.37077 2.02216 3.67384 1.96533C3.75908 1.94639 3.85379 1.9606 3.93902 1.93692C4.67776 1.7475 4.93348 1.48232 5.10396 0.700965C6.29256 1.08454 7.46696 0.729378 8.65556 0.653611C8.83077 0.64414 9.01071 0.587314 9.17645 0.625198C9.73523 0.757791 10.2751 0.876177 10.8528 0.629933C11.0801 0.535224 11.4447 0.610991 11.6815 0.734114C12.2498 1.02771 12.7281 1.04192 13.2347 0.525753C13.1874 0.795675 13.1448 1.07033 13.0879 1.39708C13.4905 1.39708 13.8077 1.40655 14.125 1.39708C14.717 1.37814 14.7832 1.24554 14.5086 0.663082C14.4896 0.620462 14.5086 0.558901 14.5086 0.502076C16.0524 0.336334 17.544 0.487869 19.0073 1.03245C19.2914 1.13663 19.6418 1.04665 20.0112 1.04665C20.0633 0.928268 20.0964 0.781468 20.1769 0.663082C20.3521 0.407366 20.5274 0.407366 20.6978 0.686759C21.0625 1.28343 21.536 1.43023 22.3363 1.16978C22.2889 0.961416 22.2416 0.753055 22.1942 0.525753C22.6299 0.426308 22.9425 0.464192 23.2455 0.819352C23.667 1.31658 24.6756 1.4539 25.0782 0.989829C25.4996 0.49734 26.0016 0.577843 26.4798 0.525753C27.0907 0.459456 27.7111 0.535224 28.3314 0.539959C28.5066 0.539959 28.696 0.54943 28.8523 0.483134C29.7284 0.123238 30.6376 0.0143227 31.5752 0.0948256C31.7741 0.113767 31.9825 0.0237936 32.1861 0.00958721C32.6786 -0.0188256 33.1237 0.000116289 33.6067 0.28898C34.1324 0.601521 34.748 0.762526 35.4441 0.719907C36.1686 0.677288 36.8979 0.805146 37.6413 0.615727C37.9728 0.530488 38.3801 0.767262 38.7542 0.833558C38.9531 0.866707 39.2372 0.933003 39.3603 0.833558C40.1653 0.199006 41.1077 0.60152 41.9696 0.487869C42.8361 0.369483 43.7359 0.473663 44.6214 0.49734C44.8819 0.502076 45.1423 0.573108 45.4028 0.60152C45.6348 0.629933 45.881 0.69623 46.0989 0.64414C47.2685 0.383689 48.4429 0.502076 49.6221 0.478398C50.1856 0.464192 50.6639 0.59205 51.128 0.985093C51.4594 0.587314 51.843 0.648875 52.2408 0.828823C52.3213 0.866707 52.4207 0.923532 52.4917 0.899855C53.4578 0.60152 54.4049 0.994564 55.3614 0.94721C55.5082 0.937739 55.6693 0.95668 55.7971 0.895119C56.659 0.492605 57.5161 0.861971 58.3732 0.871442C59.273 0.880913 60.2058 1.24554 61.0914 0.771997C61.115 0.757791 61.1576 0.729378 61.1671 0.738849C61.9816 1.34025 62.7819 0.402631 63.6154 0.729378C64.0084 0.880913 64.4772 0.866707 64.9176 0.885648C65.3201 0.90459 65.7227 0.861971 66.1252 0.866707C66.5372 0.866707 66.9491 0.876177 67.3611 0.918797C67.9294 0.980358 68.4787 1.2929 69.0754 1.02298C69.1748 0.975622 69.35 1.12242 69.4921 1.13189C69.7431 1.1461 70.0319 1.19345 70.245 1.09874C70.9743 0.757791 71.6751 0.492605 72.4944 0.8525C72.7596 0.970887 73.1431 0.895119 73.4557 0.824087C74.5022 0.573108 75.5393 0.459456 76.6237 0.629933C77.1777 0.719907 77.7744 0.521018 78.3521 0.521018C79.4697 0.516282 80.6015 0.682023 81.7001 0.535224C82.6377 0.412102 83.5422 0.682023 84.4846 0.502076C85.3275 0.34107 86.2367 0.554166 87.1175 0.573108C87.4916 0.577843 87.8657 0.464192 88.2351 0.473663C89.4047 0.511547 90.5696 0.59205 91.7393 0.64414C91.9429 0.653611 92.1513 0.587314 92.3549 0.587314C92.7906 0.596785 93.2357 0.573108 93.6572 0.667817C94.036 0.753055 94.377 0.757791 94.7653 0.738849C95.4519 0.710436 96.148 0.899855 96.8441 0.994564C97.0146 1.01824 97.1851 1.0656 97.3556 1.07033C97.938 1.0798 98.53 1.03718 99.1077 1.09401C99.7991 1.16031 100.524 1.00404 101.172 1.41129C101.267 1.47285 101.447 1.41602 101.584 1.39234C101.722 1.36867 101.887 1.24081 101.987 1.28343C102.811 1.63859 103.573 1.2929 104.364 1.14136C104.672 1.08454 105.008 1.15557 105.33 1.20292C106.055 1.30237 106.774 1.44917 107.504 1.51547C108.143 1.57703 108.792 1.61965 109.426 1.56756C110.506 1.47758 111.576 1.47758 112.651 1.59597C113.139 1.64806 113.641 1.55808 114.133 1.56756C114.943 1.5865 115.753 1.65279 116.563 1.66226C117.173 1.67174 117.813 1.73803 118.386 1.5865C118.945 1.4397 119.456 1.49652 120.001 1.52494C121.203 1.58176 122.411 1.50126 123.618 1.46811C125.044 1.42549 126.474 1.19819 127.899 1.47285C128.084 1.51073 128.292 1.42549 128.491 1.40181C129.32 1.3071 130.149 1.16504 130.987 1.28343C131.101 1.29763 131.224 1.33078 131.328 1.31184C132.062 1.16504 132.796 1.01351 133.525 0.8525C134.359 0.663082 135.164 0.795675 135.964 1.04665C136.158 1.10822 136.404 1.24554 136.546 1.17451C137.332 0.814617 138.047 1.19345 138.857 1.31658C138.99 0.975622 139.208 0.762526 139.639 0.966151C139.809 1.04665 140.05 1.0798 140.23 1.03245C140.912 0.843029 141.533 1.0798 142.167 1.25028C142.305 1.28816 142.47 1.47758 142.551 1.4397C143.223 1.12242 143.962 1.43023 144.639 1.17451C145.042 1.02298 145.463 0.847765 145.889 1.15083C145.979 1.21713 146.121 1.27869 146.216 1.25501C147.623 0.942474 149.038 1.58176 150.402 1.25501C150.961 1.12242 151.539 1.46338 152.074 1.05613C152.24 0.933003 152.637 1.09401 152.922 1.16031C153.637 1.33078 154.356 1.44443 155.081 1.54861C156.023 1.68594 156.203 2.05531 155.981 2.95505C155.82 3.59907 155.981 4.21468 156.146 4.81135C156.336 5.49326 156.374 6.13728 156.047 6.80498C156.468 7.21223 156.786 7.70472 156.625 8.31086C156.454 8.94541 156.639 9.54682 156.705 10.153C156.857 11.4978 156.966 12.8048 156.416 14.1071C156.251 14.4954 156.402 15.021 156.407 15.4851C156.407 15.6035 156.435 15.7266 156.412 15.8403C156.094 17.3935 156.554 18.9846 156.208 20.5331C156.085 21.0824 156.17 21.5465 156.355 22.0627C156.473 22.3894 156.331 22.8061 156.359 23.166C156.426 23.5117 156.554 23.8574 156.539 24.1983C156.53 24.544 156.383 24.8803 156.293 25.2259C156.232 25.4675 156.137 25.6521 156.388 25.9268C156.62 26.1825 156.303 26.7129 156.663 27.0302C156.449 27.8541 156.98 28.6165 156.847 29.4405C156.715 30.2455 156.62 31.06 156.492 31.9835C156.634 32.1208 156.932 32.3055 156.809 32.7364C156.715 33.0868 156.686 33.4799 157.037 33.8019C157.131 33.8871 157.075 34.1902 157.032 34.3796C156.88 35.0426 156.691 35.6913 156.805 36.3827C156.814 36.4395 156.767 36.5153 156.79 36.5579C157.179 37.1972 156.909 37.8318 156.814 38.4805C156.719 39.1435 156.696 39.8207 156.677 40.4884C156.667 40.7772 156.71 41.0803 156.795 41.3549C157.051 42.1837 156.838 42.9792 156.677 43.7842C156.596 44.1773 156.577 44.5845 156.558 44.987C156.539 45.3896 156.573 45.7873 156.558 46.1899C156.549 46.564 156.516 46.9428 156.483 47.3169C156.468 47.5158 156.473 47.7289 156.397 47.9088C156.255 48.245 156.108 48.5386 156.393 48.8891C156.464 48.979 156.34 49.2111 156.336 49.3768C156.326 49.6562 156.265 49.9025 156.539 50.1724C156.861 50.4897 156.7 50.9727 156.682 51.4083C156.639 52.4075 156.345 53.3972 156.554 54.4201C156.62 54.7421 156.397 55.1209 156.317 55.4477L156.322 55.4193ZM14.6506 139.933C14.8827 140.189 15.2899 140.435 15.2852 140.677C15.271 141.406 15.6972 141.95 15.9008 142.585C16.4549 144.318 17.8139 145.199 19.353 145.89C20.1817 146.264 21.1051 146.473 21.8533 146.965C22.4026 147.325 22.8998 147.387 23.4823 147.358C23.918 147.335 24.3962 147.448 24.7798 147.302C25.9495 146.852 27.086 146.312 28.232 145.8C29.3211 145.317 30.415 144.844 31.4947 144.342C32.5554 143.849 33.6493 143.4 34.6438 142.798C35.4346 142.32 36.1828 142.353 36.9736 142.59C37.1773 142.651 37.4046 142.85 37.4898 143.044C37.7408 143.603 37.9397 144.19 38.1338 144.773C38.2191 145.019 38.1765 145.336 38.309 145.54C38.8252 146.317 38.8536 147.33 39.5403 148.021C39.6018 148.083 39.6302 148.173 39.6586 148.258C40.0375 149.357 40.7573 150.166 41.7423 150.758C41.9175 150.863 42.1306 150.924 42.2774 151.061C43.0635 151.791 43.8732 152.293 45.0429 152.35C45.8384 152.387 46.6245 152.634 47.4532 152.492C48.3151 152.34 49.2101 152.354 50.034 151.99C50.4034 151.824 50.8059 151.715 51.1611 151.521C51.6962 151.222 52.3402 150.972 52.6717 150.507C52.9795 150.072 53.3347 149.816 53.7467 149.541C53.9787 149.39 54.1302 149.12 54.3197 148.902C54.4949 148.708 54.6653 148.514 54.8453 148.32C55.9676 147.126 57.1278 145.971 58.198 144.73C58.9462 143.859 60.0638 143.542 61.0061 144.186C61.7827 144.716 62.5546 145.279 63.2318 145.928C64.9129 147.529 66.5182 149.21 68.1993 150.811C68.957 151.53 69.7952 152.179 70.6475 152.785C71.3626 153.292 72.1487 153.694 72.9111 154.13C73.0342 154.201 73.1905 154.225 73.3325 154.258C73.7351 154.348 74.1376 154.433 74.5448 154.518C75.0278 154.623 75.5109 154.755 75.9986 154.821C76.2827 154.859 76.6095 154.859 76.8652 154.75C77.8265 154.324 78.8588 153.969 79.6876 153.349C80.933 152.416 82.079 151.322 82.7561 149.854C82.8414 149.669 82.9976 149.522 83.1208 149.357C83.5328 148.784 83.9211 148.197 84.3567 147.642C84.6977 147.212 85.0955 146.823 85.4838 146.425C85.6684 146.236 85.9005 146.099 86.071 145.9C86.7102 145.166 87.5579 144.825 88.4766 144.759C89.0354 144.716 89.6983 144.792 90.1624 145.066C91.3936 145.796 92.5491 146.653 93.7282 147.472C94.9026 148.286 95.7881 149.451 97.0762 150.152C97.8907 150.593 98.5442 151.317 99.3066 151.867C100.609 152.804 102.077 153.406 103.602 153.87C103.933 153.969 104.374 153.87 104.625 154.05C105.259 154.509 105.946 154.248 106.504 154.121C107.338 153.931 108.148 153.481 108.867 152.998C109.748 152.411 110.577 151.743 111.254 150.896C111.685 150.356 112.391 150.005 112.717 149.428C113.163 148.646 113.65 147.922 114.228 147.235C114.65 146.733 114.957 146.137 115.365 145.616C115.677 145.218 116.004 144.839 116.302 144.432C116.804 143.74 118.111 143.508 118.708 143.878C119.792 144.55 120.711 145.403 121.521 146.373C122.487 147.529 123.599 148.528 124.84 149.371C125.91 150.095 127.094 150.687 128.378 150.792C129.524 150.882 130.688 150.716 131.839 150.503C133.965 150.105 135.542 148.76 137.228 147.586C137.276 147.553 137.318 147.505 137.351 147.458C138.379 146.103 139.781 145.09 140.728 143.641C141.661 142.211 142.736 140.88 143.749 139.502C143.905 139.289 144.09 139.085 144.199 138.849C144.677 137.812 145.136 136.76 145.596 135.714C145.667 135.553 145.709 135.378 145.743 135.207C145.88 134.492 146.012 133.772 146.145 133.057C146.292 132.276 146.5 131.499 146.576 130.713C146.732 129.013 146.799 127.323 146.566 125.599C146.377 124.178 146.102 122.819 145.411 121.574C144.89 120.636 144.393 119.642 143.304 119.197C143.195 119.154 143.1 119.073 143.005 119.012C142.499 118.68 142.03 118.24 141.471 118.027C139.908 117.43 138.327 116.843 136.608 116.852C136.139 116.852 135.665 116.938 135.211 116.867C134.321 116.725 133.44 116.497 132.554 116.313C132.355 116.27 132.152 116.27 131.948 116.275C131.541 116.279 131.129 116.327 130.722 116.313C129.959 116.294 129.618 116.024 129.4 115.304C129.14 114.447 128.505 113.737 128.43 112.794C128.415 112.586 128.202 112.387 128.07 112.193C127.852 111.88 127.61 111.582 127.407 111.26C126.905 110.469 126.427 109.664 125.92 108.878C125.811 108.707 125.65 108.565 125.494 108.428C124.315 107.4 122.832 107.116 121.369 106.842C121.033 106.78 120.711 106.638 120.285 106.719C119.139 106.936 118.102 107.377 117.036 107.808C116.16 108.163 115.445 108.679 114.796 109.328C114.2 109.924 113.551 110.445 113.068 111.179C112.613 111.871 111.87 112.368 111.363 113.031C110.719 113.874 109.867 114.423 109.005 114.977C108.844 115.077 108.617 115.105 108.422 115.11C107.291 115.129 106.391 114.565 105.553 113.902C104.776 113.287 104.08 112.557 103.265 112.003C102.617 111.563 102.096 111.042 101.57 110.483C101.097 109.977 100.538 109.531 99.818 109.38C99.5575 109.323 99.3019 109.247 99.0414 109.205C98.0138 109.034 97.0572 108.291 95.9349 108.807C95.8686 108.835 95.7597 108.769 95.6745 108.774C95.2388 108.802 94.8031 108.826 94.3722 108.873C94.0834 108.902 93.7945 109.006 93.5104 109.006C92.3502 109.001 91.2752 109.418 90.4134 110.067C89.2579 110.938 88.1498 111.904 87.2169 113.045C86.8144 113.542 86.2982 113.95 85.7963 114.357C84.7545 115.209 83.7032 116.043 82.6377 116.862C82.0363 117.326 81.4255 117.785 80.7767 118.178C79.9433 118.68 79.0104 118.548 78.1106 118.396C77.6892 118.325 77.2251 118.216 76.8984 117.97C76.5195 117.676 76.2496 117.227 75.9749 116.819C75.1889 115.654 74.4359 114.461 73.6404 113.306C73.0247 112.411 72.2813 111.634 71.3389 111.066C71.1116 110.928 70.837 110.815 70.6854 110.616C70.1977 109.967 69.5016 109.707 68.7912 109.399C67.8868 109.011 67.0202 108.788 66.092 109.262C65.4906 109.565 64.8655 109.825 64.2878 110.161C63.89 110.393 63.5775 110.767 63.1892 111.023C62.01 111.79 60.812 112.524 59.6186 113.272C59.1972 113.538 58.7947 113.86 58.3353 114.04C57.6866 114.3 56.9904 114.447 56.318 114.655C54.9163 115.091 53.884 114.598 53.3678 113.23C53.3063 113.064 53.2778 112.879 53.1831 112.737C52.397 111.511 51.8288 110.209 51.7293 108.736C51.7246 108.651 51.6962 108.561 51.6725 108.475C51.4547 107.562 51.1895 106.652 51.0238 105.729C50.8391 104.697 50.7159 103.697 50.1524 102.731C49.39 101.424 48.3719 100.572 46.9749 100.136C46.1084 99.8711 45.2086 99.7243 44.342 99.4639C43.7596 99.2886 43.2481 98.8624 43.1866 98.2658C43.054 97.0156 42.9356 95.7323 43.8164 94.6337C43.9395 94.4821 43.9584 94.2501 44.0295 94.056C44.2615 93.4545 44.4509 92.8342 44.7493 92.2659C45.0381 91.7166 45.4028 91.1957 45.8006 90.7222C46.5203 89.8556 47.2828 89.0269 48.0452 88.1982C48.2393 87.9898 48.5803 87.8809 48.6987 87.6489C48.8833 87.2842 49.158 87.1564 49.4942 87.0238C49.9867 86.8296 50.5123 86.6592 50.9196 86.3466C51.8383 85.6458 52.9464 85.4563 53.9834 85.1154C55.0347 84.7697 56.1854 84.8171 57.2462 84.4193C57.7718 84.2204 58.3495 84.3861 58.7047 84.8076C59.3582 85.5842 60.0448 86.3703 60.0448 87.4879C60.0448 87.6631 60.0448 87.8477 60.0922 88.0135C60.2769 88.7096 60.1774 89.2779 59.5003 89.6804C59.2872 89.8082 59.1735 90.0876 58.9936 90.2818C58.7189 90.5801 58.4726 90.9684 58.127 91.1342C57.1799 91.5793 56.389 92.2233 55.5698 92.8579C54.4901 93.7008 53.5336 94.5721 53.0032 95.8933C52.3544 97.4986 52.4349 98.924 53.6046 100.259C54.528 101.311 55.513 102.177 56.9431 102.561C57.9849 102.84 58.9367 103.186 60.0543 102.916C60.6415 102.774 61.3092 103.025 61.9343 102.987C63.6864 102.888 65.4385 102.764 67.1433 102.277C67.6452 102.135 68.1662 102.064 68.6634 101.907C70.3303 101.386 71.4431 100.089 72.7122 99.0092C72.8448 98.8956 72.9443 98.7393 73.0295 98.5878C73.3515 97.9959 73.6403 97.3802 73.9813 96.7978C74.5353 95.8507 74.4691 94.8326 74.3696 93.805C74.3033 93.1373 74.2417 92.4648 74.1612 91.8019C74.1186 91.423 74.1092 91.0253 73.9718 90.6796C73.3515 89.1074 73.7919 87.6725 74.4738 86.2566C74.7106 85.7594 75.0941 85.3995 75.5771 85.158C76.7515 84.5661 77.9307 83.9883 79.1098 83.4106C79.214 83.3585 79.3561 83.3064 79.446 83.3396C79.9291 83.5195 80.36 83.3017 80.8051 83.1881C81.3923 83.0365 81.97 82.8518 82.5667 82.7571C83.5896 82.5961 84.6219 82.4967 85.6448 82.3594C86.7292 82.2126 87.8136 82.0421 88.9028 81.8905C88.988 81.8763 89.078 81.9 89.1679 81.9142C90.1529 82.0515 91.1379 81.6017 92.1229 81.9142C92.2176 81.9426 92.3502 81.8621 92.4638 81.8432C92.7196 81.7958 92.9753 81.7295 93.231 81.7201C94.0123 81.6869 94.7984 81.6822 95.5845 81.6443C96.0107 81.6206 96.4511 81.6017 96.8583 81.488C98.1795 81.1281 99.5433 81.1423 100.888 81.0192C101.362 80.9766 101.883 80.8487 102.299 80.915C102.768 80.9908 103.152 80.8724 103.573 80.8393C104.298 80.7777 105.032 80.754 105.756 80.7303C106.438 80.7067 107.12 80.7209 107.797 80.683C108.257 80.6593 108.725 80.4746 109.171 80.5315C110.34 80.6877 111.458 80.3042 112.613 80.3231C113.504 80.3373 114.403 80.361 115.289 80.1432C115.45 80.1053 115.634 80.1905 115.81 80.1905C116.122 80.1905 116.454 80.2379 116.743 80.1479C118.168 79.7028 119.622 79.8638 121.052 79.9632C121.734 80.0106 122.368 79.9585 123.027 79.8401C123.571 79.7454 124.135 79.6554 124.679 79.7028C125.498 79.7785 126.308 79.8117 127.127 79.7548C127.663 79.7217 128.202 79.7596 128.738 79.7264C129.116 79.7028 129.486 79.5891 129.865 79.5417C130.229 79.4944 130.594 79.537 130.807 79.8827C131.025 80.2379 130.845 80.5646 130.641 80.8629C130.395 81.2181 130.153 81.5733 129.888 81.9142C129.083 82.9465 128.463 84.1399 127.227 84.7886C126.839 84.9923 126.479 85.2622 126.152 85.5558C125.2 86.4129 124.31 87.3505 123.32 88.1603C122.094 89.1595 121.374 90.5043 120.649 91.8398C120.337 92.4127 120.133 93.0662 120.446 93.7576C120.555 93.9944 120.649 94.2927 120.597 94.5295C120.484 95.0599 120.825 95.3535 121.099 95.6755C121.364 95.988 121.649 96.2911 121.966 96.5515C122.553 97.0346 123.14 97.527 123.779 97.9343C125.617 99.1134 127.781 99.014 129.822 99.336C130.783 99.4875 131.797 99.3502 132.777 99.1087C133.302 98.9808 133.89 99.1324 134.439 99.0661C135.789 98.8956 137.01 98.3226 138.265 97.8349C138.909 97.5839 139.392 97.0346 139.984 96.812C140.803 96.5042 141.159 95.8223 141.727 95.3156C142.494 94.6289 143.261 93.9802 143.721 93.0236C144.151 92.1286 144.649 91.2715 145.099 90.386C145.16 90.2628 145.17 90.0924 145.146 89.955C145.065 89.5431 145.136 89.2021 145.473 88.918C145.553 88.8517 145.591 88.7143 145.605 88.6054C145.766 87.5494 145.979 86.4981 146.06 85.4327C146.178 83.8747 146.259 82.3215 146.197 80.7493C146.15 79.4991 146.339 78.2348 146.429 76.9799C146.462 76.5205 146.496 76.0564 146.552 75.5971C146.595 75.2514 146.713 74.9152 146.742 74.5742C146.775 74.1338 146.742 73.6934 146.756 73.2483C146.789 72.1307 146.983 70.9895 146.846 69.8956C146.595 67.9304 146.822 65.9604 146.543 63.9952C146.387 62.8871 146.623 61.7174 146.694 60.5809C146.732 59.9937 146.836 59.4113 146.822 58.8288C146.808 58.3174 146.642 57.8154 146.585 57.304C146.567 57.1193 146.6 56.8447 146.723 56.7452C147.158 56.3995 147.016 55.9354 147.012 55.5187C146.997 54.8321 146.907 54.1407 146.87 53.4541C146.86 53.2552 146.87 52.9995 146.988 52.8574C147.357 52.4075 147.244 51.915 147.206 51.4225C147.192 51.2237 147.149 51.02 147.163 50.8211C147.211 50.1392 147.225 49.4479 147.353 48.7802C147.485 48.084 147.315 47.4021 147.372 46.706C147.476 45.3422 147.31 43.9594 147.334 42.5862C147.362 40.8246 147.443 39.0724 147.239 37.3061C147.083 35.9423 147.158 34.5501 147.111 33.1721C147.097 32.7317 147.035 32.296 146.988 31.8603C146.917 31.1263 146.813 30.3971 146.77 29.6631C146.675 28.0578 146.614 26.4477 146.529 24.8424C146.477 23.8432 146.372 22.8487 146.344 21.8496C146.311 20.7509 146.458 19.676 146.249 18.5442C145.941 16.8868 145.103 15.5467 144.241 14.2113C143.564 13.16 142.693 12.2318 141.893 11.2611C141.732 11.0622 141.514 10.9059 141.301 10.7591C140.633 10.2998 139.937 9.8783 139.283 9.40002C138.265 8.65655 137.299 7.82784 135.935 7.80416C135.713 7.80416 135.495 7.65737 135.272 7.57686C135.083 7.51057 134.894 7.41586 134.699 7.37797C134.122 7.27379 133.525 7.25485 132.971 7.08911C131.162 6.554 129.315 6.63924 127.468 6.6345C125.64 6.62977 123.803 6.68659 121.985 6.55874C120.365 6.44509 118.755 6.41194 117.136 6.4735C116.435 6.50191 115.729 6.51612 115.028 6.50665C113.409 6.48771 111.794 6.4735 110.174 6.42141C108.119 6.35511 106.074 6.59189 104.018 6.44509C102.702 6.35038 101.376 6.43562 100.055 6.44035C99.3492 6.44035 98.6436 6.43088 97.938 6.42614C96.5127 6.41667 95.0826 6.37879 93.6572 6.41194C92.0519 6.44982 90.4513 6.55874 88.8459 6.61556C88.3487 6.6345 87.8468 6.554 87.3448 6.57294C85.9052 6.62977 84.4656 6.75289 83.0213 6.77657C81.9937 6.79077 80.9566 6.61556 79.929 6.65345C78.5558 6.71027 77.1872 6.90443 75.8139 7.01334C74.4738 7.12226 73.1337 7.19329 71.7225 7.288C71.4999 5.2991 70.1645 4.23836 68.5971 3.36703C68.474 3.30074 68.3177 3.29127 68.1756 3.26285C67.8299 3.19656 67.47 3.16814 67.1338 3.05923C65.3533 2.49097 63.5917 3.02608 61.8206 3.13973C61.7638 3.13973 61.7165 3.20129 61.6596 3.20603C61.3139 3.25812 60.9635 3.30074 60.6178 3.35756C60.3621 3.40018 60.1111 3.46174 59.8649 3.52804C59.1924 3.70325 58.5105 3.85479 57.8523 4.07262C56.6921 4.45619 55.5414 4.87765 54.3907 5.2849C54.2249 5.34172 54.0687 5.42222 53.9029 5.46484C52.326 5.87209 50.8438 6.50191 49.4137 7.26906C49.1343 7.41586 48.8407 7.54845 48.5519 7.66684C47.5243 8.08829 46.4967 8.51448 45.4548 8.917C44.9387 9.11589 44.413 9.3574 43.8779 9.40475C43.0161 9.48052 42.1495 9.65573 41.4439 10.0535C40.0091 10.8585 38.4416 10.7875 36.9168 11.0243C35.7045 11.209 34.4733 11.28 33.2563 11.4221C32.6501 11.4931 32.0393 11.5831 31.4426 11.7062C30.3535 11.9288 29.2785 12.2887 28.1799 12.407C26.2431 12.6107 24.3726 13.0037 22.5968 13.8182C22.4926 13.8656 22.3695 13.875 22.2511 13.8892C21.2756 14.0171 20.3521 14.2823 19.4998 14.7984C19.0452 15.0731 18.5621 15.3051 18.0744 15.504C17.2267 15.845 16.5969 16.4417 16.0002 17.1141C15.1668 18.0564 14.6506 19.2545 13.6373 20.0548C13.4715 20.1874 13.3389 20.4668 13.3389 20.6752C13.3389 21.1392 13.088 21.4423 12.8228 21.7596C12.6191 22.0011 12.4013 22.2189 12.4534 22.6025C12.4818 22.8156 12.3492 23.0571 12.264 23.2797C11.5726 25.0886 10.886 26.9023 10.5213 28.8154C10.313 29.8998 9.85362 30.9322 9.85836 32.064C9.85836 32.2297 9.75418 32.3954 9.71156 32.5659C9.62632 32.9353 9.51741 33.3046 9.47479 33.6788C9.41322 34.2044 9.44165 34.7395 9.36588 35.2604C9.24276 36.1128 9.17171 36.9604 9.37533 37.8081C9.45583 38.149 9.64526 38.4758 9.65 38.8167C9.65473 39.3092 9.88205 39.6502 10.1946 39.9817C10.3367 40.1285 10.5213 40.28 10.5734 40.4599C10.7865 41.1703 11.3832 41.5254 11.8946 41.9563C12.5434 42.5057 13.2063 43.036 13.9214 43.628C13.6941 43.9926 13.4857 44.3051 13.3058 44.6319C13.159 44.9018 12.9317 45.2049 12.9506 45.4795C12.9838 46.0241 12.7565 46.4503 12.5386 46.8954C12.245 47.4874 12.0888 48.103 12.1361 48.7754C12.1835 49.4336 12.1929 50.0966 12.1503 50.7548C12.0272 52.6301 12.5765 54.3301 13.462 55.9402C13.5283 56.0586 13.6515 56.2196 13.7604 56.2338C14.4707 56.3048 14.9679 56.8068 15.5835 57.0672C15.7729 57.1477 15.9718 57.2708 16.166 57.2708C17.3593 57.2614 18.5621 57.304 19.7318 57.0057C19.9212 56.9583 20.1391 56.8447 20.2432 56.6979C20.5416 56.2717 20.8494 55.8313 21.0388 55.353C21.4744 54.2638 21.9243 53.1699 22.2132 52.0382C22.592 50.5417 23.3497 49.3816 24.6425 48.5339C25.3196 48.0935 25.9447 47.5679 26.5414 47.0233C26.9155 46.6776 27.2801 46.5734 27.7916 46.545C29.4679 46.4692 31.2011 46.8765 32.8017 46.0336C32.9201 45.972 33.0953 46.0431 33.2374 46.0146C34.0519 45.83 34.9421 46.0288 35.6808 45.4748C35.7803 45.399 35.9697 45.3659 36.0928 45.4038C36.7227 45.5837 37.2956 45.2191 37.7834 45.0249C38.3895 44.7834 39.0051 44.5466 39.6302 44.3478C40.0706 44.2057 40.511 43.9879 40.9609 43.9737C41.4723 43.9594 41.9317 43.8458 42.4005 43.6848C42.5851 43.6232 42.7935 43.6422 42.9924 43.6138C43.6175 43.5285 44.252 43.4764 44.8629 43.3344C45.4217 43.2065 45.9663 42.804 46.5014 42.8371C47.5811 42.9034 48.4619 42.2926 49.4753 42.1789C50.1619 42.1031 50.8533 41.7575 51.5068 41.8238C52.345 41.9137 53.0647 41.2129 53.8935 41.5917C53.9313 41.6107 54.0024 41.5586 54.0545 41.5302C55.2762 40.924 56.5785 40.6683 57.9233 40.5689C58.0938 40.5546 58.269 40.531 58.43 40.4741C59.0409 40.2611 59.647 40.2042 60.31 40.209C61.0677 40.209 61.8916 40.4789 62.6162 39.9864C63.1939 40.1427 63.6012 39.5981 64.1031 39.6028C64.8229 39.6123 65.5001 39.5128 66.1915 39.3376C66.504 39.2571 66.8166 39.366 67.1291 39.0724C67.3611 38.8546 67.8157 38.8641 68.1709 38.7836C68.5687 38.6983 68.9712 38.5752 69.3737 38.5658C70.0935 38.5468 70.8133 38.6841 71.5283 38.4758C71.8267 38.3905 72.1487 38.2059 72.4233 38.2579C72.8969 38.3527 73.2805 38.1869 73.6972 38.0685C73.9197 38.007 74.1755 37.8933 74.3743 37.9549C74.9568 38.1301 75.4588 37.9028 75.9797 37.7276C76.117 37.6802 76.2733 37.5287 76.3727 37.5618C77.0641 37.7797 77.656 37.2398 78.3427 37.3345C78.8541 37.4056 79.3513 36.9462 79.9054 37.1783C80.6678 36.7663 81.4302 36.3543 82.1973 35.947C82.6614 35.7008 83.135 35.4782 83.5943 35.2272C83.8642 35.0804 84.1483 34.9242 84.3662 34.7111C85.0481 34.0339 85.5785 33.1484 86.696 33.1105C86.7765 33.1105 86.8618 33.0442 86.9281 32.9874C87.43 32.5233 87.9415 32.0924 88.7086 32.2628C88.7702 32.2771 88.8649 32.1871 88.9264 32.1303C89.3053 31.7893 89.7646 31.7041 90.2476 31.7135C91.924 31.7419 93.6003 31.794 95.2767 31.8272C96.1528 31.8461 97.0335 32.0592 97.9001 31.7419C98.0043 31.7041 98.1417 31.6851 98.2458 31.7135C99.4108 31.9977 100.571 31.8935 101.745 31.794C102.91 31.6946 104.085 31.6756 105.254 31.6567C106.045 31.6425 106.855 31.6094 107.627 31.7419C108.437 31.8745 109.227 31.9266 110.042 31.9077C110.662 31.8935 111.344 31.9077 111.785 32.4996C112.324 33.2241 112.67 34.0386 112.732 34.9384C112.774 35.5777 112.561 36.1128 111.941 36.4964C111.382 36.8468 110.747 36.9888 110.193 37.3014C108.948 38.007 107.608 38.3432 106.22 38.6226C104.369 38.9967 102.555 39.5271 100.704 39.9059C98.4258 40.37 97.4313 40.7962 95.2909 42.0132C94.6421 42.3825 94.0976 42.8419 93.553 43.3012C92.6864 44.0257 92.156 45.0391 92.2034 46.1662C92.2602 47.4684 92.8948 48.5907 93.8845 49.4668C94.4575 49.9735 95.0257 50.4897 95.6508 50.9253C96.3185 51.3894 97.0241 51.8061 97.7581 52.1518C98.2742 52.3933 98.8614 52.4833 99.5623 52.6822C99.889 52.4786 100.372 52.3838 100.822 52.8527C100.879 52.9095 101.011 52.971 101.059 52.9426C101.67 52.5875 102.323 53.1036 102.943 52.8337C103.119 52.7579 103.365 52.7106 103.535 52.7674C104.591 53.132 105.647 52.8195 106.694 52.7674C107.584 52.7201 108.574 52.6538 109.483 52.8527C109.635 52.8858 109.815 52.8242 109.976 52.7816C110.141 52.739 110.302 52.6111 110.459 52.6206C111.287 52.6632 112.083 52.9 112.803 53.2741C113.286 53.5204 113.75 53.8755 113.897 54.4911C113.949 54.7137 114.091 54.9268 114.238 55.1067C114.555 55.4998 114.702 55.9402 114.616 56.4279C114.446 57.4129 114.256 58.3979 114.02 59.3687C113.982 59.5344 113.693 59.7096 113.494 59.7475C113.068 59.8327 112.618 59.7854 112.192 59.8706C111.728 59.9606 111.183 59.8611 110.856 60.3678C110.79 60.472 110.61 60.5336 110.473 60.5525C109.725 60.6614 108.972 60.7798 108.219 60.8414C107.636 60.8887 107.044 60.8319 106.533 61.2108C106.471 61.2581 106.362 61.2486 106.272 61.2581C105.306 61.3291 104.34 61.3907 103.374 61.4712C102.38 61.5517 101.362 61.5328 100.4 61.7601C99.0556 62.0821 97.7155 62.2715 96.3327 62.2336C95.253 62.2052 94.1733 62.2241 93.0984 62.2384C92.639 62.2431 92.175 62.3378 91.7156 62.3236C90.3471 62.281 88.9785 62.2904 87.6147 62.4088C86.9186 62.4704 86.2225 62.6172 85.5311 62.6172C84.6645 62.6172 83.7885 62.4846 82.9313 62.6503C82.2636 62.7829 81.6149 62.9724 80.933 62.764C80.8572 62.7403 80.753 62.764 80.6773 62.7971C79.5739 63.2944 78.3758 63.1902 77.2156 63.3133C76.9126 63.3465 76.5669 63.2991 76.2875 63.1807C75.7902 62.9676 75.3735 63.2754 74.9379 63.2802C74.4833 63.2849 74.0334 62.8824 73.5125 63.0292C73.3467 63.0765 73.1479 63.1428 73.0437 63.2659C72.5133 63.8958 71.8219 63.6969 71.1637 63.659C70.8985 63.6448 70.6381 63.5595 70.3776 63.5595C68.9096 63.5501 67.4416 63.5501 65.9736 63.5595C65.7747 63.5595 65.5616 63.6022 65.3817 63.6874C64.7235 63.9905 64.07 63.9573 63.4023 63.7395C63.0092 63.6116 62.6162 63.4838 62.2231 63.3607C60.0401 62.6693 58.1933 61.4428 56.6258 59.8043C56.1002 59.255 55.6219 58.6631 54.9163 58.3174C54.7648 58.2416 54.6275 58.1043 54.528 57.9622C53.6662 56.7168 52.4539 55.8313 51.2842 54.9221C50.8296 54.5669 50.2708 54.3349 49.7452 54.0791C48.9828 53.7003 48.2251 53.312 47.439 52.9947C46.4635 52.6017 45.488 52.1376 44.4652 51.9577C42.732 51.6451 40.9846 51.4083 39.1946 51.6167C37.7597 51.7824 36.3438 51.9908 34.9895 52.488C34.0566 52.829 33.0811 53.1226 32.2476 53.6387C31.0069 54.4059 30.1309 55.5282 29.6573 56.9583C28.9896 58.9661 29.8325 60.5573 30.9549 62.0916C31.0022 62.1531 31.1064 62.1721 31.1869 62.2147C32.224 62.7308 33.19 63.3843 34.3502 63.6685C35.0179 63.8295 35.6761 64.0947 36.2823 64.4167C37.916 65.2785 39.5213 66.1925 41.1314 67.0922C41.2355 67.149 41.2924 67.2816 41.4818 67.5089C40.0848 67.5089 38.9815 68.1766 37.7029 68.0819C37.0115 68.0298 36.3864 68.456 35.7614 68.797C34.8664 69.28 33.8908 69.6257 32.9295 69.9714C31.4047 70.5159 30.2019 71.5388 29.0181 72.5711C28.232 73.2578 27.5074 74.0202 26.7876 74.7826C26.3709 75.2277 25.9684 75.706 25.6606 76.2317C24.865 77.5718 24.1216 78.9403 23.8517 80.5125C23.6622 81.6159 23.3829 82.7003 23.1792 83.8037C23.0893 84.2914 23.1035 84.7934 23.0514 85.2906C22.9282 86.4603 22.7388 87.6205 22.6725 88.7948C22.611 89.8177 22.6867 90.85 22.6867 91.8776C22.6867 93.0852 22.6394 94.2927 22.6678 95.4955C22.6962 96.6889 22.3505 97.8301 22.3316 99.0282C22.3126 100.089 21.8485 101.14 21.6875 102.206C21.5597 103.049 21.1146 103.773 21.0246 104.64C20.892 105.876 20.39 107.026 19.3956 107.869C18.7752 108.395 18.1502 108.911 17.5251 109.432C17.1462 109.749 16.7769 110.081 16.398 110.398C15.4178 111.227 14.3334 111.956 13.4763 112.898C12.1219 114.385 11.2648 116.208 10.6208 118.107C10.3508 118.903 10.384 119.798 10.152 120.612C9.92465 121.422 10.0241 122.128 10.4029 122.852C10.6302 123.293 10.7676 123.776 10.9522 124.24C11.2269 124.926 11.5537 125.556 12.264 125.926C13.5141 126.574 14.7406 127.271 15.9766 127.938C16.076 127.99 16.2039 127.995 16.3175 128.005C16.8858 128.071 17.1652 128.445 17.3356 128.942C17.6056 129.723 17.3925 130.424 16.9947 131.097C16.7153 131.57 16.3175 131.987 16.4217 132.612C16.4406 132.73 16.3223 132.877 16.2702 133.01C16.1092 133.408 15.8961 133.796 15.7966 134.213C15.5977 135.041 15.503 135.889 15.2947 136.713C15.0389 137.722 14.8353 138.716 15.1668 139.744C15.181 139.791 15.1431 139.853 15.1147 139.957H14.6033L14.6506 139.933Z" fill="#41240F"/>
<path d="M124.442 92.8483C125.025 92.048 125.512 91.3188 126.071 90.6463C126.327 90.3385 126.72 90.1444 127.042 89.8887C127.686 89.3867 128.321 88.8658 128.974 88.3733C130.125 87.502 131.342 86.7112 132.426 85.7641C133.056 85.2148 133.61 84.4997 133.97 83.7468C134.6 82.4256 135.177 81.0144 134.917 79.5133C134.728 78.4099 134.188 77.3681 133.293 76.6672C132.545 76.0848 131.588 75.9096 130.627 76.1132C130.082 76.2268 129.561 76.4305 129.021 76.5678C128.77 76.6294 128.5 76.6625 128.245 76.653C126.644 76.601 125.025 76.35 123.452 76.5204C121.842 76.6957 120.209 76.3405 118.627 76.7856C118.546 76.8093 118.452 76.7998 118.362 76.7904C115.89 76.5536 113.456 77.0745 111.008 77.1739C109.36 77.2402 107.721 77.5054 106.045 77.3492C104.776 77.226 103.474 77.4533 102.185 77.5054C101.598 77.5291 101.006 77.4959 100.419 77.5291C99.8367 77.5622 99.259 77.6522 98.6813 77.7233C98.506 77.7469 98.3355 77.8132 98.1603 77.8274C96.9623 77.9032 95.7595 77.9742 94.5614 78.0453C94.533 78.0453 94.4998 78.0358 94.4714 78.0453C92.7619 78.6419 90.9672 78.0974 89.234 78.4241C88.0927 78.6372 86.9326 78.7461 85.7818 78.8929C85.2609 78.9592 84.7306 78.9734 84.2097 79.0492C82.8174 79.2528 81.4252 79.4375 80.0425 79.6979C79.299 79.8353 78.565 80.072 77.8499 80.3278C75.8989 81.0333 74 81.8857 72.5083 83.3585C71.0877 84.7649 70.259 86.5123 70.2353 88.5485C70.2211 89.6282 70.1643 90.7221 70.6331 91.7544C70.7467 92.0007 70.7467 92.3274 70.7183 92.6116C70.6615 93.1419 70.6189 93.6534 70.8793 94.1553C70.9456 94.2832 70.8699 94.4963 70.8272 94.662C70.4863 96.0022 69.686 97.0108 68.5447 97.759C67.6545 98.3415 66.7358 98.8103 65.6135 98.8198C64.9837 98.8245 64.3586 99.1228 63.724 99.1796C62.5544 99.2791 61.3753 99.2412 60.2103 99.3596C58.8276 99.5017 57.7052 98.9097 56.5829 98.261C56.2799 98.0858 56.1757 97.8442 56.2515 97.5175C56.5356 96.31 56.976 95.2492 58.2546 94.6999C59.7131 94.0701 61.1148 93.3314 62.0998 92.0054C62.2892 91.7497 62.597 91.584 62.8101 91.3472C63.492 90.5895 63.9892 89.8034 63.8661 88.6717C63.7951 88.004 63.8992 87.2842 63.5725 86.697C63.0516 85.7546 62.8243 84.7317 62.5118 83.7278C62.4786 83.6189 62.417 83.5053 62.3365 83.4248C61.8488 82.9228 61.361 82.4303 60.8638 81.9378C60.0256 81.1044 58.9933 80.9008 57.8615 81.0428C57.5727 81.0807 57.2743 81.0902 56.9807 81.0996C55.5838 81.1375 54.201 81.1849 52.8988 81.8336C52.0653 82.2504 51.1324 82.4587 50.2848 82.8565C49.224 83.3585 48.1775 83.9125 47.1783 84.5281C46.4869 84.9543 45.8808 85.5178 45.2368 86.0245C45.0758 86.1524 44.9242 86.285 44.7632 86.4128C43.2716 87.5683 42.135 89.0173 41.2306 90.6558C40.9938 91.082 40.8943 91.5887 40.7191 92.0528C40.5913 92.3795 40.4871 92.7299 40.293 93.0188C39.9852 93.4781 39.8289 93.947 39.8099 94.5057C39.7957 94.9604 39.6205 95.4102 39.5542 95.8696C39.4453 96.6509 39.2701 97.437 39.2985 98.2136C39.3411 99.4022 39.6537 100.539 40.4824 101.467C40.6907 101.699 40.8802 101.955 41.0648 102.182C41.9078 102.532 42.7317 102.921 43.5888 103.214C44.3323 103.47 45.1089 103.622 45.8713 103.82C46.3638 103.948 46.6858 104.19 46.7616 104.768C46.8374 105.336 47.1025 105.876 47.202 106.444C47.3393 107.216 47.3819 108.007 47.5051 108.783C47.595 109.356 47.6992 109.934 47.8792 110.483C48.0402 110.971 48.3811 111.397 48.5232 111.89C48.8026 112.841 49.2619 113.713 49.6502 114.613C50.0243 115.479 50.4174 116.242 51.1703 116.805C51.2177 116.838 51.2745 116.876 51.2934 116.928C51.5918 117.662 52.1316 118.155 52.8467 118.458C53.2965 118.647 53.7511 118.889 54.2247 118.941C55.2807 119.059 56.3083 118.979 57.3312 118.557C58.7565 117.97 60.2624 117.582 61.6878 117.004C62.2182 116.791 62.6728 116.332 63.1653 116.005C63.9845 115.465 64.7516 114.845 65.5898 114.352C66.3143 113.931 67.162 113.67 67.986 113.5C68.4311 113.405 68.9567 113.566 69.3545 113.945C70.1974 114.745 71.0593 115.484 71.5612 116.611C72.0111 117.615 72.7451 118.496 73.3512 119.429C73.4649 119.599 73.5975 119.765 73.6733 119.954C74.2889 121.394 75.5248 121.848 76.9313 122.132C78.0109 122.35 79.0859 122.454 80.175 122.336C81.321 122.213 82.377 121.815 83.3951 121.271C83.9634 120.968 84.3801 120.466 84.9058 120.177C85.8718 119.646 86.71 119.045 87.3635 118.14C87.5624 117.866 87.9886 117.747 88.3248 117.591C89.627 116.976 90.2474 115.711 91.1377 114.698C91.3792 114.423 91.8196 114.319 92.17 114.139C92.3263 114.058 92.5488 114.03 92.6293 113.907C93.2497 112.974 94.3009 112.879 95.2244 112.647C96.2046 112.401 97.218 112.666 98.1793 112.955C98.3876 113.017 98.5629 113.216 98.7381 113.367C99.8983 114.338 101.054 115.309 102.214 116.279C102.541 116.554 102.711 116.947 103.142 117.165C103.8 117.501 104.312 118.14 104.984 118.429C106.054 118.889 107.158 119.362 108.384 119.22C108.531 119.201 108.678 119.116 108.815 119.13C110.458 119.286 111.799 118.453 113.224 117.842C114.223 117.411 115.127 116.857 116.022 116.256C116.368 116.024 116.472 115.735 116.629 115.446C117.003 114.75 117.751 114.47 118.262 113.931C118.452 113.732 118.722 113.604 118.959 113.452C119.03 113.405 119.162 113.386 119.181 113.329C119.375 112.685 120.029 112.458 120.379 111.965C120.677 111.549 121.052 111.43 121.52 111.463C121.729 111.478 121.937 111.52 122.136 111.501C122.818 111.426 123.135 111.852 123.396 112.373C123.462 112.501 123.505 112.68 123.609 112.737C124.347 113.116 124.428 113.826 124.598 114.518C124.693 114.897 124.92 115.247 125.1 115.607C125.555 116.526 126.033 117.44 126.474 118.368C126.696 118.841 127.085 119.083 127.482 119.395C128.16 119.93 128.941 120.125 129.684 120.451C130.702 120.901 131.787 120.92 132.857 121.02C133.397 121.072 133.946 121.029 134.491 121.029C134.638 121.029 134.818 121.095 134.926 121.034C135.821 120.546 136.641 121.043 137.469 121.237C138.327 121.436 139.188 121.673 139.885 122.275C139.951 122.331 140.031 122.374 140.112 122.417C141.13 122.928 141.514 123.529 141.632 124.699C141.675 125.135 141.798 125.566 141.888 126.001C142.11 127.081 142.181 128.151 141.746 129.207C141.641 129.468 141.656 129.776 141.622 130.064C141.537 130.779 141.244 131.414 140.907 132.039C140.647 132.522 140.306 132.986 140.51 133.602C140.557 133.744 140.462 133.957 140.382 134.108C139.828 135.079 139.615 136.187 139.146 137.187C138.634 138.266 137.981 139.28 137.361 140.302C136.806 141.226 136.2 142.116 135.637 143.04C135.244 143.684 134.756 144.209 134.06 144.536C133.449 144.82 132.867 145.171 132.246 145.44C131.436 145.786 130.622 146.137 129.774 146.364C129.419 146.459 128.96 146.293 128.581 146.151C128.032 145.947 127.501 145.691 126.995 145.398C126.052 144.853 125.19 144.204 124.513 143.333C124.475 143.286 124.433 143.243 124.39 143.21C123.552 142.533 122.728 141.827 121.861 141.183C121.222 140.71 120.531 140.317 119.854 139.895C119.096 139.422 118.31 139.152 117.429 139.583C117.325 139.635 117.202 139.668 117.088 139.668C115.98 139.677 115.075 140.241 114.171 140.762C113.806 140.975 113.499 141.321 113.224 141.652C112.779 142.187 112.367 142.751 111.959 143.314C111.112 144.503 110.288 145.71 109.44 146.894C109.17 147.268 108.858 147.614 108.545 147.95C108.233 148.291 107.906 148.627 107.56 148.93C107.39 149.077 107.158 149.2 106.94 149.238C105.983 149.395 105.022 149.608 104.061 149.617C103.232 149.622 102.384 149.499 101.684 148.874C100.94 148.206 100.097 147.657 99.3205 147.022C98.094 146.018 96.9055 144.976 95.9347 143.707C95.6553 143.347 95.2386 143.082 94.8692 142.803C94.2157 142.306 93.548 141.818 92.8803 141.34C91.99 140.705 90.9719 140.44 89.8922 140.383C89.073 140.34 88.2443 140.321 87.4298 140.231C86.6295 140.146 86.047 140.591 85.5309 141.032C84.1434 142.211 82.808 143.452 81.4868 144.706C81.089 145.085 80.8001 145.578 80.4544 146.013C80.2982 146.212 80.123 146.402 79.9525 146.591C79.8578 146.7 79.6968 146.79 79.6683 146.913C79.5026 147.638 78.9344 148.045 78.4419 148.5C77.9068 148.987 77.2627 149.371 76.756 149.887C76.2683 150.384 75.6479 150.38 75.0607 150.531C74.9755 150.555 74.8571 150.588 74.8003 150.55C74.1515 150.105 73.2802 150.157 72.6883 149.551C71.9543 148.798 71.1634 148.097 70.4105 147.358C70.2021 147.155 70.0411 146.908 69.8517 146.686C69.5439 146.331 69.2314 145.98 68.9188 145.635C68.7247 145.421 68.5258 145.218 68.3269 145.014C68.1848 144.872 68.0428 144.73 67.8912 144.602C67.8013 144.531 67.6308 144.517 67.5929 144.432C67.1857 143.565 66.3427 143.111 65.7271 142.443C65.0689 141.733 64.3491 141.074 63.5914 140.468C63.2173 140.17 62.7106 140.018 62.2418 139.853C61.7967 139.696 61.3231 139.635 60.8733 139.488C59.2774 138.967 57.9326 139.507 56.7108 140.482C56.1804 140.904 55.7306 141.429 55.2665 141.927C55.0913 142.116 54.9681 142.358 54.8308 142.58C54.755 142.703 54.7266 142.883 54.6225 142.959C53.8932 143.466 53.4007 144.19 52.7993 144.815C51.8901 145.762 50.9383 146.686 49.9296 147.519C48.9446 148.334 47.8839 148.864 46.4585 148.509C45.3883 148.239 44.5549 147.68 43.7025 147.084C43.4941 146.937 43.2621 146.747 43.1579 146.52C42.4571 145.019 41.4626 143.617 41.5005 141.851C41.5005 141.766 41.4957 141.671 41.4579 141.59C40.8091 140.184 40.0041 138.853 38.6071 138.119C37.7311 137.66 36.6893 137.49 35.6948 137.892C35.0413 138.157 34.4257 138.517 33.8101 138.858C33.0666 139.265 32.3231 139.673 31.5986 140.118C30.5852 140.743 29.4108 140.937 28.3501 141.392C27.0384 141.955 25.6651 142.149 24.306 142.462C24.164 142.495 23.9982 142.528 23.8703 142.481C23.3305 142.287 22.8475 142.396 22.3408 142.613C22.123 142.708 21.8057 142.656 21.5642 142.58C20.3045 142.168 19.1065 140.525 19.2627 139.218C19.3574 138.422 19.6889 137.632 20.0204 136.888C20.6455 135.496 21.4221 134.17 21.9951 132.759C22.4355 131.679 22.2508 130.491 22.1466 129.345C22.1135 128.966 22.0283 128.582 21.9004 128.227C21.3369 126.641 20.2288 125.518 18.7845 124.709C18.0741 124.311 17.2691 124.079 16.7009 123.435C16.0047 122.644 15.2234 121.919 14.5794 121.091C14.2242 120.631 14.0348 120.016 14.6031 119.49C14.8209 118.349 15.5644 117.525 16.2321 116.63C16.8287 115.83 17.5201 115.152 18.3346 114.65C19.7789 113.76 21.2801 112.946 22.7954 112.183C23.7567 111.7 24.1971 110.924 24.4197 109.943C24.486 109.664 24.6138 109.399 24.7038 109.124C24.7796 108.883 24.8506 108.636 24.9121 108.39C24.9453 108.248 24.9122 108.078 24.9784 107.964C25.5751 106.974 25.452 105.847 25.5704 104.782C25.7977 102.736 25.9682 100.681 26.1055 98.6256C26.1576 97.8111 26.0297 96.9871 26.0344 96.1632C26.0344 95.0456 26.1102 93.9328 26.115 92.8152C26.1197 91.3709 26.0439 89.9218 26.0866 88.4775C26.1197 87.3647 26.257 86.2518 26.3943 85.1485C26.508 84.2108 26.6927 83.2874 26.8347 82.3545C26.9247 81.7626 27.1141 81.2417 27.4882 80.7492C28.1275 79.9063 28.6342 78.9545 29.3067 78.14C29.9696 77.3302 30.5994 76.4731 31.5655 75.9332C32.0958 75.6349 32.5268 75.1566 32.9767 74.7352C33.8953 73.8638 35.0318 73.3572 36.1873 72.9357C37.4943 72.4574 38.8581 72.1117 40.203 71.7424C40.5345 71.6524 40.9275 71.5766 41.2448 71.6713C42.3576 72.0028 43.4468 71.7471 44.5454 71.6429C44.6922 71.6287 44.8579 71.6003 44.9811 71.6524C45.7813 71.9933 46.3591 71.5577 46.9273 71.1173C47.4482 70.7148 48.0212 70.407 48.3006 69.6872C48.6652 68.7543 48.6274 67.864 48.2675 67.0258C48.0686 66.5618 47.5382 66.2303 47.1215 65.8799C46.79 65.6005 46.4112 65.3779 46.0465 65.1411C45.8761 65.0275 45.7008 64.9044 45.5114 64.8428C43.3994 64.1277 41.5668 62.9012 39.6915 61.7458C38.967 61.2959 38.2093 60.8981 37.5085 60.4199C36.6088 59.809 35.7279 59.1744 34.8803 58.4925C34.2694 58 34.2884 57.3655 34.9513 56.9724C35.5954 56.5936 36.2441 56.229 36.9876 55.9922C37.8589 55.7128 38.7823 56.0017 39.5921 55.5707C40.7144 55.9543 41.8888 55.5234 43.0585 55.8643C44.0198 56.1437 45.0426 56.3237 46.0086 56.6268C46.7284 56.8541 47.4482 57.1524 48.0923 57.5454C49.2809 58.2794 50.3937 59.1271 51.5681 59.8895C52.733 60.6424 53.5807 61.6511 54.2389 62.8586C54.5277 63.389 54.9682 63.8389 55.3707 64.2982C56.0668 65.0985 56.7771 65.8893 57.5064 66.6565C58.3256 67.5183 58.3351 67.5089 59.4337 67.7172C59.8694 67.7977 60.3003 67.8877 60.736 67.9493C61.6168 68.0724 62.4549 68.0582 63.3262 67.6888C63.9655 67.4189 64.6901 67.2437 65.4619 67.3573C66.2338 67.471 67.0483 67.4947 67.8202 67.3905C68.5069 67.2958 69.1509 67.4094 69.8138 67.4757C69.9228 67.4852 70.0506 67.5231 70.1453 67.4899C71.3481 67.0779 72.5794 67.1584 73.8153 67.201C74.2036 67.2153 74.5966 67.1158 74.985 67.1158C75.3306 67.1158 75.6716 67.1868 76.0173 67.201C76.1831 67.2058 76.3772 67.1868 76.5193 67.1158C76.9028 66.9169 77.2675 66.9217 77.6889 67.0116C78.0299 67.0874 78.4134 66.9832 78.7781 66.9595C79.602 66.9122 80.4308 67.1442 81.25 66.7796C81.591 66.6281 82.0408 66.6991 82.4386 66.7086C83.4141 66.7417 84.3801 66.7559 85.3509 66.6139C85.5166 66.5902 85.6966 66.6801 85.8718 66.7086C86.5963 66.8222 87.2924 66.7086 88.0122 66.5807C88.6326 66.4671 89.305 66.5191 89.9301 66.6423C90.2284 66.6991 90.4747 66.7654 90.7541 66.6423C90.9151 66.576 91.1187 66.4528 91.2466 66.5002C91.7627 66.6896 92.2599 66.6138 92.7856 66.557C93.3254 66.5002 93.8795 66.5996 94.4288 66.6091C94.6798 66.6091 94.9355 66.5807 95.1817 66.5381C96.143 66.3629 97.0901 66.4008 98.0372 66.6281C98.1177 66.647 98.2219 66.6565 98.2977 66.6281C99.3253 66.1735 100.391 66.1782 101.48 66.2871C101.816 66.3203 102.176 66.1971 102.512 66.1072C103.161 65.9367 103.796 65.7236 104.449 65.572C104.667 65.52 104.927 65.5673 105.145 65.6383C105.415 65.7283 105.647 65.7851 105.87 65.5484C105.922 65.4916 106.05 65.4442 106.111 65.4679C106.893 65.7946 107.65 65.3874 108.422 65.411C108.848 65.4253 109.274 65.3921 109.701 65.3637C110.013 65.3447 110.33 65.2358 110.634 65.2785C110.97 65.3258 111.225 65.2785 111.529 65.108C111.756 64.9801 112.106 64.9517 112.376 65.0133C113.394 65.25 114.266 64.8759 115.118 64.4213C116.458 63.7015 117.249 62.5461 117.652 61.1018C118.011 59.809 118.547 58.5636 118.584 57.1808C118.618 56.0396 118.48 54.9409 118.068 53.8991C117.742 53.0846 117.334 52.2843 116.851 51.5503C116.52 51.0531 116.051 50.608 115.549 50.2765C114.308 49.4525 112.93 49.0263 111.429 48.8511C110.051 48.6901 108.678 48.8132 107.305 48.7043C107.139 48.6901 106.968 48.7801 106.798 48.7943C106.102 48.8559 105.406 48.9174 104.71 48.9506C104.241 48.9695 103.762 48.8701 103.308 48.9364C101.726 49.1684 100.239 48.8511 98.7996 48.226C98.4066 48.0556 97.8052 47.8804 97.7199 47.582C97.5731 47.0848 97.6536 46.4502 97.8383 45.9483C98.1319 45.1243 98.7144 44.4945 99.6236 44.2719C100.732 44.002 101.868 43.8221 102.943 43.448C104.07 43.0596 105.306 43.0928 106.362 42.4819C106.433 42.4393 106.547 42.4014 106.613 42.4251C107.612 42.785 108.403 42.0936 109.289 41.8995C111.297 41.4591 112.788 40.0574 114.531 39.1292C114.971 38.8972 115.27 38.3905 115.615 37.9927C115.904 37.6612 116.15 37.2871 116.444 36.9651C116.846 36.5294 117.041 36.0512 117.008 35.4403C116.979 34.8862 117.055 34.3274 117.107 33.7734C117.235 32.3906 116.515 31.4293 115.516 30.6433C114.971 30.2171 114.337 29.8998 113.754 29.5209C113.565 29.3978 113.323 29.2747 113.233 29.09C113.011 28.6165 112.679 28.4934 112.182 28.4744C109.682 28.3797 107.186 28.2897 104.686 28.5123C103.81 28.5928 102.924 28.536 102.043 28.5786C101.489 28.607 100.935 28.768 100.381 28.7775C97.6347 28.8154 94.8929 28.8343 92.1463 28.839C91.5923 28.839 91.0335 28.7538 90.4794 28.7112C89.2861 28.6212 88.088 28.5218 86.8899 28.4507C86.3453 28.4176 85.9855 28.2897 85.7913 27.6789C85.6303 27.1674 85.2325 26.7176 84.9058 26.2677C84.5459 25.7657 84.1528 25.2827 83.7693 24.7997C83.6604 24.6671 83.5419 24.5014 83.3951 24.4493C82.5049 24.1273 81.6193 23.7626 80.7007 23.5495C79.7915 23.3364 78.8491 23.2843 77.921 23.1565C77.8689 23.1517 77.8215 23.1091 77.6984 23.0523C77.8263 22.9529 77.921 22.8108 78.0299 22.7966C79.2801 22.6308 80.0898 21.7785 80.9327 20.9734C81.3778 20.5472 81.7804 20.0737 82.2492 19.6759C82.8932 19.1266 83.2768 18.4778 83.2862 17.616C83.2862 17.3839 83.3147 17.133 83.3999 16.9199C84.0392 15.3003 82.8837 13.302 81.7425 12.4591C81.1458 12.0187 80.5491 11.905 79.9004 11.8056C78.1293 11.5262 76.344 11.4031 74.5493 11.4173C74.322 11.4173 74.0852 11.3936 73.8627 11.4173C72.9629 11.5262 72.0679 11.6351 71.1729 11.7724C70.7467 11.8387 70.33 11.9855 69.9038 12.0613C69.6954 12.0992 69.4776 12.066 69.1982 12.066C69.5676 10.9532 70.1974 10.3849 71.2913 10.366C72.4988 10.347 73.7064 10.2807 74.9092 10.2381C76.2588 10.1908 77.6084 10.1766 78.958 10.0913C79.9761 10.025 80.9895 9.86876 82.0029 9.76458C82.3249 9.73143 82.6517 9.74564 82.9737 9.73617C84.2049 9.70302 85.4409 9.63199 86.6674 9.65566C87.7376 9.67934 88.8078 9.92559 89.8686 9.86403C90.7683 9.81667 91.6538 9.71723 92.5536 9.82614C93.4675 9.93506 94.3909 9.98241 95.3096 10.0582C95.5748 10.0771 95.84 10.1055 96.1052 10.1103C96.4603 10.115 96.8107 10.1103 97.1659 10.0961C98.0277 10.0629 98.8849 9.99662 99.7467 9.99662C100.978 9.99662 102.204 10.0487 103.436 10.0629C103.814 10.0629 104.198 9.99662 104.577 9.99662C106.116 9.99662 107.65 10.0108 109.189 10.0156C109.364 10.0156 109.54 9.99188 109.71 9.96347C110.359 9.85929 110.975 9.89717 111.614 10.1434C112.054 10.3139 112.58 10.276 113.068 10.3044C115.094 10.4039 117.121 10.4938 119.205 10.5933C119.243 10.4844 119.29 10.3518 119.366 10.1339C120.341 10.2665 121.336 10.4181 122.335 10.5317C123.14 10.6264 123.95 10.688 124.759 10.7354C125.664 10.7922 126.568 10.8253 127.473 10.8585C127.676 10.8679 127.894 10.8679 128.084 10.8016C129.059 10.4749 129.997 10.6975 130.935 10.9674C131.938 11.2563 132.952 11.5214 133.942 11.8529C134.434 12.0187 134.926 12.2554 135.348 12.5538C136.314 13.2357 137.062 14.1544 137.905 14.9736C138.985 16.0249 139.78 17.2703 140.538 18.5299C141.135 19.5244 141.495 20.6609 141.935 21.7453C142.034 21.9868 142.091 22.2709 142.068 22.5267C141.949 23.7626 142.124 24.9844 142.205 26.2109C142.309 27.8256 142.356 29.4452 142.399 31.06C142.423 32.0023 142.399 32.94 142.399 33.8823C142.399 33.9391 142.385 34.0054 142.399 34.0575C142.792 35.5965 142.48 37.1735 142.626 38.7314C142.688 39.3991 142.641 40.0763 142.669 40.7487C142.745 42.5151 142.868 44.2767 142.91 46.043C142.934 46.9806 142.83 47.9182 142.783 48.8559C142.773 49.0926 142.754 49.3294 142.768 49.5614C142.835 50.8826 142.915 52.2086 142.972 53.5298C143.024 54.7941 143.071 56.0585 143.081 57.3229C143.086 58.1421 143.119 58.9803 142.963 59.7711C142.716 61.0118 143.019 62.2288 142.953 63.4553C142.925 63.9573 142.982 64.4782 142.863 64.9517C142.536 66.2445 142.764 67.5325 142.764 68.8253C142.764 70.085 142.745 71.3446 142.721 72.6042C142.712 73.1346 142.555 73.6839 142.655 74.1859C142.892 75.3413 142.385 76.3879 142.319 77.4959C142.3 77.7801 142.266 78.0642 142.243 78.3483C142.186 78.9308 142.101 79.5085 142.082 80.091C142.058 80.8392 141.873 81.5827 142.12 82.3403C142.195 82.5629 142.063 82.8518 142.039 83.1122C141.94 84.2819 141.911 85.4421 141.561 86.5975C141.367 87.2415 141.272 87.9424 141.097 88.6148C140.609 90.509 139.492 92.0102 138.199 93.3834C137.479 94.1506 136.513 94.6241 135.452 94.8325C135.395 94.842 135.31 94.8183 135.282 94.8467C134.586 95.5665 133.686 95.1924 132.881 95.2729C132.308 95.3297 131.735 95.2634 131.152 95.415C130.811 95.5049 130.409 95.396 130.035 95.3487C129.111 95.235 128.164 95.2019 127.274 94.9604C126.426 94.733 125.522 94.4821 124.935 93.7197C124.726 93.4497 124.58 93.1325 124.452 92.9146L124.442 92.8483ZM135.267 133.247C134.529 132.716 133.989 132.266 133.387 131.921C132.781 131.57 132.104 131.338 131.474 131.026C129.878 130.23 128.354 129.307 126.654 128.724C125.337 128.274 124.12 127.531 122.714 127.327C122.548 127.304 122.406 127.147 122.24 127.095C121.653 126.906 121.066 126.731 120.474 126.56C120.341 126.522 120.166 126.584 120.062 126.517C118.916 125.812 117.566 126.011 116.34 125.651C115.615 125.443 114.782 125.542 114.114 125.244C113.399 124.926 112.708 124.888 111.974 124.874C111.377 124.865 110.766 124.997 110.184 124.737C110.113 124.704 110.008 124.756 109.919 124.737C108.773 124.552 107.56 124.95 106.462 124.334C106.4 124.301 106.291 124.349 106.206 124.349C105.254 124.353 104.298 124.439 103.355 124.334C102.82 124.273 102.323 124.235 101.802 124.353C101.631 124.391 101.404 124.5 101.29 124.429C100.594 124.012 99.9361 124.458 99.2637 124.458C98.6007 124.458 97.952 124.382 97.2701 124.481C96.1714 124.642 95.0539 124.727 93.9458 124.832C92.4257 124.974 90.9246 125.357 89.3903 125.282C88.9025 125.258 88.4668 125.353 88.0217 125.49C87.856 125.542 87.6807 125.575 87.5055 125.585C86.9562 125.613 86.3738 125.518 85.8623 125.67C84.8253 125.968 83.7693 125.807 82.7369 125.959C82.5665 125.982 82.4054 126.063 82.2397 126.106C81.7898 126.219 81.3447 126.338 80.8901 126.428C80.4023 126.527 79.9099 126.603 79.4221 126.693C79.2185 126.731 79.0243 126.797 78.8207 126.825C77.9494 126.939 77.0828 127.048 76.2115 127.143C75.7474 127.19 75.2549 127.114 74.8192 127.242C73.7159 127.574 72.6125 127.806 71.4523 127.753C71.2534 127.744 71.0498 127.839 70.8462 127.858C70.5336 127.891 70.2211 127.933 69.9086 127.919C68.5921 127.872 67.2851 127.81 65.9923 128.184C65.4998 128.326 64.9221 128.426 64.4485 128.303C63.8235 128.142 63.2694 128.019 62.6491 128.279C62.3934 128.383 62.0666 128.345 61.7778 128.331C61.2048 128.298 60.627 128.047 60.0682 128.426C59.9972 128.473 59.8457 128.388 59.7273 128.379C59.2964 128.35 58.856 128.289 58.4298 128.322C57.7668 128.379 57.1133 128.511 56.4551 128.596C56.3415 128.611 56.2136 128.596 56.1094 128.549C55.2949 128.189 54.4283 128.445 53.5901 128.35C52.9982 128.284 52.3873 128.483 51.8285 128.104C51.7007 128.014 51.4876 128.009 51.3171 128.028C50.5452 128.109 49.8018 128.061 49.0346 127.867C48.2864 127.678 47.4766 127.725 46.7 127.645C46.4396 127.616 46.1744 127.545 45.9376 127.431C45.0568 126.996 44.2849 126.319 43.2289 126.281C43.1247 126.281 43.0301 126.167 42.9259 126.11C42.2819 125.75 41.6568 125.348 40.9891 125.045C40.0656 124.623 39.2227 124.06 38.5124 123.378C36.9308 121.848 35.4391 120.205 35.0082 117.937C34.8045 116.881 34.7572 115.792 34.6483 114.717C34.6388 114.603 34.6719 114.48 34.7098 114.371C34.9229 113.765 35.1313 113.159 35.3538 112.553C35.8937 111.089 36.4335 109.621 36.9876 108.163C37.1012 107.864 37.2102 107.538 36.8834 107.391C36.6608 107.292 36.2867 107.31 36.0784 107.438C34.8803 108.149 33.7959 108.996 33.0098 110.171C32.7825 110.512 32.6215 110.905 32.3563 111.217C31.4376 112.292 30.7936 113.471 30.8125 114.93C30.8125 115.015 30.7983 115.114 30.7557 115.186C30.3579 115.811 30.5379 116.507 30.5237 117.174C30.519 117.425 30.6468 117.686 30.6231 117.932C30.4526 119.49 31.1109 120.778 31.9112 122.028C32.29 122.62 32.6452 123.226 33.0287 123.818C33.2324 124.136 33.4454 124.453 33.6964 124.727C34.0942 125.158 34.6293 125.49 34.9277 125.978C35.6475 127.166 36.7745 127.82 37.9157 128.469C38.1904 128.625 38.5361 128.658 38.8155 128.809C39.8904 129.401 40.9512 130.026 42.0214 130.628C42.4286 130.855 42.8312 131.116 43.2668 131.243C44.5312 131.608 45.8145 131.93 47.0931 132.243C47.6613 132.38 48.239 132.484 48.8215 132.55C49.6881 132.65 50.5642 132.683 51.4308 132.778C52.7425 132.92 54.0495 133.142 55.3612 133.223C56.1994 133.275 57.0518 133.123 57.8994 133.086C59.2822 133.029 60.6602 132.996 62.0429 132.958C62.6586 132.944 63.2789 132.967 63.8992 132.939C65.7745 132.849 67.6497 132.74 69.5202 132.65C70.3679 132.607 71.2108 132.716 72.0584 132.446C72.7688 132.219 73.5312 132.082 74.2794 132.039C75.3685 131.977 76.4293 131.826 77.4664 131.485C77.6889 131.414 77.9446 131.329 78.1577 131.371C79.4126 131.632 80.5728 131.097 81.7567 130.903C82.467 130.784 83.2057 130.704 83.9208 130.571C84.6501 130.434 85.3888 130.306 86.1512 130.282C87.032 130.254 87.9175 129.951 88.8315 129.899C89.9917 129.837 91.1424 129.709 92.3026 129.6C93.1171 129.525 93.9458 129.501 94.7508 129.349C96.2283 129.07 97.7057 128.904 99.2069 128.918C99.813 128.923 100.462 129.027 101.006 128.843C101.769 128.577 102.541 128.795 103.284 128.606C103.554 128.535 103.843 128.535 104.118 128.487C104.35 128.45 104.582 128.355 104.809 128.364C105.685 128.407 106.594 128.355 107.428 128.568C108.564 128.857 109.682 128.568 110.809 128.682C112.149 128.824 113.508 128.762 114.848 128.918C116.453 129.108 118.035 129.463 119.631 129.695C120.763 129.861 121.913 129.884 123.036 130.079C124.22 130.287 125.389 130.599 126.549 130.917C127.743 131.243 128.908 131.67 130.101 131.982C131.356 132.309 132.62 132.579 133.804 133.152C134.164 133.327 134.6 133.455 135.258 133.232L135.267 133.247ZM130.29 52.4595C130.47 52.4738 130.764 52.5353 131.048 52.5164C131.503 52.4832 131.976 52.4595 132.407 52.3175C132.748 52.2038 133.037 51.9292 133.345 51.7113C133.624 51.5172 133.856 51.3088 134.041 50.9821C134.751 49.7414 135.092 48.3776 135.443 47.0232C135.571 46.526 135.689 45.953 135.566 45.4747C135.324 44.5134 135.32 43.5237 134.96 42.5624C134.581 41.5538 134.069 40.654 133.463 39.8111C132.72 38.774 131.972 37.737 131.787 36.4584C131.569 34.9715 130.579 34.318 129.32 33.8918C129.149 33.835 128.898 33.8728 128.737 33.9628C128.259 34.2233 127.899 34.6163 127.79 35.1704C127.691 35.6818 127.648 36.2074 127.544 36.7189C127.44 37.254 127.326 37.7891 127.151 38.3052C126.947 38.9208 126.478 39.3707 126.104 39.8869C125.261 41.0471 124.807 42.4393 123.95 43.609C123.566 44.1299 123.381 44.7928 123.452 45.5126C123.533 46.3508 123.296 47.2505 123.514 48.0366C123.983 49.7461 125.006 51.0957 126.72 51.8108C127.823 52.2701 128.946 52.6537 130.286 52.4595H130.29ZM132.09 60.1689C132.227 59.8374 132.346 59.577 132.44 59.307C132.753 58.4357 132.507 57.7017 131.749 57.1666C131.56 57.034 131.394 56.8635 131.204 56.7215C130.409 56.1248 129.32 56.4468 129.017 57.3939C128.761 58.2037 128.643 58.9898 129.23 59.7853C129.471 60.1121 129.675 60.3157 130.04 60.3062C130.731 60.2873 131.422 60.2162 132.085 60.1689H132.09ZM127.729 28.3323C127.8 29.5588 128.245 30.004 129.414 29.9377C130.523 29.8761 130.769 29.6535 130.953 28.5786C131.105 27.6978 130.21 26.5802 129.324 26.6749C128.903 26.7223 128.444 27.0064 128.131 27.3142C127.894 27.5463 127.856 27.9867 127.729 28.3371V28.3323Z" fill="#41240F"/>
<path d="M55.5886 36.6527C56.0905 36.2691 56.6351 35.9282 57.085 35.4878C57.5206 35.0616 57.8711 34.5454 58.231 34.0482C59.4243 32.3955 59.9736 30.5345 59.9783 28.5077C59.9783 27.3049 59.5948 26.2583 58.6856 25.4438C58.051 24.8756 57.4117 24.2884 56.7109 23.8101C56.1852 23.4549 55.5744 23.1755 54.9588 23.0051C53.666 22.6452 52.3779 22.1811 50.9904 22.3374C49.9439 22.4558 48.9873 22.8346 48.1728 23.4928C47.6046 23.9522 47.0505 24.4636 46.5959 25.0318C46.2408 25.4817 46.0371 26.0547 45.7719 26.5709C45.1658 27.7547 44.8248 28.9812 45.1516 30.3214C45.18 30.435 45.2037 30.5581 45.1942 30.6718C45.09 32.0356 45.8382 32.8406 46.9416 33.4657C48.3859 34.2897 49.8634 34.7253 51.5019 34.0908C51.9802 33.9061 52.3211 33.6457 52.6289 33.1958C53.3676 32.1019 53.3676 30.918 53.2303 29.7105C53.1214 28.7397 52.0464 28.0862 51.2177 28.4556C50.9762 28.5645 50.73 28.7965 50.6258 29.0333C50.4364 29.4595 50.3606 29.9378 50.2185 30.3877C50.067 30.8659 49.7071 31.2116 49.3662 31.1406C48.8974 31.0459 48.367 31.0506 48.187 30.4066C47.9597 29.5874 47.8508 28.8297 48.3007 28.0199C48.7032 27.2954 49.1199 26.5756 49.7166 26.0263C50.4459 25.3491 51.4024 25.1976 52.359 25.3633C53.0835 25.4865 53.7891 25.7232 54.4852 25.9742C55.3944 26.3057 56.0526 27.0018 56.6446 27.7263C56.8482 27.9773 56.8009 28.4556 56.8056 28.8344C56.8435 30.8754 55.8254 32.3955 54.4095 33.7498C53.2303 34.8769 51.9754 35.8666 50.4316 36.4443C50.2706 36.5059 50.1428 36.6385 49.9913 36.7285C49.3946 37.0931 48.8027 37.4719 48.1965 37.8129C47.7845 38.0449 47.3489 38.2296 46.9179 38.419C45.9803 38.831 45.0616 39.314 44.0861 39.6171C43.5179 39.7923 42.8596 39.6786 42.2393 39.6929C42.0925 39.6929 41.8889 39.6171 41.8084 39.6834C41.3017 40.1427 40.6387 40.0007 40.0752 40.1853C38.1999 40.801 36.2821 41.2177 34.35 41.6297C33.6586 41.7765 32.953 42.0322 32.2474 42.2169C31.5182 42.411 30.7605 42.4536 30.0407 42.7046C29.7424 42.8088 29.3541 42.643 29.0131 42.6525C27.6067 42.6999 26.2334 42.4394 24.8459 42.3021C22.8144 42.1032 20.8776 41.4971 18.865 41.2177C17.809 41.0709 16.7909 40.6542 15.768 40.3274C15.5265 40.2516 15.2614 40.0764 15.1335 39.8728C14.9109 39.5082 14.7168 39.172 14.2385 39.1246C14.1675 39.1199 14.0917 39.0204 14.0491 38.9494C13.2156 37.5998 12.5811 36.2028 12.9599 34.5454C13.1209 33.8303 13.2156 33.1011 13.3435 32.3813C13.4477 31.8036 13.566 31.2258 13.6702 30.6481C13.7697 30.1035 13.8549 29.5542 13.9591 29.0096C14.0206 28.6924 14.0964 28.3751 14.1959 28.0673C14.4042 27.3948 14.6552 26.7366 14.8399 26.0594C15.2945 24.4068 15.8012 22.7825 16.7814 21.3477C17.2597 20.6468 17.6812 19.9033 18.1926 19.2214C19.2628 17.8008 20.7308 17.0005 22.4308 16.5648C24.1593 16.1197 25.8735 15.6319 27.5925 15.1631C27.8151 15.1016 28.0376 15.0258 28.2649 14.9879C29.1836 14.8222 30.0976 14.6328 31.021 14.5144C31.6319 14.4386 32.2048 14.2539 32.7968 14.0929C33.2277 13.9745 33.7249 14.1355 34.1843 14.0929C35.0366 14.0219 35.8796 13.8609 36.7272 13.7899C38.5362 13.6383 40.3499 13.5531 42.1541 13.3826C43.1438 13.2879 44.1193 13.0085 45.109 12.9327C45.9045 12.8712 46.5296 12.4971 47.2115 12.1798C48.2675 11.6826 49.3756 11.2848 50.4506 10.8254C51.5682 10.3519 52.681 9.85468 53.7938 9.36693C54.291 9.14909 54.7788 8.91706 55.2808 8.71817C55.5081 8.62346 55.7591 8.58557 56.0006 8.51928C56.1142 8.49086 56.2373 8.48613 56.3415 8.43877C57.0518 8.10729 57.7479 7.73793 58.4725 7.44906C58.9129 7.27385 59.4101 7.2407 59.8694 7.0939C60.3951 6.92343 60.8923 6.67718 61.4179 6.5067C62.0478 6.30308 62.7107 5.95739 63.3263 6.01895C64.2829 6.11366 65.2158 5.74903 66.1581 6.00474C66.3854 6.06631 66.6317 6.05684 66.8542 6.12787C67.9103 6.45935 68.237 6.96131 67.7256 7.86105C67.3752 8.47666 67.0626 9.10648 66.7122 9.72209C66.6127 9.8973 66.4801 10.0725 66.3286 10.2051C65.623 10.8207 64.908 11.4221 64.1929 12.0235C64.0793 12.1182 63.9514 12.194 63.8188 12.2556C62.3129 12.9801 60.7929 13.6809 59.2965 14.4291C58.804 14.6754 58.3493 15.0163 57.9184 15.3668C57.3549 15.8308 57.3265 16.8205 57.8474 17.3272C58.4819 17.9381 59.1733 18.3927 60.1252 18.0044C60.8923 17.6919 61.7352 17.6398 62.4834 17.1804C63.0185 16.8537 63.7525 16.8537 64.3918 16.6927C64.6949 16.6169 64.9885 16.4938 65.2915 16.3991C66.0682 16.1576 66.84 15.9113 67.6214 15.6888C67.896 15.6083 68.1896 15.5799 68.4738 15.542C68.6727 15.5136 68.8763 15.5136 69.0799 15.4899C70.0365 15.3952 70.9315 14.8648 71.9354 15.0542C72.5889 14.6186 73.3466 14.6706 74.0758 14.6517C74.7909 14.6328 75.5201 14.7843 76.2305 14.718C77.0828 14.6328 77.8832 14.8506 78.7071 14.9358C78.8113 14.9453 78.9249 14.8317 79.0386 14.8222C79.6116 14.7654 79.9525 15.0637 80.1088 15.6272C80.3787 16.598 79.8768 17.2988 79.2991 17.9286C78.8255 18.4448 78.2478 18.8615 77.7032 19.3019C77.599 19.3872 77.4285 19.3824 77.3007 19.4393C76.7987 19.6713 76.2731 19.8607 75.8137 20.1591C75.004 20.6847 74.0853 20.8741 73.195 21.1488C73.0293 21.2009 72.8115 21.163 72.6883 21.2624C71.9212 21.8686 70.9883 21.8449 70.0981 22.0059C68.3696 22.3184 66.6554 22.6878 64.9316 23.0193C64.5007 23.1045 64.0461 23.0998 63.6199 23.2087C63.0232 23.3602 62.545 23.6728 62.4266 24.3499C62.3035 25.065 62.6728 25.5906 63.2032 25.9032C63.8614 26.2915 64.5197 26.6751 65.4336 26.4288C66.4896 26.1447 67.6166 26.0973 68.7153 26.0405C69.3735 26.0074 70.0459 26.1115 70.6947 26.2347C71.3482 26.3578 72.5463 26.3625 73.1619 26.3625C74.1327 26.3625 75.1319 26.0216 76.0742 26.5614C76.2447 26.6608 76.4672 26.694 76.6709 26.7129C78.1673 26.8692 79.6021 27.2859 81.0133 27.7974C81.7662 28.072 82.1924 28.6734 82.4245 29.3932C82.5097 29.6537 82.4055 30.023 82.2777 30.2977C81.8467 31.2211 80.9233 31.6378 80.1846 32.2487C79.3654 32.9211 78.3472 32.8975 77.3907 33.1248C76.3204 33.3805 75.2171 33.3947 74.1421 33.7546C73.3229 34.0292 72.4184 34.2471 71.4666 34.1808C70.2212 34.0955 68.9899 34.4507 67.7729 34.7396C67.2568 34.8627 66.7501 35.0521 66.2292 35.1231C65.4857 35.2273 64.728 35.2794 63.9751 35.2936C63.5252 35.3031 63.1227 35.3315 62.7012 35.5304C61.9388 35.8855 61.1385 36.0986 60.2672 36.1128C59.5143 36.127 58.7661 36.2975 58.0179 36.4349C57.4496 36.539 56.8908 36.7048 56.3226 36.8184C56.1 36.861 55.8632 36.8232 55.6359 36.8232C55.6122 36.7616 55.5933 36.7 55.5696 36.6432L55.5886 36.6527ZM43.068 24.9182C43.2101 23.9237 42.8502 22.8204 42.566 21.717C42.102 19.8986 41.0175 18.5679 39.4548 17.5025C38.0674 16.5601 36.4289 16.4938 34.9656 15.8735C34.1511 15.9824 33.3319 16.0534 32.5269 16.2097C31.9207 16.3281 31.3335 16.527 30.7463 16.7258C30.1923 16.9153 29.624 17.1047 29.1079 17.3746C28.5964 17.6445 28.1323 18.0044 27.6683 18.3454C27.4599 18.4969 27.2373 18.6721 27.1095 18.8852C26.4655 19.9412 25.793 20.983 25.2484 22.0911C24.9454 22.7067 24.7133 23.4407 24.7276 24.1132C24.7702 25.6996 25.0259 27.2575 25.7267 28.7302C26.2808 29.8952 26.8964 30.9559 27.9713 31.7183C29.2404 32.6133 30.5711 33.2763 32.1385 33.5036C33.2514 33.6646 34.2932 33.4562 35.3681 33.2621C37.1392 32.9401 38.6214 31.9551 40.1746 31.1737C40.9607 30.776 41.4769 29.9283 41.9504 29.128C42.334 28.4793 42.4145 27.7311 42.7176 27.0728C43.0159 26.4288 43.1154 25.7848 43.068 24.9229V24.9182Z" fill="#41240F"/>
<path d="M18.2347 44.9161C18.713 45.0581 19.1582 45.1813 19.5986 45.3186C19.9774 45.437 20.3325 45.5127 20.7635 45.4749C21.2844 45.4275 21.8242 45.6785 22.5014 45.83C21.9095 46.3793 21.4264 46.8008 20.9813 47.2554C20.6924 47.5443 20.4509 47.8757 20.1999 48.1977C19.9111 48.5671 19.6127 48.9317 19.3712 49.3295C19.0398 49.8741 18.7557 50.4518 18.4478 51.0154C18.1448 51.5694 17.837 52.1282 17.5292 52.6917C16.6578 52.095 16.3169 51.3279 16.5537 50.5513C16.7715 49.8362 16.7952 49.1212 16.7952 48.3777C16.7952 47.7147 16.8378 46.9286 17.1929 46.4314C17.5197 45.9768 17.7707 45.4464 18.2442 44.9161H18.2347Z" fill="#41240F"/>
<path d="M132.284 45.8488C132.26 46.0667 132.275 46.3461 132.189 46.5828C132.043 46.9901 131.929 47.5157 131.616 47.7383C131.072 48.1313 130.39 48.5433 129.76 48.5433C129.201 48.5433 128.59 48.065 128.084 47.6862C127.198 47.0185 127.283 45.6594 127.643 44.7881C127.932 44.0872 128.235 43.3864 128.614 42.7329C128.875 42.283 129.244 41.8805 129.623 41.5206C129.983 41.1797 130.518 41.3217 130.821 41.8C131.086 42.2215 131.327 42.6619 131.531 43.1165C131.773 43.6516 131.995 44.2009 132.166 44.7597C132.265 45.0864 132.246 45.4463 132.284 45.8394V45.8488Z" fill="#41240F"/>
<path d="M39.6921 22.8015C35.5628 23.0525 31.4761 23.2987 27.3184 23.5544C27.3847 23.3082 27.3989 23.133 27.4746 22.9909C28.0808 21.8307 28.8242 20.8457 29.9939 20.1307C30.9742 19.534 31.926 18.9326 33.053 18.6722C33.3608 18.6011 33.697 18.5443 34.0096 18.5822C35.6859 18.7858 37.2155 19.3256 38.3899 20.6184C38.4704 20.7037 38.5604 20.7842 38.6219 20.8883C38.9629 21.485 39.2991 22.0912 39.6969 22.8015H39.6921Z" fill="#41240F"/>
<path d="M30.0732 25.6948C30.2294 26.2062 30.3715 26.6845 30.5136 27.1628C30.7598 27.9867 31.276 28.5313 32.0999 28.806C32.9002 29.0712 33.7147 29.1659 34.5387 29.0428C34.927 28.9859 35.3295 28.8439 35.5426 28.4319C36.0209 27.4943 36.5134 26.5614 37.1006 25.4296C37.8298 25.2591 38.7959 25.1218 39.904 25.1028C39.8851 25.5148 39.9845 25.9126 39.8377 26.1731C39.2268 27.2717 38.7911 28.4745 37.8156 29.36C36.6128 30.4539 35.2916 31.2116 33.62 31.0979C32.5167 31.0222 31.4512 30.8422 30.4993 30.1272C29.8269 29.6205 29.2161 29.1327 28.7804 28.4035C28.5768 28.0625 28.1837 27.8399 27.8948 27.5463C27.4308 27.0823 27.0188 26.585 27.0803 25.7611C28.0416 25.6664 29.0029 25.5196 30.0779 25.7042L30.0732 25.6948Z" fill="#41240F"/>
</svg>
