<svg width="122" height="174" viewBox="0 0 122 174" fill="none" xmlns="http://www.w3.org/2000/svg">
<path d="M16.8782 152.046C12.5393 152.315 8.99548 151.236 5.76894 149.019C4.63164 148.238 3.89006 147.163 3.42659 145.895C3.01302 144.759 3.44441 143.989 4.63163 143.799C6.04347 143.57 7.31625 144.036 8.15408 145.164C9.81191 147.385 12.1329 147.529 14.8104 146.565C15.3309 146.379 15.8621 146.121 15.937 145.515C16.0154 144.888 15.4628 144.616 15.0457 144.276C14.3612 143.713 13.5233 143.574 12.7105 143.394C10.3253 142.875 8.15053 141.908 6.25026 140.364C4.70295 139.106 3.57634 137.573 3.52642 135.481C3.46938 133.012 4.29294 130.96 6.54973 129.742C10.2077 127.768 15.748 128.104 18.8997 130.967C19.6769 131.673 20.2117 132.543 20.5504 133.514C20.914 134.553 20.5646 135.133 19.4915 135.373C18.7785 135.534 18.0654 135.466 17.3595 135.234C16.322 134.893 15.3915 134.359 14.4538 133.818C13.0777 133.023 11.6195 132.898 10.1292 133.518C9.62651 133.729 9.04895 133.958 9.05964 134.596C9.07034 135.327 9.71565 135.531 10.2897 135.721C10.5749 135.817 10.8708 135.882 11.1631 135.932C13.7051 136.358 16.2365 136.967 18.7963 137.157C22.7822 137.451 26.5828 143.552 25.0461 147.131C24.8572 147.572 24.7181 148.037 24.5755 148.496C23.8803 150.728 22.2795 151.828 20.0513 152.025C18.8605 152.132 17.6519 152.043 16.8711 152.043L16.8782 152.046Z" fill="white"/>
<path d="M34.8996 130.182C38.6502 130.096 41.7341 131.433 43.5845 134.796C46.0659 139.31 45.3956 144.494 40.9213 148.163C39.0281 149.714 36.8534 150.584 34.4361 150.37C30.2648 150.001 26.7031 147.106 25.7726 143.029C25.302 140.969 25.2414 138.913 25.8011 136.871C26.999 132.471 30.1186 130.193 34.9032 130.179L34.8996 130.182ZM38.8427 140.442C38.636 139.149 38.7429 137.809 38.3971 136.505C38.0584 135.234 37.2313 134.449 36.0298 134.17C33.5234 133.586 31.2167 135.004 30.6391 136.989C30.1186 138.762 30.0295 140.528 30.3183 142.345C30.6855 144.648 31.8834 145.816 34.1866 146.049C34.8853 146.121 35.5699 146.013 36.2401 145.891C38.0727 145.555 38.8356 144.587 38.9141 142.685C38.9461 141.936 38.636 141.209 38.8427 140.442Z" fill="white"/>
<path d="M46.9785 139.869C46.9785 137.412 46.9678 134.95 46.982 132.493C46.9892 131.189 47.4241 130.616 48.6969 130.444C49.5312 130.329 50.4118 130.315 51.2389 130.451C52.3441 130.634 53.157 131.228 53.4672 132.446C53.8594 133.994 54.3799 135.513 54.8505 137.043C54.9753 137.451 55.1036 137.856 55.2498 138.257C55.4245 138.744 55.7525 139.088 56.2908 139.12C56.8934 139.16 57.1429 138.687 57.282 138.239C57.8952 136.237 58.9398 134.427 59.7241 132.504C60.2589 131.189 61.1502 130.551 62.4943 130.487C63.5532 130.433 64.6263 130.358 65.6781 130.462C68.0026 130.695 69.5784 132.464 69.7068 134.861C69.853 137.684 69.9849 140.5 70.4341 143.305C70.9368 146.465 69.4643 148.367 66.2806 148.994C65.4463 149.159 64.6192 149.391 63.7564 149.28C62.5692 149.126 62.1022 148.653 61.9774 147.439C61.9096 146.801 61.9417 146.153 61.8312 145.526C61.7599 145.128 61.6173 144.63 61.136 144.53C60.6475 144.43 60.3338 144.806 60.1413 145.189C59.742 145.999 59.3284 146.816 59.0503 147.675C58.7116 148.718 57.7169 149.452 56.2481 149.259C55.4352 149.151 54.772 148.8 54.4333 147.919C54.0519 146.927 53.5599 145.974 53.0607 145.032C52.8468 144.627 52.5473 144.122 51.9733 144.297C51.517 144.433 51.4243 144.921 51.4065 145.358C51.3815 146.103 51.3423 146.855 51.3993 147.597C51.4635 148.374 51.1034 148.793 50.4403 149.058C49.8306 149.302 49.2067 149.374 48.565 149.252C47.4812 149.048 47.0355 148.525 46.9891 147.403C46.9891 147.349 46.9891 147.296 46.9891 147.242V139.866L46.9785 139.869Z" fill="white"/>
<path d="M81.9816 131.866C85.7323 131.78 88.8162 133.116 90.6665 136.48C93.1479 140.994 92.4777 146.178 88.0033 149.846C86.1102 151.398 83.9354 152.268 81.5181 152.053C77.3468 151.684 73.7852 148.79 72.8546 144.713C72.384 142.653 72.3234 140.597 72.8832 138.555C74.0811 134.155 77.2007 131.877 81.9852 131.862L81.9816 131.866ZM85.9248 142.126C85.718 140.833 85.8249 139.493 85.4791 138.189C85.1404 136.917 84.3133 136.133 83.1118 135.853C80.6055 135.269 78.2987 136.688 77.7212 138.673C77.2007 140.446 77.1115 142.212 77.4003 144.029C77.7675 146.332 78.9654 147.5 81.2686 147.733C81.9674 147.804 82.6519 147.697 83.3222 147.575C85.1547 147.238 85.9176 146.271 85.9961 144.369C86.0282 143.62 85.718 142.893 85.9248 142.126Z" fill="white"/>
<path d="M107.897 150.695C103.808 150.95 100.467 149.932 97.426 147.84C96.3528 147.102 95.6541 146.092 95.2155 144.895C94.8234 143.824 95.2334 143.101 96.3493 142.922C97.6827 142.707 98.877 143.144 99.6721 144.208C101.234 146.3 103.423 146.436 105.947 145.53C106.439 145.354 106.938 145.11 107.009 144.541C107.084 143.95 106.564 143.692 106.168 143.373C105.523 142.843 104.731 142.71 103.965 142.542C101.715 142.051 99.6685 141.141 97.8752 139.687C96.417 138.501 95.3546 137.057 95.3082 135.083C95.2548 132.758 96.0284 130.823 98.1604 129.673C101.608 127.814 106.828 128.129 109.801 130.831C110.535 131.497 111.038 132.317 111.355 133.231C111.698 134.212 111.37 134.757 110.357 134.983C109.683 135.133 109.013 135.069 108.35 134.85C107.373 134.528 106.496 134.026 105.612 133.514C104.314 132.765 102.941 132.647 101.537 133.231C101.063 133.428 100.521 133.646 100.528 134.245C100.538 134.933 101.148 135.126 101.686 135.305C101.954 135.395 102.232 135.459 102.51 135.506C104.906 135.907 107.291 136.484 109.705 136.659C113.459 136.939 117.045 142.689 115.594 146.06C115.416 146.475 115.284 146.912 115.149 147.346C114.496 149.449 112.985 150.484 110.885 150.67C109.762 150.771 108.624 150.688 107.89 150.688L107.897 150.695Z" fill="white"/>
<path d="M0.00324116 169.489C-0.0395416 168.497 0.345492 167.386 0.905233 166.347C2.14593 164.047 3.32247 161.722 4.06047 159.193C4.31717 158.315 4.80559 157.531 5.49368 156.915C6.4456 156.062 7.44744 155.27 8.5384 154.6C9.5224 153.999 10.6062 153.759 11.7471 153.895C12.9807 154.042 13.9468 154.525 14.3711 155.858C14.8025 157.226 15.4621 158.527 15.8721 159.903C16.6992 162.683 18.1645 165.176 19.2412 167.841C19.7011 168.984 19.9614 170.181 20.2181 171.377C20.375 172.122 20.0969 172.577 19.4409 172.932C17.5157 173.971 15.3016 173.168 14.5066 171.109C13.9183 169.59 13.1981 169.02 11.4726 169.102C10.1677 169.163 8.84501 169.324 7.6257 169.951C7.00535 170.27 6.49551 170.582 6.56682 171.352C6.64169 172.19 6.10334 172.473 5.45804 172.674C4.19951 173.068 2.93029 173.018 1.69316 172.617C0.406109 172.198 -0.0288424 171.395 0.00680987 169.489H0.00324116ZM10.0964 161.393C8.47779 161.353 7.87525 162.22 8.59187 163.553C9.10526 164.513 11.2979 165.222 12.2427 164.739C12.7882 164.459 12.9878 164.051 12.806 163.431C12.4459 162.185 11.4583 161.425 10.0964 161.393Z" fill="white"/>
<path d="M34.5692 173.38C32.9791 173.505 31.6457 173 30.5868 171.778C29.995 171.094 29.4067 170.399 28.7685 169.761C27.5421 168.536 26.9717 168.658 26.2194 170.216C25.8736 170.933 25.6204 171.761 24.9751 172.244C23.7487 173.165 22.3404 173.337 20.8929 172.842C20.0373 172.549 19.9339 172.215 20.433 171.406C21.4456 169.776 22.4973 168.167 23.5276 166.548C23.7843 166.143 24.0161 165.72 24.2764 165.319C24.9894 164.227 24.9823 163.198 24.3084 162.03C23.1355 159.999 22.1693 157.857 20.925 155.858C20.4223 155.048 20.6113 154.643 21.5097 154.317C22.9893 153.78 24.1587 154.282 24.9145 155.758C25.132 156.18 25.3566 156.617 25.6632 156.976C26.854 158.358 28.6117 158.315 29.7918 156.886C30.1625 156.435 30.4513 155.915 30.8043 155.446C31.7348 154.214 33.8383 153.533 35.2573 153.984C36.1878 154.282 36.3268 154.665 35.7172 155.46C34.4872 157.069 33.1966 158.631 31.9844 160.254C31.0289 161.525 31.061 161.98 32.0486 163.227C33.0753 164.524 34.2127 165.681 35.571 166.67C37.0221 167.727 38.2699 169.059 39.7245 170.145C40.7976 170.947 40.6015 172.033 39.4357 172.721C39.0649 172.939 38.6621 173.061 38.2271 173.09C37.0078 173.179 35.7885 173.279 34.5692 173.376V173.38Z" fill="white"/>
<path d="M47.8273 153.035C51.578 152.949 54.6619 154.285 56.5122 157.649C58.9936 162.163 58.3234 167.347 53.849 171.015C51.9559 172.567 49.7811 173.437 47.3638 173.222C43.1925 172.853 39.6309 169.959 38.7003 165.882C38.2297 163.822 38.1691 161.765 38.7289 159.723C39.9268 155.324 43.0463 153.046 47.8309 153.031L47.8273 153.035ZM51.7705 163.295C51.5637 162.002 51.6707 160.662 51.3248 159.358C50.9861 158.086 50.159 157.302 48.9575 157.022C46.4512 156.438 44.1444 157.857 43.5669 159.842C43.0464 161.615 42.9572 163.381 43.246 165.197C43.6132 167.501 44.8112 168.669 47.1143 168.902C47.8131 168.973 48.4976 168.866 49.1678 168.744C51.0004 168.407 51.7633 167.44 51.8418 165.538C51.8739 164.789 51.5637 164.062 51.7705 163.295Z" fill="white"/>
<path d="M65.0889 157.377C64.8322 158.867 64.9641 160.143 65.1959 161.407C65.4026 162.521 65.367 163.643 65.3991 164.764C65.4526 166.487 65.9303 167.067 67.6166 167.34C68.6613 167.508 69.7308 167.537 70.7861 167.655C71.3138 167.716 71.8557 167.77 72.3477 167.949C73.1677 168.246 73.9128 168.69 74.0162 169.69C74.1303 170.79 74.0626 171.832 73.0501 172.567C72.337 173.082 71.5562 173.401 70.6863 173.434C67.8056 173.541 64.9392 173.401 62.1191 172.756C60.2937 172.341 59.8266 171.692 59.6198 169.783C59.2597 166.469 59.2455 163.184 59.8338 159.881C60.1012 158.373 60.0227 156.789 59.9977 155.242C59.9835 154.403 60.3365 153.952 61.0317 153.64C61.841 153.279 62.6574 153.189 63.5166 153.436C64.6646 153.766 65.014 154.145 65.0747 155.331C65.1139 156.076 65.0818 156.829 65.0818 157.373L65.0889 157.377Z" fill="white"/>
<path d="M82.6159 155.79C85.9957 155.711 88.7694 156.918 90.438 159.946C92.6734 164.012 92.0709 168.68 88.0386 171.983C86.3308 173.38 84.3735 174.164 82.1987 173.971C78.441 173.638 75.2323 171.033 74.3944 167.361C73.9737 165.509 73.9167 163.657 74.4194 161.816C75.4997 157.853 78.3091 155.801 82.6159 155.79ZM86.1668 165.029C85.9779 163.865 86.0777 162.657 85.764 161.486C85.4574 160.343 84.7158 159.634 83.632 159.383C81.3752 158.856 79.2966 160.135 78.7761 161.923C78.3091 163.521 78.2271 165.111 78.4873 166.749C78.8153 168.823 79.8956 169.876 81.9706 170.084C82.6016 170.148 83.2148 170.052 83.8209 169.941C85.4716 169.636 86.1597 168.769 86.231 167.053C86.2596 166.38 85.9779 165.724 86.1668 165.033V165.029Z" fill="white"/>
<path d="M97.6301 153.117C99.4876 153.117 101.345 153.117 103.206 153.117C103.965 153.117 104.686 153.3 105.359 153.626C106.026 153.945 106.436 154.464 106.425 155.263C106.415 156.033 106.094 156.574 105.42 156.947C104.743 157.323 103.998 157.32 103.267 157.438C101.57 157.71 101.356 157.961 101.138 159.666C101.071 160.196 101.031 160.719 101.099 161.257C101.274 162.686 101.363 164.123 101.22 165.566C101.128 166.527 101.238 167.479 101.406 168.432C101.773 170.514 100.842 171.95 98.8244 172.538C97.8368 172.825 96.8243 172.842 95.8225 172.756C94.5033 172.645 93.9579 172.022 93.9079 170.704C93.8331 168.676 93.8402 166.648 94.0969 164.628C94.3394 162.715 94.293 160.791 94.1254 158.874C94.0042 157.531 93.7368 157.266 92.4462 156.933C91.7082 156.743 90.9702 156.804 90.2429 156.897C89.5263 156.99 88.9665 156.836 88.6528 156.159C88.3533 155.51 88.7241 154.26 89.3231 153.866C89.9577 153.45 90.685 153.257 91.4301 153.221C93.498 153.121 95.5587 152.859 97.6372 153.117H97.6301Z" fill="white"/>
<path d="M113.032 157.377C112.776 158.867 112.907 160.143 113.139 161.407C113.346 162.521 113.31 163.643 113.342 164.764C113.396 166.487 113.874 167.067 115.56 167.34C116.605 167.508 117.674 167.537 118.729 167.655C119.257 167.716 119.799 167.77 120.291 167.949C121.111 168.246 121.856 168.69 121.96 169.69C122.074 170.79 122.006 171.832 120.993 172.567C120.28 173.082 119.5 173.401 118.63 173.434C115.749 173.541 112.883 173.401 110.062 172.756C108.237 172.341 107.77 171.692 107.563 169.783C107.203 166.469 107.189 163.184 107.777 159.881C108.045 158.373 107.966 156.789 107.941 155.242C107.927 154.403 108.28 153.952 108.975 153.64C109.784 153.279 110.601 153.189 111.46 153.436C112.608 153.766 112.957 154.145 113.018 155.331C113.057 156.076 113.025 156.829 113.025 157.373L113.032 157.377Z" fill="white"/>
<path d="M117.692 41.9259C117.756 42.1587 117.877 42.3952 117.874 42.6316C117.866 43.3983 117.791 44.1614 117.791 44.928C117.791 45.4009 117.888 45.8738 117.938 46.3467C117.959 46.5652 118.005 46.7873 117.988 47.0023C117.966 47.2495 117.941 47.4716 118.084 47.7044C118.155 47.8227 118.169 48.0269 118.12 48.1558C117.973 48.5427 117.891 48.8938 118.098 49.3094C118.166 49.4455 117.973 49.7106 117.881 49.9686C118.162 50.2838 118.134 50.6528 117.813 51.0039C118.28 51.4696 118.18 52.0213 118.112 52.5408C118.07 52.8596 117.841 53.1641 118.205 53.44C118.244 53.4687 118.234 53.6191 118.198 53.6836C118.027 53.9845 118.087 54.2747 118.184 54.5828C118.323 55.0378 118.333 55.4999 118.191 55.9656C118.141 56.1269 118.134 56.3275 118.18 56.4887C118.39 57.2088 118.223 57.8966 118.034 58.5844C117.995 58.7277 117.988 58.8854 117.988 59.0322C118.005 60.0425 118.002 61.0384 117.802 62.0487C117.67 62.715 117.528 63.4387 117.706 64.1552C117.767 64.3988 117.638 64.6818 117.67 64.9398C117.72 65.3661 117.392 65.796 117.692 66.2223C117.731 66.2796 117.674 66.4337 117.624 66.5196C117.389 66.9316 117.474 67.3615 117.517 67.7986C117.603 68.6584 117.799 69.5253 117.446 70.378C117.392 70.5034 117.424 70.6682 117.428 70.8115C117.435 71.2987 117.449 71.7823 117.453 72.2695C117.453 72.3089 117.439 72.3698 117.41 72.3913C116.836 72.8463 117.157 73.4732 117.114 74.0214C117.1 74.2256 117.178 74.5265 117.321 74.634C117.674 74.8955 117.638 75.2931 117.799 75.5905C117.767 75.6693 117.763 75.723 117.731 75.7481C116.718 76.4897 117.061 77.5788 117.029 78.5639C117.007 79.1622 117.039 79.7605 117.064 80.3588C117.082 80.7564 117.139 81.1541 117.157 81.5517C117.185 82.15 117.157 82.7519 117.221 83.3466C117.296 84.0774 117.446 84.801 117.553 85.5283C117.588 85.7683 117.638 86.0191 117.603 86.2555C117.546 86.6639 117.46 87.0508 117.884 87.3339C117.945 87.3733 117.948 87.5345 117.941 87.6348C117.92 87.9357 117.834 88.208 117.952 88.5376C118.023 88.7418 117.777 89.057 117.674 89.3221C118.166 89.8058 118.241 90.4542 118.262 91.0776C118.291 91.769 118.141 92.4532 118.155 93.1554C118.169 93.9435 117.973 94.7389 117.888 95.5306C117.809 96.2578 117.742 96.9851 117.692 97.7159C117.649 98.3106 117.667 98.9125 117.599 99.5036C117.567 99.7722 117.478 100.019 117.624 100.277C117.635 100.295 117.645 100.324 117.642 100.342C117.428 100.919 117.635 101.513 117.578 102.101C117.528 102.62 117.578 103.151 117.61 103.674C117.645 104.225 117.77 104.777 117.759 105.329C117.749 105.877 117.62 106.421 117.549 106.969C117.517 107.213 117.471 107.457 117.488 107.697C117.499 107.836 117.628 107.965 117.742 108.166C117.585 108.607 117.346 109.119 117.485 109.699C117.513 109.814 117.428 109.954 117.392 110.083C117.364 110.19 117.278 110.326 117.314 110.401C117.645 111.096 117.15 111.791 117.335 112.486C117.364 112.598 117.275 112.737 117.239 112.866C117.21 112.97 117.121 113.106 117.157 113.178C117.481 113.805 117.164 114.489 117.296 115.077C117.449 115.75 117.424 116.452 117.674 117.119C117.834 117.545 117.713 118.079 117.706 118.562C117.706 118.792 117.667 119.017 117.642 119.3C117.556 119.3 117.439 119.308 117.321 119.3C117.2 119.29 116.996 119.211 116.975 119.247C116.758 119.637 116.472 119.372 116.166 119.333C115.991 119.716 115.692 119.752 115.307 119.616C115.021 119.515 114.708 119.422 114.412 119.444C113.845 119.479 113.317 119.343 112.79 119.196C112.429 119.096 112.141 119.182 111.88 119.526C111.542 119.261 111.207 119.318 110.793 119.469C110.173 119.694 109.506 119.709 108.829 119.569C108.54 119.508 108.151 119.257 107.869 119.655C107.459 119.472 107.107 120.024 106.675 119.745C106.575 119.68 106.397 119.662 106.287 119.705C105.695 119.934 105.103 119.737 104.511 119.734C104.229 119.734 104.001 119.762 103.723 119.938C103.449 120.114 102.974 120.063 102.614 119.988C102.375 119.938 102.169 119.909 101.923 119.934C101.47 119.981 101.01 119.931 100.554 119.934C100.411 119.934 100.268 119.977 100.129 120.006C100.087 120.013 100.051 120.067 100.012 120.063C99.3985 120.042 98.7817 120.053 98.1756 119.974C97.6801 119.909 97.2023 119.737 96.7353 120.081C96.6319 120.16 96.4144 120.164 96.2825 120.114C95.6229 119.852 94.8992 119.899 94.2396 119.709C93.3661 119.454 92.5212 119.616 91.662 119.655C91.5978 119.655 91.5086 119.705 91.4694 119.677C90.9346 119.265 90.5389 119.734 90.0576 119.902C89.6904 119.419 89.1877 119.737 88.7313 119.705C88.5067 119.691 88.2786 119.705 87.9577 119.705C87.9434 119.727 87.8721 119.848 87.8614 119.866C87.2625 119.848 86.7526 119.838 86.2428 119.816C85.954 119.805 85.6617 119.805 85.3836 119.741C85.0485 119.662 84.7739 119.673 84.453 119.852C83.904 120.16 83.3086 119.96 82.7525 119.823C82.3139 119.716 81.8932 119.666 81.4547 119.77C80.9663 119.884 80.4422 119.831 79.9823 120.085C79.4439 119.741 78.8592 120.056 78.2959 119.974C77.8716 119.913 77.4082 120.114 76.9625 120.2C76.9197 120.207 76.8805 120.257 76.8449 120.253C76.4527 120.2 76.0427 120.038 75.679 120.114C75.2904 120.192 74.9446 120.364 74.556 120.124C74.4526 120.06 74.285 120.038 74.1709 120.074C73.7253 120.217 73.2903 120.232 72.8269 120.142C72.4882 120.078 72.1316 120.139 71.7858 120.11C71.2332 120.063 70.7305 119.805 70.1208 119.891C69.7536 119.945 69.3329 119.591 68.8837 119.401C68.8588 119.462 68.8053 119.591 68.7304 119.766C68.3275 119.53 67.9532 119.967 67.5147 119.791C67.1367 119.641 66.7267 119.565 66.2704 119.436C66.1028 119.684 65.8889 119.795 65.4504 119.648C65.076 119.522 64.5947 119.752 64.1562 119.762C63.272 119.784 62.395 119.967 61.4965 119.82C60.4555 119.651 59.4002 119.712 58.3484 119.691C58.1524 119.687 57.9456 119.666 57.7638 119.594C57.4714 119.483 57.2575 119.383 56.9259 119.634C56.6906 119.813 56.2129 119.834 55.917 119.723C55.3287 119.505 54.7404 119.644 54.1593 119.558C53.9204 119.522 53.6851 119.476 53.4427 119.454C53.2288 119.437 52.9757 119.214 52.8152 119.569C52.7974 119.605 52.612 119.551 52.5086 119.569C52.2911 119.605 52.0772 119.659 51.8669 119.748C51.5353 119.68 51.2002 119.39 50.8543 119.777C50.8294 119.805 50.7759 119.82 50.7331 119.82C50.1235 119.82 49.5138 119.82 48.9042 119.82C48.8828 119.82 48.8542 119.827 48.84 119.816C48.3765 119.522 47.9273 119.286 47.4567 119.827C47.3996 119.891 47.1643 119.809 47.011 119.784C46.6188 119.72 46.2374 119.419 45.8274 119.737C45.371 119.39 44.797 119.902 44.3228 119.519C44.2016 119.419 43.92 119.447 43.7417 119.505C42.9003 119.77 42.1195 119.634 41.3031 119.333C40.9786 119.214 40.5366 119.408 40.148 119.469C40.066 119.483 39.9483 119.591 39.9162 119.565C39.4028 119.157 38.8573 119.562 38.3297 119.501C38.0766 119.472 37.8127 119.569 37.5525 119.598C37.3849 119.616 37.2173 119.623 37.0462 119.623C36.9606 119.623 36.8537 119.565 36.7895 119.601C36.1799 119.924 35.6273 119.655 35.0176 119.433C34.85 119.802 34.6112 119.773 34.2332 119.659C33.3776 119.394 32.5041 119.146 31.6021 119.594C31.0852 119.852 30.5646 119.548 30.0512 119.444C29.8373 119.401 29.684 119.3 29.4523 119.497C29.3168 119.616 28.9496 119.598 28.7642 119.497C28.2971 119.243 27.9014 119.397 27.5199 119.623C27.1563 119.841 26.814 119.942 26.3933 119.795C26.1937 119.727 25.9405 119.712 25.7444 119.78C25.5519 119.845 25.4378 119.82 25.2596 119.755C25.0991 119.694 24.8781 119.77 24.6891 119.805C24.461 119.848 24.2292 119.97 24.0082 119.952C23.4413 119.902 22.8744 119.712 22.3147 119.737C21.8334 119.759 21.3556 119.712 20.8886 119.748C20.2469 119.802 19.6693 119.616 19.0668 119.505C18.8172 119.458 18.5534 119.487 18.2967 119.494C18.1434 119.494 17.9901 119.508 17.8439 119.537C17.5943 119.583 17.3305 119.608 17.1023 119.709C16.8563 119.82 16.6674 119.906 16.3679 119.82C16.0541 119.73 15.6834 119.648 15.3482 119.884C15.252 119.952 15.0951 119.949 14.9632 119.949C13.7938 119.949 12.6208 119.977 11.455 119.917C10.8418 119.884 10.2571 119.97 9.65813 120.028C9.17683 120.074 8.68838 120.035 8.20351 120.013C7.6509 119.985 7.09829 119.949 6.55281 119.877C6.34246 119.848 6.14636 119.716 5.8968 119.608C5.50462 119.888 5.06254 119.981 4.59193 119.659C4.48141 119.583 4.29959 119.601 4.14985 119.601C3.39759 119.601 2.89845 119.146 2.87349 118.398C2.86279 117.993 2.73087 117.588 2.99826 117.169C3.10522 117 3.00541 116.538 2.83785 116.388C2.6168 116.187 2.63106 116.065 2.6988 115.829C2.73802 115.696 2.66315 115.524 2.63463 115.374C2.55976 114.944 2.42427 114.528 2.64531 114.077C2.72375 113.916 2.90915 113.565 2.5455 113.371C2.50628 113.35 2.50626 113.153 2.55261 113.081C2.70948 112.848 2.64176 112.644 2.48132 112.476C2.10697 112.078 2.1961 111.573 2.36367 111.208C2.5134 110.878 2.48131 110.599 2.46705 110.294C2.45635 110.004 2.40645 109.717 2.3708 109.431C2.31376 108.983 2.0321 108.535 2.43141 108.098C2.16758 107.772 2.11409 107.471 2.2674 107.055C2.39931 106.701 2.32089 106.253 2.2781 105.852C2.24602 105.529 2.11767 105.218 2.05349 104.899C2.02497 104.755 1.99644 104.544 2.07131 104.462C2.36366 104.139 2.19254 103.767 2.19254 103.43C2.19254 103.136 1.96792 102.846 2.17827 102.538C1.74687 102.266 2.23176 101.793 1.92515 101.427C1.77897 101.252 1.97862 100.797 2.01071 100.467C2.02497 100.324 2.03566 100.177 2.02496 100.034C2.00001 99.7328 1.86097 99.4068 1.94297 99.1417C2.06419 98.7512 2.17471 98.3715 2.20679 97.9631C2.24601 97.4723 2.34583 96.9851 2.19966 96.4871C2.12835 96.2363 2.06062 95.9461 2.11409 95.7025C2.24601 95.0541 2.15331 94.42 2.10696 93.7787C2.09626 93.6534 2.13192 93.4957 2.20323 93.399C2.50627 92.987 2.46706 92.6216 2.07488 92.2813C2.24245 91.923 2.55975 91.6257 2.36367 91.1743C2.31732 91.0668 2.49914 90.8626 2.57757 90.705C2.41357 90.4793 2.18184 90.2751 2.09984 90.0243C2.01428 89.7664 2.05706 89.4619 2.07845 89.1788C2.11767 88.6737 2.16757 88.1686 2.24244 87.6706C2.27452 87.4593 2.3815 87.2586 2.41358 87.1655C2.32445 86.7822 2.2567 86.4848 2.17827 86.1588C2.34583 86.0549 2.50985 85.9582 2.68454 85.8507C2.60254 84.4571 2.50271 83.0671 2.44923 81.6771C2.42427 81.0574 2.50628 80.434 2.50628 79.8142C2.50628 79.4918 2.43853 79.1694 2.40288 78.8434C2.39575 78.7825 2.38149 78.7072 2.40288 78.6535C2.79505 77.697 2.45992 76.7261 2.42427 75.766C2.39575 75.0065 2.15332 74.2506 2.14262 73.4804C2.14262 73.1329 2.23175 72.7854 2.29236 72.4415C2.30662 72.3591 2.41358 72.2624 2.39219 72.205C2.18898 71.6677 2.4421 71.1016 2.24958 70.5535C2.16401 70.3099 2.2567 69.9946 2.29236 69.7188C2.32088 69.511 2.45992 69.3462 2.26383 69.1062C2.164 68.9844 2.34227 68.662 2.31018 68.4398C2.27809 68.2106 2.04992 67.9849 2.07131 67.7735C2.13549 67.143 2.29593 66.5196 2.38862 65.8891C2.43497 65.5703 2.45637 65.2335 2.39219 64.9254C2.34585 64.6997 2.40644 64.6138 2.55261 64.4848C2.82 64.2483 2.9448 63.9582 2.80932 63.5856C2.75941 63.453 2.74871 63.2667 2.80575 63.1414C3.09097 62.4714 2.91627 61.7693 2.98401 61.0886C2.99471 60.9632 2.96262 60.8092 2.89131 60.7053C2.75583 60.5082 2.79863 60.3649 2.90202 60.1607C2.99471 59.978 3.00541 59.7344 2.99472 59.5159C2.95193 58.5558 2.91271 57.5957 2.83071 56.6427C2.7808 56.0695 2.6988 55.4856 2.5455 54.9339C2.47063 54.6616 2.19609 54.4431 1.97505 54.1565C2.1747 54.0813 2.34583 54.0132 2.55618 53.9344C2.57044 53.3683 2.57758 52.8668 2.24958 52.3008C1.90731 51.7061 1.77897 50.9323 2.10341 50.2014C2.16045 50.0796 2.14618 49.922 2.16044 49.7823C2.18897 49.4742 1.91087 49.1553 2.19966 48.8508C2.22461 48.8258 2.19967 48.6932 2.16401 48.6717C1.94297 48.5535 2.00358 48.3708 2.05706 48.206C2.35654 47.2674 2.18896 46.361 1.86452 45.4224C2.31731 45.057 2.25314 44.6128 2.02496 44.1291C1.9394 43.9464 1.90732 43.6992 1.94654 43.5022C2.0321 43.0866 2.17115 42.6818 1.96793 42.2662C2.19254 41.4817 1.74688 40.6899 1.98932 39.9054C1.76115 39.3393 2.13192 38.7554 1.91444 38.1714C1.82888 37.9458 1.96793 37.6377 1.98932 37.3654C1.99645 37.2615 1.98218 37.1504 1.95366 37.0501C1.84313 36.6489 1.71837 36.2548 1.90376 35.8321C1.95367 35.721 1.96437 35.5383 1.90376 35.4416C1.71124 35.1156 1.7041 34.8397 1.96436 34.546C2.01784 34.4851 2.01784 34.3059 1.96436 34.2379C1.68984 33.8617 1.92514 33.5071 1.98218 33.1488C2.04279 32.7798 2.16045 32.418 2.20679 32.0454C2.31019 31.2787 2.38148 30.5049 2.46705 29.7347C2.50983 29.3585 2.44211 29.0576 2.03924 29.0075C2.03924 28.5811 2.03924 28.1871 2.03924 27.793C2.03924 27.7034 2.09271 27.5745 2.05349 27.5351C1.7041 27.1768 1.86097 26.8615 2.10341 26.5355C2.16045 26.4603 2.18896 26.3313 2.1747 26.231C2.10696 25.7474 2.00001 25.2673 2.11409 24.7765C2.13192 24.7085 2.06419 24.6189 2.0321 24.5401C1.99288 24.4398 1.90374 24.3395 1.91087 24.2428C1.94653 23.7054 2.01071 23.168 2.05349 22.6306C2.06062 22.5303 2.01071 22.4228 1.98932 22.319C1.95367 22.1255 1.85385 21.907 1.90376 21.7386C2.09272 21.0723 2.04636 20.3916 2.0927 19.7181C2.12479 19.281 2.11052 18.8404 2.10696 18.4033C2.10696 18.0379 2.02854 17.6689 2.25671 17.3286C2.31376 17.2426 2.23533 17.0742 2.23889 16.9452C2.24602 16.7303 2.26026 16.5118 2.28522 16.2968C2.29591 16.2144 2.39932 16.0962 2.3708 16.0639C2.05706 15.677 2.38505 15.3546 2.46348 15.0107C2.48131 14.9247 2.55262 14.8101 2.52054 14.7599C2.22106 14.3049 2.5027 13.9145 2.62035 13.4989C2.656 13.3663 2.62749 13.2123 2.6061 13.0726C2.58471 12.9293 2.53479 12.7896 2.50983 12.6463C2.40644 12.091 2.77011 11.5249 2.45993 10.9661C2.41359 10.8837 2.54548 10.7189 2.55618 10.5899C2.58114 10.2496 2.5847 9.90924 2.59896 9.5689C2.60609 9.4471 2.58827 9.30738 2.64531 9.21065C2.78435 8.98137 2.86636 8.78434 2.64888 8.54789C2.60253 8.49774 2.63107 8.34369 2.66315 8.25055C2.86281 7.70601 2.66315 7.2582 2.32445 6.80322C2.6168 6.29451 2.57401 5.77147 2.44923 5.18036C2.35653 4.73971 2.2068 4.13069 2.83785 3.79394C2.33871 3.21716 2.44922 2.55082 2.42427 1.90955C2.41357 1.67669 2.53836 1.52981 2.76654 1.48682C2.83071 1.47249 2.90202 1.48324 2.96619 1.46532C3.52237 1.32202 3.7149 1.12141 3.84324 0.530295C4.73812 0.820477 5.62229 0.55179 6.51717 0.494471C6.64908 0.487306 6.78455 0.444316 6.90933 0.472976C7.33003 0.573285 7.73646 0.662847 8.17142 0.476558C8.34255 0.404909 8.61707 0.462228 8.79533 0.555373C9.22316 0.777487 9.58326 0.788234 9.96474 0.397744C9.92908 0.601945 9.897 0.809729 9.85421 1.05692C10.1573 1.05692 10.3961 1.06409 10.635 1.05692C11.0807 1.04259 11.1306 0.942281 10.9238 0.501636C10.9095 0.469393 10.9238 0.422821 10.9238 0.379831C12.086 0.254444 13.2091 0.369084 14.3108 0.781069C14.5247 0.859884 14.7885 0.791817 15.0666 0.791817C15.1058 0.702255 15.1307 0.591198 15.1914 0.501636C15.3233 0.308182 15.4552 0.308182 15.5835 0.519548C15.8581 0.970941 16.2146 1.082 16.8171 0.884961C16.7814 0.727332 16.7458 0.569703 16.7101 0.397744C17.0381 0.322511 17.2735 0.351171 17.5016 0.619858C17.8189 0.996018 18.5783 1.09991 18.8814 0.748827C19.1987 0.376249 19.5766 0.437151 19.9367 0.397744C20.3966 0.347589 20.8636 0.404909 21.3307 0.408491C21.4626 0.408491 21.6052 0.415656 21.7229 0.365501C22.3824 0.0932325 23.0669 0.0108354 23.7729 0.0717376C23.9226 0.0860676 24.0795 0.0180004 24.2328 0.00725294C24.6036 -0.014242 24.9387 8.79754e-05 25.3024 0.218619C25.6981 0.455063 26.1616 0.576868 26.6856 0.544625C27.2311 0.512383 27.7802 0.60911 28.3399 0.465811C28.5895 0.401326 28.8961 0.58045 29.1778 0.630605C29.3275 0.655682 29.5414 0.705837 29.6341 0.630605C30.2402 0.150552 30.9497 0.455063 31.5985 0.369084C32.251 0.279522 32.9284 0.358336 33.5951 0.376249C33.7911 0.379831 33.9872 0.433568 34.1833 0.455063C34.358 0.476558 34.5434 0.526713 34.7074 0.487306C35.588 0.290269 36.4722 0.379831 37.3599 0.361919C37.7842 0.351171 38.1443 0.447898 38.4937 0.745245C38.7433 0.444316 39.032 0.490888 39.3315 0.627023C39.3921 0.655682 39.467 0.698672 39.5205 0.68076C40.2478 0.455063 40.9608 0.752409 41.681 0.716585C41.7915 0.70942 41.9128 0.72375 42.009 0.677177C42.6579 0.372666 43.3032 0.6521 43.9485 0.659265C44.6259 0.66643 45.3282 0.942281 45.9949 0.584033C46.0128 0.573285 46.0448 0.55179 46.052 0.558955C46.6652 1.01393 47.2677 0.304599 47.8952 0.55179C48.1911 0.66643 48.5441 0.655682 48.8757 0.670012C49.1787 0.684342 49.4817 0.6521 49.7848 0.655682C50.095 0.655682 50.4051 0.662847 50.7153 0.69509C51.1431 0.741662 51.5567 0.978106 52.0059 0.773904C52.0808 0.73808 52.2127 0.849137 52.3197 0.856301C52.5086 0.867049 52.7261 0.902874 52.8865 0.831224C53.4356 0.573285 53.9632 0.372666 54.58 0.644935C54.7797 0.734497 55.0684 0.677177 55.3037 0.62344C56.0917 0.433568 56.8724 0.347589 57.6889 0.476558C58.106 0.544625 58.5552 0.394161 58.9902 0.394161C59.8316 0.390579 60.6837 0.515966 61.5108 0.404909C62.2167 0.311764 62.8977 0.515966 63.6072 0.379831C64.2418 0.258027 64.9263 0.419238 65.5894 0.433568C65.8711 0.437151 66.1527 0.351171 66.4308 0.358336C67.3114 0.386996 68.1885 0.447898 69.0691 0.487306C69.2224 0.494471 69.3793 0.444316 69.5326 0.444316C69.8606 0.451481 70.1957 0.433568 70.513 0.505218C70.7982 0.569703 71.0549 0.573285 71.3473 0.558955C71.8642 0.53746 72.3883 0.68076 72.9124 0.75241C73.0408 0.770322 73.1691 0.806147 73.2975 0.809729C73.736 0.816894 74.1816 0.784652 74.6166 0.827642C75.1371 0.877796 75.6826 0.759574 76.171 1.06767C76.2423 1.11424 76.3778 1.07125 76.4812 1.05334C76.5846 1.03543 76.7094 0.938699 76.7842 0.970941C77.4046 1.23963 77.9786 0.978106 78.574 0.863466C78.8057 0.820477 79.0589 0.874214 79.3013 0.910039C79.8468 0.985271 80.3887 1.09633 80.9377 1.14648C81.419 1.19305 81.9075 1.2253 82.3852 1.18589C83.1981 1.11782 84.0038 1.11782 84.8131 1.20738C85.1804 1.24679 85.5583 1.17873 85.929 1.18589C86.5387 1.20022 87.1484 1.25037 87.758 1.25754C88.2179 1.2647 88.6993 1.31486 89.1307 1.20022C89.5514 1.08916 89.9364 1.13215 90.3464 1.15365C91.2519 1.19664 92.1611 1.13574 93.0702 1.11066C94.1433 1.07842 95.2201 0.906456 96.2932 1.11424C96.4322 1.1429 96.5891 1.07842 96.7388 1.0605C97.3628 0.988853 97.9867 0.881379 98.6177 0.970941C98.7033 0.981688 98.796 1.00677 98.8744 0.992436C99.427 0.881379 99.9796 0.766739 100.529 0.644935C101.156 0.501636 101.762 0.601945 102.365 0.791817C102.511 0.838389 102.696 0.942281 102.803 0.888544C103.395 0.616275 103.933 0.902874 104.543 0.996018C104.643 0.738079 104.807 0.576868 105.131 0.730915C105.26 0.791817 105.442 0.816894 105.577 0.781069C106.09 0.63777 106.557 0.816894 107.035 0.945864C107.139 0.974523 107.263 1.11782 107.324 1.08916C107.83 0.849136 108.386 1.082 108.896 0.888544C109.199 0.773904 109.517 0.641352 109.837 0.870631C109.905 0.920786 110.012 0.967358 110.083 0.949446C111.142 0.713002 112.208 1.19664 113.235 0.949446C113.656 0.849137 114.091 1.10708 114.494 0.798982C114.618 0.705837 114.918 0.827642 115.132 0.877796C115.67 1.00677 116.212 1.09275 116.758 1.17156C117.467 1.27545 117.603 1.55489 117.435 2.23556C117.314 2.72278 117.435 3.1885 117.56 3.63989C117.702 4.15577 117.731 4.64299 117.485 5.14812C117.802 5.45621 118.041 5.82879 117.92 6.28735C117.792 6.7674 117.931 7.22237 117.98 7.68093C118.095 8.69836 118.177 9.68712 117.763 10.6723C117.638 10.9661 117.752 11.3637 117.756 11.7148C117.756 11.8044 117.777 11.8975 117.759 11.9835C117.521 13.1585 117.866 14.3623 117.606 15.5337C117.513 15.9493 117.578 16.3004 117.717 16.6909C117.806 16.9381 117.699 17.2533 117.72 17.5256C117.77 17.7871 117.866 18.0486 117.856 18.3066C117.849 18.5681 117.738 18.8225 117.67 19.084C117.624 19.2667 117.553 19.4064 117.742 19.6142C117.916 19.8076 117.677 20.2089 117.948 20.4489C117.788 21.0723 118.187 21.649 118.087 22.2724C117.988 22.8814 117.916 23.4976 117.82 24.1962C117.927 24.3001 118.152 24.4398 118.059 24.7658C117.988 25.0309 117.966 25.3282 118.23 25.5719C118.301 25.6363 118.259 25.8656 118.226 26.0089C118.112 26.5105 117.97 27.0013 118.055 27.5243C118.062 27.5673 118.027 27.6246 118.045 27.6569C118.337 28.1405 118.134 28.6205 118.062 29.1113C117.991 29.6129 117.973 30.1252 117.959 30.6303C117.952 30.8489 117.984 31.0781 118.048 31.2859C118.241 31.9128 118.08 32.5147 117.959 33.1237C117.898 33.4211 117.884 33.7292 117.87 34.0337C117.856 34.3382 117.881 34.6391 117.87 34.9436C117.863 35.2266 117.838 35.5132 117.813 35.7963C117.802 35.9467 117.806 36.1079 117.749 36.2441C117.642 36.4984 117.531 36.7205 117.745 36.9856C117.799 37.0537 117.706 37.2293 117.702 37.3546C117.695 37.566 117.649 37.7523 117.856 37.9565C118.098 38.1965 117.977 38.5619 117.963 38.8915C117.931 39.6474 117.71 40.3962 117.866 41.17C117.916 41.4136 117.749 41.7002 117.688 41.9474L117.692 41.9259ZM11.0307 105.862C11.2054 106.056 11.5121 106.242 11.5085 106.425C11.4978 106.977 11.8187 107.389 11.972 107.869C12.3891 109.18 13.4123 109.846 14.571 110.369C15.1949 110.652 15.8902 110.81 16.4535 111.182C16.867 111.455 17.2414 111.501 17.6799 111.48C18.0079 111.462 18.368 111.548 18.6568 111.437C19.5374 111.096 20.393 110.688 21.2558 110.301C22.0758 109.936 22.8994 109.577 23.7123 109.198C24.5109 108.825 25.3344 108.485 26.0831 108.03C26.6785 107.668 27.2418 107.693 27.8372 107.872C27.9905 107.919 28.1617 108.069 28.2258 108.216C28.4148 108.639 28.5645 109.083 28.7107 109.524C28.7749 109.71 28.7428 109.95 28.8426 110.104C29.2312 110.692 29.2526 111.458 29.7696 111.981C29.8159 112.028 29.8373 112.096 29.8587 112.16C30.1439 112.992 30.6859 113.604 31.4274 114.052C31.5593 114.131 31.7198 114.177 31.8303 114.281C32.4221 114.833 33.0318 115.213 33.9124 115.256C34.5113 115.284 35.1032 115.471 35.7271 115.363C36.376 115.249 37.0498 115.259 37.6701 114.983C37.9482 114.858 38.2512 114.776 38.5186 114.629C38.9215 114.403 39.4064 114.213 39.6559 113.862C39.8877 113.533 40.1551 113.339 40.4653 113.131C40.64 113.017 40.7541 112.812 40.8967 112.648C41.0286 112.501 41.1569 112.354 41.2924 112.207C42.1374 111.304 43.0108 110.43 43.8166 109.492C44.3799 108.832 45.2213 108.592 45.9308 109.08C46.5155 109.481 47.0966 109.907 47.6064 110.398C48.8721 111.609 50.0807 112.881 51.3464 114.091C51.9168 114.636 52.5478 115.127 53.1896 115.585C53.7279 115.969 54.3198 116.273 54.8938 116.603C54.9865 116.656 55.1041 116.674 55.211 116.699C55.5141 116.768 55.8171 116.832 56.1237 116.897C56.4874 116.975 56.8511 117.076 57.2183 117.126C57.4322 117.154 57.6782 117.154 57.8707 117.072C58.5945 116.75 59.3717 116.481 59.9956 116.012C60.9333 115.306 61.796 114.478 62.3059 113.368C62.37 113.228 62.4877 113.117 62.5804 112.992C62.8906 112.558 63.1829 112.114 63.5109 111.695C63.7676 111.369 64.0671 111.075 64.3594 110.774C64.4985 110.631 64.6732 110.527 64.8015 110.376C65.2828 109.821 65.921 109.563 66.6127 109.513C67.0334 109.481 67.5325 109.538 67.8819 109.746C68.8088 110.298 69.6787 110.946 70.5665 111.566C71.4507 112.182 72.1174 113.063 73.0871 113.593C73.7003 113.927 74.1923 114.475 74.7663 114.89C75.7468 115.6 76.852 116.055 78 116.406C78.2496 116.481 78.5811 116.406 78.7701 116.542C79.2478 116.889 79.7648 116.692 80.1855 116.596C80.813 116.452 81.4226 116.112 81.9645 115.747C82.6276 115.302 83.2516 114.797 83.7614 114.156C84.0858 113.748 84.6171 113.482 84.8631 113.045C85.1982 112.454 85.5654 111.906 86.0004 111.387C86.3177 111.007 86.5494 110.556 86.856 110.161C87.0913 109.861 87.3373 109.574 87.562 109.266C87.9399 108.743 88.9239 108.567 89.3731 108.847C90.1895 109.355 90.8812 110 91.4908 110.735C92.2181 111.609 93.0559 112.365 93.99 113.002C94.7958 113.55 95.6871 113.998 96.6533 114.077C97.5161 114.145 98.3931 114.02 99.2594 113.859C100.86 113.558 102.047 112.54 103.317 111.652C103.352 111.627 103.384 111.591 103.409 111.555C104.183 110.53 105.238 109.764 105.951 108.668C106.654 107.586 107.463 106.579 108.226 105.536C108.344 105.375 108.483 105.221 108.565 105.042C108.925 104.258 109.271 103.462 109.616 102.67C109.67 102.549 109.702 102.416 109.727 102.287C109.83 101.746 109.93 101.202 110.03 100.661C110.141 100.07 110.297 99.4821 110.354 98.8874C110.472 97.6013 110.522 96.3223 110.347 95.0183C110.205 93.9435 109.998 92.9154 109.477 91.9732C109.085 91.2638 108.711 90.5115 107.891 90.1748C107.809 90.1425 107.738 90.0816 107.666 90.0351C107.285 89.7843 106.932 89.4511 106.511 89.2899C105.335 88.8385 104.144 88.3943 102.85 88.4014C102.497 88.4014 102.14 88.4659 101.798 88.4122C101.128 88.3047 100.464 88.1328 99.7978 87.993C99.6481 87.9608 99.4947 87.9608 99.3414 87.9644C99.0348 87.968 98.7247 88.0038 98.4181 87.993C97.844 87.9787 97.5873 87.7745 97.4233 87.23C97.2272 86.5815 96.7495 86.0442 96.6925 85.3313C96.6818 85.1736 96.5214 85.0232 96.4215 84.8763C96.2575 84.6398 96.0757 84.4141 95.9224 84.1705C95.5445 83.5723 95.1844 82.9632 94.8029 82.3685C94.7209 82.2396 94.5997 82.1321 94.482 82.0282C93.5943 81.2508 92.4784 81.0359 91.3767 80.8281C91.1236 80.7815 90.8811 80.674 90.5603 80.7349C89.6975 80.8997 88.9167 81.2329 88.1145 81.5589C87.455 81.8276 86.9166 82.2181 86.4282 82.7089C85.979 83.1603 85.4905 83.5544 85.1269 84.1096C84.7846 84.6327 84.2249 85.0088 83.8434 85.5104C83.3585 86.1481 82.7168 86.5636 82.0679 86.9828C81.9467 87.058 81.7756 87.0795 81.6294 87.0831C80.7773 87.0974 80.0999 86.6711 79.4689 86.1696C78.8842 85.7038 78.3601 85.1521 77.7469 84.733C77.2584 84.3998 76.8662 84.0057 76.4705 83.583C76.114 83.1997 75.6933 82.8629 75.1514 82.7483C74.9553 82.7053 74.7628 82.648 74.5667 82.6157C73.793 82.4868 73.0729 81.9243 72.2279 82.3148C72.178 82.3363 72.096 82.2861 72.0318 82.2897C71.7038 82.3112 71.3758 82.3291 71.0514 82.365C70.8339 82.3865 70.6164 82.4653 70.4025 82.4653C69.529 82.4617 68.7197 82.7769 68.0708 83.2677C67.2009 83.9269 66.3667 84.6577 65.6643 85.5211C65.3613 85.8973 64.9726 86.2054 64.5947 86.5135C63.8104 87.1583 63.0189 87.7888 62.2167 88.4086C61.7639 88.7597 61.304 89.1072 60.8156 89.4045C60.1881 89.7843 59.4858 89.684 58.8084 89.5693C58.4911 89.5156 58.1417 89.4332 57.8957 89.2469C57.6105 89.0248 57.4072 88.6845 57.2005 88.3764C56.6086 87.4951 56.0418 86.5923 55.4428 85.7182C54.9793 85.0411 54.4196 84.4536 53.7101 84.0237C53.539 83.9198 53.3322 83.8338 53.2181 83.6833C52.8509 83.1925 52.3268 82.9955 51.792 82.7626C51.111 82.4689 50.4586 82.3005 49.7598 82.6587C49.307 82.888 48.8364 83.085 48.4015 83.3394C48.102 83.5149 47.8667 83.798 47.5743 83.9914C46.6866 84.5718 45.7846 85.1271 44.8862 85.6931C44.5689 85.8937 44.2658 86.1373 43.92 86.2735C43.4315 86.4705 42.9074 86.5815 42.4012 86.7392C41.3459 87.0688 40.5687 86.6962 40.18 85.6608C40.1337 85.5355 40.1123 85.3957 40.041 85.2883C39.4492 84.3604 39.0213 83.3752 38.9465 82.2611C38.9429 82.1966 38.9215 82.1285 38.9037 82.064C38.7397 81.3726 38.54 80.6848 38.4153 79.9862C38.2762 79.2052 38.1835 78.4493 37.7592 77.7185C37.1852 76.7297 36.4187 76.0849 35.367 75.7553C34.7146 75.5547 34.0372 75.4436 33.3847 75.2466C32.9462 75.114 32.5612 74.7916 32.5148 74.3402C32.415 73.3944 32.3259 72.4236 32.989 71.5924C33.0817 71.4778 33.0959 71.3023 33.1494 71.1554C33.3241 70.7004 33.4667 70.2311 33.6913 69.8012C33.9088 69.3856 34.1833 68.9915 34.4828 68.6333C35.0247 67.9777 35.5987 67.3508 36.1727 66.7238C36.3189 66.5662 36.5756 66.4838 36.6647 66.3083C36.8038 66.0324 37.0106 65.9357 37.2637 65.8354C37.6345 65.6885 38.0302 65.5595 38.3368 65.3231C39.0285 64.7929 39.8627 64.6496 40.6435 64.3916C41.435 64.1301 42.3014 64.1659 43.1 63.865C43.4957 63.7146 43.9307 63.8399 44.1981 64.1588C44.6901 64.7463 45.207 65.341 45.207 66.1865C45.207 66.319 45.207 66.4587 45.2427 66.5841C45.3817 67.1107 45.3069 67.5406 44.797 67.8452C44.6366 67.9419 44.551 68.1533 44.4155 68.3001C44.2088 68.5258 44.0234 68.8196 43.7631 68.945C43.0501 69.2817 42.4547 69.769 41.8379 70.249C41.025 70.8867 40.3048 71.5459 39.9055 72.5454C39.4171 73.7598 39.4777 74.8382 40.3583 75.8484C41.0535 76.6437 41.7951 77.2993 42.8718 77.5895C43.6561 77.8009 44.3728 78.0624 45.2141 77.8582C45.6562 77.7507 46.1589 77.9406 46.6295 77.9119C47.9487 77.8367 49.2678 77.7436 50.5513 77.3746C50.9292 77.2671 51.3214 77.2134 51.6957 77.0951C52.9507 76.7011 53.7885 75.7195 54.744 74.9026C54.8438 74.8167 54.9187 74.6984 54.9829 74.5838C55.2253 74.136 55.4428 73.6703 55.6995 73.2296C56.1166 72.5131 56.0667 71.7429 55.9918 70.9655C55.9419 70.4604 55.8956 69.9517 55.835 69.4501C55.8029 69.1635 55.7958 68.8626 55.6924 68.6011C55.2253 67.4117 55.5569 66.3262 56.0703 65.255C56.2485 64.8789 56.5373 64.6066 56.901 64.4239C57.7851 63.9761 58.6729 63.539 59.5606 63.102C59.6391 63.0625 59.746 63.0231 59.8138 63.0482C60.1774 63.1843 60.5019 63.0196 60.837 62.9336C61.2791 62.8189 61.714 62.6792 62.1632 62.6076C62.9333 62.4858 63.7106 62.4105 64.4806 62.3066C65.2971 62.1956 66.1135 62.0666 66.9335 61.952C66.9977 61.9412 67.0654 61.9591 67.1332 61.9699C67.8747 62.0738 68.6163 61.7334 69.3579 61.9699C69.4292 61.9914 69.529 61.9305 69.6146 61.9161C69.8071 61.8803 69.9996 61.8302 70.1921 61.823C70.7804 61.7979 71.3722 61.7943 71.9641 61.7657C72.2849 61.7478 72.6165 61.7334 72.9231 61.6475C73.9178 61.3752 74.9446 61.3859 75.9571 61.2928C76.3136 61.2606 76.7058 61.1638 77.0196 61.214C77.3725 61.2713 77.6613 61.1817 77.9786 61.1567C78.5241 61.1101 79.0767 61.0922 79.6222 61.0743C80.1356 61.0564 80.6489 61.0671 81.1588 61.0384C81.5046 61.0205 81.8576 60.8808 82.1927 60.9238C83.0733 61.042 83.9147 60.7518 84.7846 60.7662C85.4549 60.7769 86.1323 60.7948 86.799 60.63C86.9202 60.6014 87.0592 60.6659 87.1912 60.6659C87.4265 60.6659 87.676 60.7017 87.8935 60.6336C88.9666 60.2969 90.0611 60.4187 91.1378 60.4939C91.6512 60.5297 92.129 60.4903 92.6246 60.4008C93.0346 60.3291 93.4588 60.261 93.8688 60.2969C94.4856 60.3542 95.0953 60.3793 95.7121 60.3363C96.1149 60.3112 96.5214 60.3399 96.9242 60.3148C97.2095 60.2969 97.4875 60.2109 97.7728 60.1751C98.0473 60.1392 98.3218 60.1715 98.4822 60.433C98.6462 60.7017 98.5107 60.9489 98.3574 61.1746C98.172 61.4433 97.9902 61.7119 97.7906 61.9699C97.1845 62.7509 96.7174 63.6537 95.7869 64.1444C95.4946 64.2985 95.2236 64.5027 94.9776 64.7248C94.261 65.3732 93.5907 66.0826 92.8456 66.6952C91.9222 67.4511 91.3803 68.4685 90.8348 69.4788C90.5995 69.9122 90.4462 70.4066 90.6815 70.9297C90.7635 71.1088 90.8348 71.3345 90.7956 71.5136C90.71 71.9149 90.9668 72.137 91.1735 72.3806C91.3732 72.617 91.5871 72.8463 91.826 73.0433C92.268 73.4088 92.7101 73.7813 93.1914 74.0894C94.5747 74.9815 96.204 74.9062 97.7406 75.1498C98.4644 75.2645 99.2273 75.1606 99.9653 74.9779C100.361 74.8812 100.803 74.9958 101.217 74.9456C102.233 74.8167 103.153 74.3832 104.097 74.0142C104.582 73.8243 104.946 73.4088 105.392 73.2404C106.008 73.0075 106.276 72.4916 106.704 72.1083C107.281 71.5889 107.859 71.0981 108.205 70.3744C108.529 69.6973 108.903 69.0489 109.242 68.379C109.288 68.2858 109.296 68.1568 109.278 68.0529C109.217 67.7413 109.271 67.4833 109.524 67.2684C109.584 67.2182 109.613 67.1143 109.624 67.0319C109.745 66.233 109.905 65.4377 109.966 64.6317C110.055 63.453 110.116 62.278 110.069 61.0886C110.034 60.1428 110.176 59.1863 110.244 58.2369C110.269 57.8894 110.294 57.5384 110.337 57.1909C110.369 56.9293 110.458 56.675 110.479 56.417C110.504 56.0839 110.479 55.7507 110.49 55.4139C110.515 54.5685 110.661 53.7051 110.558 52.8775C110.369 51.3908 110.54 49.9005 110.329 48.4138C110.212 47.5755 110.39 46.6906 110.444 45.8308C110.472 45.3866 110.551 44.9459 110.54 44.5053C110.529 44.1184 110.404 43.7386 110.362 43.3517C110.347 43.212 110.372 43.0042 110.465 42.929C110.793 42.6675 110.686 42.3164 110.682 42.0011C110.672 41.4817 110.604 40.9586 110.575 40.4392C110.568 40.2887 110.575 40.0952 110.665 39.9878C110.943 39.6474 110.857 39.2749 110.829 38.9023C110.818 38.7518 110.786 38.5978 110.797 38.4473C110.832 37.9314 110.843 37.4084 110.939 36.9032C111.039 36.3766 110.911 35.8607 110.953 35.3341C111.032 34.3024 110.907 33.2563 110.925 32.2174C110.946 30.8847 111.007 29.5592 110.854 28.2229C110.736 27.1911 110.793 26.1379 110.757 25.0954C110.747 24.7622 110.7 24.4326 110.665 24.103C110.611 23.5477 110.533 22.996 110.501 22.4408C110.429 21.2263 110.383 20.0083 110.319 18.7938C110.28 18.0379 110.201 17.2856 110.18 16.5297C110.155 15.6985 110.265 14.8853 110.108 14.0291C109.877 12.7752 109.246 11.7614 108.597 10.7511C108.087 9.95581 107.431 9.25364 106.828 8.51923C106.707 8.36877 106.543 8.25055 106.383 8.13949C105.88 7.79199 105.356 7.47315 104.864 7.11132C104.097 6.54887 103.37 5.92193 102.343 5.90402C102.176 5.90402 102.012 5.79296 101.844 5.73206C101.702 5.68191 101.559 5.61026 101.413 5.5816C100.978 5.50278 100.529 5.48845 100.112 5.36307C98.7496 4.95824 97.3592 5.02273 95.9687 5.01915C94.5926 5.01556 93.2093 5.05855 91.8402 4.96183C90.6209 4.87585 89.4087 4.85077 88.1894 4.89734C87.6618 4.91884 87.1305 4.92958 86.6029 4.92242C85.3836 4.90809 84.1678 4.89734 82.9485 4.85794C81.4012 4.80778 79.861 4.9869 78.3137 4.87585C77.3226 4.8042 76.3243 4.86868 75.3296 4.87227C74.7984 4.87227 74.2672 4.8651 73.736 4.86152C72.6628 4.85435 71.5862 4.82569 70.513 4.85077C69.3044 4.87943 68.0993 4.96183 66.8907 5.00482C66.5164 5.01915 66.1385 4.95824 65.7606 4.97257C64.6767 5.01556 63.5929 5.10871 62.5055 5.12662C61.7319 5.13737 60.9511 5.00482 60.1774 5.03348C59.1435 5.07647 58.1131 5.22335 57.0792 5.30575C56.0703 5.38814 55.0613 5.44188 53.9989 5.51353C53.8313 4.00889 52.8259 3.20641 51.6458 2.54723C51.5531 2.49708 51.4355 2.48991 51.3285 2.46842C51.0683 2.41826 50.7973 2.39677 50.5442 2.31437C49.2036 1.88447 47.8774 2.28929 46.544 2.37527C46.5012 2.37527 46.4656 2.42185 46.4228 2.42543C46.1625 2.46484 45.8987 2.49708 45.6384 2.54007C45.4459 2.57231 45.2569 2.61888 45.0715 2.66904C44.5653 2.80159 44.0519 2.91623 43.5563 3.08102C42.6828 3.3712 41.8165 3.69005 40.9501 3.99814C40.8253 4.04113 40.7077 4.10203 40.5829 4.13427C39.3957 4.44237 38.2798 4.91884 37.2031 5.4992C36.9927 5.61026 36.7717 5.71057 36.5542 5.80013C35.7806 6.11897 35.0069 6.44139 34.2225 6.7459C33.8339 6.89637 33.4382 7.07908 33.0353 7.1149C32.3864 7.17222 31.734 7.30477 31.2028 7.6057C30.1225 8.21472 28.9425 8.16098 27.7944 8.34011C26.8818 8.47983 25.9548 8.53356 25.0385 8.64104C24.5822 8.69478 24.1223 8.76284 23.673 8.85599C22.853 9.02436 22.0437 9.29663 21.2166 9.38619C19.7584 9.54024 18.3502 9.83759 17.0132 10.4538C16.9348 10.4896 16.8421 10.4968 16.7529 10.5075C16.0185 10.6042 15.3233 10.8049 14.6815 11.1953C14.3393 11.4031 13.9756 11.5787 13.6084 11.7291C12.9702 11.9871 12.496 12.4385 12.0468 12.9472C11.4193 13.6601 11.0307 14.5665 10.2678 15.1719C10.143 15.2722 10.0432 15.4836 10.0432 15.6412C10.0432 15.9923 9.85422 16.2216 9.65456 16.4616C9.50126 16.6443 9.33725 16.8091 9.37646 17.0993C9.39786 17.2605 9.29804 17.4432 9.23387 17.6116C8.71335 18.9801 8.19639 20.3522 7.92187 21.7995C7.765 22.6199 7.41916 23.4009 7.42273 24.2571C7.42273 24.3825 7.34429 24.5079 7.3122 24.6368C7.24803 24.9163 7.16603 25.1957 7.13394 25.4787C7.08759 25.8764 7.10899 26.2812 7.05195 26.6753C6.95925 27.3201 6.90576 27.9614 7.05907 28.6026C7.11967 28.8606 7.26229 29.1078 7.26585 29.3657C7.26942 29.7383 7.44056 29.9962 7.67587 30.247C7.78282 30.3581 7.92186 30.4727 7.96108 30.6088C8.12151 31.1462 8.57073 31.4149 8.95577 31.7409C9.44421 32.1565 9.94335 32.5577 10.4817 33.0055C10.3106 33.2814 10.1537 33.5178 10.0182 33.765C9.90768 33.9692 9.73655 34.1985 9.75081 34.4063C9.77577 34.8182 9.60464 35.1407 9.44064 35.4774C9.21959 35.9252 9.10195 36.391 9.1376 36.8997C9.17325 37.3976 9.18037 37.8992 9.14828 38.3971C9.05559 39.8158 9.46916 41.1019 10.1359 42.32C10.1858 42.4095 10.2785 42.5313 10.3605 42.5421C10.8953 42.5958 11.2696 42.9756 11.7331 43.1726C11.8757 43.2335 12.0254 43.3266 12.1716 43.3266C13.0701 43.3195 13.9756 43.3517 14.8562 43.126C14.9988 43.0902 15.1628 43.0042 15.2413 42.8932C15.4659 42.5707 15.6976 42.2376 15.8402 41.8757C16.1682 41.0518 16.5069 40.2242 16.7244 39.368C17.0096 38.2359 17.5801 37.3582 18.5534 36.717C19.0632 36.3838 19.5338 35.9861 19.983 35.5741C20.2647 35.3126 20.5392 35.2338 20.9242 35.2123C22.1863 35.155 23.4912 35.4631 24.6963 34.8254C24.7854 34.7788 24.9173 34.8326 25.0243 34.8111C25.6375 34.6714 26.3077 34.8218 26.8639 34.4027C26.9388 34.3454 27.0814 34.3203 27.1741 34.3489C27.6483 34.4851 28.0797 34.2092 28.4469 34.0623C28.9032 33.8796 29.3667 33.7005 29.8373 33.55C30.1689 33.4426 30.5004 33.2778 30.8391 33.267C31.2242 33.2563 31.57 33.1703 31.923 33.0485C32.062 33.0019 32.2189 33.0163 32.3686 32.9948C32.8392 32.9303 33.317 32.8909 33.7769 32.7834C34.1976 32.6867 34.6076 32.3822 35.0105 32.4072C35.8233 32.4574 36.4865 31.9952 37.2494 31.9093C37.7664 31.8519 38.2869 31.5904 38.7789 31.6406C39.41 31.7086 39.9519 31.1784 40.5758 31.465C40.6043 31.4794 40.6578 31.44 40.697 31.4185C41.6168 30.9599 42.5973 30.7665 43.6098 30.6912C43.7381 30.6805 43.8701 30.6626 43.9913 30.6196C44.4512 30.4584 44.9075 30.4154 45.4067 30.419C45.9771 30.419 46.5975 30.6232 47.1429 30.2506C47.5779 30.3688 47.8845 29.9568 48.2624 29.9604C48.8043 29.9676 49.3142 29.8923 49.8347 29.7598C50.07 29.6989 50.3053 29.7813 50.5406 29.5592C50.7153 29.3944 51.0576 29.4015 51.325 29.3406C51.6244 29.2761 51.9275 29.183 52.2305 29.1758C52.7724 29.1615 53.3143 29.2654 53.8527 29.1078C54.0773 29.0433 54.3197 28.9036 54.5265 28.943C54.8831 29.0146 55.1718 28.8892 55.4856 28.7997C55.6531 28.7531 55.8457 28.6671 55.9954 28.7137C56.4339 28.8462 56.8118 28.6743 57.204 28.5417C57.3074 28.5059 57.4251 28.3913 57.4999 28.4163C58.0205 28.5811 58.4661 28.1727 58.9831 28.2444C59.3681 28.2981 59.7425 27.9506 60.1596 28.1262C60.7336 27.8145 61.3076 27.5028 61.8852 27.1947C62.2346 27.0084 62.5911 26.8401 62.9369 26.6502C63.1401 26.5391 63.354 26.4209 63.518 26.2597C64.0314 25.7474 64.4307 25.0775 65.2721 25.0488C65.3327 25.0488 65.3969 24.9987 65.4468 24.9557C65.8247 24.6046 66.2098 24.2786 66.7874 24.4075C66.8337 24.4183 66.905 24.3502 66.9513 24.3072C67.2366 24.0493 67.5824 23.9848 67.9461 23.992C69.2081 24.0135 70.4702 24.0529 71.7323 24.078C72.3919 24.0923 73.055 24.2535 73.7075 24.0135C73.7859 23.9848 73.8893 23.9705 73.9677 23.992C74.8448 24.2069 75.7182 24.1281 76.6024 24.0529C77.4795 23.9776 78.3636 23.9633 79.2442 23.949C79.8396 23.9382 80.4493 23.9132 81.0304 24.0135C81.6401 24.1138 82.2355 24.1532 82.8487 24.1389C83.3157 24.1281 83.8291 24.1389 84.1607 24.5867C84.5671 25.1348 84.8274 25.751 84.8738 26.4316C84.9058 26.9153 84.7454 27.3201 84.2784 27.6103C83.8577 27.8754 83.3799 27.9829 82.9628 28.2193C82.0251 28.7531 81.0162 29.0075 79.9716 29.2188C78.5776 29.5018 77.2121 29.9031 75.8181 30.1897C74.1032 30.5408 73.3545 30.8632 71.743 31.7839C71.2546 32.0633 70.8446 32.4108 70.4346 32.7583C69.7821 33.3064 69.3828 34.0731 69.4185 34.9257C69.4613 35.9109 69.939 36.7599 70.6842 37.4227C71.1155 37.806 71.5434 38.1965 72.014 38.5261C72.5167 38.8772 73.0479 39.1925 73.6005 39.454C73.9891 39.6367 74.4312 39.7048 74.9589 39.8552C75.2049 39.7012 75.5685 39.6295 75.9072 39.9842C75.95 40.0272 76.0498 40.0737 76.0855 40.0522C76.5454 39.7836 77.0374 40.1741 77.5044 39.9699C77.6363 39.9125 77.8217 39.8767 77.9501 39.9197C78.7451 40.1955 79.5402 39.9591 80.3281 39.9197C80.9984 39.8839 81.7435 39.8337 82.428 39.9842C82.5421 40.0093 82.6776 39.9627 82.7988 39.9304C82.9236 39.8982 83.0448 39.8015 83.1624 39.8086C83.7863 39.8409 84.3853 40.02 84.9272 40.303C85.2909 40.4893 85.6403 40.758 85.7508 41.2237C85.79 41.3921 85.897 41.5533 86.0075 41.6894C86.2464 41.9868 86.3569 42.32 86.2927 42.689C86.1644 43.4341 86.0218 44.1793 85.8435 44.9137C85.815 45.0391 85.5975 45.1716 85.4478 45.2003C85.1269 45.2648 84.7882 45.2289 84.4673 45.2934C84.1179 45.3615 83.7079 45.2863 83.4619 45.6696C83.412 45.7484 83.2765 45.795 83.1731 45.8093C82.6098 45.8917 82.043 45.9813 81.4761 46.0278C81.0376 46.0637 80.5919 46.0207 80.2069 46.3073C80.1605 46.3431 80.0785 46.3359 80.0108 46.3431C79.2835 46.3968 78.5562 46.4434 77.8289 46.5043C77.0802 46.5652 76.3137 46.5509 75.5899 46.7228C74.5774 46.9664 73.5684 47.1097 72.5274 47.0811C71.7145 47.0596 70.9016 47.0739 70.0923 47.0847C69.7465 47.0882 69.3971 47.1599 69.0513 47.1492C68.0209 47.1169 66.9906 47.1241 65.9638 47.2136C65.4397 47.2602 64.9156 47.3713 64.3951 47.3713C63.7426 47.3713 63.0831 47.271 62.4378 47.3963C61.9351 47.4967 61.4466 47.64 60.9332 47.4823C60.8762 47.4644 60.7978 47.4823 60.7407 47.5074C59.91 47.8836 59.008 47.8047 58.1345 47.8979C57.9064 47.923 57.6461 47.8871 57.4357 47.7976C57.0614 47.6364 56.7477 47.8692 56.4197 47.8728C56.0774 47.8764 55.7387 47.5719 55.3465 47.6829C55.2217 47.7188 55.072 47.7689 54.9936 47.8621C54.5943 48.3385 54.0738 48.1881 53.5782 48.1594C53.3785 48.1487 53.1824 48.0842 52.9863 48.0842C51.8811 48.077 50.7759 48.077 49.6707 48.0842C49.521 48.0842 49.3605 48.1164 49.225 48.1809C48.7295 48.4102 48.2375 48.3851 47.7348 48.2203C47.4389 48.1236 47.1429 48.0269 46.847 47.9337C45.2035 47.4107 43.813 46.4828 42.6329 45.2433C42.2372 44.8277 41.8771 44.3799 41.3459 44.1184C41.2318 44.0611 41.1284 43.9572 41.0535 43.8497C40.4047 42.9075 39.492 42.2376 38.6113 41.5497C38.2691 41.281 37.8484 41.1055 37.4526 40.912C36.8786 40.6254 36.3082 40.3317 35.7164 40.0917C34.9819 39.7943 34.2475 39.4432 33.4774 39.3071C32.1726 39.0706 30.857 38.8915 29.5093 39.0492C28.4291 39.1745 27.3631 39.3322 26.3434 39.7083C25.641 39.9663 24.9066 40.1884 24.2791 40.5789C23.345 41.1592 22.6855 42.0083 22.3289 43.0902C21.8263 44.6092 22.4609 45.8129 23.3058 46.9736C23.3415 47.0202 23.4199 47.0345 23.4805 47.0668C24.2613 47.4572 24.9886 47.9516 25.8621 48.1666C26.3648 48.2884 26.8603 48.489 27.3167 48.7326C28.5467 49.3846 29.7553 50.076 30.9675 50.7567C31.0459 50.7997 31.0887 50.9 31.2313 51.072C30.1796 51.072 29.3489 51.5771 28.3863 51.5055C27.8657 51.466 27.3951 51.7885 26.9245 52.0464C26.2507 52.4118 25.5163 52.6733 24.7925 52.9349C23.6445 53.3468 22.739 54.1207 21.8477 54.9016C21.2558 55.4211 20.7103 55.9979 20.1684 56.5747C19.8547 56.9114 19.5516 57.2733 19.3199 57.6709C18.7209 58.6847 18.1612 59.7201 17.958 60.9095C17.8154 61.7442 17.605 62.5646 17.4517 63.3993C17.384 63.7683 17.3947 64.148 17.3554 64.5242C17.2628 65.4091 17.1201 66.2868 17.0702 67.1752C17.0239 67.9491 17.0809 68.73 17.0809 69.5074C17.0809 70.421 17.0453 71.3345 17.0667 72.2444C17.0881 73.1472 16.8278 74.0106 16.8135 74.917C16.7993 75.7195 16.4499 76.5148 16.3287 77.3208C16.2324 77.9585 15.8973 78.5066 15.8295 79.1622C15.7297 80.0972 15.3518 80.9678 14.6031 81.6055C14.1361 82.0031 13.6654 82.3936 13.1948 82.7877C12.9096 83.0277 12.6315 83.2785 12.3463 83.5185C11.6083 84.1455 10.7919 84.6972 10.1466 85.4101C9.12691 86.535 8.48159 87.9142 7.99672 89.3508C7.7935 89.9527 7.81846 90.6298 7.64377 91.2459C7.47264 91.8585 7.54752 92.3923 7.83274 92.9404C8.00387 93.2736 8.10725 93.639 8.24629 93.9901C8.45308 94.5096 8.69908 94.986 9.23387 95.2655C10.1751 95.7563 11.0985 96.2829 12.029 96.788C12.1039 96.8274 12.2001 96.831 12.2857 96.8382C12.7135 96.8883 12.9239 97.1714 13.0522 97.5475C13.2554 98.1386 13.095 98.6688 12.7955 99.1776C12.5852 99.5358 12.2857 99.8511 12.3641 100.324C12.3784 100.414 12.2893 100.525 12.25 100.625C12.1288 100.926 11.9684 101.22 11.8935 101.535C11.7438 102.162 11.6725 102.803 11.5156 103.426C11.3231 104.189 11.1698 104.942 11.4194 105.719C11.4301 105.755 11.4015 105.802 11.3801 105.88H10.9951L11.0307 105.862Z" fill="white"/>
<path d="M93.6898 70.2418C94.1283 69.6363 94.4956 69.0846 94.9163 68.5759C95.1088 68.3431 95.4047 68.1962 95.6471 68.0027C96.132 67.623 96.6098 67.2289 97.1018 66.8563C97.9681 66.1971 98.8843 65.5989 99.7008 64.8824C100.175 64.4668 100.592 63.9259 100.863 63.3562C101.337 62.3567 101.772 61.2891 101.576 60.1535C101.433 59.3188 101.027 58.5306 100.353 58.0004C99.7899 57.5598 99.0698 57.4272 98.346 57.5813C97.936 57.6673 97.5438 57.8213 97.1374 57.9252C96.9484 57.9718 96.7452 57.9968 96.5527 57.9897C95.3477 57.9503 94.1283 57.7604 92.9447 57.8894C91.7325 58.0219 90.5025 57.7532 89.3117 58.09C89.2511 58.1079 89.1798 58.1007 89.1121 58.0936C87.251 57.9144 85.4185 58.3085 83.5753 58.3837C82.3346 58.4339 81.101 58.6345 79.8389 58.5163C78.8834 58.4232 77.903 58.5951 76.9332 58.6345C76.4911 58.6524 76.0455 58.6274 75.6034 58.6524C75.1649 58.6775 74.7299 58.7456 74.295 58.7993C74.1631 58.8172 74.0347 58.8674 73.9028 58.8781C73.0008 58.9355 72.0952 58.9892 71.1932 59.0429C71.1718 59.0429 71.1469 59.0358 71.1255 59.0429C69.8384 59.4943 68.4872 59.0823 67.1823 59.3295C66.3231 59.4907 65.4496 59.5731 64.5833 59.6842C64.1911 59.7343 63.7918 59.7451 63.3996 59.8024C62.3515 59.9565 61.3033 60.0962 60.2622 60.2932C59.7025 60.3971 59.1499 60.5762 58.6115 60.7697C57.1427 61.3035 55.713 61.9483 54.59 63.0625C53.5204 64.1265 52.8965 65.4484 52.8786 66.9889C52.868 67.8057 52.8252 68.6332 53.1781 69.4142C53.2637 69.6005 53.2637 69.8477 53.2423 70.0626C53.1995 70.4639 53.1674 70.8508 53.3635 71.2305C53.4134 71.3273 53.3564 71.4885 53.3243 71.6139C53.0676 72.6277 52.4651 73.3908 51.6059 73.9568C50.9356 74.3975 50.2439 74.7521 49.399 74.7593C48.9248 74.7629 48.4542 74.9886 47.9765 75.0315C47.0958 75.1068 46.2081 75.0781 45.3311 75.1677C44.29 75.2752 43.445 74.8274 42.6001 74.3366C42.3719 74.204 42.2935 74.0213 42.3505 73.7741C42.5644 72.8606 42.896 72.0581 43.8586 71.6425C44.9567 71.1661 46.012 70.6072 46.7536 69.6041C46.8962 69.4106 47.1279 69.2852 47.2884 69.1061C47.8018 68.5329 48.1761 67.9382 48.0834 67.082C48.0299 66.5769 48.1084 66.0324 47.8624 65.5881C47.4702 64.8752 47.2991 64.1014 47.0638 63.3419C47.0388 63.2595 46.9925 63.1735 46.9319 63.1126C46.5646 62.7329 46.1974 62.3603 45.8231 61.9877C45.192 61.3572 44.4148 61.2032 43.5627 61.3106C43.3452 61.3393 43.1206 61.3465 42.8996 61.3536C41.8478 61.3823 40.8068 61.4181 39.8264 61.9089C39.1989 62.2242 38.4965 62.3818 37.8583 62.6827C37.0597 63.0625 36.2718 63.4816 35.5195 63.9473C34.999 64.2698 34.5427 64.6961 34.0578 65.0794C33.9366 65.1761 33.8225 65.2765 33.7013 65.3732C32.5782 66.2473 31.7226 67.3435 31.0416 68.5831C30.8634 68.9055 30.7885 69.2888 30.6566 69.6399C30.5603 69.8871 30.4819 70.1522 30.3357 70.3707C30.104 70.7182 29.9863 71.0729 29.9721 71.4956C29.9614 71.8396 29.8295 72.1799 29.7795 72.5274C29.6975 73.1185 29.5656 73.7132 29.587 74.3007C29.6191 75.1999 29.8544 76.0597 30.4783 76.7619C30.6352 76.9374 30.7778 77.1309 30.9168 77.3028C31.5515 77.568 32.1718 77.8617 32.8171 78.0838C33.3768 78.2773 33.9615 78.3919 34.5355 78.5424C34.9063 78.6391 35.1488 78.8218 35.2058 79.2589C35.2628 79.6888 35.4625 80.0972 35.5374 80.5271C35.6408 81.111 35.6729 81.7093 35.7655 82.2968C35.8333 82.7303 35.9117 83.1674 36.0472 83.5829C36.1684 83.9519 36.4251 84.2744 36.5321 84.6469C36.7424 85.367 37.0882 86.0262 37.3806 86.7069C37.6622 87.3625 37.9582 87.9392 38.525 88.3656C38.5607 88.3906 38.6035 88.4193 38.6177 88.4587C38.8423 89.014 39.2488 89.3866 39.7871 89.6158C40.1258 89.7591 40.4681 89.9418 40.8246 89.9813C41.6197 90.0708 42.3933 90.0099 43.1634 89.6911C44.2365 89.2468 45.3703 88.9531 46.4434 88.516C46.8427 88.3548 47.185 88.0073 47.5558 87.7601C48.1726 87.3517 48.7501 86.8824 49.3812 86.5098C49.9266 86.191 50.5648 85.9939 51.1852 85.865C51.5203 85.7933 51.916 85.9151 52.2155 86.2017C52.8501 86.8072 53.499 87.366 53.8769 88.2187C54.2156 88.9782 54.7682 89.6445 55.2246 90.3503C55.3101 90.4792 55.41 90.6046 55.467 90.7479C55.9305 91.837 56.861 92.1809 57.9199 92.3959C58.7328 92.5606 59.5421 92.6395 60.3621 92.5499C61.2248 92.4568 62.0199 92.1558 62.7864 91.7438C63.2142 91.5146 63.528 91.1348 63.9237 90.9163C64.651 90.515 65.2821 90.0601 65.7741 89.3758C65.9238 89.168 66.2447 89.0785 66.4978 88.9603C67.4783 88.4945 67.9453 87.538 68.6156 86.7713C68.7974 86.5636 69.129 86.4848 69.3928 86.3486C69.5104 86.2877 69.678 86.2662 69.7386 86.1731C70.2057 85.4673 70.9971 85.3957 71.6924 85.2201C72.4304 85.0338 73.1933 85.2345 73.9171 85.453C74.0739 85.4996 74.2058 85.65 74.3378 85.7647C75.2112 86.4991 76.0811 87.2335 76.9546 87.9679C77.2006 88.1757 77.329 88.473 77.6534 88.6378C78.149 88.8922 78.534 89.3758 79.0403 89.5943C79.846 89.9418 80.6767 90.3001 81.6001 90.1926C81.7106 90.1783 81.8212 90.1138 81.9246 90.1246C83.1617 90.2428 84.1707 89.6123 85.2438 89.1501C85.9961 88.8241 86.677 88.405 87.3508 87.95C87.6111 87.7744 87.6895 87.5559 87.8072 87.3374C88.0888 86.8108 88.6522 86.5994 89.0372 86.191C89.1798 86.0405 89.383 85.9438 89.5613 85.8292C89.6148 85.7933 89.7146 85.779 89.7289 85.736C89.875 85.2488 90.367 85.0768 90.6309 84.7043C90.8555 84.389 91.1371 84.2994 91.4901 84.3245C91.647 84.3353 91.8038 84.3675 91.9535 84.3532C92.4669 84.2959 92.7058 84.6183 92.9019 85.0124C92.9518 85.1091 92.9839 85.2452 93.0623 85.2882C93.6185 85.5748 93.6791 86.1122 93.8075 86.6352C93.8788 86.9218 94.0499 87.1869 94.1854 87.4592C94.5276 88.1542 94.8877 88.8456 95.2193 89.5478C95.3869 89.906 95.6792 90.0887 95.9787 90.3252C96.4885 90.73 97.0768 90.8769 97.6365 91.1241C98.4031 91.4644 99.2195 91.4787 100.025 91.554C100.432 91.5934 100.845 91.5611 101.255 91.5611C101.366 91.5611 101.501 91.6113 101.583 91.5647C102.257 91.1957 102.874 91.5719 103.498 91.7188C104.143 91.8692 104.792 92.0483 105.316 92.5033C105.366 92.5463 105.427 92.5786 105.487 92.6108C106.254 92.9977 106.542 93.4527 106.632 94.3376C106.664 94.6671 106.756 94.9931 106.824 95.3227C106.992 96.1395 107.045 96.9492 106.717 97.7481C106.639 97.9451 106.649 98.178 106.624 98.3965C106.56 98.9375 106.339 99.4175 106.086 99.8904C105.89 100.256 105.633 100.607 105.787 101.073C105.822 101.18 105.751 101.341 105.69 101.456C105.273 102.19 105.113 103.029 104.76 103.785C104.375 104.601 103.883 105.368 103.416 106.142C102.999 106.84 102.542 107.514 102.118 108.213C101.822 108.7 101.455 109.097 100.931 109.345C100.471 109.56 100.032 109.825 99.5653 110.029C98.9557 110.29 98.3424 110.555 97.7043 110.727C97.4369 110.799 97.091 110.674 96.8058 110.566C96.3923 110.412 95.993 110.219 95.6115 109.997C94.902 109.585 94.2531 109.094 93.7433 108.435C93.7148 108.399 93.6827 108.367 93.6506 108.341C93.0196 107.829 92.3992 107.295 91.7468 106.808C91.2655 106.45 90.745 106.153 90.2351 105.834C89.6647 105.476 89.0729 105.271 88.4097 105.597C88.3313 105.637 88.2386 105.662 88.153 105.662C87.3187 105.669 86.6378 106.095 85.9569 106.489C85.6823 106.651 85.4506 106.912 85.2438 107.163C84.9087 107.568 84.5985 107.994 84.2919 108.42C83.6537 109.32 83.0334 110.233 82.3952 111.129C82.192 111.412 81.9567 111.673 81.7214 111.928C81.4861 112.185 81.24 112.44 80.9798 112.669C80.8514 112.78 80.6767 112.873 80.5127 112.902C79.7926 113.02 79.0688 113.181 78.3451 113.189C77.7212 113.192 77.083 113.099 76.5553 112.626C75.9956 112.121 75.361 111.705 74.7763 111.225C73.8529 110.466 72.958 109.678 72.2272 108.718C72.0168 108.445 71.7031 108.245 71.425 108.033C70.933 107.657 70.4303 107.288 69.9276 106.926C69.2573 106.446 68.4908 106.246 67.6779 106.203C67.0611 106.171 66.4372 106.156 65.824 106.088C65.2215 106.024 64.7829 106.36 64.3943 106.694C63.3497 107.586 62.3443 108.524 61.3496 109.474C61.0502 109.76 60.8327 110.133 60.5724 110.462C60.4548 110.613 60.3229 110.756 60.1945 110.899C60.1232 110.982 60.002 111.05 59.9806 111.143C59.8558 111.691 59.428 111.999 59.0572 112.343C58.6543 112.712 58.1695 113.002 57.788 113.393C57.4208 113.769 56.9537 113.765 56.5116 113.88C56.4474 113.898 56.3583 113.923 56.3155 113.894C55.8271 113.558 55.1711 113.597 54.7254 113.138C54.1728 112.569 53.5774 112.039 53.0106 111.48C52.8537 111.326 52.7325 111.139 52.5899 110.971C52.3581 110.702 52.1228 110.437 51.8875 110.176C51.7413 110.015 51.5916 109.86 51.4418 109.706C51.3349 109.599 51.2279 109.491 51.1139 109.395C51.0461 109.341 50.9178 109.33 50.8892 109.266C50.5826 108.61 49.948 108.266 49.4845 107.761C48.989 107.224 48.4471 106.726 47.8766 106.267C47.595 106.042 47.2135 105.927 46.8605 105.802C46.5254 105.683 46.1689 105.637 45.8302 105.526C44.6287 105.132 43.6162 105.54 42.6964 106.278C42.2971 106.597 41.9584 106.994 41.609 107.371C41.4771 107.514 41.3843 107.697 41.2809 107.865C41.2239 107.958 41.2025 108.094 41.1241 108.152C40.575 108.535 40.2043 109.083 39.7515 109.556C39.0669 110.272 38.3503 110.971 37.5909 111.602C36.8494 112.218 36.0508 112.619 34.9776 112.35C34.1719 112.146 33.5444 111.723 32.9027 111.272C32.7458 111.161 32.5711 111.018 32.4927 110.846C31.965 109.71 31.2163 108.65 31.2448 107.313C31.2448 107.249 31.2413 107.177 31.2127 107.116C30.7243 106.052 30.1182 105.046 29.0665 104.49C28.4069 104.143 27.6226 104.014 26.8739 104.318C26.3819 104.519 25.9184 104.791 25.4549 105.049C24.8952 105.357 24.3354 105.665 23.7899 106.002C23.027 106.475 22.1428 106.622 21.3442 106.966C20.3566 107.392 19.3227 107.539 18.2995 107.775C18.1925 107.801 18.0677 107.826 17.9715 107.79C17.565 107.643 17.2014 107.725 16.8199 107.89C16.6559 107.962 16.417 107.922 16.2352 107.865C15.2869 107.553 14.3849 106.31 14.5025 105.321C14.5738 104.72 14.8234 104.121 15.073 103.559C15.5436 102.506 16.1283 101.503 16.5597 100.435C16.8912 99.6181 16.7522 98.7189 16.6738 97.852C16.6488 97.5654 16.5846 97.2752 16.4884 97.0065C16.0641 95.8064 15.2298 94.9573 14.1424 94.3447C13.6076 94.0438 13.0016 93.8683 12.5737 93.381C12.0497 92.7828 11.4614 92.2346 10.9765 91.6077C10.7091 91.2602 10.5665 90.7945 10.9943 90.3968C11.1583 89.5334 11.7181 88.9101 12.2208 88.233C12.67 87.6276 13.1905 87.1153 13.8037 86.7355C14.8911 86.062 16.0213 85.4458 17.1622 84.869C17.8859 84.5036 18.2175 83.9161 18.3851 83.1745C18.435 82.9632 18.5312 82.7626 18.599 82.5548C18.656 82.3721 18.7095 82.1858 18.7558 81.9995C18.7808 81.892 18.7558 81.763 18.8058 81.6771C19.255 80.9283 19.1623 80.0757 19.2514 79.2696C19.4225 77.722 19.5509 76.1672 19.6543 74.6124C19.6935 73.9962 19.5972 73.3729 19.6008 72.7495C19.6008 71.904 19.6579 71.0622 19.6614 70.2167C19.665 69.124 19.6079 68.0278 19.64 66.9351C19.665 66.0933 19.7684 65.2514 19.8718 64.4167C19.9573 63.7073 20.0964 63.0087 20.2033 62.303C20.2711 61.8552 20.4137 61.4611 20.6953 61.0885C21.1766 60.4508 21.5581 59.7308 22.0644 59.1146C22.5635 58.502 23.0377 57.8535 23.765 57.4451C24.1643 57.2194 24.4887 56.8576 24.8274 56.5388C25.5191 55.8796 26.3747 55.4963 27.2446 55.1774C28.2286 54.8156 29.2554 54.5541 30.268 54.2746C30.5175 54.2066 30.8134 54.1493 31.0523 54.2209C31.8901 54.4717 32.7101 54.2782 33.5373 54.1994C33.6478 54.1887 33.7726 54.1672 33.8653 54.2066C34.4678 54.4645 34.9028 54.1349 35.3306 53.8018C35.7228 53.4972 36.1542 53.2644 36.3645 52.7198C36.639 52.0141 36.6105 51.3406 36.3395 50.7065C36.1898 50.3554 35.7905 50.1046 35.4768 49.8395C35.2272 49.6282 34.942 49.4598 34.6675 49.2807C34.5391 49.1947 34.4072 49.1015 34.2646 49.055C32.6745 48.514 31.2948 47.5862 29.8829 46.712C29.3374 46.3717 28.767 46.0708 28.2394 45.7089C27.562 45.2468 26.8988 44.7667 26.2606 44.2509C25.8007 43.8783 25.815 43.3982 26.3141 43.1009C26.799 42.8143 27.2874 42.5384 27.8472 42.3593C28.5032 42.1479 29.1984 42.3665 29.808 42.0405C30.653 42.3306 31.5372 42.0046 32.4178 42.2626C33.1415 42.4739 33.9116 42.6101 34.6389 42.8394C35.1808 43.0113 35.7228 43.237 36.2076 43.5344C37.1025 44.0896 37.9403 44.7309 38.8245 45.3077C39.7016 45.8773 40.3397 46.6404 40.8353 47.5539C41.0528 47.9551 41.3843 48.2955 41.6874 48.643C42.2115 49.2484 42.7463 49.8467 43.2953 50.4271C43.9121 51.0791 43.9192 51.0719 44.7464 51.2295C45.0744 51.2904 45.3988 51.3585 45.7268 51.4051C46.3899 51.4982 47.021 51.4875 47.677 51.208C48.1583 51.0038 48.7038 50.8713 49.2849 50.9573C49.866 51.0432 50.4793 51.0612 51.0604 50.9823C51.5773 50.9107 52.0622 50.9967 52.5613 51.0468C52.6433 51.054 52.7396 51.0826 52.8109 51.0576C53.7165 50.7459 54.6434 50.8068 55.574 50.839C55.8663 50.8498 56.1622 50.7746 56.4546 50.7746C56.7148 50.7746 56.9715 50.8283 57.2318 50.839C57.3566 50.8426 57.5028 50.8283 57.6097 50.7746C57.8985 50.6241 58.173 50.6277 58.4903 50.6957C58.747 50.7531 59.0358 50.6742 59.3103 50.6563C59.9307 50.6205 60.5546 50.7961 61.1714 50.5202C61.4281 50.4056 61.7668 50.4593 62.0662 50.4665C62.8007 50.4915 63.528 50.5023 64.2589 50.3948C64.3836 50.3769 64.5191 50.445 64.651 50.4665C65.1965 50.5524 65.7206 50.4665 66.2625 50.3697C66.7296 50.2838 67.2358 50.3232 67.7064 50.4163C67.931 50.4593 68.1164 50.5095 68.3268 50.4163C68.448 50.3662 68.6013 50.273 68.6976 50.3088C69.0862 50.4521 69.4605 50.3948 69.8563 50.3518C70.2627 50.3088 70.6798 50.3841 71.0934 50.3912C71.2823 50.3912 71.4749 50.3697 71.6603 50.3375C72.384 50.2049 73.0971 50.2336 73.8101 50.4056C73.8707 50.4199 73.9492 50.4271 74.0062 50.4056C74.7799 50.0616 75.582 50.0652 76.402 50.1476C76.6552 50.1727 76.9261 50.0796 77.1792 50.0115C77.6677 49.8825 78.1454 49.7213 78.6374 49.6067C78.8014 49.5673 78.9975 49.6031 79.1615 49.6568C79.3647 49.7249 79.5394 49.7679 79.707 49.5888C79.7462 49.5458 79.8425 49.5099 79.8888 49.5279C80.4771 49.775 81.0475 49.4669 81.6287 49.4849C81.9495 49.4956 82.2704 49.4705 82.5913 49.449C82.8266 49.4347 83.0654 49.3523 83.2936 49.3846C83.5467 49.4204 83.7393 49.3846 83.9674 49.2556C84.1386 49.1589 84.4024 49.1374 84.6056 49.1839C85.3721 49.3631 86.0282 49.08 86.6699 48.7361C87.6789 48.1916 88.2742 47.3175 88.5773 46.2248C88.8482 45.2468 89.2511 44.3046 89.2796 43.2585C89.3046 42.3951 89.2012 41.564 88.891 40.7758C88.645 40.1597 88.3384 39.5542 87.9747 38.9989C87.7252 38.6228 87.3722 38.286 86.9943 38.0352C86.0602 37.4119 85.0228 37.0895 83.8926 36.9569C82.8551 36.8351 81.8212 36.9283 80.7873 36.8459C80.6625 36.8351 80.5341 36.9032 80.4058 36.9139C79.8817 36.9605 79.3576 37.0071 78.8335 37.0322C78.4806 37.0465 78.1205 36.9713 77.7782 37.0214C76.5874 37.1969 75.4679 36.9569 74.3841 36.484C74.0882 36.3551 73.6354 36.2225 73.5712 35.9968C73.4607 35.6207 73.5213 35.1406 73.6604 34.7609C73.8814 34.1375 74.3199 33.661 75.0045 33.4927C75.8387 33.2885 76.6944 33.1523 77.5037 32.8693C78.3522 32.5755 79.2827 32.6006 80.0778 32.1385C80.1313 32.1062 80.2168 32.0776 80.2667 32.0955C81.019 32.3678 81.6144 31.8447 82.2811 31.6978C83.7927 31.3647 84.9158 30.3042 86.2278 29.6021C86.5594 29.4265 86.784 29.0432 87.0442 28.7423C87.2617 28.4915 87.4471 28.2085 87.6681 27.9649C87.9712 27.6353 88.1174 27.2735 88.0924 26.8113C88.071 26.3922 88.1281 25.9694 88.1673 25.5503C88.2635 24.5042 87.7216 23.777 86.9694 23.1823C86.5594 22.8598 86.0816 22.6198 85.6431 22.3332C85.5005 22.2401 85.3187 22.1469 85.2509 22.0072C85.0834 21.649 84.8338 21.5558 84.4594 21.5415C82.577 21.4698 80.6981 21.4018 78.8157 21.5702C78.1561 21.6311 77.4894 21.5881 76.8263 21.6203C76.4091 21.6418 75.992 21.7636 75.5749 21.7708C73.5071 21.7994 71.4428 21.8138 69.375 21.8173C68.9578 21.8173 68.5371 21.7529 68.12 21.7206C67.2216 21.6525 66.3196 21.5773 65.4176 21.5236C65.0075 21.4985 64.7366 21.4018 64.5904 20.9396C64.4692 20.5527 64.1697 20.2124 63.9237 19.8721C63.6528 19.4923 63.3569 19.1269 63.0681 18.7615C62.9861 18.6612 62.8969 18.5358 62.7864 18.4964C62.1161 18.2528 61.4495 17.9769 60.7578 17.8157C60.0733 17.6545 59.3638 17.6151 58.665 17.5184C58.6258 17.5148 58.5901 17.4825 58.4975 17.4395C58.5937 17.3643 58.665 17.2568 58.747 17.2461C59.6882 17.1207 60.2979 16.4759 60.9325 15.8668C61.2676 15.5444 61.5707 15.1862 61.9236 14.8852C62.4085 14.4697 62.6973 13.9789 62.7044 13.3269C62.7044 13.1513 62.7258 12.9614 62.79 12.8002C63.2713 11.575 62.4014 10.0632 61.5421 9.42553C61.0929 9.09236 60.6437 9.00638 60.1553 8.93115C58.8219 8.71978 57.4778 8.62664 56.1266 8.63739C55.9554 8.63739 55.7772 8.61947 55.6096 8.63739C54.9322 8.71978 54.2584 8.80218 53.5846 8.90607C53.2637 8.95623 52.9499 9.06729 52.6291 9.12461C52.4722 9.15327 52.3082 9.12819 52.0979 9.12819C52.3759 8.2863 52.8501 7.85641 53.6737 7.84208C54.5828 7.82775 55.492 7.77759 56.3975 7.74535C57.4136 7.70952 58.4297 7.69878 59.4458 7.63429C60.2123 7.58414 60.9753 7.46592 61.7382 7.3871C61.9807 7.36202 62.2267 7.37277 62.4691 7.36561C63.3961 7.34053 64.3266 7.28679 65.25 7.3047C66.0557 7.32262 66.8615 7.5089 67.6601 7.46233C68.3375 7.42651 69.0042 7.35128 69.6816 7.43367C70.3697 7.51607 71.0649 7.55189 71.7565 7.60921C71.9562 7.62354 72.1558 7.64504 72.3555 7.64862C72.6229 7.6522 72.8867 7.64862 73.1541 7.63787C73.803 7.6128 74.4483 7.56264 75.0972 7.56264C76.0241 7.56264 76.9475 7.60205 77.8745 7.6128C78.1597 7.6128 78.4485 7.56264 78.7337 7.56264C79.8924 7.56264 81.0475 7.57339 82.2062 7.57697C82.3381 7.57697 82.47 7.55906 82.5984 7.53756C83.0868 7.45875 83.5503 7.48741 84.0316 7.6737C84.3632 7.80267 84.7589 7.77401 85.1261 7.7955C86.652 7.87074 88.178 7.9388 89.7467 8.01404C89.7752 7.93164 89.8109 7.83133 89.8679 7.66653C90.6023 7.76684 91.351 7.88148 92.1033 7.96746C92.7094 8.03911 93.319 8.08568 93.9287 8.12151C94.6097 8.1645 95.2906 8.18958 95.9716 8.21465C96.1249 8.22182 96.2889 8.22182 96.4315 8.17166C97.1659 7.92447 97.8719 8.09285 98.5778 8.29705C99.3336 8.51558 100.097 8.7162 100.842 8.96698C101.212 9.09236 101.583 9.27149 101.901 9.49718C102.628 10.0131 103.191 10.7081 103.826 11.3278C104.639 12.1231 105.238 13.0653 105.808 14.0183C106.257 14.7706 106.528 15.6304 106.86 16.4508C106.935 16.6335 106.977 16.8484 106.96 17.0419C106.87 17.9769 107.002 18.9012 107.063 19.8291C107.141 21.0507 107.177 22.2759 107.209 23.4975C107.227 24.2104 107.209 24.9198 107.209 25.6327C107.209 25.6757 107.198 25.7258 107.209 25.7652C107.505 26.9295 107.27 28.1225 107.38 29.3012C107.427 29.8063 107.391 30.3186 107.412 30.8273C107.469 32.1636 107.562 33.4962 107.594 34.8325C107.612 35.5418 107.534 36.2512 107.498 36.9605C107.491 37.1396 107.477 37.3188 107.487 37.4943C107.537 38.4938 107.598 39.4969 107.641 40.4964C107.68 41.4529 107.715 42.4095 107.723 43.366C107.726 43.9858 107.751 44.6199 107.633 45.2181C107.448 46.1567 107.676 47.0774 107.626 48.0053C107.605 48.385 107.648 48.7791 107.559 49.1374C107.313 50.1154 107.484 51.0898 107.484 52.0678C107.484 53.0208 107.469 53.9737 107.452 54.9267C107.444 55.3279 107.327 55.7435 107.402 56.1232C107.58 56.9973 107.198 57.7891 107.149 58.6274C107.134 58.8423 107.109 59.0573 107.091 59.2722C107.049 59.7129 106.985 60.1499 106.97 60.5906C106.952 61.1566 106.813 61.719 106.999 62.2922C107.056 62.4606 106.956 62.6791 106.938 62.8762C106.863 63.7611 106.842 64.6388 106.578 65.5129C106.432 66.0001 106.361 66.5303 106.229 67.039C105.862 68.472 105.02 69.6077 104.047 70.6466C103.505 71.227 102.778 71.5852 101.979 71.7428C101.936 71.75 101.872 71.7321 101.851 71.7536C101.327 72.2981 100.649 72.0151 100.043 72.076C99.6117 72.119 99.1803 72.0688 98.7418 72.1835C98.4851 72.2515 98.182 72.1691 97.9004 72.1333C97.2051 72.0473 96.4921 72.0223 95.8218 71.8396C95.1836 71.6676 94.5027 71.4777 94.0606 70.9009C93.9037 70.6967 93.7932 70.4567 93.697 70.2919L93.6898 70.2418ZM101.84 100.804C101.284 100.403 100.877 100.062 100.425 99.8008C99.9682 99.5357 99.4583 99.3602 98.9842 99.1238C97.7827 98.5219 96.6347 97.8233 95.3548 97.3827C94.3637 97.0423 93.4474 96.4799 92.3885 96.3258C92.2637 96.3079 92.1568 96.1897 92.032 96.1503C91.5899 96.007 91.1478 95.8744 90.7021 95.7455C90.6023 95.7168 90.4704 95.7634 90.392 95.7132C89.5292 95.1794 88.5131 95.3299 87.5897 95.0576C87.0442 94.9 86.4168 94.9752 85.9141 94.7495C85.3757 94.5095 84.8552 94.4809 84.3026 94.4701C83.8534 94.4629 83.3934 94.5633 82.9549 94.3662C82.9014 94.3411 82.823 94.3805 82.7553 94.3662C81.8925 94.2265 80.9798 94.5274 80.1526 94.0617C80.1063 94.0366 80.0243 94.0725 79.9601 94.0725C79.2435 94.076 78.5233 94.1405 77.8139 94.0617C77.411 94.0151 77.0366 93.9865 76.6445 94.076C76.5161 94.1047 76.345 94.1871 76.2594 94.1333C75.7353 93.8181 75.2398 94.1549 74.7335 94.1549C74.2344 94.1549 73.7459 94.0975 73.2325 94.1728C72.4054 94.2946 71.564 94.359 70.7298 94.4379C69.5853 94.5453 68.4551 94.8355 67.3 94.7782C66.9328 94.7603 66.6048 94.8319 66.2696 94.9358C66.1449 94.9752 66.0129 95.0003 65.881 95.0075C65.4675 95.029 65.0289 94.9573 64.6439 95.072C63.8631 95.2977 63.0681 95.1759 62.2909 95.2905C62.1625 95.3084 62.0413 95.3693 61.9165 95.4016C61.5778 95.4875 61.2427 95.5771 60.9004 95.6452C60.5332 95.7204 60.1624 95.7777 59.7952 95.8458C59.6419 95.8744 59.4957 95.9246 59.3424 95.9461C58.6864 96.0321 58.034 96.1145 57.378 96.1861C57.0286 96.2219 56.6578 96.1646 56.3298 96.2613C55.4991 96.5121 54.6684 96.6877 53.7949 96.6483C53.6452 96.6411 53.4919 96.7127 53.3386 96.7271C53.1032 96.7522 52.868 96.7844 52.6326 96.7737C51.6415 96.7378 50.6575 96.6913 49.6842 96.9743C49.3134 97.0817 48.8784 97.157 48.5219 97.0638C48.0513 96.942 47.6342 96.8489 47.1671 97.0459C46.9746 97.1247 46.7286 97.0961 46.5112 97.0853C46.0798 97.0602 45.6448 96.8704 45.2241 97.157C45.1706 97.1928 45.0565 97.1283 44.9674 97.1211C44.643 97.0997 44.3114 97.0531 43.9905 97.0781C43.4914 97.1211 42.9994 97.2215 42.5038 97.2859C42.4183 97.2967 42.322 97.2859 42.2436 97.2501C41.6303 96.9778 40.9779 97.1713 40.3469 97.0996C39.9012 97.0495 39.4413 97.2 39.0206 96.9134C38.9243 96.8453 38.7639 96.8417 38.6356 96.856C38.0544 96.9169 37.4947 96.8811 36.9171 96.7342C36.3538 96.5909 35.7442 96.6268 35.1595 96.5659C34.9634 96.5444 34.7637 96.4906 34.5855 96.4047C33.9223 96.0751 33.3412 95.5628 32.5461 95.5341C32.4677 95.5341 32.3964 95.4481 32.318 95.4051C31.8331 95.1329 31.3625 94.8284 30.8598 94.5991C30.1646 94.2802 29.53 93.8539 28.9952 93.338C27.8044 92.1809 26.6813 90.9378 26.3569 89.2218C26.2036 88.4229 26.1679 87.5989 26.0859 86.7857C26.0788 86.6997 26.1038 86.6066 26.1323 86.5242C26.2927 86.0656 26.4496 85.607 26.6172 85.1485C27.0236 84.0415 27.43 82.9309 27.8472 81.8275C27.9327 81.6018 28.0147 81.3546 27.7687 81.2436C27.6012 81.1684 27.3195 81.1827 27.1626 81.2794C26.2606 81.8168 25.4442 82.458 24.8524 83.3465C24.6813 83.6044 24.56 83.9018 24.3604 84.1382C23.6687 84.9514 23.1839 85.8435 23.1981 86.9469C23.1981 87.0114 23.1874 87.0866 23.1553 87.1403C22.8559 87.6132 22.9913 88.1399 22.9806 88.645C22.9771 88.8349 23.0733 89.0319 23.0555 89.2182C22.9271 90.3968 23.4227 91.3713 24.0253 92.317C24.3105 92.7648 24.5779 93.2234 24.8666 93.6712C25.0199 93.9112 25.1804 94.1513 25.3693 94.359C25.6688 94.6851 26.0717 94.9358 26.2963 95.3048C26.8382 96.204 27.6867 96.6984 28.546 97.1892C28.7527 97.3074 29.013 97.3325 29.2234 97.4471C30.0327 97.895 30.8313 98.3679 31.637 98.8228C31.9436 98.9948 32.2467 99.1918 32.5747 99.2886C33.5266 99.5644 34.4928 99.808 35.4554 100.044C35.8832 100.148 36.3181 100.227 36.7567 100.277C37.4091 100.353 38.0687 100.378 38.7211 100.449C39.7087 100.557 40.6927 100.725 41.6803 100.786C42.3113 100.825 42.9531 100.711 43.5912 100.682C44.6323 100.639 45.6698 100.614 46.7108 100.585C47.1743 100.575 47.6413 100.593 48.1084 100.571C49.5202 100.503 50.932 100.421 52.3403 100.353C52.9785 100.32 53.6131 100.403 54.2513 100.199C54.786 100.027 55.36 99.9227 55.9233 99.8904C56.7433 99.8438 57.542 99.7292 58.3228 99.4713C58.4903 99.4175 58.6828 99.353 58.8433 99.3853C59.7881 99.5823 60.6615 99.1775 61.5529 99.0306C62.0876 98.9411 62.6438 98.8801 63.1822 98.7798C63.7312 98.6759 64.2874 98.5792 64.8614 98.5613C65.5245 98.5398 66.1912 98.3105 66.8793 98.2711C67.7528 98.2245 68.6191 98.1278 69.4926 98.0454C70.1058 97.9881 70.7298 97.9702 71.3358 97.8556C72.4482 97.6442 73.5605 97.5188 74.6907 97.5295C75.1471 97.5331 75.6355 97.6119 76.0455 97.4722C76.6195 97.2716 77.2006 97.4364 77.7604 97.2931C77.9636 97.2394 78.1811 97.2394 78.3879 97.2035C78.5626 97.1749 78.7373 97.1032 78.9084 97.1104C79.568 97.1426 80.2525 97.1032 80.88 97.2645C81.7356 97.483 82.577 97.2644 83.4255 97.3504C84.4345 97.4579 85.4577 97.4113 86.4667 97.5295C87.6753 97.6728 88.866 97.9415 90.0675 98.1171C90.9196 98.2425 91.786 98.2604 92.631 98.4073C93.5223 98.5649 94.4029 98.8013 95.2764 99.0414C96.1748 99.2886 97.0518 99.611 97.9503 99.8474C98.8951 100.095 99.847 100.299 100.738 100.732C101.009 100.865 101.337 100.962 101.833 100.793L101.84 100.804ZM98.0929 39.6868C98.2283 39.6975 98.4494 39.7441 98.6633 39.7298C99.0056 39.7047 99.3621 39.6868 99.6866 39.5793C99.9432 39.4933 100.161 39.2855 100.392 39.1207C100.603 38.9739 100.777 38.8162 100.917 38.569C101.451 37.6304 101.708 36.5987 101.972 35.5741C102.068 35.1979 102.157 34.7644 102.065 34.4026C101.883 33.6754 101.879 32.9266 101.608 32.1994C101.323 31.4363 100.938 30.7556 100.482 30.118C99.9219 29.3334 99.3585 28.5488 99.2195 27.5816C99.0555 26.4567 98.3104 25.9623 97.362 25.6399C97.2337 25.5969 97.0447 25.6255 96.9235 25.6936C96.5634 25.8906 96.2925 26.188 96.2105 26.6071C96.1356 26.994 96.1035 27.3917 96.0251 27.7786C95.9466 28.1834 95.861 28.5882 95.7291 28.9787C95.5758 29.4445 95.2229 29.7848 94.9412 30.1753C94.3066 31.053 93.9644 32.1062 93.3191 32.9911C93.0303 33.3852 92.8912 33.8867 92.9447 34.4313C93.0053 35.0654 92.827 35.746 92.991 36.3407C93.344 37.634 94.1141 38.655 95.4047 39.196C96.2354 39.5435 97.0803 39.8337 98.0893 39.6868H98.0929ZM99.4477 45.5191C99.5511 45.2683 99.6402 45.0712 99.7115 44.867C99.9468 44.2079 99.7614 43.6526 99.191 43.2478C99.0484 43.1474 98.9236 43.0185 98.781 42.911C98.182 42.4596 97.362 42.7032 97.1338 43.4197C96.9413 44.0323 96.8522 44.627 97.2943 45.2289C97.4761 45.4761 97.6294 45.6301 97.9039 45.6229C98.4245 45.6086 98.945 45.5549 99.4441 45.5191H99.4477ZM96.1641 21.434C96.2176 22.3619 96.5527 22.6986 97.4333 22.6485C98.2676 22.6019 98.453 22.4335 98.592 21.6203C98.7061 20.954 98.0323 20.1085 97.3656 20.1802C97.0483 20.216 96.7024 20.4309 96.4671 20.6638C96.2889 20.8393 96.2604 21.1725 96.1641 21.4376V21.434Z" fill="white"/>
<path d="M41.8525 27.7286C42.2305 27.4384 42.6404 27.1804 42.9791 26.8473C43.3071 26.5249 43.571 26.1344 43.8419 25.7582C44.7404 24.5079 45.1539 23.1 45.1575 21.5667C45.1575 20.6567 44.8687 19.865 44.1842 19.2488C43.7064 18.8189 43.2251 18.3747 42.6975 18.0129C42.3018 17.7442 41.8418 17.5328 41.3784 17.4039C40.405 17.1316 39.4353 16.7805 38.3907 16.8987C37.6028 16.9883 36.8826 17.2749 36.2694 17.7728C35.8415 18.1203 35.4244 18.5073 35.0822 18.9372C34.8148 19.2775 34.6615 19.711 34.4618 20.1015C34.0055 20.9971 33.7488 21.9249 33.9948 22.9388C34.0161 23.0248 34.034 23.1179 34.0269 23.2039C33.9484 24.2356 34.5117 24.8447 35.3424 25.3176C36.4298 25.9409 37.5422 26.2705 38.7757 25.7904C39.1358 25.6507 39.3925 25.4537 39.6243 25.1134C40.1804 24.2858 40.1804 23.3902 40.077 22.4766C39.995 21.7422 39.1857 21.2479 38.5618 21.5273C38.38 21.6097 38.1946 21.7852 38.1162 21.9644C37.9736 22.2868 37.9165 22.6486 37.8096 22.9889C37.6955 23.3508 37.4245 23.6123 37.1678 23.5586C36.8149 23.4869 36.4156 23.4905 36.2801 23.0033C36.109 22.3835 36.0269 21.8103 36.3656 21.1977C36.6687 20.6496 36.9824 20.105 37.4316 19.6895C37.9807 19.1772 38.7009 19.0625 39.421 19.1879C39.9665 19.2811 40.4977 19.4602 41.0218 19.6501C41.7064 19.9008 42.2019 20.4275 42.6476 20.9756C42.8009 21.1655 42.7652 21.5273 42.7688 21.8139C42.7973 23.3579 42.0308 24.5079 40.9648 25.5325C40.0771 26.3851 39.1323 27.1339 37.97 27.5709C37.8488 27.6175 37.7525 27.7178 37.6384 27.7859C37.1892 28.0617 36.7436 28.3483 36.2872 28.6063C35.977 28.7818 35.649 28.9215 35.3246 29.0648C34.6187 29.3765 33.927 29.7419 33.1926 29.9712C32.7648 30.1038 32.2692 30.0178 31.8022 30.0285C31.6916 30.0285 31.5383 29.9712 31.4777 30.0214C31.0962 30.3689 30.5971 30.2614 30.1728 30.4011C28.761 30.8668 27.3171 31.1821 25.8625 31.4938C25.3419 31.6048 24.8107 31.7983 24.2795 31.938C23.7305 32.0849 23.16 32.1171 22.6181 32.307C22.3935 32.3858 22.1012 32.2604 21.8445 32.2676C20.7856 32.3034 19.7517 32.1064 18.7071 32.0025C17.1776 31.852 15.7194 31.3934 14.2042 31.1821C13.4091 31.071 12.6426 30.7558 11.8725 30.5086C11.6907 30.4513 11.491 30.3187 11.3948 30.1647C11.2272 29.8888 11.081 29.6345 10.721 29.5986C10.6675 29.595 10.6104 29.5198 10.5783 29.4661C9.95085 28.4451 9.47312 27.3882 9.75833 26.1344C9.87955 25.5934 9.95086 25.0417 10.0471 24.4972C10.1256 24.0601 10.2147 23.623 10.2931 23.186C10.368 22.774 10.4322 22.3584 10.5106 21.9464C10.5569 21.7064 10.614 21.4664 10.6889 21.2335C10.8457 20.7248 11.0347 20.2268 11.1737 19.7146C11.516 18.4643 11.8975 17.2355 12.6355 16.15C12.9956 15.6198 13.3129 15.0573 13.6979 14.5414C14.5037 13.4667 15.6089 12.8613 16.8888 12.5317C18.1901 12.1949 19.4807 11.8259 20.7749 11.4713C20.9425 11.4247 21.11 11.3674 21.2812 11.3387C21.9728 11.2133 22.6609 11.07 23.3561 10.9805C23.816 10.9231 24.2474 10.7834 24.6931 10.6616C25.0175 10.5721 25.3919 10.6939 25.7377 10.6616C26.3794 10.6079 27.014 10.4861 27.6522 10.4323C29.0141 10.3177 30.3796 10.2532 31.738 10.1242C32.4831 10.0526 33.2176 9.84123 33.9627 9.78391C34.5616 9.73733 35.0323 9.45432 35.5456 9.21429C36.3407 8.83813 37.1749 8.5372 37.9843 8.1897C38.8256 7.83145 39.6635 7.45529 40.5013 7.0863C40.8757 6.9215 41.2429 6.74596 41.6208 6.5955C41.7919 6.52385 41.9809 6.49519 42.1627 6.44503C42.2483 6.42354 42.341 6.41995 42.4194 6.38413C42.9542 6.13336 43.4783 5.85392 44.0238 5.63539C44.3553 5.50284 44.7297 5.47776 45.0755 5.3667C45.4712 5.23774 45.8456 5.05145 46.2413 4.92248C46.7155 4.76843 47.2146 4.50691 47.6781 4.55348C48.3983 4.62513 49.1007 4.34928 49.8101 4.54273C49.9813 4.58931 50.1666 4.58214 50.3342 4.63588C51.1293 4.88665 51.3753 5.2664 50.9902 5.94707C50.7264 6.41279 50.4911 6.88926 50.2273 7.35498C50.1524 7.48754 50.0526 7.62009 49.9385 7.7204C49.4073 8.18612 48.8689 8.64109 48.3306 9.09607C48.245 9.16772 48.1487 9.22504 48.0489 9.27161C46.9152 9.81973 45.7707 10.3499 44.6441 10.916C44.2733 11.1023 43.9311 11.3602 43.6066 11.6253C43.1824 11.9764 43.161 12.7251 43.5531 13.1085C44.0309 13.5706 44.5514 13.9145 45.268 13.6207C45.8456 13.3843 46.4802 13.3449 47.0435 12.9974C47.4464 12.7502 47.999 12.7502 48.4803 12.6284C48.7085 12.5711 48.9295 12.4779 49.1577 12.4063C49.7424 12.2236 50.3235 12.0373 50.9118 11.8689C51.1186 11.808 51.3396 11.7865 51.5535 11.7579C51.7033 11.7364 51.8566 11.7364 52.0099 11.7184C52.73 11.6468 53.4039 11.2456 54.1597 11.3889C54.6517 11.0593 55.2221 11.0987 55.7712 11.0843C56.3095 11.07 56.8586 11.1847 57.3934 11.1345C58.0351 11.07 58.6376 11.2348 59.258 11.2993C59.3364 11.3065 59.422 11.2205 59.5075 11.2133C59.9389 11.1703 60.1956 11.396 60.3133 11.8223C60.5165 12.5567 60.1386 13.087 59.7036 13.5634C59.3471 13.9539 58.9122 14.2692 58.5022 14.6023C58.4237 14.6668 58.2954 14.6632 58.1991 14.7062C57.8212 14.8818 57.4254 15.0251 57.0796 15.2508C56.47 15.6484 55.7783 15.7917 55.1081 15.9995C54.9833 16.0389 54.8193 16.0103 54.7266 16.0855C54.149 16.5441 53.4467 16.5261 52.7764 16.6479C51.4751 16.8844 50.1845 17.1638 48.8867 17.4146C48.5623 17.4791 48.22 17.4755 47.8992 17.5579C47.4499 17.6725 47.0899 17.909 47.0007 18.4213C46.908 18.9622 47.1861 19.3599 47.5854 19.5963C48.081 19.8901 48.5766 20.1803 49.2646 19.994C50.0597 19.779 50.9082 19.7432 51.7353 19.7002C52.2309 19.6751 52.7372 19.754 53.2256 19.8471C53.7176 19.9402 54.6196 19.9438 55.0831 19.9438C55.814 19.9438 56.5662 19.6859 57.2757 20.0943C57.4041 20.1695 57.5716 20.1946 57.7249 20.2089C58.8515 20.3272 59.9318 20.6424 60.9943 21.0293C61.5611 21.2371 61.882 21.6921 62.0567 22.2366C62.1209 22.4337 62.0424 22.7131 61.9462 22.9209C61.6217 23.6195 60.9265 23.9347 60.3703 24.3969C59.7536 24.9056 58.987 24.8877 58.2668 25.0596C57.4611 25.2531 56.6304 25.2638 55.8211 25.5361C55.2043 25.7439 54.5234 25.9087 53.8067 25.8585C52.8691 25.794 51.9421 26.0627 51.0259 26.2812C50.6373 26.3744 50.2558 26.5177 49.8636 26.5714C49.3039 26.6502 48.7334 26.6896 48.1665 26.7004C47.8278 26.7076 47.5248 26.7291 47.2075 26.8795C46.6335 27.1482 46.031 27.3094 45.375 27.3202C44.8081 27.3309 44.2448 27.4599 43.6815 27.5638C43.2537 27.6426 42.833 27.768 42.4051 27.854C42.2376 27.8862 42.0593 27.8575 41.8882 27.8575C41.8704 27.811 41.8561 27.7644 41.8383 27.7214L41.8525 27.7286ZM32.4261 18.8512C32.533 18.0989 32.2621 17.2641 32.0482 16.4294C31.6988 15.0537 30.8823 14.0471 29.7058 13.241C28.6612 12.5281 27.4276 12.4779 26.326 12.0086C25.7127 12.091 25.096 12.1448 24.4899 12.263C24.0335 12.3525 23.5914 12.503 23.1493 12.6535C22.7322 12.7968 22.3044 12.9401 21.9158 13.1443C21.5307 13.3485 21.1813 13.6207 20.8319 13.8787C20.6751 13.9933 20.5075 14.1259 20.4112 14.2871C19.9264 15.086 19.4201 15.8741 19.0101 16.7124C18.7819 17.1782 18.6072 17.7334 18.6179 18.2422C18.65 19.4423 18.8425 20.6209 19.3702 21.7351C19.7873 22.6164 20.2508 23.4188 21.0601 23.9956C22.0156 24.6727 23.0174 25.1743 24.1975 25.3462C25.0353 25.468 25.8197 25.3104 26.629 25.1635C27.9624 24.9199 29.0783 24.1747 30.2477 23.5836C30.8395 23.2827 31.2282 22.6414 31.5847 22.036C31.8735 21.5452 31.9341 20.9792 32.1622 20.4812C32.3869 19.994 32.4617 19.5068 32.4261 18.8548V18.8512Z" fill="white"/>
<path d="M13.729 33.98C14.089 34.0875 14.4242 34.1806 14.7557 34.2845C15.041 34.3741 15.3083 34.4314 15.6328 34.4027C16.025 34.3669 16.4314 34.5568 16.9412 34.6714C16.4956 35.087 16.1319 35.4058 15.7968 35.7497C15.5793 35.9683 15.3975 36.219 15.2085 36.4626C14.991 36.7421 14.7664 37.0179 14.5846 37.3189C14.335 37.7308 14.1211 38.1679 13.8894 38.5942C13.6612 39.0134 13.4295 39.4361 13.1977 39.8624C12.5417 39.411 12.285 38.8307 12.4633 38.2431C12.6273 37.7022 12.6451 37.1612 12.6451 36.5988C12.6451 36.0972 12.6772 35.5025 12.9446 35.1264C13.1906 34.7825 13.3796 34.3812 13.7361 33.98H13.729Z" fill="white"/>
<path d="M99.5953 34.6856C99.5775 34.8504 99.5882 35.0618 99.524 35.2409C99.4135 35.549 99.3279 35.9467 99.0926 36.1151C98.6826 36.4124 98.1692 36.7241 97.695 36.7241C97.2743 36.7241 96.8144 36.3622 96.433 36.0757C95.7663 35.5705 95.8304 34.5423 96.1014 33.8832C96.3189 33.353 96.5471 32.8228 96.8323 32.3284C97.0284 31.988 97.3065 31.6835 97.5917 31.4113C97.8626 31.1533 98.2655 31.2608 98.4936 31.6226C98.6933 31.9415 98.8751 32.2746 99.0284 32.6186C99.2103 33.0234 99.3778 33.4389 99.5062 33.8617C99.5811 34.1089 99.5668 34.3811 99.5953 34.6785V34.6856Z" fill="white"/>
<path d="M29.8843 17.2498C26.7754 17.4397 23.6986 17.626 20.5684 17.8194C20.6183 17.6331 20.629 17.5006 20.686 17.3931C21.1424 16.5154 21.7021 15.7702 22.5827 15.2293C23.3207 14.7779 24.0373 14.3229 24.8858 14.1259C25.1176 14.0721 25.3707 14.0291 25.606 14.0578C26.8681 14.2119 28.0197 14.6203 28.9039 15.5983C28.9645 15.6628 29.0322 15.7237 29.0786 15.8025C29.3353 16.2539 29.5884 16.7124 29.8879 17.2498H29.8843Z" fill="white"/>
<path d="M22.6426 19.4387C22.7603 19.8256 22.8672 20.1874 22.9742 20.5492C23.1596 21.1726 23.5482 21.5846 24.1685 21.7923C24.771 21.993 25.3843 22.0646 26.0046 21.9715C26.297 21.9285 26.6 21.821 26.7604 21.5093C27.1205 20.8 27.4913 20.0942 27.9334 19.238C28.4824 19.1091 29.2098 19.0052 30.044 18.9908C30.0298 19.3025 30.1046 19.6034 29.9941 19.8005C29.5342 20.6316 29.2062 21.5416 28.4717 22.2115C27.5662 23.0391 26.5715 23.6122 25.313 23.5263C24.4823 23.4689 23.6801 23.3328 22.9635 22.7919C22.4572 22.4085 21.9973 22.0395 21.6693 21.4878C21.516 21.2299 21.2201 21.0615 21.0026 20.8394C20.6532 20.4883 20.343 20.1122 20.3894 19.4888C21.1131 19.4172 21.8369 19.3061 22.6462 19.4458L22.6426 19.4387Z" fill="white"/>
</svg>
