<svg width="84" height="35" viewBox="0 0 84 35" fill="none" xmlns="http://www.w3.org/2000/svg">
<path d="M11.6211 17.7586C8.6337 17.9612 6.19367 17.1481 3.97212 15.4761C3.18906 14.8872 2.67847 14.0769 2.35935 13.1207C2.0746 12.2645 2.37163 11.6837 3.18906 11.5406C4.16114 11.3677 5.03749 11.7188 5.61435 12.5697C6.75581 14.2444 8.35386 14.3524 10.1974 13.6258C10.5558 13.4854 10.9215 13.2909 10.9731 12.8344C11.0271 12.3617 10.6466 12.1564 10.3594 11.8998C9.88807 11.4757 9.31121 11.3704 8.75152 11.2353C7.10929 10.8437 5.6119 10.1144 4.30352 8.95017C3.23815 8.00208 2.46245 6.84599 2.42809 5.26852C2.38881 3.40744 2.95586 1.85968 4.50971 0.941296C7.02829 -0.547031 10.843 -0.293112 13.013 1.8651C13.5481 2.39722 13.9163 3.05359 14.1495 3.7856C14.3999 4.56893 14.1593 5.0065 13.4205 5.18748C12.9295 5.30903 12.4386 5.2577 11.9525 5.08213C11.2382 4.82552 10.5975 4.42306 9.9519 4.01519C9.00436 3.41554 8.00037 3.32101 6.97428 3.7883C6.62816 3.94767 6.23049 4.12051 6.23786 4.60132C6.24522 5.15235 6.68953 5.30632 7.08475 5.44948C7.28113 5.52241 7.48487 5.57105 7.68616 5.60887C9.4364 5.9303 11.1793 6.38948 12.9418 6.53264C15.6862 6.75413 18.303 11.3542 17.245 14.0526C17.1149 14.3849 17.0191 14.736 16.9209 15.0817C16.4423 16.7646 15.3401 17.5938 13.8059 17.7424C12.986 17.8234 12.1538 17.7559 11.6162 17.7559L11.6211 17.7586Z" fill="#41240F"/>
<path d="M24.0287 1.27356C26.6111 1.20873 28.7345 2.21625 30.0085 4.75262C31.717 8.15606 31.2555 12.0646 28.1748 14.8306C26.8713 16.0002 25.3739 16.6565 23.7096 16.4945C20.8375 16.2162 18.3853 14.0337 17.7446 10.9598C17.4205 9.40668 17.3788 7.85624 17.7642 6.31659C18.589 2.9996 20.7369 1.28166 24.0312 1.27085L24.0287 1.27356ZM26.7437 9.00962C26.6013 8.03451 26.6749 7.02428 26.4368 6.04107C26.2036 5.08217 25.6341 4.49061 24.8069 4.27992C23.0812 3.83964 21.493 4.90929 21.0953 6.40572C20.7369 7.74278 20.6755 9.07443 20.8744 10.4439C21.1272 12.1807 21.952 13.0613 23.5378 13.2369C24.0189 13.2909 24.4902 13.2099 24.9517 13.118C26.2135 12.8641 26.7388 12.1348 26.7928 10.7005C26.8149 10.136 26.6013 9.58766 26.7437 9.00962Z" fill="#41240F"/>
<path d="M32.3464 8.57745C32.3464 6.72447 32.339 4.86876 32.3489 3.01578C32.3538 2.03257 32.6532 1.6004 33.5296 1.47074C34.104 1.38431 34.7103 1.37351 35.2798 1.47615C36.0408 1.61391 36.6005 2.06228 36.814 2.98067C37.0841 4.14756 37.4425 5.29286 37.7665 6.44625C37.8524 6.75418 37.9408 7.05941 38.0414 7.36194C38.1617 7.72929 38.3875 7.98858 38.7582 8.01289C39.1731 8.0426 39.3449 7.68606 39.4406 7.34842C39.8628 5.83848 40.5821 4.47441 41.1221 3.0239C41.4904 2.03258 42.104 1.55178 43.0295 1.50315C43.7585 1.46264 44.4974 1.40593 45.2216 1.48426C46.8221 1.65984 47.9071 2.9942 47.9954 4.80127C48.0961 6.92976 48.1869 9.05284 48.4962 11.1678C48.8423 13.5502 47.8285 14.9845 45.6364 15.4572C45.062 15.5815 44.4925 15.7571 43.8985 15.6733C43.081 15.5572 42.7595 15.2006 42.6735 14.285C42.6269 13.8042 42.649 13.3152 42.5729 12.8425C42.5238 12.5427 42.4256 12.1673 42.0942 12.0916C41.7579 12.016 41.5419 12.2996 41.4093 12.5886C41.1344 13.1991 40.8497 13.8149 40.6582 14.4632C40.425 15.2492 39.7401 15.803 38.7288 15.6571C38.1691 15.5761 37.7125 15.3114 37.4793 14.6469C37.2166 13.8987 36.8779 13.1802 36.5342 12.4698C36.3869 12.1645 36.1807 11.7837 35.7855 11.916C35.4713 12.0187 35.4075 12.386 35.3952 12.7156C35.378 13.2774 35.351 13.8447 35.3903 14.4038C35.4345 14.9899 35.1866 15.306 34.73 15.5059C34.3102 15.6895 33.8806 15.7435 33.4388 15.6517C32.6925 15.4977 32.3857 15.1034 32.3538 14.2579C32.3538 14.2174 32.3538 14.1769 32.3538 14.1364V8.57475L32.3464 8.57745Z" fill="#41240F"/>
<path d="M56.4467 2.543C59.0291 2.47817 61.1525 3.48569 62.4265 6.02206C64.135 9.4255 63.6735 13.3341 60.5928 16.1C59.2893 17.2696 57.7919 17.926 56.1276 17.7639C53.2555 17.4857 50.8032 15.3032 50.1625 12.2293C49.8385 10.6761 49.7968 9.12568 50.1822 7.58603C51.007 4.26903 53.1549 2.55113 56.4491 2.54033L56.4467 2.543ZM59.1616 10.2791C59.0193 9.30395 59.0929 8.29372 58.8548 7.31051C58.6216 6.35161 58.0521 5.76005 57.2248 5.54936C55.4992 5.10908 53.9109 6.17873 53.5133 7.67516C53.1549 9.01222 53.0935 10.3439 53.2923 11.7134C53.5452 13.4502 54.37 14.3308 55.9557 14.5063C56.4369 14.5604 56.9082 14.4793 57.3697 14.3875C58.6314 14.1336 59.1567 13.4043 59.2107 11.97C59.2328 11.4054 59.0193 10.8571 59.1616 10.2791Z" fill="#41240F"/>
<path d="M74.2886 16.74C71.473 16.9317 69.1729 16.1646 67.079 14.5872C66.3401 14.0307 65.859 13.269 65.557 12.3668C65.287 11.5592 65.5693 11.0136 66.3376 10.8785C67.2557 10.7164 68.0781 11.046 68.6255 11.8482C69.7007 13.4257 71.2079 13.5283 72.9458 12.8449C73.2846 12.7126 73.6283 12.5289 73.6774 12.0994C73.7289 11.6537 73.3705 11.4592 73.098 11.2188C72.6537 10.8191 72.1088 10.7191 71.581 10.5922C70.032 10.2221 68.623 9.53603 67.3883 8.43937C66.3843 7.5453 65.6528 6.45675 65.6209 4.96842C65.584 3.21538 66.1167 1.75674 67.5847 0.889675C69.9584 -0.512215 73.5522 -0.274487 75.5994 1.76217C76.1051 2.26458 76.4512 2.88313 76.6697 3.57192C76.9053 4.31203 76.6795 4.72261 75.9824 4.89278C75.5184 5.00623 75.0569 4.95761 74.6003 4.79284C73.9277 4.54974 73.3239 4.17158 72.7151 3.78532C71.8216 3.22078 70.8765 3.13163 69.9093 3.57192C69.5828 3.72048 69.2097 3.88524 69.2146 4.33633C69.222 4.85495 69.6417 5.00083 70.0124 5.13589C70.1965 5.20342 70.388 5.25202 70.5795 5.28713C72.229 5.58966 73.8713 6.02454 75.5331 6.15689C78.118 6.36758 80.5875 10.7029 79.5884 13.2447C79.4657 13.558 79.3748 13.8876 79.2815 14.2144C78.8323 15.8 77.7915 16.5806 76.3457 16.7211C75.5724 16.7967 74.7894 16.7346 74.2837 16.7346L74.2886 16.74Z" fill="#41240F"/>
<path d="M0.00223155 30.9104C-0.0272255 30.1622 0.237889 29.3249 0.623285 28.5415C1.47754 26.8074 2.28761 25.0544 2.79574 23.1474C2.97248 22.4856 3.30878 21.894 3.78255 21.4294C4.43797 20.7866 5.12775 20.1896 5.87891 19.6845C6.55642 19.2307 7.30266 19.0498 8.08818 19.1524C8.93753 19.2632 9.60276 19.6278 9.89488 20.6326C10.1919 21.6645 10.646 22.6449 10.9283 23.6822C11.4978 25.7783 12.5067 27.6583 13.2481 29.6679C13.5647 30.5296 13.7439 31.4318 13.9207 32.3339C14.0287 32.8958 13.8372 33.2388 13.3855 33.5062C12.06 34.2895 10.5356 33.6845 9.98816 32.1313C9.58313 30.9861 9.08727 30.5566 7.89917 30.6187C7.00073 30.6646 6.09002 30.7862 5.25049 31.2589C4.82336 31.4993 4.47233 31.7343 4.52143 32.315C4.57298 32.9471 4.20231 33.1605 3.758 33.3117C2.89147 33.6089 2.01758 33.571 1.16579 33.2685C0.27962 32.9525 -0.0198607 32.3474 0.00468682 30.9104H0.00223155ZM6.95163 24.8059C5.83718 24.7762 5.42232 25.4298 5.91573 26.4347C6.26921 27.1586 7.77888 27.6934 8.42939 27.3287C8.80497 27.118 8.94244 26.8101 8.81724 26.3428C8.56931 25.4028 7.88935 24.8302 6.95163 24.8059Z" fill="#41240F"/>
<path d="M23.8011 33.8411C22.7063 33.9356 21.7882 33.5548 21.0592 32.6337C20.6517 32.1178 20.2466 31.5938 19.8072 31.113C18.9628 30.1892 18.57 30.281 18.0521 31.456C17.814 31.9962 17.6397 32.6202 17.1954 32.9849C16.351 33.6791 15.3813 33.8087 14.3847 33.4359C13.7956 33.2144 13.7244 32.9633 14.068 32.3528C14.7652 31.1238 15.4893 29.911 16.1988 28.6901C16.3755 28.3848 16.5351 28.0661 16.7143 27.7635C17.2052 26.9397 17.2003 26.1645 16.7364 25.2839C15.9287 23.7524 15.2635 22.1371 14.4068 20.6299C14.0607 20.0194 14.1908 19.7142 14.8094 19.4684C15.8281 19.0632 16.6332 19.4414 17.1537 20.5542C17.3034 20.873 17.458 21.2025 17.6692 21.4726C18.489 22.5153 19.6992 22.4828 20.5118 21.4051C20.767 21.0647 20.9659 20.6731 21.2089 20.3192C21.8496 19.39 23.2979 18.8768 24.2749 19.2172C24.9156 19.4414 25.0113 19.7304 24.5916 20.33C23.7447 21.5429 22.856 22.7206 22.0214 23.9442C21.3636 24.9031 21.3856 25.2461 22.0656 26.1861C22.7726 27.1639 23.5556 28.0364 24.4909 28.7819C25.49 29.5787 26.3492 30.5836 27.3507 31.402C28.0896 32.0071 27.9546 32.8255 27.1519 33.3441C26.8966 33.5089 26.6192 33.6007 26.3197 33.6223C25.4802 33.6899 24.6406 33.7655 23.8011 33.8384V33.8411Z" fill="#41240F"/>
<path d="M32.9311 18.5014C35.5135 18.4365 37.6368 19.4441 38.9108 21.9804C40.6194 25.3839 40.1579 29.2924 37.0771 32.0584C35.7737 33.228 34.2763 33.8843 32.612 33.7223C29.7399 33.4441 27.2876 31.2615 26.6469 28.1876C26.3229 26.6345 26.2811 25.084 26.6665 23.5444C27.4913 20.2274 29.6392 18.5095 32.9335 18.4987L32.9311 18.5014ZM35.646 26.2374C35.5036 25.2623 35.5773 24.2521 35.3392 23.2689C35.106 22.31 34.5365 21.7184 33.7092 21.5077C31.9835 21.0675 30.3953 22.1371 29.9976 23.6335C29.6392 24.9706 29.5779 26.3022 29.7767 27.6717C30.0296 29.4085 30.8543 30.2891 32.4401 30.4647C32.9213 30.5187 33.3926 30.4377 33.8541 30.3458C35.1158 30.0919 35.6411 29.3626 35.6951 27.9283C35.7172 27.3638 35.5036 26.8155 35.646 26.2374Z" fill="#41240F"/>
<path d="M44.8145 21.7752C44.6378 22.8989 44.7286 23.8605 44.8882 24.814C45.0306 25.654 45.006 26.4995 45.0281 27.3449C45.0649 28.6442 45.3939 29.0818 46.555 29.287C47.2742 29.414 48.0106 29.4356 48.7372 29.5247C49.1005 29.5707 49.4737 29.6112 49.8124 29.7463C50.377 29.9704 50.8901 30.3054 50.9612 31.059C51.0398 31.8883 50.9932 32.6743 50.296 33.228C49.8051 33.617 49.2675 33.8574 48.6685 33.8817C46.6851 33.9627 44.7114 33.8574 42.7697 33.3712C41.5129 33.0578 41.1913 32.5689 41.049 31.1292C40.801 28.6307 40.7912 26.1537 41.1962 23.6633C41.3804 22.5261 41.3263 21.3322 41.3092 20.1653C41.2993 19.5333 41.5424 19.1929 42.021 18.9579C42.5783 18.6851 43.1404 18.6176 43.732 18.8039C44.5224 19.0524 44.763 19.3388 44.8047 20.2329C44.8317 20.7947 44.8096 21.3619 44.8096 21.7725L44.8145 21.7752Z" fill="#41240F"/>
<path d="M56.8847 20.5812C59.2118 20.5218 61.1216 21.4321 62.2704 23.7146C63.8096 26.7803 63.3947 30.3 60.6184 32.7904C59.4425 33.8438 58.0949 34.4354 56.5975 34.2895C54.0102 34.0383 51.8009 32.0746 51.224 29.3059C50.9344 27.9094 50.8951 26.513 51.2412 25.1246C51.985 22.1371 53.9194 20.5893 56.8847 20.5812ZM59.3296 27.5475C59.1995 26.6696 59.2683 25.7593 59.0522 24.8761C58.8411 24.0144 58.3305 23.4796 57.5843 23.2905C56.0304 22.8934 54.5993 23.8577 54.2409 25.2056C53.9194 26.4103 53.8629 27.6096 54.0421 28.844C54.2679 30.408 55.0117 31.2021 56.4404 31.3588C56.8749 31.4074 57.2971 31.3345 57.7144 31.2507C58.851 31.0211 59.3247 30.3675 59.3738 29.0736C59.3934 28.5658 59.1995 28.0715 59.3296 27.5502V27.5475Z" fill="#41240F"/>
<path d="M67.2188 18.5662C68.4978 18.5662 69.7767 18.5662 71.0581 18.5662C71.5809 18.5662 72.0768 18.704 72.5407 18.9498C72.9998 19.1902 73.2821 19.5819 73.2747 20.1842C73.2674 20.765 73.0464 21.1728 72.5825 21.4537C72.1161 21.7374 71.603 21.7347 71.0998 21.8238C69.9313 22.0291 69.7841 22.2182 69.6343 23.5039C69.5877 23.9037 69.5607 24.298 69.6073 24.7032C69.7276 25.781 69.789 26.8641 69.6908 27.9527C69.627 28.6766 69.7031 29.3951 69.8184 30.1136C70.0713 31.683 69.4306 32.7661 68.0412 33.2091C67.3612 33.4252 66.6641 33.4387 65.9743 33.3739C65.066 33.2901 64.6905 32.8201 64.6561 31.8261C64.6045 30.2973 64.6094 28.7684 64.7862 27.245C64.9531 25.8026 64.9212 24.3521 64.8058 22.907C64.7224 21.894 64.5383 21.6942 63.6496 21.443C63.1415 21.2998 62.6334 21.3457 62.1326 21.4159C61.6392 21.4862 61.2538 21.37 61.0378 20.8595C60.8316 20.3706 61.0869 19.4279 61.4993 19.1308C61.9362 18.8174 62.437 18.6716 62.95 18.6446C64.3738 18.569 65.7926 18.3718 67.2238 18.5662H67.2188Z" fill="#41240F"/>
<path d="M77.8243 21.7752C77.6476 22.8989 77.7384 23.8605 77.898 24.814C78.0403 25.654 78.0158 26.4995 78.0379 27.3449C78.0747 28.6442 78.4036 29.0818 79.5647 29.287C80.284 29.414 81.0204 29.4356 81.747 29.5247C82.1103 29.5707 82.4834 29.6112 82.8222 29.7463C83.3868 29.9704 83.8998 30.3054 83.971 31.059C84.0496 31.8883 84.0029 32.6743 83.3058 33.228C82.8148 33.617 82.2772 33.8574 81.6783 33.8817C79.6948 33.9627 77.7212 33.8574 75.7795 33.3712C74.5227 33.0578 74.2011 32.5689 74.0587 31.1292C73.8108 28.6307 73.801 26.1537 74.206 23.6633C74.3901 22.5261 74.3361 21.3322 74.3189 20.1653C74.3091 19.5333 74.5521 19.1929 75.0308 18.9579C75.588 18.6851 76.1502 18.6176 76.7418 18.8039C77.5322 19.0524 77.7728 19.3388 77.8145 20.2329C77.8415 20.7947 77.8194 21.3619 77.8194 21.7725L77.8243 21.7752Z" fill="#41240F"/>
</svg>
