<svg width="201" height="82" viewBox="0 0 201 82" fill="none" xmlns="http://www.w3.org/2000/svg">
<path d="M27.7367 42.3827C20.6069 42.8662 14.7835 40.9258 9.48157 36.9354C7.6127 35.53 6.39413 33.5961 5.63252 31.314C4.95293 29.2704 5.66181 27.8844 7.6127 27.5428C9.93268 27.1302 12.0242 27.9682 13.4009 29.9989C16.1251 33.9957 19.939 34.2536 24.3388 32.5195C25.1941 32.1843 26.0671 31.7202 26.1901 30.6307C26.319 29.5025 25.4109 29.0126 24.7255 28.4001C23.6006 27.388 22.2239 27.1366 20.8881 26.8143C16.9688 25.8796 13.3951 24.139 10.2725 21.3605C7.72987 19.0978 5.87858 16.3387 5.79656 12.5739C5.70282 8.13222 7.05614 4.43833 10.7646 2.2465C16.7754 -1.30555 25.8796 -0.699544 31.0585 4.45125C32.3357 5.72122 33.2145 7.28772 33.771 9.03474C34.3686 10.9042 33.7945 11.9485 32.031 12.3805C30.8593 12.6706 29.6876 12.5481 28.5276 12.129C26.8228 11.5166 25.2937 10.5561 23.7529 9.58268C21.4916 8.15155 19.0954 7.92594 16.6465 9.04119C15.8205 9.42154 14.8714 9.83405 14.889 10.9815C14.9066 12.2966 15.967 12.6641 16.9102 13.0058C17.3789 13.1798 17.8651 13.2959 18.3455 13.3862C22.5226 14.1533 26.6822 15.2492 30.8886 15.5908C37.4385 16.1195 43.6836 27.098 41.1586 33.5381C40.8481 34.331 40.6196 35.169 40.3853 35.9942C39.2429 40.0104 36.6124 41.9895 32.9508 42.344C30.9941 42.5374 29.008 42.3763 27.725 42.3763L27.7367 42.3827Z" fill="black"/>
<path d="M57.3536 3.03949C63.5168 2.88477 68.5844 5.28934 71.625 11.3426C75.7025 19.4653 74.6011 28.7935 67.2487 35.3948C64.1378 38.1861 60.5641 39.7526 56.592 39.3658C49.7375 38.7018 43.8849 33.493 42.3558 26.1568C41.5825 22.45 41.4829 18.7498 42.4026 15.0752C44.3711 7.15886 49.4973 3.05882 57.3595 3.03303L57.3536 3.03949ZM63.8331 21.5024C63.4933 19.1752 63.6691 16.7642 63.1008 14.4177C62.5443 12.1291 61.1851 10.7173 59.2108 10.2145C55.0922 9.16371 51.3017 11.7165 50.3527 15.2879C49.4973 18.479 49.3509 21.6571 49.8254 24.9255C50.4288 29.0706 52.3973 31.1723 56.1819 31.5913C57.3302 31.7202 58.455 31.5268 59.5564 31.3076C62.5677 30.7016 63.8214 28.9611 63.9503 25.538C64.003 24.1906 63.4933 22.882 63.8331 21.5024Z" fill="black"/>
<path d="M77.1958 20.4709C77.1958 16.0486 77.1782 11.6197 77.2016 7.19738C77.2134 4.85084 77.9281 3.81941 80.0196 3.50997C81.3905 3.30368 82.8375 3.27791 84.1967 3.52288C86.0129 3.85165 87.3486 4.92174 87.8583 7.11357C88.5027 9.89848 89.3581 12.6319 90.1314 15.3846C90.3365 16.1195 90.5474 16.8479 90.7876 17.5699C91.0746 18.4467 91.6136 19.0655 92.4983 19.1235C93.4883 19.1944 93.8984 18.3435 94.1269 17.5377C95.1346 13.9341 96.8511 10.6785 98.14 7.21674C99.0188 4.85085 100.483 3.70336 102.692 3.58733C104.432 3.49063 106.195 3.35529 107.924 3.54224C111.744 3.96126 114.333 7.14588 114.544 11.4586C114.784 16.5385 115.001 21.6055 115.739 26.6531C116.565 32.339 114.146 35.7621 108.914 36.8902C107.543 37.1868 106.184 37.6058 104.766 37.406C102.815 37.1288 102.048 36.2778 101.843 34.0925C101.731 32.945 101.784 31.7781 101.602 30.6499C101.485 29.9344 101.251 29.0384 100.46 28.8579C99.6574 28.6774 99.1418 29.3542 98.8255 30.044C98.1693 31.5009 97.4897 32.9707 97.0328 34.5179C96.4762 36.3938 94.8417 37.7154 92.428 37.3673C91.0922 37.1739 90.0025 36.5421 89.446 34.9563C88.8191 33.1706 88.0106 31.4558 87.1904 29.7603C86.8389 29.0319 86.3468 28.1229 85.4036 28.4388C84.6537 28.6838 84.5014 29.5605 84.4721 30.347C84.4311 31.6879 84.3666 33.0416 84.4604 34.3761C84.5658 35.775 83.9741 36.5293 82.8844 37.0063C81.8826 37.4447 80.8574 37.5736 79.8028 37.3544C78.0218 36.9869 77.2895 36.0457 77.2134 34.0279C77.2134 33.9312 77.2134 33.8346 77.2134 33.7379V20.4644L77.1958 20.4709Z" fill="black"/>
<path d="M134.719 6.06912C140.882 5.9144 145.95 8.31897 148.99 14.3723C153.068 22.4949 151.966 31.8231 144.614 38.4244C141.503 41.2158 137.929 42.7823 133.957 42.3955C127.103 41.7315 121.25 36.5227 119.721 29.1865C118.948 25.4798 118.848 21.7794 119.768 18.1049C121.736 10.1885 126.863 6.08853 134.725 6.06274L134.719 6.06912ZM141.198 24.5321C140.859 22.2048 141.034 19.7938 140.466 17.4473C139.909 15.1588 138.55 13.747 136.576 13.2441C132.457 12.1933 128.667 14.7462 127.718 18.3176C126.863 21.5086 126.716 24.6868 127.191 27.9552C127.794 32.1003 129.763 34.2019 133.547 34.6209C134.695 34.7499 135.82 34.5565 136.922 34.3373C139.933 33.7313 141.187 31.9907 141.316 28.5676C141.368 27.2203 140.859 25.9116 141.198 24.5321Z" fill="black"/>
<path d="M177.298 39.9517C170.578 40.4094 165.089 38.5786 160.092 34.8138C158.328 33.4858 157.18 31.6678 156.459 29.5147C155.815 27.5872 156.489 26.285 158.322 25.9627C160.513 25.5759 162.476 26.3624 163.783 28.277C166.349 32.0418 169.946 32.2867 174.094 30.6557C174.902 30.3399 175.722 29.9015 175.839 28.8765C175.962 27.8128 175.107 27.3487 174.457 26.7749C173.396 25.8208 172.096 25.5823 170.836 25.2793C167.139 24.3962 163.777 22.7588 160.83 20.1415C158.434 18.0077 156.688 15.4097 156.612 11.8577C156.524 7.67384 157.795 4.19264 161.299 2.1233C166.964 -1.22246 175.541 -0.655099 180.427 4.2056C181.633 5.40466 182.46 6.88089 182.981 8.52476C183.543 10.2911 183.004 11.271 181.341 11.6771C180.233 11.9479 179.132 11.8319 178.042 11.4386C176.437 10.8584 174.996 9.95592 173.543 9.03406C171.41 7.68673 169.155 7.47397 166.847 8.52476C166.067 8.87932 165.177 9.27253 165.189 10.3491C165.206 11.5868 166.208 11.935 167.093 12.2573C167.532 12.4185 167.989 12.5345 168.446 12.6183C172.383 13.3403 176.302 14.3782 180.268 14.6941C186.437 15.1969 192.331 25.5436 189.947 31.6098C189.654 32.3576 189.437 33.1442 189.214 33.9242C188.142 37.7083 185.658 39.5714 182.208 39.9066C180.362 40.0871 178.493 39.9388 177.286 39.9388L177.298 39.9517Z" fill="black"/>
<path d="M0.00532583 73.7711C-0.0649765 71.9854 0.567748 69.9869 1.48754 68.1174C3.5263 63.9787 5.45962 59.7949 6.67233 55.2437C7.09415 53.6643 7.89676 52.2525 9.02746 51.1437C10.5917 49.6094 12.2379 48.1847 14.0306 46.9792C15.6476 45.8962 17.4286 45.4643 19.3033 45.7093C21.3304 45.9736 22.918 46.8439 23.6152 49.242C24.3241 51.7046 25.4079 54.0446 26.0816 56.5201C27.4408 61.5226 29.8487 66.0094 31.6179 70.8057C32.3737 72.8621 32.8014 75.0153 33.2232 77.1684C33.4809 78.5093 33.024 79.328 31.946 79.9662C28.7824 81.8357 25.1443 80.3917 23.8378 76.6849C22.8712 73.9516 21.6877 72.9266 18.8522 73.0749C16.708 73.1845 14.5345 73.4746 12.5309 74.6027C11.5115 75.1764 10.6737 75.7373 10.7909 77.1233C10.9139 78.6318 10.0293 79.1411 8.96887 79.5021C6.90081 80.2112 4.81518 80.1209 2.78227 79.3989C0.667343 78.6446 -0.0473997 77.2006 0.0111856 73.7711H0.00532583ZM16.5908 59.2019C13.931 59.131 12.941 60.691 14.1185 63.0892C14.9621 64.8168 18.5651 66.0932 20.1176 65.2229C21.014 64.7201 21.3421 63.9853 21.0433 62.87C20.4516 60.6266 18.8288 59.2599 16.5908 59.2019Z" fill="black"/>
<path d="M56.8064 80.7654C54.1935 80.991 52.0024 80.0821 50.2624 77.8838C49.2899 76.6525 48.3232 75.4019 47.2745 74.2544C45.2592 72.0497 44.3219 72.2689 43.0857 75.0731C42.5174 76.3624 42.1015 77.8516 41.0411 78.7219C39.0257 80.3787 36.7116 80.688 34.3331 79.7984C32.927 79.2698 32.7571 78.6703 33.5773 77.2134C35.2411 74.2802 36.9694 71.3857 38.6625 68.4719C39.0843 67.7434 39.4651 66.9827 39.8928 66.2607C41.0645 64.2945 41.0528 62.4443 39.9455 60.3428C38.0181 56.6876 36.4304 52.8325 34.3858 49.2354C33.5597 47.7784 33.8702 47.05 35.3466 46.4633C37.7779 45.4963 39.6995 46.3989 40.9415 49.0548C41.2989 49.8155 41.6679 50.602 42.1718 51.2467C44.1285 53.7351 47.0168 53.6577 48.9559 51.0855C49.5652 50.2733 50.0398 49.3385 50.6198 48.494C52.1488 46.2764 55.6054 45.0516 57.9371 45.8638C59.4661 46.3989 59.6946 47.0887 58.6928 48.5198C56.6716 51.4143 54.5508 54.225 52.5589 57.1453C50.9889 59.4338 51.0416 60.2525 52.6644 62.4959C54.3516 64.8295 56.2205 66.9118 58.4526 68.691C60.837 70.5928 62.8875 72.9909 65.2778 74.9442C67.0412 76.3882 66.719 78.3415 64.8033 79.5793C64.194 79.9725 63.532 80.1917 62.8172 80.2433C60.8136 80.4044 58.81 80.585 56.8064 80.759V80.7654Z" fill="black"/>
<path d="M78.5958 44.1555C84.759 44.0008 89.8266 46.4054 92.8672 52.4587C96.9447 60.5814 95.8433 69.9095 88.4909 76.5107C85.38 79.3021 81.8063 80.8686 77.8342 80.4818C70.9797 79.8179 65.127 74.609 63.598 67.2729C62.8246 63.5661 62.725 59.8657 63.6448 56.1912C65.6133 48.2748 70.7395 44.1749 78.6017 44.1491L78.5958 44.1555ZM85.0753 62.6185C84.7355 60.2913 84.9113 57.8803 84.343 55.5337C83.7865 53.2452 82.4273 51.8334 80.453 51.3306C76.3344 50.2798 72.5439 52.8326 71.5949 56.404C70.7395 59.595 70.593 62.7732 71.0676 66.0416C71.671 70.1867 73.6395 72.2882 77.4241 72.7073C78.5724 72.8362 79.6972 72.6428 80.7986 72.4237C83.8099 71.8177 85.0636 70.0771 85.1925 66.654C85.2452 65.3067 84.7355 63.998 85.0753 62.6185Z" fill="black"/>
<path d="M106.953 51.9689C106.531 54.6506 106.748 56.9456 107.129 59.2212C107.468 61.2261 107.41 63.2439 107.463 65.2617C107.551 68.3625 108.336 69.4068 111.107 69.8967C112.823 70.1997 114.581 70.2513 116.315 70.464C117.182 70.5736 118.072 70.6703 118.881 70.9927C120.228 71.5277 121.453 72.3271 121.623 74.1257C121.81 76.1048 121.699 77.9807 120.035 79.3023C118.863 80.2306 117.58 80.8043 116.151 80.8623C111.417 81.0557 106.707 80.8043 102.073 79.6439C99.0732 78.8961 98.3057 77.7293 97.966 74.2933C97.3742 68.3302 97.3508 62.4187 98.3175 56.475C98.7569 53.761 98.628 50.9117 98.587 48.1268C98.5635 46.6183 99.1435 45.8059 100.286 45.2451C101.616 44.594 102.957 44.4329 104.369 44.8777C106.256 45.4707 106.83 46.1541 106.929 48.2879C106.994 49.6288 106.941 50.9825 106.941 51.9624L106.953 51.9689Z" fill="black"/>
<path d="M135.762 49.1192C141.315 48.9774 145.873 51.1499 148.615 56.5972C152.288 63.914 151.298 72.314 144.672 78.2577C141.866 80.7718 138.65 82.1836 135.076 81.8355C128.901 81.2359 123.629 76.5493 122.252 69.9416C121.561 66.6088 121.467 63.2759 122.293 59.9624C124.068 52.8325 128.684 49.1386 135.762 49.1192ZM141.597 65.7449C141.286 63.6498 141.45 61.4773 140.935 59.3693C140.431 57.3128 139.212 56.0364 137.431 55.5851C133.723 54.6375 130.307 56.9389 129.452 60.1557C128.684 63.0309 128.55 65.8931 128.977 68.8392C129.516 72.5718 131.292 74.4671 134.701 74.841C135.738 74.957 136.746 74.7829 137.742 74.5831C140.454 74.0351 141.585 72.4751 141.702 69.3872C141.749 68.1753 141.286 66.9955 141.597 65.7514V65.7449Z" fill="black"/>
<path d="M160.43 44.3102C163.482 44.3102 166.534 44.3102 169.592 44.3102C170.84 44.3102 172.024 44.639 173.131 45.2257C174.227 45.7994 174.9 46.7341 174.883 48.1717C174.865 49.5577 174.338 50.5311 173.231 51.2016C172.118 51.8785 170.893 51.872 169.692 52.0847C166.903 52.5747 166.552 53.026 166.195 56.0946C166.083 57.0486 166.019 57.9898 166.13 58.9568C166.417 61.529 166.564 64.114 166.329 66.712C166.177 68.4397 166.359 70.1545 166.634 71.8692C167.237 75.6147 165.708 78.1997 162.392 79.257C160.77 79.7727 159.106 79.8049 157.459 79.6502C155.292 79.4504 154.395 78.3287 154.313 75.9563C154.19 72.3076 154.202 68.6589 154.624 65.023C155.022 61.5806 154.946 58.1187 154.671 54.6698C154.472 52.2524 154.032 51.7754 151.911 51.1758C150.699 50.8342 149.486 50.9437 148.291 51.1113C147.113 51.2789 146.194 51.0018 145.678 49.7834C145.186 48.6165 145.795 46.3667 146.779 45.6575C147.822 44.9097 149.017 44.5617 150.242 44.4972C153.64 44.3167 157.026 43.8461 160.441 44.3102H160.43Z" fill="black"/>
<path d="M185.738 51.9689C185.316 54.6506 185.533 56.9456 185.914 59.2212C186.254 61.2261 186.195 63.2439 186.248 65.2617C186.336 68.3625 187.121 69.4068 189.892 69.8967C191.608 70.1997 193.366 70.2513 195.1 70.464C195.967 70.5736 196.858 70.6703 197.666 70.9927C199.013 71.5277 200.238 72.3271 200.408 74.1257C200.595 76.1048 200.484 77.9807 198.82 79.3023C197.648 80.2306 196.365 80.8043 194.936 80.8623C190.202 81.0557 185.492 80.8043 180.858 79.6439C177.858 78.8961 177.091 77.7293 176.751 74.2933C176.159 68.3302 176.136 62.4187 177.103 56.475C177.542 53.761 177.413 50.9117 177.372 48.1268C177.349 46.6183 177.929 45.8059 179.071 45.2451C180.401 44.594 181.743 44.4329 183.154 44.8777C185.041 45.4707 185.615 46.1541 185.715 48.2879C185.779 49.6288 185.726 50.9825 185.726 51.9624L185.738 51.9689Z" fill="black"/>
</svg>
