<svg width="402" height="152" viewBox="0 0 201 76" fill="none" xmlns="http://www.w3.org/2000/svg">
<path d="M102.933 24.0776C103.103 25.2179 103.153 26.4929 103.081 27.9028C103.048 28.2627 102.852 28.4424 102.492 28.442L88.5867 28.4232C88.4067 28.423 88.3461 28.4979 88.4049 28.648C88.4899 29.2481 88.65 29.8483 88.8851 30.4486C89.6513 32.1296 91.2344 32.9717 93.6344 32.9749C95.5547 32.9475 97.0761 32.1696 98.1986 30.6411C98.3201 30.4613 98.4558 30.3715 98.6058 30.3717C98.6958 30.3718 98.8003 30.4319 98.9193 30.5521L102.133 33.7514C102.282 33.9016 102.356 34.0366 102.355 34.1566C102.354 34.2166 102.293 34.3366 102.172 34.5164C101.172 35.745 99.8889 36.7033 98.3232 37.3911C96.7578 38.049 95.0451 38.3767 93.1851 38.3742C90.6051 38.3707 88.4199 37.7828 86.6295 36.6104C84.8691 35.4381 83.6075 33.8014 82.8448 31.7004C82.2271 30.1996 81.9282 28.2343 81.9481 25.8044C81.9617 24.1544 82.1986 22.6998 82.6589 21.4404C83.3664 19.3114 84.5803 17.6181 86.3007 16.3604C88.051 15.1028 90.1112 14.4756 92.4812 14.4788C95.4812 14.4828 97.874 15.356 99.6597 17.0984C101.475 18.8408 102.566 21.1672 102.933 24.0776ZM92.4811 19.9687C90.5911 19.9661 89.3389 20.8494 88.7243 22.6186C88.6011 23.0084 88.4922 23.4882 88.3975 24.0581C88.3963 24.2081 88.4707 24.2832 88.6207 24.2834L96.4057 24.2939C96.5857 24.2941 96.6463 24.2192 96.5875 24.0691C96.4447 23.1989 96.3731 22.7789 96.3729 22.8089C96.1102 21.9085 95.6359 21.2179 94.9498 20.737C94.294 20.2261 93.4711 19.97 92.4811 19.9687ZM103.56 38.0282C103.35 38.0279 103.2 37.9677 103.111 37.8476C103.053 37.6975 103.084 37.5325 103.205 37.3527L110.539 26.6078C110.599 26.5179 110.6 26.4279 110.541 26.3378L103.384 15.5734C103.325 15.4534 103.296 15.3483 103.297 15.2583C103.299 15.0183 103.45 14.8986 103.75 14.899L109.375 14.9065C109.645 14.9069 109.854 15.0272 110.002 15.2674L114.001 21.4376C114.12 21.6178 114.225 21.6179 114.316 21.438L118.417 15.2787C118.569 15.0389 118.78 14.9192 119.05 14.9195L125.08 14.9277C125.29 14.9279 125.424 15.0031 125.483 15.1532C125.542 15.2733 125.511 15.4232 125.389 15.6031L118.101 26.348C118.07 26.438 118.069 26.528 118.099 26.618L125.21 37.3823C125.27 37.4724 125.299 37.5774 125.298 37.6974C125.296 37.9374 125.16 38.0572 124.89 38.0569L119.22 38.0492C118.95 38.0489 118.741 37.9286 118.593 37.6884L114.593 31.5182C114.505 31.3381 114.415 31.3379 114.323 31.5178L110.223 37.6772C110.071 37.9169 109.86 38.0367 109.59 38.0363L103.56 38.0282ZM148.118 21.1685C148.645 22.6992 148.9 24.4995 148.883 26.5694C148.866 28.6394 148.566 30.5139 147.982 32.1931C147.276 34.1121 146.169 35.6406 144.659 36.7785C143.18 37.8865 141.346 38.439 139.156 38.4361C136.996 38.4332 135.322 37.6809 134.134 36.1794C134.075 36.0893 134.015 36.0592 133.955 36.0891C133.895 36.119 133.864 36.179 133.863 36.269L133.784 45.8987C133.783 46.0487 133.722 46.1686 133.601 46.2584C133.511 46.3783 133.39 46.4381 133.24 46.4379L127.975 46.4308C127.825 46.4306 127.691 46.3705 127.571 46.2503C127.482 46.1602 127.438 46.0401 127.439 45.8901L127.689 15.4712C127.69 15.3212 127.736 15.2012 127.827 15.1113C127.948 14.9915 128.083 14.9317 128.233 14.9319L133.498 14.939C133.648 14.9392 133.768 14.9993 133.857 15.1195C133.976 15.2096 134.035 15.3297 134.034 15.4797L134.022 16.9646C134.021 17.0546 134.051 17.1147 134.11 17.1448C134.17 17.1448 134.231 17.1149 134.291 17.055C135.565 15.4068 137.311 14.5841 139.531 14.5871C141.601 14.5899 143.382 15.1773 144.872 16.3493C146.393 17.4913 147.474 19.0977 148.118 21.1685ZM141.15 31.2389C141.909 30.07 142.297 28.4805 142.314 26.4706C142.329 24.5806 142.027 23.0803 141.406 21.9695C140.726 20.6786 139.622 20.0321 138.092 20.03C136.712 20.0282 135.671 20.6718 134.971 21.9608C134.332 23.0399 134.005 24.5544 133.989 26.5044C133.972 28.5143 134.289 30.0747 134.94 31.1856C135.62 32.3864 136.635 32.9878 137.985 32.9896C139.335 32.9914 140.39 32.4079 141.15 31.2389Z" fill="black"/>
<path d="M91.5655 74.4694C89.5555 74.4667 87.8028 74.1793 86.3075 73.6073C84.8122 73.0353 83.6487 72.2388 82.8171 71.2177C82.0154 70.1966 81.6199 69.0411 81.6305 67.7511L81.6342 67.3012C81.6354 67.1512 81.6814 67.0312 81.7721 66.9414C81.8931 66.8215 82.0286 66.7617 82.1786 66.7619L87.1736 66.7686C87.3236 66.7688 87.4431 66.829 87.5321 66.9491C87.6514 67.0393 87.7104 67.1593 87.7092 67.3093L87.7088 67.3543C87.7034 68.0143 88.0587 68.5848 88.7748 69.0657C89.5211 69.5167 90.4492 69.743 91.5592 69.7445C92.5792 69.7458 93.4058 69.552 94.039 69.1628C94.6725 68.7437 94.9917 68.2341 94.9966 67.6341C95.001 67.0942 94.7343 66.6888 94.1966 66.4181C93.6588 66.1474 92.7761 65.8612 91.5486 65.5595C90.1415 65.1977 89.0344 64.8512 88.2271 64.5201C86.3125 63.8575 84.7891 63.0455 83.657 62.084C82.5249 61.1225 81.9662 59.7418 81.981 57.9418C81.9992 55.7219 82.8686 53.9681 84.5892 52.6805C86.34 51.3629 88.6404 50.706 91.4904 50.7098C93.4104 50.7124 95.0878 51.0296 96.5227 51.6616C97.9577 52.2635 99.0607 53.1199 99.8316 54.2309C100.633 55.342 101.027 56.6025 101.016 58.0125C101.014 58.1624 100.953 58.2974 100.832 58.4172C100.742 58.5071 100.621 58.5519 100.471 58.5517L95.6562 58.5452C95.5062 58.545 95.3715 58.4998 95.2523 58.4097C95.1633 58.2896 95.1194 58.1545 95.1206 58.0045C95.126 57.3445 94.7856 56.7891 94.0993 56.3382C93.443 55.8873 92.5598 55.6611 91.4498 55.6596C90.4598 55.6583 89.6483 55.8372 89.0154 56.1963C88.3824 56.5555 88.0634 57.05 88.0582 57.68C88.0533 58.28 88.3496 58.7304 88.9471 59.0312C89.5747 59.332 90.6071 59.6484 92.0444 59.9803C92.3736 60.0708 92.7478 60.1763 93.1668 60.2968C93.586 60.3874 94.0351 60.508 94.5138 60.6586C96.6387 61.2915 98.312 62.1037 99.5339 63.0953C100.756 64.087 101.359 65.5277 101.343 67.4177C101.325 69.6376 100.426 71.3764 98.6456 72.6339C96.8955 73.8616 94.5355 74.4734 91.5655 74.4694ZM116.964 55.604C116.963 55.754 116.902 55.8889 116.781 56.0087C116.69 56.0986 116.57 56.1434 116.42 56.1432L112.1 56.1374C111.95 56.1372 111.874 56.2121 111.873 56.3621L111.795 65.9018C111.787 66.8917 111.976 67.627 112.362 68.1075C112.778 68.588 113.436 68.8289 114.336 68.8301L115.821 68.8321C115.971 68.8323 116.09 68.8925 116.179 69.0126C116.299 69.1028 116.358 69.2228 116.356 69.3728L116.321 73.6477C116.319 73.9777 116.137 74.1724 115.777 74.2319C114.516 74.2903 113.616 74.319 113.076 74.3183C110.586 74.315 108.729 73.9075 107.506 73.0958C106.283 72.2542 105.666 70.6934 105.654 68.4135L105.753 56.3539C105.754 56.2039 105.68 56.1288 105.53 56.1286L102.965 56.1251C102.815 56.1249 102.68 56.0797 102.561 55.9896C102.472 55.8695 102.428 55.7344 102.429 55.5844L102.462 51.5795C102.464 51.4296 102.51 51.3096 102.6 51.2197C102.721 51.0999 102.857 51.0401 103.007 51.0403L105.572 51.0437C105.722 51.0439 105.797 50.969 105.799 50.8191L105.843 45.4642C105.844 45.3142 105.89 45.1943 105.981 45.1044C106.101 44.9846 106.237 44.9248 106.387 44.925L111.427 44.9318C111.577 44.932 111.696 44.9921 111.786 45.1122C111.905 45.2024 111.964 45.3225 111.963 45.4725L111.919 50.8273C111.917 50.9773 111.992 51.0524 112.142 51.0526L116.462 51.0584C116.612 51.0586 116.731 51.1188 116.82 51.2389C116.94 51.329 116.999 51.4491 116.997 51.5991L116.964 55.604ZM132.967 51.6206C132.968 51.4706 133.014 51.3507 133.105 51.2608C133.226 51.141 133.361 51.0811 133.511 51.0813L138.776 51.0884C138.926 51.0886 139.046 51.1488 139.135 51.2689C139.254 51.3591 139.313 51.4791 139.312 51.6291L139.131 73.6784C139.13 73.8284 139.069 73.9633 138.948 74.0831C138.857 74.173 138.737 74.2178 138.587 74.2176L133.322 74.2106C133.172 74.2104 133.037 74.1652 132.918 74.075C132.829 73.9549 132.785 73.8198 132.786 73.6698L132.799 72.1399C132.799 72.0499 132.77 72.0049 132.71 72.0048C132.65 71.9747 132.59 72.0046 132.529 72.0945C131.316 73.7129 129.449 74.5203 126.929 74.5169C124.649 74.5139 122.78 73.8214 121.321 72.4395C119.862 71.0575 119.143 69.1216 119.164 66.6317L119.287 51.6022C119.288 51.4522 119.334 51.3323 119.425 51.2424C119.546 51.1225 119.681 51.0627 119.831 51.0629L125.051 51.07C125.201 51.0702 125.321 51.1303 125.41 51.2504C125.529 51.3406 125.588 51.4607 125.587 51.6107L125.477 65.0652C125.467 66.2652 125.774 67.2406 126.398 67.9914C127.051 68.7422 127.948 69.1184 129.088 69.12C130.108 69.1213 130.951 68.8225 131.616 68.2234C132.281 67.5943 132.693 66.7849 132.851 65.7951L132.967 51.6206ZM157.062 43.2832C157.063 43.1332 157.109 43.0133 157.2 42.9234C157.321 42.8036 157.457 42.7437 157.607 42.7439L162.872 42.751C163.022 42.7512 163.141 42.8114 163.23 42.9315C163.349 43.0217 163.408 43.1417 163.407 43.2917L163.158 73.7107C163.156 73.8607 163.095 73.9956 162.974 74.1155C162.884 74.2053 162.763 74.2502 162.613 74.25L157.348 74.2429C157.198 74.2427 157.064 74.1975 156.944 74.1073C156.855 73.9872 156.811 73.8522 156.813 73.7022L156.825 72.2172C156.826 72.1272 156.796 72.0822 156.736 72.0821C156.676 72.052 156.616 72.067 156.556 72.1269C155.282 73.7751 153.55 74.5978 151.36 74.5948C149.26 74.592 147.45 74.0046 145.93 72.8326C144.439 71.6606 143.372 70.0542 142.729 68.0134C142.232 66.4527 141.992 64.6374 142.009 62.5675C142.026 60.4376 142.312 58.578 142.865 56.9888C143.57 55.0698 144.663 53.5563 146.142 52.4483C147.651 51.3104 149.501 50.7429 151.691 50.7458C153.851 50.7487 155.525 51.5009 156.712 53.0025C156.772 53.0926 156.831 53.1227 156.892 53.0927C156.952 53.0628 156.982 53.0029 156.983 52.9129L157.062 43.2832ZM155.921 67.2211C156.53 66.112 156.842 64.5974 156.858 62.6775C156.875 60.6676 156.557 59.0922 155.907 57.9513C155.226 56.7804 154.226 56.1941 152.906 56.1923C151.496 56.1904 150.426 56.774 149.697 57.943C148.937 59.1119 148.549 60.7014 148.533 62.7113C148.518 64.5112 148.821 66.0116 149.441 67.2124C150.18 68.5034 151.285 69.1498 152.755 69.1518C154.105 69.1536 155.16 68.5101 155.921 67.2211ZM170.223 48.5208C169.203 48.5194 168.35 48.1883 167.666 47.5274C167.011 46.8365 166.688 45.9811 166.697 44.9611C166.705 43.9112 167.042 43.0566 167.708 42.3975C168.373 41.7385 169.231 41.4096 170.281 41.411C171.331 41.4124 172.183 41.7436 172.838 42.4044C173.492 43.0653 173.815 43.9207 173.807 44.9707C173.798 45.9907 173.446 46.8452 172.751 47.5342C172.085 48.1933 171.243 48.5222 170.223 48.5208ZM167.311 74.2563C167.161 74.2561 167.027 74.2109 166.908 74.1208C166.819 74.0006 166.775 73.8656 166.776 73.7156L166.957 51.6213C166.958 51.4713 167.004 51.3514 167.095 51.2615C167.216 51.1417 167.352 51.0819 167.502 51.0821L172.767 51.0892C172.917 51.0894 173.036 51.1495 173.125 51.2696C173.244 51.3598 173.303 51.4799 173.302 51.6299L173.121 73.7241C173.12 73.8741 173.059 74.009 172.938 74.1289C172.847 74.2187 172.726 74.2636 172.576 74.2634L167.311 74.2563ZM186.923 74.6427C184.403 74.6393 182.249 73.9764 180.459 72.654C178.67 71.3316 177.455 69.53 176.814 67.2492C176.405 65.8387 176.208 64.3085 176.221 62.6585C176.236 60.8886 176.459 59.2989 176.891 57.8896C177.599 55.6706 178.858 53.9323 180.668 52.6748C182.479 51.4172 184.644 50.7901 187.164 50.7935C189.624 50.7968 191.719 51.4297 193.448 52.6919C195.178 53.9242 196.394 55.6508 197.096 57.8717C197.564 59.3723 197.791 60.9476 197.777 62.5975C197.764 64.2175 197.541 65.7322 197.11 67.1415C196.431 69.4806 195.186 71.3239 193.374 72.6714C191.594 73.989 189.443 74.6461 186.923 74.6427ZM186.968 69.1979C187.958 69.1992 188.8 68.9003 189.495 68.3013C190.19 67.7022 190.692 66.8779 191.001 65.8284C191.248 64.8687 191.377 63.8189 191.386 62.6789C191.397 61.419 191.285 60.3539 191.053 59.4836C190.731 58.4632 190.228 57.6675 189.542 57.0966C188.857 56.5257 188.019 56.2396 187.029 56.2382C186.009 56.2369 185.152 56.5207 184.457 57.0898C183.793 57.6588 183.306 58.4532 182.998 59.4727C182.752 60.1924 182.623 61.2572 182.611 62.6671C182.6 64.0171 182.697 65.0672 182.901 65.8175C183.192 66.8678 183.68 67.6935 184.365 68.2944C185.08 68.8953 185.948 69.1965 186.968 69.1979Z" fill="black"/>
<g clip-path="url(#clip0_540_80)">
<path d="M19.571 21.5254H8.38098C7.13881 21.5254 6.13672 22.5141 6.13672 23.7397V50.25C6.13672 51.4756 7.13881 52.4643 8.38098 52.4643H19.571C20.8131 52.4643 21.8152 51.4756 21.8152 50.25V23.75C21.8152 22.5244 20.8131 21.5357 19.571 21.5357V21.5254Z" fill="black"/>
<path d="M72.757 0H58.4982C57.2587 0 56.2539 0.991392 56.2539 2.21434V16.2831C56.2539 17.506 57.2587 18.4974 58.4982 18.4974H72.757C73.9965 18.4974 75.0013 17.506 75.0013 16.2831V2.21434C75.0013 0.991392 73.9965 0 72.757 0Z" fill="black"/>
<path d="M16.5031 55.5027H2.24426C1.00479 55.5027 0 56.4941 0 57.717V71.7858C0 73.0087 1.00479 74.0001 2.24426 74.0001H16.5031C17.7426 74.0001 18.7474 73.0087 18.7474 71.7858V57.717C18.7474 56.4941 17.7426 55.5027 16.5031 55.5027Z" fill="black"/>
<path d="M16.5031 0H2.24426C1.00479 0 0 0.991392 0 2.21434V16.2831C0 17.506 1.00479 18.4974 2.24426 18.4974H16.5031C17.7426 18.4974 18.7474 17.506 18.7474 16.2831V2.21434C18.7474 0.991392 17.7426 0 16.5031 0Z" fill="black"/>
<path d="M50.9409 6.05591H24.0724C22.8302 6.05591 21.8281 7.04464 21.8281 8.27024V19.311C21.8281 20.5366 22.8302 21.5254 24.0724 21.5254H50.9409C52.183 21.5254 53.1851 20.5366 53.1851 19.311V8.27024C53.1851 7.04464 52.183 6.05591 50.9409 6.05591Z" fill="black"/>
<path d="M50.9409 52.4746H24.0724C22.8302 52.4746 21.8281 53.4633 21.8281 54.6889V65.7297C21.8281 66.9553 22.8302 67.9441 24.0724 67.9441H50.9409C52.183 67.9441 53.1851 66.9553 53.1851 65.7297V54.6889C53.1851 53.4633 52.183 52.4746 50.9409 52.4746Z" fill="black"/>
<path d="M72.757 55.5027H58.4982C57.2587 55.5027 56.2539 56.4941 56.2539 57.717V71.7858C56.2539 73.0087 57.2587 74.0001 58.4982 74.0001H72.757C73.9965 74.0001 75.0013 73.0087 75.0013 71.7858V57.717C75.0013 56.4941 73.9965 55.5027 72.757 55.5027Z" fill="black"/>
<path d="M66.6178 21.5254H55.4279C54.1857 21.5254 53.1836 22.5141 53.1836 23.7397V50.25C53.1836 51.4756 54.1857 52.4643 55.4279 52.4643H66.6178C67.86 52.4643 68.8621 51.4756 68.8621 50.25V23.75C68.8621 22.5244 67.86 21.5357 66.6178 21.5357V21.5254Z" fill="black"/>
</g>
<defs>
<clipPath id="clip0_540_80">
<rect width="75" height="74" fill="white"/>
</clipPath>
</defs>
</svg>
