<svg width="234" height="263" viewBox="0 0 234 263" fill="none" xmlns="http://www.w3.org/2000/svg">
<path d="M62.3317 92.2217C69.3917 96.4617 76.9517 100.092 83.4517 105.092C101.602 119.082 102.322 143.882 96.1717 159.262C90.9017 172.422 79.1117 177.862 66.3217 178.782C45.4217 180.292 24.3917 179.922 3.41169 180.372C0.181695 180.442 0.161695 178.262 0.161695 175.982C0.161695 166.642 0.161695 157.312 0.161695 147.972C0.161695 129.962 0.301695 111.962 0.0716946 93.9517C0.0116946 89.4617 1.52169 88.2517 5.82169 88.3417C17.6017 88.5917 29.3917 88.4317 41.3017 87.5917C37.8817 86.5117 34.4317 85.4917 31.0417 84.3317C-1.63831 73.1617 -3.66831 42.7117 3.20169 22.1617C6.74169 11.5917 15.4317 5.8817 25.7417 3.5117C34.2717 1.5517 43.1517 0.581699 51.9117 0.261699C65.8917 -0.258301 79.9117 0.231699 93.9117 0.0416993C98.0217 -0.0183007 99.4117 1.3317 99.3917 5.4717C99.2517 32.6517 99.2517 59.8217 99.3917 87.0017C99.4117 91.2517 97.8717 92.3917 93.8417 92.3117C83.1917 92.0917 72.5317 92.2317 62.3317 92.2317V92.2217Z" fill="black"/>
<path d="M114.192 71.5815C114.192 54.4315 114.322 30.2815 114.082 6.13153C114.032 1.23153 115.592 -0.0484719 120.332 0.00152805C139.652 0.241528 158.982 0.251528 178.302 0.00152805C183.242 -0.0584719 184.702 1.64153 184.422 6.33153C184.092 11.8115 184.542 17.3315 184.292 22.8215C184.112 26.8315 185.752 28.0015 189.562 27.9515C202.392 27.8015 215.222 28.0715 228.042 27.8115C232.712 27.7115 234.222 29.3415 233.912 33.8715C233.482 40.1715 234.062 46.5815 233.242 52.8115C230.202 75.7615 213.072 91.8415 190.092 93.3315C185.502 93.6315 184.232 95.1815 184.262 99.6015C184.432 124.092 184.352 148.592 184.342 173.082C184.342 180.102 184.252 180.742 177.122 179.952C167.102 178.842 156.662 178.152 147.372 174.672C126.802 166.972 118.172 149.532 116.212 128.992C114.612 112.292 114.942 95.4015 114.192 71.5715V71.5815Z" fill="black"/>
<path d="M34.2023 240.792C39.8923 245.612 41.5623 250.122 39.5523 255.072C37.3223 260.582 32.5623 261.682 27.2823 261.672C19.9723 261.672 12.6523 261.582 5.34229 261.702C2.17229 261.752 0.912285 260.602 0.962285 257.332C1.10229 247.032 1.13229 236.722 0.952285 226.412C0.882285 222.722 2.57229 221.912 5.78229 221.972C12.7623 222.092 19.7423 222.002 26.7223 222.012C31.6123 222.012 36.2723 222.892 38.3423 227.962C40.4123 233.032 38.8423 237.402 34.2023 240.782V240.792ZM19.4223 254.212C21.2523 254.212 23.0923 254.232 24.9223 254.212C27.8923 254.162 30.3623 253.242 30.3523 249.772C30.3423 246.462 28.2323 245.132 25.0723 245.172C21.7423 245.212 18.3923 245.312 15.0723 245.122C11.7423 244.922 10.2023 245.992 10.2423 249.592C10.2823 252.982 11.4123 254.592 14.9223 254.252C16.4123 254.112 17.9223 254.232 19.4223 254.212ZM19.2423 229.482C19.2423 229.432 19.2423 229.382 19.2423 229.332C17.2523 229.332 15.1723 228.962 13.3223 229.462C12.1523 229.772 10.5023 231.412 10.5323 232.402C10.5923 234.232 11.6123 237.502 12.4623 237.572C17.0323 237.972 21.7123 237.872 26.2623 237.252C27.4723 237.082 29.0923 234.472 29.1323 232.952C29.1623 231.822 27.0923 230.052 25.6523 229.632C23.6723 229.052 21.3923 229.492 19.2523 229.492L19.2423 229.482Z" fill="black"/>
<path d="M87.0123 260.732C78.6123 262.822 77.4023 262.311 74.1123 255.761C69.6923 246.931 69.6923 247.032 60.1223 247.632C57.1323 247.822 55.8823 248.972 56.0923 251.912C56.1923 253.402 56.0123 254.912 56.1123 256.412C56.3423 259.692 55.6823 261.732 51.6023 261.762C47.4423 261.782 46.5623 259.891 46.6123 256.271C46.7523 246.441 46.7323 236.612 46.6323 226.772C46.5923 223.432 47.7423 221.901 51.2623 221.981C58.9223 222.141 66.5923 222.012 74.2523 222.102C79.2923 222.162 83.5623 223.922 85.3223 229.022C87.1723 234.362 87.0423 239.781 82.5323 243.802C80.0723 245.992 80.1423 247.661 81.5623 250.151C83.4923 253.561 85.1723 257.121 87.0223 260.741L87.0123 260.732ZM64.9823 240.221C64.9823 240.151 64.9823 240.092 64.9823 240.022C67.4623 240.022 70.1823 240.641 72.3523 239.831C74.1423 239.161 76.3323 236.862 76.4423 235.162C76.5423 233.472 74.4823 230.311 73.0223 230.091C68.1623 229.361 63.1523 229.621 58.1923 229.641C57.5823 229.641 56.7323 230.431 56.4223 231.061C54.0323 235.891 56.6723 240.181 62.0023 240.221C62.9923 240.221 63.9923 240.221 64.9823 240.221Z" fill="black"/>
<path d="M156.852 262.832C153.192 262.152 149.262 261.942 145.772 260.602C143.152 259.602 140.572 257.512 138.982 255.212C138.002 253.792 138.902 251.072 138.962 248.932C141.622 249.472 145.242 249.122 146.752 250.732C150.492 254.742 159.842 256.712 164.482 253.452C166.952 251.712 166.722 248.952 163.632 247.712C160.732 246.542 157.522 246.182 154.492 245.292C150.842 244.222 147.122 243.242 143.662 241.712C139.932 240.062 138.622 236.722 138.662 232.692C138.702 228.582 140.422 225.502 144.092 223.902C152.242 220.362 160.542 220.202 168.812 223.582C169.872 224.012 171.222 224.612 171.652 225.502C172.782 227.842 173.482 230.392 174.362 232.862C171.402 232.642 167.392 233.542 165.692 231.962C161.632 228.192 157.342 228.222 152.732 229.152C151.242 229.452 150.032 231.112 148.692 232.142C149.902 233.302 150.932 235.082 152.372 235.512C157.612 237.082 163.102 237.872 168.292 239.582C174.492 241.632 176.572 245.242 176.072 251.292C175.642 256.512 172.392 259.442 167.822 260.822C164.362 261.872 160.672 262.142 156.852 262.792V262.832Z" fill="black"/>
<path d="M89.5918 260.681C92.7318 253.501 95.8418 246.381 98.9618 239.271C100.562 235.621 102.202 231.981 103.812 228.321C106.622 221.931 108.872 220.681 115.642 222.141C116.762 222.381 118.182 223.311 118.622 224.291C123.872 235.961 128.962 247.701 134.062 259.441C134.242 259.851 134.082 260.411 134.082 260.891C127.082 262.631 126.282 262.211 122.502 256.471C121.772 255.361 119.932 254.511 118.542 254.401C114.902 254.111 111.212 254.511 107.582 254.231C103.812 253.941 101.402 254.911 99.9918 258.801C98.7618 262.181 96.1318 262.481 89.6018 260.681H89.5918ZM118.472 246.551C116.142 240.921 114.232 236.311 111.762 230.351C109.322 236.531 107.482 241.201 105.372 246.551H118.462H118.472Z" fill="black"/>
<path d="M200.212 241.492C200.212 240.832 200.212 240.162 200.212 239.502C200.212 227.868 201.775 222.038 204.902 222.012C208.195 221.985 209.842 227.898 209.842 239.752C209.842 242.912 209.982 246.072 209.822 249.222C209.652 252.472 211.022 253.662 214.212 253.562C218.862 253.412 223.512 253.622 228.162 253.512C231.062 253.452 232.392 254.502 232.372 257.562C232.352 260.582 231.042 261.702 228.152 261.672C220.182 261.602 212.202 261.592 204.232 261.672C201.192 261.702 200.132 260.332 200.192 257.432C200.302 252.122 200.222 246.802 200.212 241.482V241.492Z" fill="black"/>
<path d="M191.971 241.851C191.971 247.171 191.851 252.501 192.011 257.821C192.111 261.101 190.371 261.701 187.651 261.681C184.901 261.661 182.671 261.411 182.701 257.791C182.771 247.141 182.771 236.491 182.701 225.841C182.681 222.201 184.961 222.021 187.681 221.981C190.431 221.951 192.111 222.621 192.011 225.871C191.851 231.191 191.971 236.521 191.971 241.841V241.851Z" fill="black"/>
</svg>
