<svg width="113" height="114" viewBox="0 0 113 114" fill="none" xmlns="http://www.w3.org/2000/svg">
<path d="M22.7036 37.5555C21.9367 37.338 21.1526 37.1549 20.4029 36.8916C16.0647 35.3463 12.1214 33.1715 9.4201 29.2969C7.68597 26.8073 6.74165 23.9629 6.44404 20.9296C6.15788 18.0337 6.19795 15.1435 6.77599 12.2876C7.48566 8.79646 9.14539 5.90053 12.1787 3.88597C15.8072 1.48223 19.8878 0.503563 24.1344 0.377653C31.9294 0.143002 39.7358 0.114386 47.5365 0.0113688C48.9559 -0.00580074 49.1047 0.160172 49.1047 1.57952C49.1047 13.7413 49.1047 25.9031 49.1047 38.0648C49.1047 39.8505 49.0818 39.8562 47.3191 39.8562C42.9122 39.8505 38.5111 39.8448 34.1042 39.8505C33.8352 39.8505 33.572 39.9077 33.2515 40.1653C33.8238 40.4171 34.3904 40.6861 34.9741 40.9093C37.4008 41.8307 39.5813 43.1528 41.6588 44.7266C44.4804 46.8671 46.4835 49.5627 47.7769 52.8078C49.4824 57.0716 49.5396 61.507 48.6068 65.9024C48.0402 68.5694 46.9871 71.1964 44.7493 72.9935C41.613 75.5117 37.9903 76.828 33.9783 77.3202C25.2218 78.3962 16.4425 77.675 7.67453 77.8925C6.44977 77.9211 6.24946 77.7151 6.24946 76.4674C6.23801 71.2364 6.24373 66.0054 6.23801 60.7745C6.23801 53.8093 6.22656 46.8499 6.22656 39.8848C6.22656 38.3052 6.28952 38.1736 7.84622 38.1564C11.841 38.1221 15.8301 38.1793 19.8249 38.1621C20.7749 38.1621 21.7307 38.0191 22.6807 37.9447C22.6922 37.813 22.6979 37.6871 22.7093 37.5555H22.7036Z" fill="black"/>
<path d="M55.4922 28.3698C55.4922 20.9011 55.4922 13.4323 55.4922 5.96356C55.4922 4.38968 55.5093 2.82153 55.4807 1.24765C55.4693 0.366284 55.8642 0 56.7341 0C65.9885 0.0114464 75.2429 0.0114464 84.503 0C85.1955 0 85.5961 0.246097 85.6076 0.961495C85.6362 2.46669 85.6591 3.97189 85.6591 5.47709C85.6591 7.17688 85.5732 8.87666 85.6133 10.5765C85.6476 11.9615 85.8079 12.0645 87.1814 12.0645C93.1622 12.0645 99.1429 12.0645 105.124 12.0645C106.669 12.0645 106.703 12.116 106.715 13.6441C106.749 17.513 106.989 21.4162 106.097 25.2049C105.644 27.1336 104.809 29.028 103.847 30.7679C102.674 32.8854 101.089 34.7684 99.1028 36.2106C96.5446 38.0706 93.8318 39.6331 90.6268 40.1024C89.3276 40.2912 88.017 40.4629 86.7121 40.606C86.0311 40.6804 85.682 40.9952 85.6705 41.6877C85.6476 43.3531 85.5847 45.0243 85.5904 46.6898C85.6133 54.8167 85.6648 62.9436 85.6877 71.0705C85.6877 72.8962 85.579 74.7162 85.5847 76.5419C85.5847 77.3432 85.3042 77.6808 84.4916 77.6923C80.2564 77.7609 76.0384 77.532 71.9692 76.3359C67.0358 74.8936 62.9323 72.2209 60.1108 67.7396C58.2565 64.7922 57.1462 61.6158 56.3678 58.2449C55.7039 55.3604 55.5036 52.4587 55.4979 49.5285C55.4807 42.4718 55.4979 35.4094 55.4922 28.3527V28.3698Z" fill="black"/>
<path d="M4.05774 101.255C4.05774 102.239 4.05774 103.223 4.05774 104.213C4.04057 106.858 4.00623 109.502 4.01768 112.146C4.01768 112.85 3.76586 113.119 3.07908 113.096C2.35795 113.067 1.63111 113.073 0.909987 113.096C0.263267 113.119 0 112.815 0 112.186C0 106.898 0 101.604 0 96.3154C0 95.6973 0.303329 95.4913 0.881371 95.4913C2.48386 95.497 4.09208 95.4455 5.69457 95.5142C6.02079 95.5256 6.50154 95.8976 6.61601 96.2124C7.80071 99.5261 8.92245 102.857 10.0671 106.188C10.1816 106.526 10.3246 106.858 10.5021 107.321C11.7325 103.716 12.9401 100.293 14.0561 96.842C14.3766 95.8461 14.8231 95.3997 15.9162 95.4798C17.2325 95.5771 18.5603 95.5199 19.8766 95.497C20.6722 95.4798 20.9927 95.7946 20.9869 96.6188C20.964 101.752 20.964 106.886 20.9869 112.02C20.9869 112.873 20.7179 113.222 19.8251 113.124C19.1097 113.044 18.3714 113.044 17.656 113.136C16.8147 113.239 16.603 112.867 16.6144 112.129C16.6545 108.477 16.6774 104.826 16.706 101.174C16.706 101.02 16.706 100.865 16.5572 100.671C16.4885 100.877 16.4255 101.077 16.3569 101.283C15.424 104.013 14.4854 106.743 13.5582 109.473C13.2663 110.332 12.9802 111.201 12.7226 112.071C12.5223 112.77 12.1332 113.153 11.372 113.107C10.9313 113.079 10.4906 113.096 10.0499 113.102C8.41309 113.119 8.40736 113.124 7.83504 111.516C6.66179 108.197 5.49998 104.877 4.33245 101.558C4.29239 101.455 4.23516 101.352 4.18365 101.255C4.13787 101.26 4.08636 101.266 4.04057 101.277L4.05774 101.255Z" fill="black"/>
<path d="M112.935 104.231C113.124 106.365 112.735 108.305 111.321 109.982C109.81 111.779 107.824 112.632 105.592 113.107C103.75 113.502 101.924 113.308 100.081 113.153C97.2823 112.918 94.0373 110.211 93.3276 107.458C92.5836 104.568 92.555 101.747 94.1517 99.0969C95.365 97.0881 97.1965 95.932 99.4686 95.56C101.031 95.3024 102.645 95.0563 104.207 95.1651C106.457 95.3253 108.694 95.8347 110.434 97.4486C112.403 99.2743 113.239 101.564 112.941 104.231H112.935ZM102.977 98.7421C102.29 98.8165 101.58 98.7936 100.922 98.971C98.2037 99.7322 96.6413 102.806 97.4769 105.713C97.6486 106.308 97.8203 106.932 98.1465 107.441C99.583 109.685 102.479 109.879 104.671 109.439C105.472 109.278 106.359 108.958 106.949 108.426C108.734 106.795 109.215 103.75 108.116 101.546C107.069 99.4403 105.243 98.6734 102.977 98.7421Z" fill="black"/>
<path d="M24.9086 104.248C24.9086 101.729 24.9372 99.2056 24.8915 96.6874C24.8743 95.806 25.1204 95.4626 26.059 95.4683C30.5917 95.5084 35.1188 95.4855 39.6515 95.4912C40.8248 95.4912 40.9278 95.5942 40.9507 96.7904C40.9908 99.2685 40.9965 99.2113 38.5298 99.1541C35.6682 99.0911 32.8066 99.1369 29.945 99.1426C29.8535 99.1426 29.7275 99.1254 29.6703 99.177C28.8805 99.8981 29.4299 100.825 29.3155 101.649C29.2353 102.21 29.6818 102.29 30.1339 102.29C32.6178 102.29 35.1073 102.29 37.5912 102.29C38.8389 102.29 39.4684 102.907 39.4799 104.139C39.4799 104.425 39.4799 104.706 39.4799 104.992C39.4684 105.69 39.1651 105.976 38.4211 105.959C35.714 105.907 33.0069 105.936 30.3056 105.89C29.5043 105.879 29.264 106.194 29.2811 106.955C29.3441 109.536 29.0007 109.244 31.5303 109.255C34.3004 109.267 37.0704 109.273 39.8347 109.25C40.6874 109.244 41.1796 109.484 41.0423 110.452C40.9908 110.789 40.9965 111.144 41.0194 111.488C41.1224 113.09 41.0308 113.101 39.4226 113.096C35.0158 113.096 30.6146 113.096 26.2078 113.084C24.9945 113.084 24.9143 113.016 24.9143 111.802C24.9086 109.284 24.9143 106.766 24.9143 104.242L24.9086 104.248Z" fill="black"/>
<path d="M71.9506 104.265C71.8018 101.878 72.3513 99.715 73.9022 97.9122C74.9782 96.6703 76.3861 95.8576 78 95.5657C79.3793 95.3196 80.7987 95.1021 82.1894 95.1536C84.7706 95.2452 87.2201 95.829 89.0515 97.9008C89.9901 98.9595 90.4251 100.213 90.5968 101.569C90.6826 102.268 90.3621 102.611 89.6009 102.559C88.7253 102.502 87.8382 102.577 86.9626 102.519C86.6936 102.502 86.2701 102.29 86.2014 102.079C85.4516 99.6807 84.3184 98.7707 81.7774 98.765C80.6213 98.765 79.4709 98.8279 78.435 99.5204C76.9699 100.493 76.472 101.964 76.3575 103.561C76.2259 105.45 76.4433 107.31 78.1031 108.592C79.7742 109.879 81.7029 109.725 83.6088 109.364C85.0739 109.09 85.961 108.18 86.3158 106.692C86.396 106.365 86.9225 105.976 87.2888 105.919C88.0557 105.799 88.8569 105.907 89.641 105.873C90.4136 105.839 90.6712 106.262 90.6025 106.926C90.3679 109.164 89.3377 110.921 87.2945 111.963C84.8278 113.227 82.2581 113.611 79.4652 113.153C76.8211 112.724 74.6005 111.779 73.1182 109.479C72.0937 107.888 71.8362 106.085 71.9449 104.253L71.9506 104.265Z" fill="black"/>
<path d="M52.5891 100.774C53.6766 99.3147 54.701 98.0441 55.5995 96.6934C56.2062 95.7777 56.9044 95.3542 58.009 95.4858C58.7874 95.5774 59.5829 95.4858 60.367 95.5087C60.7218 95.5202 61.0709 95.6175 61.6661 95.7148C59.4284 98.4962 57.3394 101.095 55.1989 103.756C56.8701 105.828 58.4898 107.819 60.0922 109.822C60.7161 110.606 61.3456 111.391 61.9008 112.226C62.3071 112.839 62.0896 113.13 61.3456 113.13C60.0865 113.13 58.8274 113.165 57.574 113.13C57.2879 113.119 56.9159 112.942 56.7442 112.718C55.3763 110.956 54.0486 109.164 52.6979 107.384C52.572 107.218 52.4117 107.075 52.2114 106.869C51.1126 108.329 50.0595 109.725 49.0122 111.127C48.6173 111.654 48.2567 112.215 47.8103 112.69C47.5985 112.913 47.2151 113.067 46.906 113.079C45.7442 113.119 44.5767 113.108 43.4149 113.079C43.1917 113.079 42.8597 112.964 42.7911 112.804C42.7166 112.644 42.8483 112.323 42.9856 112.146C45.0059 109.582 47.0319 107.024 49.0866 104.488C49.4242 104.071 49.5044 103.796 49.1495 103.355C47.5012 101.295 45.8758 99.2116 44.2447 97.1398C44.1074 96.9681 43.9242 96.8193 43.8327 96.6248C43.7068 96.3558 43.6495 96.0524 43.5637 95.7606C43.8498 95.6747 44.1417 95.5259 44.4279 95.5145C45.5897 95.4801 46.7687 95.4 47.9133 95.5316C48.4055 95.5889 48.9435 96.041 49.2869 96.4588C50.3972 97.8152 51.4216 99.2403 52.5891 100.786V100.774Z" fill="black"/>
<path d="M64.3576 104.259C64.3576 101.741 64.3862 99.2171 64.3404 96.6989C64.3233 95.7775 64.6838 95.4456 65.5595 95.4856C66.3779 95.52 67.1963 95.5028 68.0147 95.4856C68.6557 95.4742 68.9247 95.7775 68.9247 96.4013C68.9247 101.632 68.919 106.863 68.9247 112.089C68.9247 112.821 68.5699 113.102 67.8716 113.084C67.0876 113.062 66.2978 113.044 65.5137 113.084C64.6552 113.124 64.3347 112.758 64.3462 111.911C64.3748 109.359 64.3576 106.806 64.3576 104.254V104.259Z" fill="black"/>
<path d="M35.1768 90.7641C35.7091 90.7641 36.2471 90.7298 36.7736 90.7813C36.9796 90.8042 37.2143 90.9988 37.3402 91.1819C37.386 91.2506 37.1685 91.5367 37.0254 91.6741C36.5332 92.1548 35.938 92.5555 35.5202 93.0877C34.4901 94.4098 33.1279 94.7017 31.5827 94.5071C31.3251 94.4727 30.9073 94.3583 30.873 94.2152C30.8158 93.9691 30.9474 93.62 31.1077 93.391C31.5941 92.6985 32.0234 91.8973 32.6815 91.4223C33.3511 90.9358 34.2669 90.7927 35.0795 90.4951L35.1711 90.7584L35.1768 90.7641Z" fill="black"/>
</svg>
