<svg width="190" height="190" viewBox="0 0 190 190" fill="none" xmlns="http://www.w3.org/2000/svg">
<path d="M95.1618 160.978C59.4822 161.171 30.2618 132.283 29.0407 97.653C27.7504 61.0456 57.2971 29.0842 95.011 29.0002C131.766 28.9186 161.461 58.4211 161.495 95.1867C161.53 132.998 129.83 161.917 95.1618 160.978ZM95.1939 158.464C130.868 158.277 158.981 130.042 158.794 94.5837C158.608 59.7407 129.969 31.768 94.6427 31.9237C59.6058 32.0769 31.5423 60.5563 31.7079 95.7897C31.8686 130.381 60.5007 158.645 95.1939 158.462V158.464Z" fill="black"/>
<path d="M95.1946 156.319C60.7313 156.188 33.7825 128.957 33.9185 94.4009C34.0495 61.0654 61.6953 33.9676 95.469 34.0689C129.665 34.1702 156.772 61.5547 156.599 95.8243C156.431 129.298 128.872 156.45 95.1946 156.319ZM61.1045 96.3656C66.9975 92.2212 69.9589 87.1476 68.1297 80.1489C66.34 73.3009 59.9279 69.2158 52.5295 70.1376C46.016 70.9482 41.6259 76.2788 41.6234 83.3813C41.6234 86.3321 41.6259 89.2803 41.6259 92.2311C41.6259 98.219 41.6259 104.205 41.6259 110.665C43.9964 110.665 46.0481 110.59 48.0899 110.687C50.0848 110.781 50.8066 109.938 50.7299 107.981C50.6212 105.213 50.7027 102.435 50.7027 99.6623C51.1798 99.3979 51.6594 99.131 52.1364 98.8665C52.6803 99.8007 53.0708 100.876 53.7877 101.652C62.1007 110.632 70.4508 119.581 78.8355 128.497C79.6982 129.414 80.8056 130.63 81.8809 130.719C85.307 131.006 88.7726 130.825 93.2146 130.825C82.1602 118.963 71.7782 107.823 61.0996 96.368L61.1045 96.3656ZM112.382 98.953C113.563 98.8789 114.611 98.7627 115.662 98.7578C120.7 98.738 125.75 98.5527 130.775 98.822C134.055 98.9975 134.71 97.6235 134.436 94.7815C133.729 87.4318 127.809 81.2214 120.739 80.5838C112.508 79.8399 105.606 84.4909 103.535 92.1742C101.622 99.2669 105.312 107.039 112.107 110.232C119.16 113.546 128.419 110.88 131.215 104.639C128.533 102.514 126.133 100.868 122.274 103.048C118.665 105.087 114.29 102.969 112.382 98.9505V98.953ZM86.4712 111.88C95.1995 111.972 102.23 105.144 102.316 96.4965C102.4 87.973 95.2712 80.7197 86.7728 80.6827C78.0742 80.6431 71.091 87.5208 71.0193 96.1975C70.9477 105 77.6366 111.789 86.4712 111.88ZM145.157 109.958C145.236 109.147 145.406 108.201 145.409 107.252C145.429 96.4545 145.29 85.6574 145.493 74.8652C145.56 71.3559 143.57 71.7093 141.325 71.65C139.009 71.5883 137.437 71.6871 137.504 74.8627C137.706 84.6738 137.58 94.4898 137.573 104.306C137.57 108.726 139.801 110.726 144.267 110.306C144.475 110.286 144.67 110.153 145.159 109.958H145.157Z" fill="black"/>
<path d="M55.2957 79.5856C57.7281 79.6696 59.8712 81.921 59.7575 84.2737C59.6389 86.7326 57.4636 88.7047 54.9694 88.6158C52.4629 88.5268 50.4211 86.3792 50.5274 83.945C50.6362 81.4934 52.8164 79.4991 55.2957 79.5831V79.5856Z" fill="black"/>
<path d="M112.836 92.2329C114.319 89.3266 116.598 88.2219 119.278 88.3035C121.787 88.3801 124.068 89.3266 125.292 92.2329H112.836Z" fill="black"/>
<path d="M86.6244 103.596C82.6224 103.567 79.6981 100.554 79.7228 96.4889C79.7451 92.6287 82.9758 89.4408 86.837 89.4704C90.6041 89.5001 93.8423 92.8734 93.7731 96.6965C93.7015 100.675 90.6412 103.629 86.6244 103.596Z" fill="black"/>
</svg>
