<svg width="190" height="190" viewBox="0 0 190 190" fill="none" xmlns="http://www.w3.org/2000/svg">
<path d="M137.586 49.2435C138.796 47.9031 139.864 46.4946 141.158 45.3392C143.273 43.4536 145.531 41.7172 148.577 41.6556C152.856 41.5679 156.146 44.6966 156.289 48.9741C156.506 55.4197 153.927 60.8916 149.826 65.5456C146.767 69.015 143.053 71.9035 139.744 75.162C138.855 76.0383 138.368 77.3203 137.697 78.4172C137.891 78.612 138.086 78.8034 138.28 78.9982C139.604 78.6639 140.915 78.2517 142.258 78.0083C144.269 77.6448 146.407 77.1353 147.834 79.2513C148.762 80.6274 148.207 83.6847 146.3 85.2035C143.795 87.1995 141.077 89.1111 138.151 90.3412C135.241 91.5647 133.181 93.1128 131.409 95.8455C114.3 122.27 74.929 121.157 59.0133 93.9534C58.3742 92.8597 57.1317 91.86 55.9411 91.3959C52.2363 89.942 48.5932 88.462 45.7675 85.5216C45.2842 85.0185 44.6094 84.4798 44.5023 83.8729C44.2201 82.2826 43.701 80.4619 44.2039 79.0696C44.843 77.2975 46.9322 77.5994 48.5251 77.8298C50.1114 78.057 51.6556 78.586 53.2842 78.9982C53.9784 77.4014 53.0604 76.629 51.9898 75.863C46.8446 72.1826 42.2055 67.9992 38.6629 62.6798C36.1811 58.954 34.6402 54.9296 34.3579 50.4606C34.1406 47.0171 35.2728 44.1773 38.4488 42.4864C41.6605 40.7728 44.7067 41.6134 47.3507 43.6645C49.7254 45.5047 51.8179 47.7149 54.1179 49.8342C55.4643 48.192 56.431 46.6277 55.2891 44.0053C52.4148 37.4137 49.9038 30.6599 47.3247 23.9417C45.1868 18.3789 46.1276 14.1955 50.1569 10.6904C55.4772 6.06229 64.019 7.55846 67.0782 14.0008C69.826 19.7907 72.0126 25.85 74.4262 31.7958C75.5941 34.668 76.7652 37.5435 77.8455 40.4515C78.2997 41.6783 78.942 42.1781 80.3111 42.1716C90.6955 42.1164 101.08 42.1099 111.464 42.1781C112.944 42.1878 113.554 41.6231 114.057 40.3314C117.252 32.1203 120.503 23.9287 123.773 15.7468C126.443 9.06112 132.989 6.29596 139.296 9.1455C143.825 11.1934 146.667 16.6556 145.246 21.4556C144.049 25.4995 142.316 29.3876 140.782 33.3309C139.299 37.1411 137.891 40.9902 136.204 44.7128C135.357 46.5855 135.906 47.7344 137.586 49.2533V49.2435ZM74.6955 75.4541C74.7409 72.9745 72.7912 70.9591 70.3581 70.9688C67.9801 70.9786 66.0012 72.8642 65.9363 75.1912C65.8649 77.661 67.9931 79.8745 70.41 79.8485C72.629 79.8258 74.6533 77.7487 74.6987 75.4573L74.6955 75.4541ZM126.42 75.4379C126.462 72.968 124.493 70.9494 122.063 70.9688C119.679 70.9915 117.716 72.8772 117.654 75.2042C117.593 77.5896 119.568 79.7284 121.933 79.8355C124.227 79.9394 126.378 77.8298 126.417 75.4379H126.42Z" fill="black"/>
<path d="M43.3634 138.011C43.3634 138.952 43.1201 139.799 42.6367 140.549C42.1533 141.298 41.4429 141.886 40.5085 142.311C39.5742 142.736 38.468 142.947 37.1866 142.947C35.6521 142.947 34.3836 142.658 33.3877 142.077C32.6805 141.659 32.1062 141.104 31.6618 140.406C31.2206 139.708 31 139.03 31 138.374C31 137.991 31.133 137.663 31.399 137.391C31.665 137.118 32.0024 136.982 32.4112 136.982C32.7421 136.982 33.0243 137.089 33.2547 137.3C33.485 137.511 33.6797 137.826 33.8451 138.244C34.043 138.741 34.2571 139.153 34.4874 139.487C34.7178 139.822 35.0422 140.094 35.4574 140.312C35.8759 140.529 36.4242 140.636 37.1022 140.636C38.0365 140.636 38.7956 140.419 39.3796 139.984C39.9635 139.549 40.2555 139.007 40.2555 138.355C40.2555 137.839 40.0965 137.42 39.7819 137.095C39.4672 136.774 39.0617 136.528 38.5621 136.359C38.0625 136.19 37.3974 136.008 36.5604 135.817C35.4412 135.554 34.5069 135.249 33.7543 134.898C33.0016 134.548 32.4015 134.071 31.9603 133.464C31.5191 132.86 31.2985 132.107 31.2985 131.208C31.2985 130.309 31.532 129.592 31.9992 128.927C32.4663 128.261 33.1411 127.748 34.0268 127.391C34.9124 127.034 35.9505 126.856 37.1476 126.856C38.1014 126.856 38.9287 126.976 39.6261 127.213C40.3236 127.45 40.9011 127.765 41.3618 128.157C41.8224 128.55 42.1566 128.962 42.3707 129.394C42.5815 129.826 42.6886 130.247 42.6886 130.656C42.6886 131.033 42.5556 131.37 42.2896 131.669C42.0236 131.968 41.6927 132.12 41.2969 132.12C40.9368 132.12 40.661 132.029 40.4729 131.851C40.2847 131.669 40.0803 131.374 39.863 130.965C39.5807 130.377 39.2401 129.92 38.8443 129.589C38.4485 129.261 37.8127 129.095 36.9335 129.095C36.1192 129.095 35.4639 129.274 34.9643 129.631C34.4647 129.988 34.2149 130.42 34.2149 130.919C34.2149 131.231 34.2993 131.5 34.4712 131.727C34.6399 131.955 34.8735 132.149 35.172 132.312C35.4704 132.474 35.7689 132.604 36.0738 132.695C36.3788 132.785 36.8816 132.922 37.5823 133.097C38.4583 133.301 39.2531 133.529 39.9635 133.775C40.674 134.022 41.2807 134.324 41.777 134.678C42.2766 135.031 42.6659 135.479 42.9449 136.021C43.2239 136.563 43.3634 137.225 43.3634 138.011Z" fill="black"/>
<path d="M55.9921 140.922L55.2492 138.968H48.9232L48.1803 140.964C47.8915 141.743 47.6417 142.269 47.4374 142.541C47.233 142.814 46.8956 142.95 46.4284 142.95C46.0327 142.95 45.6823 142.804 45.3773 142.515C45.0724 142.227 44.9199 141.895 44.9199 141.529C44.9199 141.318 44.9556 141.097 45.027 140.87C45.0983 140.643 45.2151 140.328 45.3773 139.925L49.3579 129.819C49.4714 129.53 49.6077 129.18 49.7667 128.774C49.9256 128.368 50.0943 128.031 50.276 127.761C50.4577 127.492 50.6945 127.275 50.9864 127.109C51.2784 126.944 51.6418 126.859 52.0732 126.859C52.5047 126.859 52.8778 126.944 53.173 127.109C53.465 127.275 53.705 127.489 53.8835 127.752C54.0619 128.015 54.2144 128.294 54.3409 128.595C54.4642 128.897 54.6231 129.3 54.8145 129.8L58.8794 139.844C59.1973 140.61 59.3563 141.165 59.3563 141.513C59.3563 141.86 59.2071 142.204 58.9054 142.506C58.6037 142.807 58.2436 142.957 57.8186 142.957C57.572 142.957 57.3579 142.911 57.1827 142.824C57.0043 142.736 56.8583 142.616 56.7383 142.463C56.6183 142.311 56.4885 142.077 56.3522 141.762C56.216 141.448 56.096 141.168 55.9954 140.928L55.9921 140.922ZM49.7504 136.599H54.3993L52.0538 130.176L49.7504 136.599Z" fill="black"/>
<path d="M65.7797 128.742L71.8398 137.917V128.657C71.8398 128.057 71.9695 127.606 72.2258 127.304C72.4854 127.002 72.8325 126.853 73.2704 126.853C73.7084 126.853 74.0815 127.002 74.341 127.304C74.6038 127.606 74.7335 128.057 74.7335 128.657V140.899C74.7335 142.266 74.1658 142.947 73.0369 142.947C72.7546 142.947 72.4983 142.905 72.2712 142.824C72.0442 142.743 71.8333 142.613 71.6354 142.438C71.4375 142.262 71.2526 142.055 71.0839 141.818C70.9152 141.581 70.7433 141.337 70.5746 141.091L64.6638 132.023V141.143C64.6638 141.737 64.5243 142.188 64.2485 142.493C63.9728 142.798 63.6191 142.95 63.1877 142.95C62.7562 142.95 62.3831 142.798 62.1171 142.49C61.8479 142.181 61.7148 141.733 61.7148 141.146V129.138C61.7148 128.628 61.77 128.229 61.8835 127.937C62.0165 127.619 62.2404 127.359 62.5518 127.158C62.8633 126.957 63.2007 126.856 63.5608 126.856C63.843 126.856 64.0863 126.901 64.2874 126.992C64.4886 127.083 64.667 127.21 64.8195 127.366C64.972 127.521 65.1277 127.723 65.2866 127.969C65.4456 128.216 65.611 128.476 65.7797 128.745V128.742Z" fill="black"/>
<path d="M88.2878 129.719H84.849V141.026C84.849 141.678 84.7031 142.162 84.4143 142.477C84.1256 142.791 83.7493 142.95 83.2886 142.95C82.8279 142.95 82.4419 142.791 82.1467 142.473C81.8515 142.155 81.7055 141.675 81.7055 141.029V129.722H78.2667C77.7282 129.722 77.3291 129.605 77.0664 129.365C76.8036 129.128 76.6738 128.813 76.6738 128.427C76.6738 128.041 76.8101 127.706 77.0826 127.469C77.3551 127.236 77.7509 127.119 78.2667 127.119H88.2846C88.8296 127.119 89.2351 127.239 89.5011 127.479C89.7671 127.719 89.9002 128.034 89.9002 128.424C89.9002 128.813 89.7671 129.125 89.4979 129.362C89.2286 129.598 88.8263 129.719 88.2878 129.719Z" fill="black"/>
<path d="M91.7923 136.248V128.764C91.7923 128.128 91.935 127.648 92.2205 127.33C92.506 127.012 92.8823 126.853 93.3495 126.853C93.8166 126.853 94.2254 127.012 94.5109 127.33C94.7964 127.648 94.9391 128.125 94.9391 128.764V136.42C94.9391 137.29 95.0364 138.017 95.2311 138.601C95.4257 139.186 95.7696 139.64 96.266 139.961C96.7623 140.283 97.4533 140.445 98.3454 140.445C99.575 140.445 100.448 140.117 100.957 139.462C101.466 138.806 101.723 137.813 101.723 136.482V128.764C101.723 128.122 101.865 127.641 102.148 127.327C102.43 127.012 102.809 126.853 103.283 126.853C103.757 126.853 104.139 127.012 104.435 127.327C104.727 127.641 104.876 128.122 104.876 128.764V136.248C104.876 137.466 104.756 138.481 104.519 139.296C104.282 140.111 103.835 140.825 103.176 141.441C102.608 141.967 101.953 142.347 101.204 142.587C100.454 142.827 99.575 142.947 98.5725 142.947C97.3755 142.947 96.3471 142.817 95.4841 142.561C94.6212 142.301 93.9172 141.902 93.3722 141.36C92.8272 140.818 92.4282 140.124 92.1719 139.28C91.9156 138.433 91.7891 137.423 91.7891 136.248H91.7923Z" fill="black"/>
<path d="M117.156 140.922L116.413 138.968H110.087L109.344 140.964C109.056 141.743 108.806 142.269 108.601 142.541C108.397 142.814 108.06 142.95 107.593 142.95C107.197 142.95 106.846 142.804 106.541 142.515C106.236 142.227 106.084 141.895 106.084 141.529C106.084 141.318 106.12 141.097 106.191 140.87C106.262 140.643 106.379 140.328 106.541 139.925L110.522 129.819C110.636 129.53 110.772 129.18 110.931 128.774C111.09 128.368 111.258 128.031 111.44 127.761C111.622 127.492 111.859 127.275 112.151 127.109C112.442 126.944 112.806 126.859 113.237 126.859C113.669 126.859 114.042 126.944 114.337 127.109C114.629 127.275 114.869 127.489 115.048 127.752C115.226 128.015 115.378 128.294 115.505 128.595C115.628 128.897 115.787 129.3 115.979 129.8L120.043 139.844C120.361 140.61 120.52 141.165 120.52 141.513C120.52 141.86 120.371 142.204 120.069 142.506C119.768 142.807 119.408 142.957 118.983 142.957C118.736 142.957 118.522 142.911 118.347 142.824C118.168 142.736 118.022 142.616 117.902 142.463C117.782 142.311 117.653 142.077 117.516 141.762C117.38 141.448 117.26 141.168 117.159 140.928L117.156 140.922ZM110.914 136.599H115.563L113.218 130.176L110.914 136.599Z" fill="black"/>
<path d="M127.069 136.025H125.966V141.026C125.966 141.685 125.82 142.168 125.531 142.48C125.242 142.792 124.863 142.947 124.396 142.947C123.893 142.947 123.503 142.785 123.228 142.457C122.952 142.133 122.812 141.656 122.812 141.023V129.047C122.812 128.369 122.965 127.875 123.27 127.57C123.575 127.265 124.065 127.113 124.746 127.113H129.872C130.579 127.113 131.186 127.142 131.685 127.203C132.188 127.265 132.639 127.385 133.044 127.57C133.531 127.775 133.963 128.07 134.339 128.45C134.715 128.833 134.997 129.277 135.192 129.784C135.387 130.29 135.484 130.825 135.484 131.393C135.484 132.555 135.156 133.48 134.501 134.175C133.846 134.869 132.853 135.359 131.523 135.651C132.081 135.95 132.616 136.388 133.126 136.969C133.635 137.55 134.089 138.167 134.488 138.822C134.887 139.478 135.199 140.069 135.422 140.594C135.646 141.12 135.757 141.484 135.757 141.682C135.757 141.88 135.692 142.09 135.559 142.292C135.429 142.493 135.25 142.652 135.023 142.769C134.796 142.886 134.537 142.944 134.238 142.944C133.885 142.944 133.586 142.86 133.346 142.694C133.106 142.529 132.899 142.318 132.727 142.061C132.555 141.805 132.318 141.432 132.019 140.935L130.757 138.832C130.303 138.06 129.901 137.472 129.541 137.07C129.184 136.667 128.821 136.391 128.454 136.242C128.087 136.093 127.624 136.018 127.062 136.018L127.069 136.025ZM128.873 129.485H125.966V133.763H128.788C129.544 133.763 130.183 133.698 130.699 133.565C131.215 133.435 131.611 133.211 131.883 132.896C132.156 132.581 132.292 132.146 132.292 131.595C132.292 131.163 132.182 130.783 131.964 130.452C131.744 130.124 131.442 129.878 131.053 129.715C130.686 129.56 129.959 129.482 128.876 129.482L128.873 129.485Z" fill="black"/>
<path d="M138.596 141.026V128.761C138.596 128.125 138.742 127.645 139.03 127.327C139.319 127.009 139.695 126.85 140.156 126.85C140.617 126.85 141.013 127.009 141.308 127.323C141.6 127.638 141.749 128.119 141.749 128.761V141.026C141.749 141.672 141.603 142.152 141.308 142.47C141.013 142.788 140.63 142.947 140.156 142.947C139.682 142.947 139.329 142.785 139.037 142.464C138.742 142.142 138.596 141.662 138.596 141.026Z" fill="black"/>
<path d="M152.119 126.853C153.731 126.853 155.116 127.181 156.274 127.836C157.433 128.492 158.305 129.423 158.902 130.627C159.499 131.831 159.794 133.253 159.794 134.879C159.794 136.083 159.632 137.177 159.308 138.16C158.983 139.144 158.493 139.997 157.845 140.718C157.193 141.438 156.394 141.993 155.447 142.373C154.5 142.756 153.413 142.947 152.19 142.947C150.967 142.947 149.884 142.749 148.92 142.357C147.956 141.964 147.155 141.409 146.51 140.695C145.867 139.981 145.381 139.121 145.05 138.115C144.722 137.109 144.557 136.025 144.557 134.856C144.557 133.688 144.729 132.562 145.072 131.565C145.416 130.566 145.913 129.719 146.565 129.018C147.217 128.317 148.008 127.781 148.943 127.408C149.877 127.038 150.938 126.85 152.125 126.85L152.119 126.853ZM156.599 134.859C156.599 133.72 156.414 132.734 156.047 131.896C155.681 131.062 155.155 130.429 154.471 130.001C153.789 129.573 153.004 129.358 152.119 129.358C151.489 129.358 150.905 129.478 150.373 129.715C149.838 129.952 149.381 130.296 148.995 130.751C148.609 131.205 148.304 131.783 148.083 132.487C147.859 133.191 147.749 133.983 147.749 134.859C147.749 135.736 147.859 136.544 148.083 137.258C148.307 137.972 148.622 138.566 149.027 139.036C149.433 139.507 149.9 139.861 150.429 140.091C150.954 140.325 151.535 140.442 152.164 140.442C152.972 140.442 153.712 140.241 154.386 139.835C155.061 139.432 155.6 138.809 155.999 137.965C156.398 137.125 156.599 136.086 156.599 134.853V134.859Z" fill="black"/>
<path d="M56.0566 163.965L55.3137 162.012H48.9876L48.2447 164.007C47.956 164.786 47.7062 165.312 47.5018 165.585C47.2974 165.857 46.9601 165.994 46.4929 165.994C46.0971 165.994 45.7467 165.848 45.4418 165.559C45.1368 165.27 44.9844 164.939 44.9844 164.572C44.9844 164.361 45.0201 164.141 45.0914 163.913C45.1628 163.686 45.2796 163.371 45.4418 162.969L49.4223 152.862C49.5359 152.574 49.6721 152.223 49.8311 151.817C49.9901 151.412 50.1588 151.074 50.3404 150.805C50.5221 150.535 50.7589 150.318 51.0509 150.152C51.3429 149.987 51.7062 149.903 52.1377 149.903C52.5692 149.903 52.9422 149.987 53.2374 150.152C53.5294 150.318 53.7695 150.532 53.9479 150.795C54.1263 151.058 54.2788 151.337 54.4053 151.639C54.5286 151.941 54.6876 152.343 54.879 152.843L58.9439 162.888C59.2618 163.654 59.4208 164.209 59.4208 164.556C59.4208 164.903 59.2715 165.247 58.9698 165.549C58.6681 165.851 58.308 166 57.883 166C57.6365 166 57.4224 165.955 57.2472 165.867C57.0688 165.78 56.9228 165.659 56.8027 165.507C56.6827 165.354 56.5529 165.121 56.4167 164.806C56.2804 164.491 56.1604 164.212 56.0598 163.972L56.0566 163.965ZM49.8149 159.642H54.4637L52.1182 153.219L49.8149 159.642Z" fill="black"/>
<path d="M70.7811 151.808V159.961C70.7811 160.668 70.752 161.272 70.6903 161.765C70.6287 162.262 70.4924 162.765 70.2816 163.274C69.9279 164.131 69.344 164.796 68.5297 165.277C67.7154 165.754 66.726 165.994 65.5581 165.994C64.5038 165.994 63.6246 165.828 62.9206 165.494C62.2166 165.163 61.6489 164.624 61.2174 163.881C60.9904 163.485 60.8054 163.028 60.6659 162.512C60.5232 161.995 60.4551 161.502 60.4551 161.035C60.4551 160.538 60.5946 160.162 60.8703 159.899C61.1461 159.636 61.4997 159.506 61.9312 159.506C62.3626 159.506 62.6643 159.626 62.8752 159.866C63.0861 160.107 63.2515 160.483 63.3618 160.993C63.4819 161.538 63.6019 161.973 63.7219 162.297C63.842 162.622 64.0431 162.901 64.3253 163.135C64.6076 163.368 65.0131 163.485 65.5354 163.485C66.9304 163.485 67.6246 162.463 67.6246 160.415V151.805C67.6246 151.169 67.7641 150.688 68.0431 150.37C68.3221 150.052 68.7017 149.893 69.185 149.893C69.6684 149.893 70.061 150.052 70.3464 150.37C70.6319 150.688 70.7747 151.165 70.7747 151.805L70.7811 151.808Z" fill="black"/>
<path d="M81.0386 149.896C82.651 149.896 84.0362 150.224 85.1944 150.88C86.3525 151.535 87.2252 152.467 87.8221 153.671C88.419 154.875 88.7142 156.296 88.7142 157.922C88.7142 159.126 88.552 160.22 88.2276 161.204C87.9032 162.187 87.4133 163.041 86.7645 163.761C86.1125 164.482 85.3144 165.037 84.3671 165.416C83.4198 165.799 82.333 165.991 81.11 165.991C79.887 165.991 78.8034 165.793 77.8399 165.4C76.8764 165.007 76.0751 164.452 75.4295 163.738C74.7872 163.024 74.3006 162.164 73.9697 161.158C73.642 160.152 73.4766 159.068 73.4766 157.9C73.4766 156.731 73.6485 155.605 73.9924 154.609C74.3363 153.609 74.8326 152.762 75.4847 152.061C76.1368 151.36 76.9283 150.825 77.8626 150.451C78.7969 150.081 79.8578 149.893 81.0451 149.893L81.0386 149.896ZM85.5188 157.903C85.5188 156.764 85.3339 155.777 84.9673 154.94C84.6007 154.106 84.0751 153.473 83.3906 153.044C82.7094 152.616 81.9243 152.402 81.0386 152.402C80.4093 152.402 79.8253 152.522 79.2933 152.759C78.758 152.996 78.3006 153.34 77.9145 153.794C77.5285 154.249 77.2235 154.826 77.0029 155.53C76.7791 156.235 76.6688 157.027 76.6688 157.903C76.6688 158.779 76.7791 159.587 77.0029 160.301C77.2268 161.015 77.5415 161.609 77.947 162.08C78.3525 162.55 78.8196 162.904 79.3484 163.135C79.874 163.368 80.4547 163.485 81.084 163.485C81.8918 163.485 82.6315 163.284 83.3063 162.878C83.9811 162.476 84.5196 161.853 84.9186 161.009C85.3176 160.168 85.5188 159.13 85.5188 157.896V157.903Z" fill="black"/>
<path d="M94.497 151.807V163.137H100.885C101.394 163.137 101.787 163.261 102.056 163.507C102.328 163.754 102.465 164.066 102.465 164.442C102.465 164.819 102.332 165.133 102.062 165.37C101.793 165.607 101.401 165.727 100.885 165.727H93.274C92.5863 165.727 92.0931 165.575 91.7947 165.27C91.493 164.965 91.3438 164.474 91.3438 163.793V151.807C91.3438 151.171 91.4865 150.691 91.772 150.373C92.0575 150.055 92.4338 149.896 92.9009 149.896C93.3681 149.896 93.7574 150.055 94.0526 150.37C94.3446 150.684 94.4938 151.165 94.4938 151.807H94.497Z" fill="black"/>
<path d="M110.302 149.896C111.915 149.896 113.3 150.224 114.458 150.88C115.616 151.535 116.489 152.467 117.086 153.671C117.683 154.875 117.978 156.296 117.978 157.922C117.978 159.126 117.816 160.22 117.491 161.204C117.167 162.187 116.677 163.041 116.028 163.761C115.376 164.482 114.578 165.037 113.631 165.416C112.683 165.799 111.597 165.991 110.374 165.991C109.151 165.991 108.067 165.793 107.104 165.4C106.14 165.007 105.339 164.452 104.693 163.738C104.051 163.024 103.564 162.164 103.233 161.158C102.906 160.152 102.74 159.068 102.74 157.9C102.74 156.731 102.912 155.605 103.256 154.609C103.6 153.609 104.096 152.762 104.748 152.061C105.4 151.36 106.192 150.825 107.126 150.451C108.061 150.081 109.121 149.893 110.309 149.893L110.302 149.896ZM114.782 157.903C114.782 156.764 114.598 155.777 114.231 154.94C113.864 154.106 113.339 153.473 112.654 153.044C111.973 152.616 111.188 152.402 110.302 152.402C109.673 152.402 109.089 152.522 108.557 152.759C108.022 152.996 107.564 153.34 107.178 153.794C106.792 154.249 106.487 154.826 106.267 155.53C106.043 156.235 105.932 157.027 105.932 157.903C105.932 158.779 106.043 159.587 106.267 160.301C106.49 161.015 106.805 161.609 107.211 162.08C107.616 162.55 108.083 162.904 108.612 163.135C109.138 163.368 109.718 163.485 110.348 163.485C111.156 163.485 111.895 163.284 112.57 162.878C113.245 162.476 113.783 161.853 114.182 161.009C114.581 160.168 114.782 159.13 114.782 157.896V157.903Z" fill="black"/>
<path d="M129.946 152.761H126.507V164.069C126.507 164.721 126.361 165.204 126.073 165.519C125.784 165.834 125.407 165.993 124.947 165.993C124.486 165.993 124.1 165.834 123.805 165.516C123.51 165.198 123.364 164.718 123.364 164.072V152.764H119.925C119.386 152.764 118.987 152.648 118.725 152.407C118.462 152.171 118.332 151.856 118.332 151.47C118.332 151.083 118.468 150.749 118.741 150.512C119.013 150.278 119.409 150.162 119.925 150.162H129.943C130.488 150.162 130.893 150.282 131.159 150.522C131.425 150.762 131.558 151.077 131.558 151.466C131.558 151.856 131.425 152.167 131.156 152.404C130.887 152.641 130.485 152.761 129.946 152.761Z" fill="black"/>
<path d="M143.679 152.593H136.578V156.416H143.115C143.595 156.416 143.955 156.523 144.192 156.741C144.429 156.958 144.549 157.241 144.549 157.594C144.549 157.948 144.432 158.237 144.198 158.461C143.965 158.685 143.605 158.795 143.115 158.795H136.578V163.222H143.922C144.419 163.222 144.792 163.336 145.042 163.566C145.292 163.797 145.418 164.102 145.418 164.485C145.418 164.868 145.292 165.153 145.042 165.38C144.792 165.611 144.416 165.724 143.922 165.724H135.358C134.67 165.724 134.177 165.572 133.879 165.267C133.577 164.962 133.428 164.472 133.428 163.79V152.09C133.428 151.636 133.496 151.266 133.629 150.98C133.762 150.695 133.973 150.484 134.261 150.354C134.55 150.224 134.914 150.156 135.361 150.156H143.682C144.185 150.156 144.558 150.266 144.802 150.49C145.045 150.714 145.168 151.006 145.168 151.366C145.168 151.727 145.045 152.028 144.802 152.252C144.558 152.476 144.185 152.587 143.682 152.587L143.679 152.593Z" fill="black"/>
</svg>
