<svg width="163" height="56" viewBox="0 0 163 56" fill="none" xmlns="http://www.w3.org/2000/svg">
<path d="M86.2819 20.373C87.9819 15.6412 88.5886 11.5268 90.3192 7.79421C91.1422 6.02216 91.5349 3.88957 94.1426 3.73168C97.4039 3.53374 100.567 3.68691 103.231 5.87606C104.143 6.62541 103.985 7.81778 104.096 8.8664C104.686 14.4583 104.839 20.0831 104.317 25.6656C103.729 31.9503 103.889 38.1972 104.31 44.463C104.39 45.6601 104.43 46.8643 104.409 48.0637C104.338 52.0603 103.48 53.0217 99.6283 53.5236C96.7173 53.9054 95.4593 53.0075 94.989 50.0643C93.891 43.2047 93.4042 36.2791 92.7858 29.3676C92.7294 28.7337 92.8634 28.0503 92.1392 27.3787C90.6249 28.3307 90.5026 29.9661 90.4062 31.4578C90.2981 33.1308 89.6209 33.7954 87.9608 33.8401C86.3619 33.8825 84.7817 34.3491 84.0552 32.1977C83.559 30.732 82.7642 29.3699 82.08 27.9113C81.0313 28.5263 81.297 29.2191 81.4146 29.7635C82.7572 35.9468 82.1858 42.2692 82.7972 48.5044C82.863 49.1665 82.8301 49.8405 82.8113 50.5073C82.7125 53.8582 82.3763 54.174 79.082 54.0632C72.2254 53.8323 72.2066 53.8323 72.0161 47.0386C71.7739 38.4423 69.6271 30.1381 68.1763 21.7303C67.2922 16.6026 66.1635 11.5174 65.3147 6.38505C64.788 3.20148 64.9408 3.20384 67.88 2.00911C69.9916 1.15136 72.0961 0.44207 74.4451 0.564605C77.1162 0.703636 78.9762 1.78525 79.945 4.38206C81.6709 9.00543 83.4767 13.5982 85.2591 18.2027C85.4401 18.6716 85.6847 19.117 86.2796 20.3777L86.2819 20.373Z" fill="#2C2524"/>
<path d="M151.09 43.3979C151.3 39.7171 150.505 36.451 150.253 33.1426C150.115 31.3257 148.831 30.4138 146.501 30.5787C144.255 30.7366 142.033 31.2668 139.804 31.6556C136.825 32.1764 135.778 31.6886 135.31 28.7478C134.175 21.6336 133.149 14.4959 132.301 7.34172C131.873 3.73634 132.858 2.68772 136.408 2.52041C143.068 2.20465 149.673 1.51892 156.191 0.0956182C157.641 -0.220147 158.427 0.222867 158.704 1.77342C159.224 4.67893 159.308 7.61743 159.363 10.5441C159.398 12.5542 158.45 13.2494 156.214 13.1881C153.023 13.1009 149.837 12.8299 146.646 12.7969C143.498 12.7639 143.359 12.9312 143.719 15.8886C144.394 21.4263 143.385 21.9918 149.294 19.6448C151.394 18.8106 153.555 18.0966 155.744 17.5428C158.69 16.7982 159.917 17.5287 160.844 20.4413C162.064 24.2846 162.513 28.2788 162.713 32.2754C163.002 38.1383 163.193 44.0129 162.685 49.8758C162.325 54.0255 161.82 54.6452 157.867 54.4991C152.682 54.3083 147.509 53.8016 142.332 53.401C140.406 53.2526 139.056 52.4019 138.802 50.2882C138.532 48.0377 138.068 45.8015 137.956 43.5463C137.843 41.2983 138.593 40.6903 140.831 40.827C143.26 40.9754 145.468 41.9864 147.74 42.7333C148.753 43.0656 149.731 43.4827 151.093 43.3932L151.09 43.3979Z" fill="#2C2524"/>
<path d="M11.9271 11.8072C12.4914 15.3442 12.7077 18.3511 13.6671 21.2519C17.0554 21.1977 20.3685 21.0869 23.6487 21.9305C25.8308 22.4914 27.0629 23.6908 27.5896 25.9106C29.6541 34.613 29.7152 43.3955 28.7488 52.2134C28.4619 54.8408 27.2886 55.741 24.8032 55.6962C18.2711 55.576 11.7413 55.4394 5.20919 55.3074C2.24881 55.2485 2.26997 55.2461 2.48395 52.4749C2.65795 50.2127 2.73555 47.9435 2.92366 45.6836C3.17526 42.6414 3.53737 42.288 6.65999 42.5872C9.30294 42.8417 11.9435 43.2235 14.5512 43.7278C16.4676 44.0977 17.0954 43.2588 17.5821 41.5622C19.8583 33.6115 18.0524 31.6132 10.0248 33.3617C9.5028 33.4748 8.97845 33.5691 8.45879 33.6916C4.33448 34.6648 3.31163 34.104 3.09531 29.9613C2.83666 24.9869 1.85848 20.1703 0.781555 15.3395C0.113764 12.3421 -0.330646 9.28343 0.313631 6.19411C0.906177 3.35223 1.31767 3.08359 4.24983 2.73012C9.07015 2.14808 13.834 3.18256 18.6332 3.07181C19.4327 3.05296 20.2345 3.08123 21.0339 3.08595C27.7001 3.12836 27.9493 3.29096 27.2134 10.0375C26.5127 16.4565 25.1653 15.7755 20.6342 14.5548C17.869 13.8102 15.1626 12.837 11.9247 11.8072H11.9271Z" fill="#2C2524"/>
<path d="M118.48 41.6702C119.444 42.4337 120.427 42.2899 121.314 42.5185C123.216 43.0087 124.662 43.0629 124.763 40.3788C124.843 38.251 126.303 37.5676 128.38 37.6454C133.289 37.8268 134.26 38.661 134.432 43.4941C134.498 45.358 134.446 47.2338 134.343 49.0977C134.192 51.7558 133.67 52.4463 131.07 52.7102C128.697 52.9529 126.287 52.8492 123.896 52.8846C119.635 52.9458 115.398 53.0472 111.222 54.1735C108.485 54.9111 107.76 54.249 106.893 51.5485C105.524 47.288 105.52 43.3174 108.123 39.3656C110.377 35.9416 112.146 32.1972 114.196 28.4764C113.298 27.9438 112.56 27.3571 111.72 27.0389C108.191 25.6981 106.641 23.2026 106.512 19.4134C106.361 15.0281 106.227 10.6404 105.55 6.26442C104.976 2.56478 105.917 1.69289 109.587 1.63869C114.375 1.568 119.174 1.05665 123.952 1.83428C126.835 2.30321 127.352 2.791 127.714 5.54099C127.818 6.3304 127.796 7.14102 127.792 7.93986C127.773 13.1029 127.493 13.3927 122.471 13.4233C120.364 13.4375 118.257 13.4233 116.202 13.4233C116.044 14.3848 115.917 14.7712 115.929 15.1506C116.014 17.6893 117.352 19.0553 119.945 19.2485C120.608 19.298 121.307 19.2037 121.932 19.3828C123.533 19.84 126.005 18.9728 126.611 20.7755C127.434 23.2144 127.674 25.9479 125.795 28.3727C123.181 31.7471 120.74 35.2559 119.099 39.243C118.8 39.9665 118.245 40.6263 118.478 41.6725L118.48 41.6702Z" fill="#2C2524"/>
<path d="M43.4573 23.5541C43.4573 28.7571 43.462 33.9602 43.4573 39.1656C43.4526 42.5612 43.4362 42.6649 46.8927 42.9383C50.7348 43.2399 54.5934 43.3389 58.4473 43.5015C59.6442 43.551 60.8457 43.5109 62.0426 43.5203C63.7944 43.5321 64.7349 44.2579 64.6902 46.1784C64.6432 48.1743 64.7561 50.1797 64.9019 52.1732C65.0265 53.9123 64.3399 54.5038 62.6022 54.4472C57.147 54.2728 51.6848 54.2092 46.2272 54.1432C43.8312 54.115 41.4328 54.2021 39.0367 54.2116C34.2211 54.2281 33.0877 53.2242 32.8949 48.4477C32.5751 40.5842 32.2812 32.716 32.1119 24.8478C32.0108 20.1631 31.2725 15.5515 30.9104 10.9023C30.3978 4.33717 30.9057 3.88238 37.4166 3.41344C44.5154 2.90209 45.068 3.44172 44.5813 10.3744C44.2732 14.7668 43.9723 19.1593 43.6689 23.5517C43.5984 23.5517 43.5279 23.5564 43.4597 23.5588L43.4573 23.5541Z" fill="#2C2524"/>
<path d="M50.5584 30.0673C50.5584 27.6755 50.6054 25.2814 50.542 22.8896C50.4926 21.028 51.2897 19.8992 53.0438 19.3125C55.3176 18.5537 57.6172 17.9457 59.9898 17.5946C61.7721 17.3307 62.8255 17.9952 62.9784 19.845C63.4722 25.8022 63.9542 31.7616 64.4339 37.7211C64.5326 38.9559 64.1611 39.8231 62.7268 39.7948C59.4113 39.7312 56.0983 39.6817 52.7828 39.5898C51.0499 39.5403 50.1446 38.7792 50.2598 36.8516C50.3962 34.5988 50.2927 32.3295 50.2927 30.0673C50.3797 30.0673 50.4667 30.0673 50.5561 30.0673H50.5584Z" fill="#2C2524"/>
<path d="M62.2927 8.00127C62.2622 11.8847 59.2077 14.9764 55.4808 14.8963C51.9961 14.8209 48.6336 11.3427 48.6406 7.81982C48.6477 3.83034 51.8103 0.722176 55.7583 0.821147C59.4476 0.913049 62.3233 4.07541 62.2927 8.00363V8.00127Z" fill="#2C2524"/>
</svg>
