<svg width="190" height="190" viewBox="0 0 190 190" fill="none" xmlns="http://www.w3.org/2000/svg">
<g clip-path="url(#clip0_2385_51)">
<mask id="mask0_2385_51" style="mask-type:luminance" maskUnits="userSpaceOnUse" x="3" y="81" width="182" height="28">
<path d="M185 81H3V109H185V81Z" fill="white"/>
</mask>
<g mask="url(#mask0_2385_51)">
<path d="M33.5773 103.076L28.585 108.618C28.477 108.738 28.3463 108.834 28.2009 108.9C28.0554 108.966 27.8985 109 27.7398 109H4.07418C3.96131 109 3.85091 108.966 3.75649 108.902C3.66207 108.838 3.58774 108.746 3.54259 108.639C3.49744 108.532 3.48344 108.414 3.5023 108.299C3.52116 108.183 3.57206 108.076 3.64877 107.991L8.63545 102.449C8.74344 102.329 8.8742 102.233 9.01963 102.167C9.16503 102.101 9.32198 102.067 9.48066 102.067H33.1463C33.2601 102.065 33.3722 102.097 33.4683 102.16C33.5644 102.224 33.6405 102.315 33.6864 102.423C33.7326 102.531 33.7467 102.65 33.7272 102.767C33.7078 102.883 33.6557 102.991 33.5773 103.076ZM28.585 91.914C28.4766 91.7942 28.3458 91.6986 28.2005 91.6328C28.0551 91.5672 27.8984 91.5328 27.7398 91.532H4.07418C3.96131 91.532 3.85091 91.5662 3.75649 91.6302C3.66207 91.6942 3.58774 91.7854 3.54259 91.8925C3.49744 91.9996 3.48344 92.118 3.5023 92.2332C3.52116 92.3484 3.57206 92.4554 3.64877 92.5411L8.63545 98.0857C8.74384 98.2055 8.8747 98.3012 9.02002 98.3669C9.16534 98.4326 9.3221 98.4669 9.48066 98.4678H33.1463C33.259 98.4672 33.3689 98.4326 33.463 98.3684C33.5571 98.3041 33.6309 98.213 33.6757 98.106C33.7205 97.999 33.7343 97.8808 33.7151 97.7659C33.6962 97.6509 33.6455 97.5442 33.5689 97.4586L28.585 91.914ZM4.07418 87.9328H27.7398C27.8985 87.9326 28.0554 87.8986 28.2009 87.8329C28.3463 87.7671 28.477 87.6711 28.585 87.5507L33.5773 82.0091C33.6557 81.9235 33.7078 81.8158 33.7272 81.6995C33.7467 81.5833 33.7326 81.4637 33.6864 81.3559C33.6405 81.248 33.5644 81.1566 33.4683 81.0933C33.3722 81.0299 33.2601 80.9974 33.1463 80.9999H9.48066C9.32198 81.0001 9.16503 81.0341 9.01963 81.0998C8.8742 81.1655 8.74344 81.2616 8.63545 81.382L3.64877 86.9236C3.57206 87.0093 3.52116 87.1164 3.5023 87.2316C3.48344 87.3468 3.49744 87.4652 3.54259 87.5723C3.58774 87.6794 3.66207 87.7705 3.75649 87.8346C3.85091 87.8986 3.96131 87.9327 4.07418 87.9328Z" fill="black"/>
<path d="M62.4301 92.8416H49.769V88.525H65.7207V84.2083H49.7267C49.1802 84.2053 48.6387 84.3136 48.1327 84.5273C47.6267 84.741 47.166 85.0557 46.7778 85.4536C46.3893 85.8514 46.0802 86.3246 45.8684 86.8461C45.6565 87.3676 45.5458 87.9272 45.543 88.4929V92.8679C45.5452 93.4341 45.6551 93.9943 45.8667 94.5165C46.0783 95.0387 46.387 95.5125 46.7756 95.911C47.1643 96.3095 47.625 96.6248 48.1313 96.8388C48.6375 97.0528 49.1799 97.1614 49.7267 97.1583H62.4047V101.475H45.8444V105.792H62.4301C62.9767 105.795 63.5181 105.686 64.0241 105.473C64.5301 105.259 64.9908 104.944 65.379 104.546C65.7675 104.149 66.0766 103.675 66.2884 103.154C66.5003 102.632 66.611 102.073 66.6138 101.507V97.1321C66.6116 96.5659 66.5017 96.0056 66.2901 95.4835C66.0785 94.9613 65.7698 94.4874 65.3812 94.089C64.9925 93.6905 64.5318 93.3752 64.0255 93.1612C63.5193 92.9472 62.9769 92.8386 62.4301 92.8416Z" fill="black"/>
<path d="M86.9568 84.2082H74.2477C73.7003 84.2035 73.1574 84.3108 72.65 84.5238C72.1429 84.7367 71.6812 85.0512 71.2915 85.4493C70.9016 85.8473 70.5917 86.321 70.3793 86.8432C70.1666 87.3655 70.0556 87.926 70.0527 88.4927V101.507C70.0556 102.074 70.1666 102.634 70.3793 103.156C70.5917 103.679 70.9016 104.152 71.2915 104.55C71.6812 104.948 72.1429 105.263 72.65 105.476C73.1574 105.689 73.7003 105.796 74.2477 105.791H86.9568C87.5033 105.795 88.0448 105.686 88.5508 105.473C89.0568 105.259 89.5174 104.944 89.9057 104.546C90.2942 104.148 90.6032 103.675 90.8151 103.154C91.027 102.632 91.1377 102.073 91.1405 101.507V88.4927C91.1377 87.927 91.027 87.3674 90.8151 86.8459C90.6032 86.3245 90.2942 85.8513 89.9057 85.4534C89.5174 85.0555 89.0568 84.7408 88.5508 84.5271C88.0448 84.3135 87.5033 84.2051 86.9568 84.2082ZM86.9258 101.475H74.2787V88.5248H86.9201L86.9258 101.475Z" fill="black"/>
<path d="M131.471 84.2083H119.074C118.528 84.2053 117.986 84.3136 117.48 84.5273C116.974 84.741 116.514 85.0557 116.125 85.4536C115.737 85.8514 115.428 86.3246 115.216 86.8461C115.004 87.3676 114.893 87.9272 114.891 88.4929V105.792H119.117V98.7012H131.457V105.792H135.683V88.4929C135.68 87.9247 135.568 87.3627 135.355 86.8393C135.141 86.3159 134.829 85.8414 134.438 85.4432C134.047 85.0449 133.583 84.7308 133.073 84.5189C132.564 84.3069 132.019 84.2014 131.471 84.2083ZM131.44 94.3846H119.1V88.525H131.44V94.3846Z" fill="black"/>
<path d="M180.816 84.2083H168.42C167.874 84.2053 167.332 84.3136 166.826 84.5273C166.32 84.741 165.86 85.0557 165.471 85.4536C165.083 85.8514 164.774 86.3246 164.562 86.8461C164.35 87.3676 164.239 87.9272 164.236 88.4929V105.792H168.462V98.7012H180.774V105.792H185V88.4929C184.997 87.9272 184.887 87.3676 184.675 86.8461C184.463 86.3246 184.154 85.8514 183.765 85.4536C183.377 85.0557 182.916 84.741 182.41 84.5273C181.904 84.3136 181.363 84.2053 180.816 84.2083ZM180.774 94.3846H168.434V88.525H180.774V94.3846Z" fill="black"/>
<path d="M156.263 101.475H154.573L148.53 86.0166C148.323 85.4833 147.966 85.0262 147.507 84.7041C147.047 84.3819 146.504 84.2092 145.949 84.2083H142.199C141.835 84.2064 141.474 84.2788 141.136 84.4214C140.799 84.564 140.492 84.774 140.233 85.0394C139.974 85.3049 139.768 85.6205 139.627 85.9683C139.486 86.3161 139.412 86.6894 139.41 87.0666V105.792H143.636V88.525H145.327L151.367 103.983C151.577 104.516 151.937 104.971 152.398 105.291C152.86 105.611 153.403 105.781 153.959 105.78H157.709C158.073 105.782 158.435 105.709 158.772 105.567C159.109 105.424 159.416 105.214 159.675 104.949C159.934 104.683 160.14 104.368 160.281 104.02C160.422 103.672 160.496 103.299 160.498 102.922V84.2083H156.263V101.475Z" fill="black"/>
<path d="M99.101 84.2083H94.875V101.507C94.8778 102.074 94.9891 102.635 95.2018 103.157C95.4145 103.68 95.7247 104.153 96.1146 104.552C96.5045 104.95 96.9669 105.264 97.4743 105.477C97.982 105.69 98.5251 105.797 99.0728 105.792H111.751V101.475H99.101V84.2083Z" fill="black"/>
</g>
</g>
<defs>
<clipPath id="clip0_2385_51">
<rect width="182" height="28" fill="white" transform="translate(3 81)"/>
</clipPath>
</defs>
</svg>
