<svg width="16" height="11" viewBox="0 0 16 11" fill="none" xmlns="http://www.w3.org/2000/svg">
<g clip-path="url(#clip0_2550_3953)">
<rect width="15.4" height="11" rx="1" fill="white"/>
<path fill-rule="evenodd" clip-rule="evenodd" d="M0 0H6.6V5.13333H0V0Z" fill="#1A47B8"/>
<path fill-rule="evenodd" clip-rule="evenodd" d="M6.6 0V0.733333H15.4V0H6.6ZM6.6 1.46667V2.2H15.4V1.46667H6.6ZM6.6 2.93333V3.66667H15.4V2.93333H6.6ZM6.6 4.4V5.13333H15.4V4.4H6.6ZM0 5.86667V6.6H15.4V5.86667H0ZM0 7.33333V8.06667H15.4V7.33333H0ZM0 8.8V9.53333H15.4V8.8H0ZM0 10.2667V11H15.4V10.2667H0Z" fill="#F93939"/>
<path fill-rule="evenodd" clip-rule="evenodd" d="M0.732422 0.733337V1.46667H1.46576V0.733337H0.732422ZM2.19909 0.733337V1.46667H2.93242V0.733337H2.19909ZM3.66576 0.733337V1.46667H4.39909V0.733337H3.66576ZM5.13242 0.733337V1.46667H5.86576V0.733337H5.13242ZM4.39909 1.46667V2.2H5.13242V1.46667H4.39909ZM2.93242 1.46667V2.2H3.66576V1.46667H2.93242ZM1.46576 1.46667V2.2H2.19909V1.46667H1.46576ZM0.732422 2.2V2.93334H1.46576V2.2H0.732422ZM2.19909 2.2V2.93334H2.93242V2.2H2.19909ZM3.66576 2.2V2.93334H4.39909V2.2H3.66576ZM5.13242 2.2V2.93334H5.86576V2.2H5.13242ZM0.732422 3.66667V4.4H1.46576V3.66667H0.732422ZM2.19909 3.66667V4.4H2.93242V3.66667H2.19909ZM3.66576 3.66667V4.4H4.39909V3.66667H3.66576ZM5.13242 3.66667V4.4H5.86576V3.66667H5.13242ZM4.39909 2.93334V3.66667H5.13242V2.93334H4.39909ZM2.93242 2.93334V3.66667H3.66576V2.93334H2.93242ZM1.46576 2.93334V3.66667H2.19909V2.93334H1.46576Z" fill="white"/>
</g>
<defs>
<clipPath id="clip0_2550_3953">
<rect width="15.4" height="11" rx="1" fill="white"/>
</clipPath>
</defs>
</svg>
