<svg width="34" height="34" viewBox="0 0 34 34" fill="none" xmlns="http://www.w3.org/2000/svg">
<rect x="0.605469" y="1.37866" width="32" height="32" rx="16" transform="rotate(-1 0.605469 1.37866)" fill="#41240F"/>
<path d="M25.8809 16.9399C25.7945 11.9906 21.6744 8.01191 16.7252 8.0983C11.7759 8.18469 7.79724 12.3048 7.88363 17.254C7.96217 21.7533 11.289 25.4083 15.5751 26.0086L15.4651 19.7096L13.2155 19.7488L13.1703 17.1617L15.42 17.1225L15.3846 15.0978C15.3454 12.8481 16.6736 11.5872 18.6983 11.5519C19.7106 11.5342 20.7269 11.7415 20.7269 11.7415L20.7662 13.9912L19.6413 14.0108C18.5165 14.0304 18.1908 14.7112 18.2026 15.3861L18.2321 17.0734L20.7067 17.0302L20.3019 19.6251L18.1647 19.6624L18.2766 26.074C22.7642 25.3205 25.9594 21.4392 25.8809 16.9399Z" fill="#FEDB75"/>
</svg>
