<svg width="32" height="33" viewBox="0 0 32 33" fill="none" xmlns="http://www.w3.org/2000/svg">
<rect y="0.801514" width="32" height="32" rx="16" fill="#FE6375"/>
<path d="M25 16.8015C25 11.8515 20.95 7.80151 16 7.80151C11.05 7.80151 7 11.8515 7 16.8015C7 21.3015 10.2625 25.014 14.5375 25.689V19.389H12.2875V16.8015H14.5375V14.7765C14.5375 12.5265 15.8875 11.289 17.9125 11.289C18.925 11.289 19.9375 11.514 19.9375 11.514V13.764H18.8125C17.6875 13.764 17.35 14.439 17.35 15.114V16.8015H19.825L19.375 19.389H17.2375V25.8015C21.7375 25.1265 25 21.3015 25 16.8015Z" fill="white"/>
</svg>
