<svg width="34" height="33" viewBox="0 0 34 33" fill="none" xmlns="http://www.w3.org/2000/svg">
<rect x="1.25977" y="0.428711" width="32" height="32" rx="16" transform="rotate(1 1.25977 0.428711)" fill="#FFB93E"/>
<path d="M25.9769 16.8626C26.0633 11.9133 22.0846 7.79327 17.1353 7.70688C12.1861 7.62049 8.06604 11.5992 7.97965 16.5484C7.90111 21.0477 11.0983 24.8166 15.3609 25.5661L15.4708 19.2671L13.2212 19.2278L13.2663 16.6407L15.516 16.68L15.5513 14.6553C15.5906 12.4056 16.962 11.1919 18.9867 11.2272C19.999 11.2449 21.0075 11.4875 21.0075 11.4875L20.9682 13.7372L19.8434 13.7176C18.7185 13.6979 18.3693 14.3669 18.3575 15.0418L18.3281 16.7291L20.8027 16.7723L20.3076 19.3515L18.1704 19.3142L18.0585 25.7257C22.5696 25.1294 25.8984 21.3619 25.9769 16.8626Z" fill="white"/>
</svg>
