<svg width="32" height="33" viewBox="0 0 32 33" fill="none" xmlns="http://www.w3.org/2000/svg">
<rect y="0.801514" width="32" height="32" rx="16" fill="#FE6375"/>
<path d="M16.0007 8.88507C17.9808 11.0529 19.1062 13.8663 19.1673 16.8017C19.1062 19.7372 17.9808 22.5505 16.0007 24.7184M16.0007 8.88507C14.0205 11.0529 12.8951 13.8663 12.834 16.8017C12.8951 19.7372 14.0205 22.5505 16.0007 24.7184M16.0007 8.88507C11.6284 8.88507 8.08398 12.4295 8.08398 16.8017C8.08398 21.174 11.6284 24.7184 16.0007 24.7184M16.0007 8.88507C20.3729 8.88507 23.9173 12.4295 23.9173 16.8017C23.9173 21.174 20.3729 24.7184 16.0007 24.7184M8.47983 14.4267H23.5215M8.47982 19.1767H23.5215" stroke="white" stroke-width="1.5" stroke-linecap="round" stroke-linejoin="round"/>
</svg>
