<svg width="34" height="33" viewBox="0 0 34 33" fill="none" xmlns="http://www.w3.org/2000/svg">
<rect x="0.599609" y="0.64563" width="32" height="32" rx="16" transform="rotate(-1 0.599609 0.64563)" fill="#41240F"/>
<path d="M16.7477 8.99153C19.1329 8.94989 19.4582 8.94421 20.4339 8.92718C21.3012 8.91204 21.7387 9.12131 22.0658 9.22405C22.5033 9.43331 22.8304 9.53605 23.1614 9.85563C23.4923 10.1752 23.7148 10.4967 23.8308 10.9284C23.9449 11.2518 24.0609 11.6836 24.1844 12.549C24.2015 13.5248 24.2053 13.7416 24.2488 16.2352C24.2923 18.7288 24.2961 18.9456 24.3131 19.9214C24.3283 20.7887 24.119 21.2262 24.0163 21.5533C23.807 21.9908 23.7043 22.3179 23.3847 22.6489C23.0651 22.9798 22.7436 23.2023 22.3119 23.3183C21.9885 23.4324 21.5567 23.5484 20.6913 23.6719C19.7155 23.689 19.4987 23.6927 17.0051 23.7363C14.5115 23.7798 14.2947 23.7836 13.3189 23.8006C12.4516 23.8158 12.0141 23.6065 11.687 23.5037C11.2495 23.2945 10.9224 23.1917 10.5914 22.8722C10.2605 22.5526 10.038 22.2311 9.92201 21.7993C9.80792 21.476 9.69193 21.0442 9.56838 20.1788C9.55134 19.203 9.54756 18.9862 9.50403 16.4926C9.46051 13.999 9.45672 13.7822 9.43969 12.8064C9.42455 11.9391 9.63382 11.5016 9.73656 11.1745C9.94582 10.737 10.0486 10.4099 10.3681 10.0789C10.6877 9.74801 11.0092 9.52549 11.441 9.40951C11.7643 9.29541 12.1961 9.17942 13.0615 9.05587C14.0373 9.03884 14.3625 9.03316 16.7477 8.99153ZM16.7193 7.36527C14.2257 7.40879 14.0089 7.41258 13.0331 7.42961C12.0574 7.44664 11.4107 7.67483 10.8724 7.90113C10.3341 8.12742 9.79766 8.46214 9.26504 9.01369C8.73242 9.56524 8.52315 10.0027 8.20925 10.6589C8.00188 11.2047 7.90482 11.8571 7.81343 12.8348C7.83046 13.8105 7.83614 14.1358 7.87777 16.521C7.9213 19.0146 7.92509 19.2314 7.94212 20.2072C7.95915 21.1829 8.18734 21.8296 8.41364 22.3679C8.63993 22.9062 8.97465 23.4426 9.52619 23.9753C10.0777 24.5079 10.5152 24.7172 11.1714 25.0311C11.7172 25.2384 12.3696 25.3355 13.3473 25.4269C14.323 25.4098 14.6483 25.4042 17.0335 25.3625C19.4187 25.3209 19.7439 25.3152 20.7197 25.2982C21.6954 25.2812 22.3421 25.053 22.8804 24.8267C23.4187 24.6004 23.9551 24.2657 24.4878 23.7141C25.0204 23.1626 25.2297 22.7251 25.5436 22.0689C25.7509 21.5231 25.848 20.8707 25.9394 19.893C25.9223 18.9173 25.9167 18.592 25.875 16.2068C25.8334 13.8216 25.8277 13.4964 25.8107 12.5206C25.7937 11.5449 25.5655 10.8982 25.3392 10.3599C25.1129 9.82156 24.7782 9.28516 24.2266 8.75253C23.6751 8.21991 23.2376 8.01064 22.5814 7.69675C22.0356 7.48937 21.3832 7.39231 20.4055 7.30092C19.4298 7.31796 19.2129 7.32174 16.7193 7.36527Z" fill="#FEDB75"/>
<path d="M16.795 11.702C14.193 11.7474 12.169 13.8433 12.2145 16.4453C12.2599 19.0473 14.3558 21.0713 16.9578 21.0258C19.5598 20.9804 21.5838 18.8845 21.5383 16.2825C21.4929 13.6805 19.397 11.6565 16.795 11.702ZM16.9294 19.3996C15.3031 19.428 13.871 18.1516 13.8407 16.4169C13.8123 14.7906 15.0887 13.3585 16.8234 13.3282C18.4497 13.2998 19.8818 14.5762 19.9121 16.3109C19.9405 17.9372 18.5557 19.3712 16.9294 19.3996Z" fill="#FEDB75"/>
<path d="M21.5824 12.5944C22.1812 12.584 22.6581 12.0901 22.6477 11.4913C22.6372 10.8926 22.1433 10.4156 21.5446 10.4261C20.9458 10.4366 20.4689 10.9304 20.4793 11.5292C20.4898 12.128 20.9836 12.6049 21.5824 12.5944Z" fill="#FEDB75"/>
</svg>
