<svg width="32" height="33" viewBox="0 0 32 33" fill="none" xmlns="http://www.w3.org/2000/svg">
<rect y="0.801514" width="32" height="32" rx="16" fill="#FE6375"/>
<path d="M16 9.42802C18.3855 9.42802 18.7108 9.42802 19.6867 9.42802C20.5542 9.42802 20.988 9.64489 21.3133 9.75332C21.747 9.97019 22.0723 10.0786 22.3976 10.4039C22.7229 10.7292 22.9398 11.0545 23.0482 11.4883C23.1566 11.8136 23.2651 12.2473 23.3735 13.1148C23.3735 14.0907 23.3735 14.3075 23.3735 16.8015C23.3735 19.2955 23.3735 19.5124 23.3735 20.4883C23.3735 21.3557 23.1566 21.7895 23.0482 22.1148C22.8313 22.5485 22.7229 22.8738 22.3976 23.1991C22.0723 23.5244 21.747 23.7413 21.3133 23.8497C20.988 23.9581 20.5542 24.0666 19.6867 24.175C18.7108 24.175 18.494 24.175 16 24.175C13.506 24.175 13.2892 24.175 12.3133 24.175C11.4458 24.175 11.012 23.9581 10.6867 23.8497C10.253 23.6328 9.92771 23.5244 9.60241 23.1991C9.27711 22.8738 9.06024 22.5485 8.95181 22.1148C8.84337 21.7895 8.73494 21.3557 8.62651 20.4883C8.62651 19.5124 8.62651 19.2955 8.62651 16.8015C8.62651 14.3075 8.62651 14.0907 8.62651 13.1148C8.62651 12.2473 8.84337 11.8136 8.95181 11.4883C9.16868 11.0545 9.27711 10.7292 9.60241 10.4039C9.92771 10.0786 10.253 9.86176 10.6867 9.75332C11.012 9.64489 11.4458 9.53645 12.3133 9.42802C13.2892 9.42802 13.6145 9.42802 16 9.42802ZM16 7.80151C13.506 7.80151 13.2892 7.80151 12.3133 7.80151C11.3374 7.80151 10.6867 8.01838 10.1446 8.23525C9.60241 8.45212 9.06024 8.77742 8.51807 9.31959C7.9759 9.86176 7.75904 10.2955 7.43374 10.9461C7.21687 11.4883 7.10843 12.1389 7 13.1148C7 14.0907 7 14.416 7 16.8015C7 19.2955 7 19.5124 7 20.4883C7 21.4642 7.21687 22.1148 7.43374 22.6569C7.6506 23.1991 7.9759 23.7413 8.51807 24.2834C9.06024 24.8256 9.49398 25.0425 10.1446 25.3678C10.6867 25.5847 11.3374 25.6931 12.3133 25.8015C13.2892 25.8015 13.6145 25.8015 16 25.8015C18.3855 25.8015 18.7108 25.8015 19.6867 25.8015C20.6627 25.8015 21.3133 25.5847 21.8554 25.3678C22.3976 25.1509 22.9398 24.8256 23.4819 24.2834C24.0241 23.7413 24.241 23.3075 24.5663 22.6569C24.7831 22.1148 24.8916 21.4642 25 20.4883C25 19.5124 25 19.1871 25 16.8015C25 14.416 25 14.0907 25 13.1148C25 12.1389 24.7831 11.4883 24.5663 10.9461C24.3494 10.4039 24.0241 9.86176 23.4819 9.31959C22.9398 8.77742 22.506 8.56055 21.8554 8.23525C21.3133 8.01838 20.6627 7.90995 19.6867 7.80151C18.7108 7.80151 18.494 7.80151 16 7.80151Z" fill="white"/>
<path d="M16 12.1389C13.3976 12.1389 11.3373 14.1991 11.3373 16.8015C11.3373 19.4039 13.3976 21.4642 16 21.4642C18.6024 21.4642 20.6627 19.4039 20.6627 16.8015C20.6627 14.1991 18.6024 12.1389 16 12.1389ZM16 19.8377C14.3735 19.8377 12.9639 18.5365 12.9639 16.8015C12.9639 15.175 14.2651 13.7654 16 13.7654C17.6265 13.7654 19.0361 15.0666 19.0361 16.8015C19.0361 18.428 17.6265 19.8377 16 19.8377Z" fill="white"/>
<path d="M20.7711 13.1148C21.3699 13.1148 21.8554 12.6293 21.8554 12.0304C21.8554 11.4316 21.3699 10.9461 20.7711 10.9461C20.1722 10.9461 19.6867 11.4316 19.6867 12.0304C19.6867 12.6293 20.1722 13.1148 20.7711 13.1148Z" fill="white"/>
</svg>
