<svg width="34" height="33" viewBox="0 0 34 33" fill="none" xmlns="http://www.w3.org/2000/svg">
<rect x="1.25391" y="0.161621" width="32" height="32" rx="16" transform="rotate(1 1.25391 0.161621)" fill="#FFB93E"/>
<path d="M17.1011 9.06604C19.4863 9.10768 19.8115 9.11336 20.7873 9.13039C21.6546 9.14553 22.0845 9.36993 22.4079 9.48403C22.8378 9.70843 23.1611 9.82253 23.4807 10.1535C23.8003 10.4844 24.0114 10.8134 24.1123 11.249C24.215 11.5761 24.3159 12.0117 24.4091 12.8809C24.3921 13.8567 24.3883 14.0735 24.3448 16.5671C24.3013 19.0607 24.2975 19.2775 24.2804 20.2533C24.2653 21.1206 24.0409 21.5505 23.9268 21.8739C23.7024 22.3038 23.5883 22.6271 23.2574 22.9467C22.9265 23.2663 22.5974 23.4774 22.1619 23.5783C21.8347 23.681 21.3991 23.7819 20.5299 23.8751C19.5542 23.8581 19.3373 23.8543 16.8437 23.8108C14.3501 23.7673 14.1333 23.7635 13.1575 23.7464C12.2902 23.7313 11.8603 23.5069 11.537 23.3928C11.1071 23.1684 10.7837 23.0543 10.4641 22.7234C10.1446 22.3925 9.93342 22.0634 9.83257 21.6279C9.72983 21.3007 9.62898 20.8651 9.5357 19.9959C9.55274 19.0202 9.55652 18.8033 9.60005 16.3097C9.64357 13.8161 9.64736 13.5993 9.66439 12.6235C9.67953 11.7562 9.90393 11.3263 10.018 11.003C10.2424 10.5731 10.3565 10.2497 10.6875 9.93015C11.0184 9.61057 11.3474 9.39942 11.783 9.29857C12.1101 9.19583 12.5457 9.09498 13.4149 9.0017C14.3907 9.01873 14.7159 9.02441 17.1011 9.06604ZM17.1295 7.43979C14.6359 7.39626 14.4191 7.39248 13.4433 7.37544C12.4675 7.35841 11.8133 7.56389 11.2674 7.77126C10.7215 7.97864 10.1738 8.29443 9.62221 8.82705C9.07066 9.35967 8.84625 9.78956 8.50965 10.4344C8.28335 10.9727 8.16358 11.6213 8.03813 12.5952C8.0211 13.5709 8.01542 13.8962 7.97379 16.2813C7.93026 18.7749 7.92648 18.9918 7.90945 19.9675C7.89241 20.9433 8.09789 21.5976 8.30527 22.1434C8.51264 22.6893 8.82843 23.2371 9.36105 23.7886C9.89368 24.3402 10.3236 24.5646 10.9684 24.9012C11.5067 25.1275 12.1553 25.2473 13.1292 25.3727C14.1049 25.3897 14.4302 25.3954 16.8153 25.437C19.2005 25.4787 19.5258 25.4844 20.5015 25.5014C21.4773 25.5184 22.1316 25.3129 22.6774 25.1056C23.2233 24.8982 23.7711 24.5824 24.3226 24.0498C24.8742 23.5172 25.0986 23.0873 25.4352 22.4424C25.6615 21.9041 25.7813 21.2555 25.9067 20.2817C25.9237 19.3059 25.9294 18.9807 25.971 16.5955C26.0127 14.2103 26.0184 13.8851 26.0354 12.9093C26.0524 11.9335 25.8469 11.2793 25.6396 10.7334C25.4322 10.1875 25.1164 9.63975 24.5838 9.08821C24.0512 8.53666 23.6213 8.31225 22.9764 7.97565C22.4381 7.74935 21.7895 7.62958 20.8157 7.50413C19.8399 7.4871 19.6231 7.48331 17.1295 7.43979Z" fill="white"/>
<path d="M17.0538 11.7765C14.4518 11.7311 12.3559 13.755 12.3105 16.357C12.2651 18.9591 14.289 21.0549 16.891 21.1004C19.4931 21.1458 21.5889 19.1218 21.6344 16.5198C21.6798 13.9178 19.6558 11.8219 17.0538 11.7765ZM16.9194 19.4741C15.2932 19.4457 13.9065 18.1201 13.9367 16.3854C13.9651 14.7592 15.2907 13.3725 17.0254 13.4027C18.6517 13.4311 20.0384 14.7567 20.0081 16.4914C19.9797 18.1177 18.5457 19.5025 16.9194 19.4741Z" fill="white"/>
<path d="M21.8071 12.8355C22.4059 12.8459 22.8998 12.369 22.9102 11.7703C22.9207 11.1715 22.4437 10.6776 21.845 10.6672C21.2462 10.6567 20.7523 11.1336 20.7419 11.7324C20.7314 12.3312 21.2083 12.825 21.8071 12.8355Z" fill="white"/>
</svg>
