<svg width="72" height="72" viewBox="0 0 72 72" fill="none" xmlns="http://www.w3.org/2000/svg">
<path d="M49.9068 35.9997L59.4087 27.4143C60.1711 26.7471 59.6639 25.4434 58.6232 25.5161L45.8269 26.1706L46.4814 13.3743C46.5522 12.3852 45.2986 11.7996 44.5832 12.5888L35.9978 22.1016L27.4123 12.5888C26.7304 11.8095 25.466 12.3639 25.5141 13.3743L26.1686 26.1706L13.3723 25.5161C12.382 25.4238 11.8094 26.7338 12.5869 27.4143L22.0996 35.9997L12.5869 44.5852C11.8394 45.2393 12.3228 46.5322 13.3723 46.4834L26.1686 45.8288L25.5141 58.6252C25.4648 59.6589 26.742 60.1765 27.4123 59.4106L35.9978 49.9088L44.5832 59.4106C45.2757 60.1722 46.5542 59.6443 46.4814 58.6252L45.8269 45.8288L58.6232 46.4834C59.6785 46.5325 60.168 45.2496 59.4087 44.5852L49.9068 35.9997ZM44.736 43.5925C44.4306 43.5815 44.1251 43.6906 43.9069 43.9088C43.6886 44.1271 43.5796 44.4324 43.5905 44.7379L44.1469 55.6797L36.8051 47.5415C36.4014 47.0833 35.6052 47.0833 35.1906 47.5415L27.8488 55.6797L28.4052 44.7379C28.427 44.4325 28.3071 44.1271 28.0888 43.9088C27.8816 43.7016 27.6088 43.5925 27.3252 43.5925H27.2597L16.3288 44.1488L24.4561 36.807C24.6852 36.5998 24.8161 36.3052 24.8161 35.9997C24.8161 35.6943 24.6851 35.3997 24.4561 35.1924L16.3288 27.8505L27.2597 28.407C27.5761 28.4288 27.8706 28.3089 28.0888 28.0906C28.3071 27.8724 28.427 27.567 28.4052 27.2615L27.8488 16.3197L35.1906 24.4579C35.3978 24.687 35.6925 24.8179 35.9979 24.8179C36.3142 24.8179 36.5979 24.6869 36.8052 24.4579L44.1471 16.3197L43.5906 27.2615C43.5797 27.5669 43.6887 27.8724 43.907 28.0906C44.1252 28.3089 44.4306 28.4288 44.7361 28.407L55.6779 27.8505L47.5506 35.1924C47.3215 35.3996 47.1797 35.6942 47.1797 35.9997C47.1797 36.3052 47.3216 36.5997 47.5506 36.807L55.6779 44.1488L44.736 43.5925Z" fill="#FFB93E"/>
<path d="M35.2289 14.4269C35.442 14.64 35.7211 14.7465 36.0002 14.7465C36.2793 14.7465 36.5584 14.64 36.7715 14.4269L43.0539 8.14456C43.48 7.71841 43.48 7.02811 43.0539 6.60195L36.7715 0.319613C36.3454 -0.106538 35.6551 -0.106538 35.2289 0.319613L28.9466 6.60195C28.5204 7.02811 28.5204 7.71841 28.9466 8.14456L35.2289 14.4269ZM36.0002 2.63351L40.74 7.37326L36.0002 12.113L31.2605 7.37326L36.0002 2.63351Z" fill="#FFB93E"/>
<path d="M36.7715 57.573C36.3454 57.1469 35.6551 57.1469 35.2289 57.573L28.9466 63.8554C28.5204 64.2815 28.5204 64.9718 28.9466 65.398L35.2289 71.6803C35.6551 72.1065 36.3454 72.1065 36.7715 71.6803L43.0539 65.398C43.48 64.9718 43.48 64.2815 43.0539 63.8554L36.7715 57.573ZM36.0002 69.3664L31.2605 64.6267L36.0002 59.887L40.74 64.6268L36.0002 69.3664Z" fill="#FFB93E"/>
<path d="M61.7786 11.3123V20.2033C61.7786 20.8033 61.2876 21.2943 60.6877 21.2943H51.8077C51.1968 21.2943 50.7168 20.8033 50.7168 20.2033V11.3123C50.7168 10.7124 51.1968 10.2214 51.8077 10.2214H60.6877C61.2878 10.2214 61.7786 10.7124 61.7786 11.3123Z" fill="#FFB93E"/>
<path d="M21.2923 51.7961V60.6871C21.2923 61.2871 20.8013 61.778 20.2014 61.778H11.3214C10.7105 61.778 10.2305 61.2871 10.2305 60.6871V51.7961C10.2305 49.8788 12.8822 51.0656 20.2014 50.7052C20.8013 50.7052 21.2923 51.1961 21.2923 51.7961Z" fill="#FFB93E"/>
<path d="M71.6828 35.2289L65.4004 28.9466C64.9743 28.5204 64.284 28.5204 63.8578 28.9466L57.5755 35.2289C57.1493 35.6551 57.1493 36.3454 57.5755 36.7715L63.8578 43.0539C64.284 43.48 64.9743 43.48 65.4004 43.0539L71.6828 36.7715C72.1089 36.3454 72.1089 35.6551 71.6828 35.2289ZM64.6291 40.74L59.8895 36.0002L64.6292 31.2605L69.3689 36.0002L64.6291 40.74Z" fill="#FFB93E"/>
<path d="M14.4269 35.2289L8.14456 28.9466C7.71841 28.5204 7.02811 28.5204 6.60196 28.9466L0.319613 35.2289C-0.106538 35.6551 -0.106538 36.3454 0.319613 36.7715L6.60196 43.0539C6.81503 43.2669 7.09414 43.3735 7.37326 43.3735C7.65237 43.3735 7.93148 43.2669 8.14456 43.0539L14.4269 36.7715C14.8531 36.3454 14.8531 35.6551 14.4269 35.2289ZM7.37326 40.7399L2.63351 36.0002L7.37326 31.2605L12.1129 36.0002L7.37326 40.7399Z" fill="#FFB93E"/>
<path d="M61.7786 51.796V60.687C61.7786 61.2869 61.2876 61.7779 60.6877 61.7779H51.8077C51.1968 61.7779 50.7168 61.2869 50.7168 60.687V51.796C50.7168 51.196 51.1968 50.7051 51.8077 50.7051H60.6877C61.2878 50.7051 61.7786 51.1959 61.7786 51.796Z" fill="#FFB93E"/>
<path d="M21.2923 11.3123V20.2033C21.2923 20.8033 20.8013 21.2943 20.2014 21.2943H11.3214C10.7105 21.2943 10.2305 20.8033 10.2305 20.2033V11.3123C10.2305 10.7124 10.7105 10.2214 11.3214 10.2214H20.2014C20.8013 10.2214 21.2923 10.7124 21.2923 11.3123Z" fill="#FFB93E"/>
<path d="M42.598 36.5453L39.7726 41.4325C39.5763 41.7707 39.2161 41.9779 38.8235 41.9779H33.1726C32.7908 41.9779 32.4308 41.7707 32.2344 41.4325L29.409 36.5453C29.2126 36.2071 29.2126 35.7925 29.409 35.4544L32.2344 30.5671C32.4307 30.229 32.7908 30.0217 33.1726 30.0217H38.8235C39.2163 30.0217 39.5763 30.229 39.7726 30.5671L42.598 35.4544C42.7835 35.7925 42.7835 36.2071 42.598 36.5453Z" fill="#FFB93E"/>
</svg>
