<svg width="72" height="65" viewBox="0 0 72 65" fill="none" xmlns="http://www.w3.org/2000/svg">
<path d="M50.7182 32.8746C46.1821 36.983 46.3793 37.2367 45.6451 37.2367C45.1047 37.2367 44.6934 36.8441 44.6934 36.3831V28.1882C44.6934 27.8382 44.9313 27.5224 45.293 27.3943C45.6452 27.2663 46.064 27.3431 46.3305 27.5992L50.7182 31.688C51.0703 32.0209 51.0703 32.5416 50.7182 32.8746Z" fill="#FFB93E"/>
<path d="M27.3065 28.1877V36.3826C27.3065 36.8447 26.894 37.2362 26.3548 37.2362C26.0978 37.2362 25.8503 37.1509 25.6694 36.9801L21.2817 32.8741C20.9295 32.5412 20.9295 32.0205 21.2817 31.6876L25.6694 27.5987C25.9359 27.3426 26.3452 27.2657 26.7069 27.3939C27.0686 27.5219 27.3065 27.8377 27.3065 28.1877Z" fill="#FFB93E"/>
<path d="M41.2294 41.5558L36.6607 45.4825C36.4798 45.6447 36.2419 45.7215 36.004 45.7215C35.766 45.7215 35.5281 45.6448 35.3472 45.4825L30.769 41.5558C30.4929 41.3168 30.3977 40.9412 30.5405 40.6169C30.6928 40.301 31.0355 40.0876 31.4257 40.0876H40.5725C41.4186 40.0875 41.8471 41.0208 41.2294 41.5558Z" fill="#FFB93E"/>
<path d="M41.4481 23.9541C41.3053 24.2785 40.9626 24.4919 40.5725 24.4919H31.4257C31.0355 24.4919 30.6928 24.2785 30.5405 23.9541C30.3977 23.6297 30.4929 23.2626 30.769 23.0151L35.3472 19.0884C35.7183 18.7726 36.2989 18.7726 36.6606 19.0884L41.2293 23.0151C41.5051 23.2626 41.6003 23.6297 41.4481 23.9541Z" fill="#FFB93E"/>
<path d="M40.7915 32.2861C40.7915 32.4529 40.7158 32.6073 40.5918 32.7246L36.4876 36.3994C36.3567 36.5229 36.1777 36.5847 35.9986 36.5847C35.8265 36.5847 35.6474 36.523 35.5166 36.3994L31.4123 32.7246C31.1438 32.4838 31.1438 32.0946 31.4123 31.8476L35.5166 28.1728C35.7851 27.932 36.219 27.932 36.4876 28.1728L40.5918 31.8476C40.7158 31.9649 40.7915 32.1255 40.7915 32.2861Z" fill="#FFB93E"/>
<path d="M54.9176 56.6861C54.532 56.4262 53.9972 56.4262 53.6115 56.6861L45.1325 62.374L36.6534 56.6861C36.2656 56.4262 35.7329 56.4262 35.3473 56.6861L26.8693 62.374L18.3902 56.6861C18.0024 56.4262 17.4719 56.4262 17.0841 56.6861L7.95197 62.8121C7.11283 63.3749 7.55991 64.574 8.60504 64.574C22.9589 64.574 53.8719 64.574 63.3958 64.574C64.4396 64.574 64.8891 63.3757 64.0489 62.8121L54.9176 56.6861ZM11.8852 62.6172L17.7371 58.6912L23.5891 62.6172H11.8852ZM30.1484 62.6172L36.0004 58.6917L41.8523 62.6172H30.1484ZM48.4126 62.6172L54.2646 58.6917L60.1165 62.6172H48.4126Z" fill="#FFB93E"/>
<path d="M17.0839 7.88784C17.2777 8.0178 17.5068 8.08278 17.7369 8.08278C17.967 8.08278 18.1961 8.0178 18.39 7.88784L26.869 2.19996L35.3471 7.88784C35.5399 8.0178 35.7701 8.08278 36.0001 8.08278C36.2302 8.08278 36.4604 8.0178 36.6532 7.88784L45.1323 2.19996L53.6113 7.88784C53.8051 8.0178 54.0342 8.08278 54.2644 8.08278C54.4945 8.08278 54.7246 8.0178 54.9174 7.88784L64.0485 1.76187C64.8877 1.19906 64.4406 0 63.3955 0C49.0412 0 18.1289 0 8.60483 0C8.13503 0 7.71844 0.2699 7.56926 0.669756C7.42121 1.06961 7.57567 1.50962 7.95176 1.76187L17.0839 7.88784ZM60.1164 1.9568L54.2644 5.88231L48.4124 1.9568H60.1164ZM41.8521 1.9568L36.0001 5.88231L30.1482 1.9568H41.8521ZM23.5889 1.9568L17.7369 5.88281L11.885 1.9568H23.5889Z" fill="#FFB93E"/>
<path d="M8.79551 48.0803L2.45341 40.4767L8.79551 32.8731C9.08531 32.5253 9.08531 32.0486 8.79551 31.7008L2.45341 24.0971L8.79551 16.493C9.08531 16.1452 9.08531 15.6685 8.79551 15.3207L1.96448 7.13088C1.34044 6.38272 0 6.77622 0 7.71719C0 17.8369 0 40.0372 0 56.8569C0 57.8022 1.34179 58.19 1.96448 57.4431L8.79551 49.2528C9.08531 48.905 9.08531 48.4281 8.79551 48.0803ZM2.18183 37.5353V27.0386L6.55934 32.287L2.18183 37.5353ZM2.18183 10.6585L6.55934 15.9069L2.18183 21.1558V10.6585ZM2.18183 53.9154V43.4182L6.55934 48.6665L2.18183 53.9154Z" fill="#FFB93E"/>
<path d="M70.0355 7.13118L63.2056 15.321C62.9158 15.6688 62.9158 16.1455 63.2056 16.4933L69.5467 24.0975L63.2056 31.7011C62.9158 32.0489 62.9158 32.5256 63.2056 32.8734L69.5467 40.477L63.2056 48.0806C62.9158 48.4284 62.9158 48.9052 63.2056 49.2529C70.2921 57.51 69.9184 57.8355 70.9091 57.8355C71.5073 57.8354 72 57.4007 72 56.857C72 43.9834 72 16.259 72 7.71729C72 6.77723 70.6598 6.38141 70.0355 7.13118ZM69.8182 10.6593V21.1555L65.4417 15.9071L69.8182 10.6593ZM69.8182 27.0393V37.5351L65.4418 32.2872L69.8182 27.0393ZM69.8182 53.9151L65.4417 48.6667L69.8182 43.4189V53.9151Z" fill="#FFB93E"/>
<path d="M60.1152 24.0962H53.1661V17.8638C53.1661 17.3257 52.686 16.8854 52.0751 16.8854H45.1369V10.653C45.1369 10.1149 44.646 9.67456 44.046 9.67456H27.9551C27.3551 9.67456 26.8641 10.1149 26.8641 10.653V16.8854H19.915C19.3149 16.8854 18.8241 17.3257 18.8241 17.8638V24.0962H11.8858C11.275 24.0962 10.7949 24.5365 10.7949 25.0746V39.4961C10.7949 40.0342 11.275 40.4745 11.8858 40.4745H18.8241V46.707C18.8241 47.245 19.3149 47.6854 19.915 47.6854H26.8641V53.9178C26.8641 54.4559 27.3551 54.8962 27.9551 54.8962H44.046C44.646 54.8962 45.1369 54.4559 45.1369 53.9178V47.6854H52.0751C52.686 47.6854 53.1661 47.245 53.1661 46.707V40.4745H60.1152C60.7261 40.4745 61.2061 40.0342 61.2061 39.4961V25.0746C61.2061 24.5365 60.7261 24.0962 60.1152 24.0962ZM36.006 52.5382C35.8885 52.4323 28.7258 45.9723 28.6096 45.9144C28.4929 45.8093 20.6866 38.7619 20.5695 38.7036L13.4241 32.2853C43.8151 5.02854 22.6203 24.0399 36.0059 12.0423C46.6029 21.5463 41.1668 16.6709 58.5769 32.2853C56.4659 34.1788 41.6487 47.4749 36.006 52.5382Z" fill="#FFB93E"/>
</svg>
