<svg width="72" height="72" viewBox="0 0 72 72" fill="none" xmlns="http://www.w3.org/2000/svg">
<path d="M12 72.0001H35.9998L24.0045 59.8123L12 72.0001Z" fill="#FFB93E"/>
<path d="M59.9998 71.9999L48.0046 59.812L36 71.9999H59.9998Z" fill="#FFB93E"/>
<path d="M0 59.812H23.9997L12.0045 47.624L0 59.812Z" fill="#FFB93E"/>
<path d="M36.0046 47.624L24 59.812H24.0047H47.9999L36.0046 47.624Z" fill="#FFB93E"/>
<path d="M60.0046 47.6243L48 59.8122H48.0047H71.9998L60.0046 47.6243Z" fill="#FFB93E"/>
<path d="M59.9998 0H36L47.9953 12.1878L59.9998 0Z" fill="#FFB93E"/>
<path d="M12 0L23.9952 12.1878L35.9998 0H12Z" fill="#FFB93E"/>
<path d="M71.9998 12.1877H48L59.9953 24.3757L71.9998 12.1877Z" fill="#FFB93E"/>
<path d="M35.9954 24.3757L47.9999 12.1877H47.9953H24L35.9954 24.3757Z" fill="#FFB93E"/>
<path d="M11.9952 24.3757L23.9997 12.1877H23.9951H0L11.9952 24.3757Z" fill="#FFB93E"/>
<path d="M23.9997 33.2036C26.6455 33.2036 28.7904 31.026 28.7904 28.3397C28.7904 25.6535 26.6455 23.4758 23.9997 23.4758C21.3539 23.4758 19.209 25.6535 19.209 28.3397C19.209 31.026 21.3539 33.2036 23.9997 33.2036Z" fill="#FFB93E"/>
<path d="M23.9997 47.624C26.6455 47.624 28.7904 45.4464 28.7904 42.7601C28.7904 40.0739 26.6455 37.8962 23.9997 37.8962C21.3539 37.8962 19.209 40.0739 19.209 42.7601C19.209 45.4464 21.3539 47.624 23.9997 47.624Z" fill="#FFB93E"/>
<path d="M47.9997 33.2036C50.6455 33.2036 52.7904 31.026 52.7904 28.3397C52.7904 25.6535 50.6455 23.4758 47.9997 23.4758C45.3539 23.4758 43.209 25.6535 43.209 28.3397C43.209 31.026 45.3539 33.2036 47.9997 33.2036Z" fill="#FFB93E"/>
<path d="M47.9997 47.624C50.6455 47.624 52.7904 45.4464 52.7904 42.7601C52.7904 40.0739 50.6455 37.8962 47.9997 37.8962C45.3539 37.8962 43.209 40.0739 43.209 42.7601C43.209 45.4464 45.3539 47.624 47.9997 47.624Z" fill="#FFB93E"/>
</svg>
