<svg width="120" height="86" viewBox="0 0 120 86" fill="none" xmlns="http://www.w3.org/2000/svg">
<path fill-rule="evenodd" clip-rule="evenodd" d="M0 0H119.35V85.2499H0V0Z" fill="url(#paint0_linear_503_15)"/>
<path fill-rule="evenodd" clip-rule="evenodd" d="M0 0H119.35V22.7333H0V0Z" fill="url(#paint1_linear_503_15)"/>
<path fill-rule="evenodd" clip-rule="evenodd" d="M0 62.5166H119.35V85.2499H0V62.5166Z" fill="url(#paint2_linear_503_15)"/>
<path fill-rule="evenodd" clip-rule="evenodd" d="M0 22.7333H119.35V62.5166H0V22.7333Z" fill="url(#paint3_linear_503_15)"/>
<path fill-rule="evenodd" clip-rule="evenodd" d="M31.2583 39.7833H36.9416V42.625H31.2583V39.7833Z" fill="#FFEDB1"/>
<path d="M27.9338 48.0782C28.0737 49.7576 29.588 51.1499 31.2583 51.1499C32.9307 51.1499 34.4435 49.7514 34.5829 48.0782L35.2742 39.7833H27.2425L27.9338 48.0782ZM24.3888 39.7571C24.2592 38.2022 25.4654 36.9416 27.0295 36.9416H35.4872C37.0752 36.9416 38.2603 38.1678 38.1279 39.7571L37.4148 48.3142C37.1535 51.4497 34.419 53.9916 31.2583 53.9916C28.1195 53.9916 25.3654 51.4758 25.1019 48.3142L24.3888 39.7571Z" fill="#A41517"/>
<path fill-rule="evenodd" clip-rule="evenodd" d="M25.575 42.625H36.9416V45.4666H34.0999L31.2583 51.1499L28.4166 45.4666H25.575V42.625Z" fill="#A41517"/>
<path fill-rule="evenodd" clip-rule="evenodd" d="M17.05 34.1H22.7333V53.9916H17.05V34.1Z" fill="#A41517"/>
<path fill-rule="evenodd" clip-rule="evenodd" d="M39.7833 34.1H45.4666V53.9916H39.7833V34.1Z" fill="#A41517"/>
<path fill-rule="evenodd" clip-rule="evenodd" d="M25.575 31.2583C25.575 29.6889 26.7914 28.4166 28.4432 28.4166H34.0733C35.6574 28.4166 36.9416 29.7348 36.9416 31.2583V32.6658C36.9416 33.4579 36.3305 34.1 35.5478 34.1H26.9687C26.199 34.1 25.575 33.4918 25.575 32.6658V31.2583Z" fill="#A41517"/>
<defs>
<linearGradient id="paint0_linear_503_15" x1="1253.17" y1="0" x2="1253.17" y2="1278.75" gradientUnits="userSpaceOnUse">
<stop stop-color="white"/>
<stop offset="1" stop-color="#F0F0F0"/>
</linearGradient>
<linearGradient id="paint1_linear_503_15" x1="1253.17" y1="0" x2="1253.17" y2="341" gradientUnits="userSpaceOnUse">
<stop stop-color="#DD172C"/>
<stop offset="1" stop-color="#C60B1F"/>
</linearGradient>
<linearGradient id="paint2_linear_503_15" x1="1253.17" y1="62.5166" x2="1253.17" y2="403.516" gradientUnits="userSpaceOnUse">
<stop stop-color="#DD172C"/>
<stop offset="1" stop-color="#C60B1F"/>
</linearGradient>
<linearGradient id="paint3_linear_503_15" x1="1253.17" y1="22.7333" x2="1253.17" y2="619.483" gradientUnits="userSpaceOnUse">
<stop stop-color="#FFD133"/>
<stop offset="1" stop-color="#FFC500"/>
</linearGradient>
</defs>
</svg>
